<svg role="img" version="1.1" id="レイヤー_4"
 xmlns="http://www.w3.org/2000/svg" xmlns:xlink="http://www.w3.org/1999/xlink" x="0px" y="0px" viewBox="0 0 400 400"
 style="enable-background:new 0 0 400 400;" xml:space="preserve"><title>Exploración de un niño</title><desc>Escena de exploración: una persona adulta valora a un niño que permanece acompañado.</desc><style type="text/css">
	.st0{fill:#E7D7C5;}
	.st1{fill:#66615D;}
	.st2{fill:#E3E3E3;}
	.st3{fill:#5E5E5E;}
	.st4{fill:#39332E;}
	.st5{fill:#948F86;}
	.st6{fill:#CACCCB;}
	.st7{fill:#EDEDED;}
	.st8{fill:#513F34;}
	.st9{fill:#494949;}
	.st10{fill:#848574;}
	.st11{fill:#B4B4A9;}
	.st12{fill:#C9C9B8;}
	.st13{fill:#544D47;}
	.st14{fill:#CCC6B6;}
	.st15{fill:#9C9C9C;}
</style><g><g><g><g><path class="st0" d="M323.01,326.87c0.05,0.62,0.1,1.27,0.39,1.81c0.31,0.57,0.86,0.94,1.41,1.24
 c2.07,1.14,4.44,1.61,6.74,1.34c1.56-0.18,3.2-0.79,4.09-2.19c0.58-0.91,0.78-2.04,0.94-3.13c0.91-5.91,1.46-11.88,1.64-17.87
 c0.01-0.26,0-0.55-0.18-0.72c-0.16-0.15-0.39-0.15-0.6-0.13c-2.79,0.17-5.58,0.41-8.36,0.71c-1.78,0.19-5.55-0.16-6.78,1.55
 c-1.2,1.66-0.17,5.53-0.03,7.44C322.53,320.23,322.77,323.55,323.01,326.87z"/><path class="st1" d="M313.37,319.97c-2.32-0.18-4.89,0.02-6.93,1.24s-3.42,3.31-2.99,5.81c0.45,2.59,2.69,4.27,4.74,5.66
 c4.2,2.85,8.47,5.73,13.19,7.32s10.05,1.78,14.46-0.66c1.02-0.56,2.01-1.3,2.54-2.4c0.48-0.99,0.54-2.16,0.51-3.28
 c-0.06-2.41-0.26-4.33-0.99-6.61c-0.17-0.52-0.44-1.58-0.95-1.64c-0.39-0.04-0.93,0.25-1.23,0.53
 c-2.38,2.16-4.64,2.71-7.72,2.67c-2.24-0.03-4.05-0.95-4.49-2.55c-0.6-2.19-0.67-5.69-0.67-5.69S314.55,320.06,313.37,319.97z"
 /></g><g><path class="st0" d="M292.33,331.83c0.29,3,0.76,6.36,3.08,8.17c2.19,1.71,5.27,1.38,7.86,0.46c0.9-0.32,1.8-0.72,2.45-1.45
 c0.94-1.05,1.16-2.57,1.32-4c0.68-6.07,0.99-12.18,0.92-18.29c0-0.35-0.01-0.71-0.17-1.01c-0.27-0.54-0.9-0.74-1.46-0.88
 c-3.09-0.79-13.35-3.61-15.24,0.08c-0.82,1.61,0.07,4.84,0.24,6.53C291.66,324.9,291.99,328.36,292.33,331.83z"/><path class="st1" d="M280.75,327.26c-3.27-0.65-7.12-0.95-10.36-0.15c-3.23,0.81-4.96,2.62-5.17,6.07
 c-0.19,3.09,1.87,5.84,4.08,7.91c5.68,5.3,12.97,8.3,20.2,10.83c2.94,1.03,5.96,2.01,9.06,2.04c3.1,0.03,6.36-1.03,8.37-3.48
 c3.15-3.83,2.45-8.84,1.52-13.78c-0.1-0.55-0.24-1.14-0.47-1.66c-0.26-0.59-1.07-0.64-1.39-0.08
 c-0.88,1.55-1.58,2.38-3.42,3.36c-1.85,0.98-4.37,1.51-6.54,1.1c-1.89-0.35-3.55-2.84-3.94-5.27
 c-0.23-1.41-0.74-4.52-0.74-4.52S283.78,327.86,280.75,327.26z"/></g><ellipse class="st2" cx="348.67" cy="274.84" rx="38.84" ry="11.76"/><g id="テンプレート奥椅子_00000170267001265631195550000017593489577586694300_"><g><circle class="st3" cx="314.58" cy="375.54" r="5.29"/><circle class="st3" cx="315.58" cy="338.82" r="5.29"/><circle class="st3" cx="382.76" cy="375.54" r="5.29"/><circle class="st3" cx="382.76" cy="337.9" r="5.29"/><g><path class="st4" d="M314.58,372.63L314.58,372.63c-0.96-1.66-0.39-3.78,1.27-4.74l63.3-36.55c1.66-0.96,3.78-0.39,4.74,1.27
 h0c0.96,1.66,0.39,3.78-1.27,4.74l-63.3,36.55C317.67,374.86,315.54,374.29,314.58,372.63z"/><path class="st4" d="M379.16,373.9l-63.3-36.55c-1.66-0.96-2.23-3.08-1.27-4.74h0c0.96-1.66,3.08-2.23,4.74-1.27l63.3,36.55
 c1.66,0.96,2.23,3.08,1.27,4.74h0C382.94,374.29,380.82,374.86,379.16,373.9z"/><rect x="345.77" y="291.82" class="st4" width="6.94" height="60.8"/></g></g></g><path class="st5" d="M386.78,258.9c-0.19,5.14-1.6,10.39-4.93,14.31c-3.74,4.41-9.47,6.69-15.17,7.66
 c-5.27,0.91-10.67,0.84-16.01,1.2c-13.83-0.53-27.71-1.69-40.61-6.54c-0.06,1.86,0.13,3.71,0.51,5.51
 c10.73,6.81,22.88,11.33,35.44,13.24c0.11,3.31,0.21,6.64,0.31,9.97c0.1,2.74,0.1,5.74-1.59,7.91c-1.37,1.76-3.57,2.6-5.69,3.3
 c-12.89,4.29-26.51,6.34-40.08,6.07c-5.56-0.1-11.87-1.01-15.03-5.6c-1.9-2.76-2.21-6.29-2.46-9.64
 c-0.7-9.37-1.39-18.76-2.09-28.14c-0.41-5.69-0.83-11.41-0.13-17.06c0.71-5.66,2.63-11.3,6.37-15.58
 c6.31-7.21,16.88-9.44,26.36-7.99c2.03,0.31,4.06,0.79,5.86,1.79c1.56,0.89,2.89,2.14,4.24,3.31
 c8.46,7.26,19.46,11.5,30.6,11.79c8.31,0.21,23.41-8.69,29.54-14.3c2.53-2.31,3.89,0.66,4.21,6.01
 C386.64,249.17,386.87,256,386.78,258.9z"/><path class="st6" d="M387.52,282.86c0,6.5-17.39,11.76-38.84,11.76c-21.45,0-38.84-5.27-38.84-11.76v-8.02
 c0,6.5,17.39,11.76,38.84,11.76c21.45,0,38.84-5.27,38.84-11.76V282.86z"/><path class="st0" d="M321.56,96.25c-0.91,7.81-1.43,15.79,0.22,23.48c0.5,2.33,1.22,4.66,2.58,6.62
 c1.36,1.96,3.45,3.51,5.82,3.78c1.95,0.22,3.92-0.43,5.87-0.22c0.26,0.03,0.54,0.08,0.73,0.26c0.15,0.15,0.23,0.36,0.29,0.57
 c1.05,3.38,1.63,6.9,1.74,10.43c-0.02-0.28,0.34-0.41,0.63-0.44c6.76-0.77,13.93,0.11,20.11-2.76
 c-1.24-4.7-2.49-9.39-3.73-14.09c-0.15-0.57-0.3-1.17-0.16-1.74c0.17-0.7,0.74-1.23,1.26-1.72c1.4-1.31,2.75-2.71,3.68-4.39
 c0.94-1.67,1.44-3.65,1.06-5.53c-0.38-1.88-1.73-3.61-3.58-4.13c-1.85-0.51-4.08,0.44-4.72,2.24c-1.38-2.7-2.87-5.34-4.47-7.92
 c-0.96-1.55-1.97-3.09-3.25-4.39c-1.4-1.41-3.1-2.5-4.84-3.49c-2.38-1.35-4.85-2.54-7.4-3.56c-1.92-0.77-3.98-1.44-6.02-1.14
 C323.5,88.71,321.95,92.89,321.56,96.25z"/><path class="st7" d="M308.59,161.52c-3.8,6.04-5.8,13-7.66,19.89c-3.12,11.62-5.95,23.32-8.49,35.09
 c-0.67,3.1-1.31,6.28-0.84,9.41c0.48,3.13,2.32,6.25,5.29,7.35c3.64,1.36,7.7-0.65,10.62-3.22s5.35-5.79,8.78-7.61
 c-0.2,4.03-0.41,8.05-0.61,12.08c-0.13,2.56-0.25,5.2,0.59,7.62c1.41,4.06,5.21,6.77,9.01,8.78c9.24,4.9,19.79,7.31,30.25,6.93
 c7.35-0.27,14.78-1.97,20.96-5.96s10.96-10.46,11.88-17.75c0.3-2.4,0.19-4.82,0.07-7.24c-1.09-21.89-3.05-43.73-5.86-65.46
 c-0.45-3.45-0.96-7.02-2.8-9.98c-3.17-5.1-9.52-7.24-13.59-11.66c-1.54-1.67-3-3.8-5.25-4.04c-1.05-0.11-2.09,0.23-3.1,0.53
 c-8.75,2.53-18.76-0.31-26.75,4.58C322.76,145.96,313.81,153.23,308.59,161.52z"/><path class="st8" d="M350.07,76.65c-6.39-1.2-13.18-0.12-18.88,2.99c-1.65,0.9-3.21,1.97-4.55,3.28
 c-2.71,2.66-4.39,6.24-5.29,9.93c-0.91,3.69-1.09,7.52-1.17,11.32c3.07-3.22,5.54-7.01,7.24-11.12c0.93,2.52,2.76,4.6,4.66,6.51
 c4.3,4.32,9.15,8.09,14.4,11.18c0.5-1.68,2.03-3.02,3.76-3.28c0.56-0.08,1.15-0.06,1.65,0.21c0.54,0.29,0.89,0.84,1.14,1.41
 c0.93,2.16,0.52,4.76-0.76,6.73c-1.28,1.97-3.32,3.36-5.52,4.2c-0.64,5.8-4.57,13.66-7.79,18.53
 c5.13,0.51,11.96,0.35,16.92-1.05c3.05-0.86,6.47-2.5,8.72-4.73c1.89-1.88,4.6-6.6,5.67-9.04c3.57-8.11,4.34-16.79,3.82-25.64
 c-0.29-4.96-1.57-10.04-4.73-13.88c-2.24-2.71-5.55-4.67-9.07-5.05c-1.64-0.18-3.24,0.49-4.67-0.34
 C353.82,77.78,352.14,77.04,350.07,76.65z"/></g><g><path class="st7" d="M217.23,321.32c-0.15,0.22-0.31,0.47-0.24,0.72c0.08,0.29,0.42,0.41,0.71,0.48
 c4.39,0.99,8.92-0.66,13.02-2.51c0.55-0.25,1.15-0.56,1.36-1.13c0.11-0.33,0.08-0.68,0.03-1.02c-0.2-1.45-0.54-2.88-1.02-4.27
 c-3.4,0.53-6.85,0.95-10.23,1.6c-1.27,0.25-1.41,0.7-1.73,1.88C218.73,318.58,218.11,320.02,217.23,321.32z"/><path class="st9" d="M221.98,319c-0.36-0.38-0.89-0.52-1.4-0.62c-0.84-0.16-1.7-0.22-2.56-0.18c-0.18,0.01-0.37,0.02-0.52,0.13
 c-0.15,0.11-0.23,0.29-0.31,0.46c-1.05,2.4-2.69,4.79-5.18,5.58c-1.58,0.5-3.46,0.37-4.66,1.51c-0.49,0.47-0.8,1.09-0.99,1.74
 c-0.77,2.59,0.38,5.64,2.68,7.07c0.77,0.48,1.63,0.78,2.52,0.97c3,0.63,6.16-0.13,8.89-1.51s5.12-3.35,7.48-5.3
 c1.65-1.37,3.3-2.73,4.95-4.1c0.33-0.28,0.68-0.56,0.88-0.95c0.23-0.44,0.25-0.95,0.24-1.44c-0.01-1.6-0.19-3.2-0.54-4.76
 c-0.05-0.2-0.1-0.41-0.21-0.59c-0.24-0.37-0.73-0.51-1.17-0.46c-0.44,0.05-0.84,0.25-1.23,0.45c-1.84,0.92-3.71,1.79-5.6,2.6
 c-0.46,0.2-2.26,1.27-2.71,1.1C222.01,320.51,222.41,319.46,221.98,319z"/><path class="st9" d="M211.82,287.09c1.6,8.87,3.2,17.73,4.8,26.6c0.24,1.36,0.57,2.85,1.67,3.68c0.81,0.61,1.87,0.73,2.88,0.76
 c3.31,0.11,6.65-0.5,9.71-1.78c0.54-0.23,1.11-0.51,1.39-1.02c0.22-0.41,0.22-0.89,0.22-1.35c-0.07-8.33-0.97-16.65-2.67-24.8
 c-0.06-0.28-0.13-0.58-0.33-0.78c-0.27-0.27-0.69-0.3-1.07-0.32c-5.59-0.22-11.15-1.2-16.48-2.9c-0.06,1.62,0.13,3.24,0.54,4.8"
 /><g><ellipse class="st2" cx="235.44" cy="287.09" rx="38.84" ry="11.76"/><g id="テンプレート奥椅子_00000101795265450399692180000000536519217579928243_"><g><circle class="st3" cx="201.35" cy="387.79" r="5.29"/><circle class="st3" cx="201.35" cy="350.15" r="5.29"/><circle class="st3" cx="269.52" cy="387.79" r="5.29"/><circle class="st3" cx="269.52" cy="350.15" r="5.29"/><g><path class="st4" d="M201.35,384.89L201.35,384.89c-0.96-1.66-0.39-3.78,1.27-4.74l63.3-36.55
 c1.66-0.96,3.78-0.39,4.74,1.27l0,0c0.96,1.66,0.39,3.78-1.27,4.74l-63.3,36.55C204.43,387.12,202.3,386.55,201.35,384.89z"
 /><path class="st4" d="M265.92,386.16l-63.3-36.55c-1.66-0.96-2.23-3.08-1.27-4.74l0,0c0.96-1.66,3.08-2.23,4.74-1.27
 l63.3,36.55c1.66,0.96,2.23,3.08,1.27,4.74v0C269.7,386.55,267.58,387.12,265.92,386.16z"/><rect x="232.53" y="304.07" class="st4" width="6.94" height="60.8"/></g></g></g><path class="st6" d="M274.28,295.12c0,6.5-17.39,11.76-38.84,11.76s-38.84-5.27-38.84-11.76v-8.02
 c0,6.5,17.39,11.76,38.84,11.76s38.84-5.27,38.84-11.76V295.12z"/></g><path class="st0" d="M217.07,175.97c0.68,1.86,1.66,3.78,3.43,4.69c1.32,0.68,2.84,0.82,4.31,1.02c4.29,0.58,4.82,3.08,5.6,5.8
 c0.34,1.17,1.31,2.05,2.51,2.23c3.96,0.58,8.24,0.27,11.98-0.9c0.53-0.17,1.08-0.37,1.46-0.77c0.55-0.57,1.28-1.05,1.12-1.83
 c-0.93-4.66-1.04-8.73-1.84-12.14c-0.35-1.48-0.96-3.42-1.73-4.73c-3.87-6.53-7.91-11.33-13.85-16.05
 c-2.01-1.6-4.18-3.1-6.65-3.82c-0.89-0.26-1.85-0.41-2.73-0.12c-1.01,0.33-1.76,1.18-2.35,2.05
 C213.92,157.92,214.51,168.96,217.07,175.97z"/><path class="st8" d="M231.39,138.64c-4.36,0.99-8.07,3.83-10.88,7.19c-1.77,2.12-3.26,4.56-3.57,7.26
 c-0.55,4.83,2.77,9.29,6.52,12.54c0.49-1.79,2.55-3.04,4.44-2.68s3.31,2.26,3.05,4.1c-0.23,1.71-1.7,3.18-1.62,4.9
 c0.04,0.81,0.42,1.57,0.79,2.3c1.41,2.76,3.32,5.43,6.32,6.51c3.75,1.35,7.87,1.3,10.61-0.07c3-1.5,4.58-4.34,4.89-5.04
 c3.07-7.09,3.52-9.63,4.86-16.81c0.78-4.19,0.64-8.76-1.66-12.4c-1.1-1.73-2.76-3.16-4.67-4.02c-2.41-1.08-4.27-0.04-6.48-0.5
 c-1.79-0.37-3.46-2.41-5.43-3.02C236.27,138.17,233.74,138.1,231.39,138.64z"/><path class="st7" d="M197.46,319.68c-0.36-0.02-0.76-0.05-1.02,0.19c-0.13,0.12-0.21,0.29-0.28,0.45
 c-1.1,2.46-2.2,4.91-3.3,7.37c-0.05,0.12-0.11,0.25-0.09,0.39c0.03,0.23,0.27,0.38,0.48,0.47c1.88,0.86,4.02,1.06,6.08,0.85
 c2.06-0.21,4.06-0.81,6.02-1.5c1.52-0.53,3.05-1.13,4.28-2.17c0.37-0.31,0.73-0.71,0.78-1.19c0.03-0.3-0.06-0.6-0.15-0.88
 c-0.51-1.59-1.01-3.17-1.52-4.76c-0.12-0.39-0.37-1.89-0.77-2.02c-0.25-0.08-1.64,0.94-1.92,1.08
 C203.4,319.27,200.4,319.88,197.46,319.68z"/><path class="st9" d="M199.65,327.21c-0.62,0.19-1.38,0.32-1.84-0.13c-0.61-0.58-0.24-1.62-0.53-2.41
 c-0.4-1.06-1.77-1.28-2.9-1.33c-0.14-0.01-0.29-0.01-0.42,0.05c-0.18,0.08-0.29,0.26-0.39,0.43c-0.88,1.49-1.7,3.02-2.78,4.37
 c-1.08,1.35-2.46,2.52-4.11,3.03c-1.1,0.34-2.34,0.38-3.27,1.06c-1.29,0.93-1.58,2.74-1.38,4.31c0.28,2.22,1.45,4.44,3.45,5.43
 c1.17,0.58,2.51,0.71,3.81,0.64c4.91-0.24,9.32-2.94,13.4-5.66c2.79-1.86,5.54-3.77,8.12-5.91c0.46-0.38,0.92-0.78,1.19-1.32
 c0.25-0.51,0.3-1.09,0.31-1.66c0.03-1.75-0.28-3.51-0.88-5.15c-0.18-0.49-0.52-1.87-1.14-1.96c-0.57-0.08-1.41,1.05-1.81,1.39
 C205.89,324.58,202.88,326.23,199.65,327.21z"/><path class="st9" d="M190.86,260.02c-3.36,0.77-6.93,1.7-9.26,4.25c-1.96,2.14-2.73,5.16-2.7,8.05c0.03,2.9,0.77,5.74,1.52,8.54
 c1.09,4.1,2.17,8.19,3.26,12.29c2.32,8.74,4.65,17.53,8.32,25.79c0.34,0.76,0.7,1.54,1.29,2.14c1.05,1.07,2.64,1.41,4.13,1.5
 c3.61,0.21,7.29-0.72,10.36-2.64c0.48-0.3,0.97-0.65,1.19-1.18c0.19-0.46,0.14-0.97,0.08-1.46c-1.43-12.28-6.46-23.9-8.3-36.13
 c2.47-1,5.24-0.07,7.78,0.72c11.35,3.5,23.65,3.9,35.2,1.14c4.68-1.12,9.39-2.84,12.84-6.19c3.45-3.35,5.35-8.66,3.56-13.13
 c0.25,0.64-11.95,2.73-13.05,2.8c-4.46,0.31-8.96-0.01-13.34-0.91c-4.38-0.9-8.63-2.39-12.6-4.45
 c-2.02-1.05-3.97-2.24-5.82-3.58c-2.32-1.68-2.88-1.98-5.79-1.43C203.28,257.3,197.06,258.6,190.86,260.02z"/><path class="st10" d="M228.88,186.73c-1.5,0.16-4.73,1.81-6.23,3c-2.52,1.99-4.08,3.77-6.46,5.91
 c-1.93,1.73-3.98,4.29-5.44,6.38c-3.07,4.41-4.84,7.28-6.56,13.8c-1.42,5.4-2.73,10.82-3.93,16.27c-0.2,0.91-0.4,1.85-0.28,2.78
 c0.38,2.96,3.55,4.24,6.56,5.27c2,0.69,4.14,0.91,6.24,1.14c-0.34,4.34-0.48,8.7-0.42,13.06c0.02,1.49,0.07,3.01,0.53,4.42
 c1.27,3.93,5.32,6.21,9.2,7.64c11.67,4.3,24.92,4.19,36.51-0.31c0.99-0.39,2.02-0.84,2.65-1.69c0.73-0.99,0.78-2.3,0.81-3.53
 c0.22-9.82,0.01-19.3,0.23-29.12c0.11-5.11-0.12-9.92-0.55-15.32c-0.28-3.44-0.98-6.63-1.66-10.01
 c-0.91-4.53-1.14-7.24-2.92-11.51c-1.6-3.84-5.48-11.42-10.33-10.72c-2.7,0.39-5.77,1.25-8.55,1.59
 C235.35,186.16,231.84,186.42,228.88,186.73z"/><path class="st0" d="M199.86,250.05c-0.1,1.83-0.08,3.81,1,5.29c1.23,1.68,3.64,2.23,5.64,1.64c2-0.6,3.6-2.15,4.68-3.94
 c1.08-1.79,1.48-3.65,2.09-5.65c0.33-1.08,0.53-2.15,0.85-3.23c0.34-1.17,0.39-2.46,0.36-2.5c-0.34-0.68-1.35-0.38-1.63-0.39
 c-1.91-0.03-4.17-0.4-6.05-0.97c-2.86-0.87-5.17-2.52-5.17-2.52S199.96,248.13,199.86,250.05z"/></g><g><g><g><g id="テンプレート奥椅子_00000082360716196130771630000000775317945844420263_"><g><circle class="st3" cx="44.83" cy="300.76" r="5.14"/><circle class="st3" cx="44.83" cy="264.18" r="5.14"/><circle class="st3" cx="111.09" cy="300.76" r="5.14"/><circle class="st3" cx="111.09" cy="264.18" r="5.14"/><g><path class="st4" d="M44.83,297.93L44.83,297.93c-0.93-1.61-0.38-3.68,1.23-4.61l61.52-35.52
 c1.61-0.93,3.68-0.38,4.61,1.23l0,0c0.93,1.61,0.38,3.68-1.23,4.61l-61.52,35.52C47.83,300.1,45.76,299.55,44.83,297.93z"
 /><path class="st4" d="M107.59,299.17l-61.52-35.52c-1.61-0.93-2.17-2.99-1.23-4.61h0c0.93-1.61,2.99-2.17,4.61-1.23
 l61.52,35.52c1.61,0.93,2.17,2.99,1.23,4.61l0,0C111.26,299.55,109.2,300.1,107.59,299.17z"/><rect x="75.14" y="219.4" class="st4" width="6.75" height="59.09"/></g></g></g></g><g><path class="st11" d="M130.1,201.29c-0.08,5.68-2.93,11.31-8.55,14.56L94.62,231.4c-5.29,3.06-11.81,3.06-17.11,0
 l-26.92-15.55c-5.68-3.28-8.53-9-8.55-14.74l0-5.86c-0.01,5.77,2.84,11.55,8.55,14.85l26.92,15.55
 c5.29,3.06,11.81,3.06,17.11,0l26.92-15.55c5.83-3.37,8.68-9.32,8.55-15.21L130.1,201.29z"/><path class="st12" d="M50.59,210.11l26.92,15.55c5.29,3.06,11.81,3.06,17.11,0l26.92-15.55c11.4-6.58,11.4-23.04,0-29.63
 l-26.92-15.55c-5.29-3.06-11.81-3.06-17.11,0l-26.92,15.55C39.19,187.06,39.19,203.52,50.59,210.11z"/></g><g><path class="st4" d="M130.13,170.39c-1.41,0.86-3.04,1.35-4.73,1.37c-1.56,0.02-3.17-0.37-4.68-1.25l-16.11-9.3
 c-2.85-1.65-4.6-4.69-4.6-7.98v-18.6c0-3.66,2.05-6.62,4.88-8.13l-5.16,2.95c-2.7,1.55-4.62,4.43-4.62,7.99v18.6
 c0,3.29,1.76,6.33,4.6,7.98l16.11,9.3c1.47,0.85,3.02,1.24,4.54,1.25c1.65,0.01,3.26-0.43,4.65-1.24L130.13,170.39z"/><path class="st13" d="M130.13,170.39c2.58-1.58,4.41-4.4,4.41-7.86v-18.6c0-3.29-1.76-6.33-4.6-7.98l-16.11-9.3
 c-1.43-0.82-2.94-1.22-4.41-1.25c-1.6-0.03-3.15,0.36-4.53,1.1l-5.16,2.95c1.4-0.8,3-1.25,4.65-1.24
 c1.52,0.01,3.07,0.4,4.54,1.25l16.11,9.3c2.85,1.65,4.6,4.69,4.6,7.98v18.6c0,3.55-1.93,6.44-4.62,7.99L130.13,170.39z"/><path class="st13" d="M125.02,138.76l-16.11-9.3c-1.47-0.85-3.02-1.24-4.54-1.25c-1.65-0.01-3.25,0.43-4.65,1.24
 c-2.7,1.55-4.62,4.43-4.62,7.99v18.6c0,3.29,1.76,6.33,4.6,7.98l16.11,9.3c1.47,0.85,3.02,1.24,4.54,1.25
 c1.65,0.01,3.26-0.43,4.65-1.24c2.7-1.55,4.62-4.43,4.62-7.99v-18.6C129.62,143.44,127.87,140.4,125.02,138.76z
 M128.23,165.34c0,2.84-1.47,5.37-3.93,6.78c-1.2,0.69-2.55,1.05-3.91,1.05h-0.04c-1.35-0.01-2.64-0.37-3.85-1.06l-16.11-9.3
 c-2.41-1.39-3.91-3.99-3.91-6.77v-18.6c0-2.84,1.47-5.37,3.93-6.78c1.2-0.69,2.55-1.05,3.91-1.05
 c1.39,0.01,2.69,0.36,3.89,1.06l16.11,9.3c2.41,1.39,3.91,3.99,3.91,6.77V165.34z"/></g><g><path class="st14" d="M35.01,97.26c-9.92,5.73-18.03,19.78-18.03,31.24v11.3c0,5.77,2.06,9.82,5.37,11.69
 c3.26,1.84,7.74,1.56,12.66-1.28l25.07-14.47c9.92-5.73,18.03-19.78,18.03-31.24v-11.3c0-5.82-2.09-9.89-5.46-11.74
 c-3.26-1.79-7.7-1.49-12.58,1.33L35.01,97.26z"/><path class="st11" d="M67.25,78.34c-3.27-1.87-7.77-1.61-12.72,1.25L29.47,94.07c-9.92,5.73-18.03,19.78-18.03,31.24v11.3
 c0,5.78,2.06,9.83,5.38,11.7l5.53,3.18c-3.31-1.87-5.37-5.92-5.37-11.69v-11.3c0-11.45,8.12-25.51,18.03-31.24l25.07-14.47
 c4.88-2.82,9.32-3.11,12.58-1.33L67.25,78.34z"/></g><path class="st4" d="M41.47,225.76c-1.41,0-2.88-0.3-4.35-0.9c-1.25-0.51-2.25-1.13-3.05-1.9c-2.03-1.96-2.62-4.73-3.01-7.17
 c-0.73-4.59-1.3-9.27-1.67-13.91l4.44,0.39c0.36,4.52,0.88,8.35,1.59,12.82c0.29,1.82,0.66,3.67,1.71,4.69
 c0.38,0.37,0.92,0.69,1.64,0.99c0.93,0.38,2.32,0.76,3.67,0.47c1.29-0.28,2.57-1.17,3.81-2.04l4.53-3.22l4.28,2.45l-6.27,4.39
 c-1.45,1.01-3.25,2.28-5.42,2.74C42.77,225.7,42.13,225.76,41.47,225.76z"/></g><path class="st5" d="M84.9,295.7c-0.14,1.93-0.28,3.87-0.42,5.8c-0.14,1.96-0.28,3.93,0,5.87c0.6,4.02,3.14,7.71,6.68,9.7
 c0.2,0.11,0.41,0.22,0.64,0.22c0.41,0,0.71-0.35,0.98-0.66c2.62-3.06,6.29-5.21,10.23-6.02c0.34-0.07,0.71-0.15,0.93-0.42
 c0.24-0.29,0.21-0.72,0.17-1.09c-0.54-5.27-1.17-10.52-1.89-15.77c-3.49,0.77-7.04,1.3-10.6,1.61
 c-2.09,0.18-6.63-0.73-7.53,1.75C84.27,296.49,84.88,295.97,84.9,295.7z"/><path class="st5" d="M136.23,282.27c0.03,2,0.09,4.11,1.02,5.8c1.47,2.67,4.53,3.38,7.24,3.83c1.03,0.17,2.1,0.34,3.08-0.06
 c0.63-0.25,1.17-0.72,1.7-1.19c1.36-1.18,2.71-2.36,4.07-3.54c0.38-0.33,0.77-0.68,0.97-1.18c0.27-0.7,0.09-1.51-0.09-2.25
 c-0.63-2.55-1.27-5.09-1.9-7.64c-0.1-0.39-0.21-0.8-0.5-1.03c-0.24-0.19-0.56-0.2-0.85-0.21c-4.9-0.07-9.81-0.12-14.71-0.21
 C135.84,276.98,136.2,279.82,136.23,282.27z"/><path class="st4" d="M83.32,311.01c1.29,3.34,3.46,6.26,5.61,9.12c2.3,3.07,4.59,6.14,6.89,9.21c2.66,3.56,5.67,7.36,9.99,8.42
 c2.68,0.66,5.51,0.14,8.17-0.6c2.04-0.57,4.08-1.28,5.75-2.57c1.67-1.29,2.94-3.25,2.96-5.36c0.02-2.65-1.84-4.89-3.52-6.94
 c-4.77-5.79-8.96-12.05-12.5-18.65c-0.39-0.72-0.78-1.47-1.41-2c-0.7-0.58-1.62-0.83-2.52-0.96
 c-6.18-0.84-12.47,4.57-12.55,10.81c0.01-0.5-3.13-3.29-3.6-4c-0.68-1.05-1.46-4.59-2.31-5.19
 C81.04,300.01,82.85,309.77,83.32,311.01z"/><path class="st4" d="M137.33,290.97c1.83,3.08,4.45,5.6,7.04,8.07c2.77,2.65,5.55,5.29,8.32,7.94
 c3.22,3.07,6.81,6.32,11.25,6.64c2.76,0.2,5.46-0.78,7.96-1.95c1.91-0.9,3.81-1.94,5.24-3.49c1.44-1.55,2.36-3.69,2.03-5.78
 c-0.42-2.62-2.62-4.52-4.62-6.26c-5.66-4.92-10.83-10.39-15.42-16.32c-0.5-0.65-1.02-1.32-1.73-1.74
 c-0.79-0.46-1.73-0.55-2.64-0.53c-6.24,0.19-11.54,6.58-10.58,12.74c-0.08-0.49-3.64-2.72-4.21-3.35
 c-0.84-0.92-2.2-4.28-3.14-4.73C133.25,280.5,136.65,289.83,137.33,290.97z"/><path class="st9" d="M79.82,287.49c0.27,3.95,0.74,8.32,3.69,10.96c2.19,1.97,5.38,2.52,8.3,2.12c2.92-0.4,5.65-1.64,8.32-2.89
 c1.4-0.66,2.87-1.39,3.72-2.68c0.68-1.02,0.89-2.27,1.07-3.48c1.38-8.88,2.36-17.83,2.94-26.8c0.27-4.15,0.45-8.31,0.63-12.47
 c0.47-10.82,0.95-21.63,1.42-32.45c0.11-2.52,0.22-5.06,0-7.57c-0.37-4.23-1.67-8.32-3.21-12.28c-0.4-1.01-0.82-2.05-1.57-2.84
 c-1.15-1.22-2.9-1.7-4.57-1.83c-5-0.4-9.91,1.77-13.93,4.77c-4.29,3.21-7.79,7.45-10.2,12.23c-2.43,4.82-2.85,7.87-1.39,12.84
 c1.75,5.96,1.36,12.96,1.78,19.13c0.47,6.72,0.93,13.44,1.4,20.15C78.75,272.1,79.29,279.79,79.82,287.49z"/><path class="st9" d="M117.07,207.28c3.43,2.52,6.87,5.04,10.3,7.56c0.99,0.72,2.01,1.5,2.54,2.6c0.37,0.79,0.45,1.67,0.52,2.54
 c1.1,13.15,1.51,26.35,1.23,39.54c-0.11,5.27-0.32,10.6,0.78,15.75c0.26,1.2,0.6,2.41,1.29,3.43c1.45,2.13,4.15,3.02,6.71,3.34
 c2.94,0.37,5.94,0.16,8.8-0.6c1.74-0.46,3.58-1.25,4.4-2.86c0.49-0.96,0.55-2.08,0.6-3.16c0.87-19.91,1.74-39.82,2.61-59.73
 c0.1-2.34,0.2-4.72-0.31-7.01c-0.57-2.53-1.86-4.84-3.17-7.07c-5.04-8.58-10.68-16.82-16.86-24.63
 c-1.26-1.59-2.56-3.19-4.24-4.33c-2.2-1.5-4.86-2.11-7.45-2.69c-8.56-1.92-17.67-3.81-25.93-0.84
 c-0.52,0.19-1.07,0.42-1.41,0.86c-0.49,0.64-0.42,1.53-0.31,2.33c0.89,6.67,2.05,14.5,4.6,20.74
 C104.19,198.95,112.15,203.67,117.07,207.28z"/><path class="st9" d="M66.52,212.59c-3.93-3.23-8.3-5.97-11.77-9.7c-7.61-8.17-9.88-19.82-11.84-30.81
 c-0.28-1.55-0.51-3.31,0.45-4.57c0.37-0.48,0.88-0.83,1.39-1.15c3.35-2.03,7.31-2.76,11.17-3.45
 c15.53-2.77,31.08-5.55,46.76-7.3c0.77-0.09,11.26,2.31,12.79,3.67c3.85,3.41,5.83,5.45,10.37,8.77
 c4.15,3.03,8.38,5.93,10.22,10.73c-5.33,2.54-10.65,5.08-15.98,7.63c-4.32,2.06-8.69,4.15-12.37,7.22
 c-3.07,2.56-5.57,5.71-8.4,8.53c-3.84,3.84-8.27,7.03-12.32,10.65c-2.12,1.9-4.14,3.92-6.04,6.04
 c-1.06,1.18-3.43,5.43-5.21,4.96c-1.45-0.38-2.84-4.56-3.78-5.79C70.39,216,68.5,214.22,66.52,212.59z"/><path class="st0" d="M108.73,140.5c0.06,2.53-0.03,5.92,0.87,8.29c0.86,2.28,2.34,4.26,3.47,6.42
 c3.42,6.58,3.43,14.54,6.92,21.08c0.52,0.96,1.17,1.94,2.17,2.36c1.01,0.42,2.43-0.02,2.66-1.08c0.11-0.5-0.06-1.02-0.22-1.51
 c-0.77-2.27-1.53-4.55-2.3-6.82c1.89,0.97,3.38,2.7,4.06,4.71c0.59,1.74,0.58,3.64,1.2,5.37c0.62,1.73,2.24,3.36,4.05,3.04
 c2.23-0.4,2.94-3.19,3.18-5.44c0.44-4.12,0.78-8.66-1.65-12.02c-1.51-2.09-3.86-3.37-5.8-5.07c-3.89-3.39-6.02-8.32-7.96-13.1
 c-1.2-2.95-2.38-5.92-3.54-8.89c-0.69-1.79-5.89-13.99-5.89-13.99S108.66,137.54,108.73,140.5z"/><path class="st5" d="M69.91,52.48c0,0-11.19,8.87-17.14,11.76c-3.79,1.84-7.5,3.6-10.68,6.36c-5.84,5.06-7.55,13.31-8.95,20.91
 c-2.8,15.19-6.01,29.6-6.6,45.09c-0.05,1.32,0.97,2.65,2.25,2.97c2.52,0.64,5.34,1.27,7.68,1.44
 c-0.72,8.63-0.37,17.24,0.83,25.82c1.2,8.57,3.43,17.21,9.67,23.21c15.95-8.16,32.19-16.41,49.81-19.58
 c6.76-1.21,13.86-1.72,19.65-5.69c0.84-0.57-2.6-15.19-3.65-20.21c-0.64-3.09-2.84-20.72-2.84-20.72l0,0
 c2.2,0.56,4.41-0.87,4.81-3.1c0.92-5.11,2.29-13.72,2.13-18.39c-0.2-5.91-2.6-39.83-18.49-45.22c0,0-1.36,1.54-5.43,3.66
 c-0.68,0.36-1.14,1.24-1.37,2.72c-0.31,1.96-1.49,4.94-2.54,6.62c-1.57,2.51-2.18,3.57-3.66,5.94
 c-6.85-5.79-9.44-8.84-15.05-15.22C67.85,58.02,69.91,52.48,69.91,52.48z"/><path class="st0" d="M99.64,55.65c-0.53,1.05-1.11,2.1-1.96,2.91c-1.23,1.18-2.89,1.75-4.39,2.55c-0.4,0.21-0.8,0.45-1.11,0.78
 c-0.99,1.05-0.78,3.66-0.78,3.66s-5.62,10.69-6.2,10.63c-0.33-0.03-4.62-3.86-6.91-6.11c-3.02-2.97-5.59-5.79-7.28-7.72
 c-1.35-1.54-2.19-3.35-1.92-5.38c0.25-1.83,0.8-4.4,1.05-6.43c0.16-1.26,0.31-2.59-0.19-3.76c-0.4-0.94-1.17-1.67-1.83-2.45
 c-1.54-1.83-2.52-4.11-2.8-6.48c-0.13-1.09-0.09-2.27,0.56-3.15c1.01-1.38,3.17-1.44,4.66-0.6c1.49,0.84,2.48,2.34,3.41,3.78
 c3.29-2.15,5.93-5.12,8.75-7.85s5.98-5.31,9.75-6.38c0.44,1.17,0.88,2.34,1.32,3.51c0.16,0.42,0.36,0.88,0.77,1.04
 c0.44,0.17,0.93-0.07,1.34-0.33c1.16-0.73,2.26-1.57,3.26-2.5c0.69-0.64,1.65-2.21,2.8-1.73c0.97,0.4,1.21,2.3,1.46,3.19
 c0.35,1.29,0.62,2.6,0.81,3.92c0.78,5.41-0.55,10.82-1.97,17.06C101.48,51.19,101.03,52.88,99.64,55.65z"/><path class="st8" d="M64.8,15.19c-2.65,3.71-3.59,8.41-3.68,12.97c-0.04,2,0.06,4.01,0.44,5.98c0.75,3.96,2.7,7.02,5.4,10.01
 c0.8,0.89,2.04,1.99,3.15,2.92c-0.2-1.99-0.44-2.9-1.64-4.28c-1.08-1.24-2.01-2.8-2.24-4.76c-0.19-1.63,1.61-3.14,3.23-2.9
 c2.23,0.33,3.19,2.53,4.34,4.51c5.76-4.31,10.64-7.24,15.93-12.11c-0.39,2.83-0.66,3.5-1.51,5.41
 c4.74-0.83,10.28-4.76,12.93-8.78c1.1,2.13,2.55,5.59,3.4,7.83c0.73-3.72,0.35-9.09-1.63-12.31c-1.56-2.53-3.39-4.77-5.66-6.68
 c-2.12-1.78-4.81-3.27-7.24-4.6c-3.4-1.86-7.66-1.96-11.19-0.39c-1.38,0.61-2.47,1.4-4,1.57c-1.91,0.21-3.62,0.53-5.33,1.45
 C67.64,12.04,66.02,13.48,64.8,15.19z"/><path class="st0" d="M53.87,146.73c0.59,0.79,1.47,1.24,2.31,1.68c10.34,5.36,20.46,11.24,30.3,17.63
 c2.2,1.43,4.42,2.9,6.87,3.73c2.33,0.79,4.86,0.99,7.01,2.26c2.71,1.6,4.47,4.75,5.15,8.07c0.67,3.32,0.36,6.8-0.3,10.14
 c-0.14,0.69-0.46,1.54-1.1,1.53c-0.33,0-0.61-0.26-0.86-0.49c-5.55-5.1-12.86-3.93-17.59-10.37c-0.86-1.16-5.4-6.97-6.54-7.68
 c-1.14-0.7-2.44-1.01-3.72-1.3c-12.67-2.86-25.89-5.11-36.69-12.9c-1.01-0.73-2.03-1.54-2.62-2.71
 c-0.68-1.34-0.72-2.96-0.73-4.5c-0.01-3.67,0.21-11.02,0.21-11.02s10.62,1.21,11.61,1.32c1.23,0.14,4.28-0.14,5.26,0.65
 C53.37,143.54,53.02,145.61,53.87,146.73z"/><g><path class="st4" d="M47.14,203.53c-1.41,0.86-3.04,1.35-4.73,1.37c-1.56,0.02-3.17-0.37-4.68-1.25l-16.11-9.3
 c-2.85-1.65-4.6-4.69-4.6-7.98v-18.6c0-3.66,2.05-6.62,4.88-8.13l-5.16,2.95c-2.7,1.55-4.62,4.43-4.62,7.99v18.6
 c0,3.29,1.76,6.33,4.6,7.98l16.11,9.3c1.47,0.85,3.02,1.24,4.54,1.25c1.65,0.01,3.26-0.43,4.65-1.24L47.14,203.53z"/><path class="st13" d="M47.14,203.53c2.58-1.58,4.41-4.4,4.41-7.86v-18.6c0-3.29-1.76-6.33-4.6-7.98l-16.11-9.3
 c-1.43-0.82-2.94-1.22-4.41-1.25c-1.6-0.03-3.15,0.36-4.53,1.1l-5.16,2.95c1.4-0.8,3-1.25,4.65-1.24
 c1.52,0.01,3.07,0.4,4.54,1.25l16.11,9.3c2.85,1.65,4.6,4.69,4.6,7.98v18.6c0,3.55-1.93,6.44-4.62,7.99L47.14,203.53z"/><path class="st13" d="M42.04,171.9l-16.11-9.3c-1.47-0.85-3.02-1.24-4.54-1.25c-1.65-0.01-3.25,0.43-4.65,1.24
 c-2.7,1.55-4.62,4.43-4.62,7.99v18.6c0,3.29,1.76,6.33,4.6,7.98l16.11,9.3c1.47,0.85,3.02,1.24,4.54,1.25
 c1.65,0.01,3.26-0.43,4.65-1.24c2.7-1.55,4.62-4.43,4.62-7.99v-18.6C46.64,176.58,44.89,173.54,42.04,171.9z M45.25,198.48
 c0,2.84-1.47,5.37-3.93,6.78c-1.2,0.69-2.55,1.05-3.91,1.05h-0.04c-1.35-0.01-2.64-0.37-3.85-1.06l-16.11-9.3
 c-2.41-1.39-3.91-3.99-3.91-6.77v-18.6c0-2.84,1.47-5.37,3.93-6.78c1.2-0.69,2.55-1.05,3.91-1.05
 c1.39,0.01,2.69,0.36,3.89,1.06l16.11,9.3c2.41,1.39,3.91,3.99,3.91,6.77V198.48z"/></g><path class="st4" d="M68.18,92.77c-0.3-2.79-0.61-5.37-0.93-7.94c-0.32-2.59-0.64-5.17-0.93-7.98
 c-0.71-6.66-1.44-13.54-0.16-20.34c0.39-2.04,1.69-3.76,3.91-5.53l-0.31,2.57c-0.71,0.9-1.33,1.76-1.67,3.33
 c-1.39,6.48-0.51,13.25,0.18,19.76c0.3,2.8,0.61,5.37,0.93,7.95c0.31,2.56,0.63,5.12,0.92,7.9h0.01v0.18L68.18,92.77z"/><path class="st4" d="M77.08,117.37l-1.42-0.08c0.21-3.89,0.1-7.82-0.33-11.68c-0.32-2.87-0.85-6.2-2.41-9.12
 c-0.62-1.18-1.26-1.96-2-2.46c-0.86-0.58-1.91-0.73-2.68-0.39c-0.47,0.21-0.9,0.6-1.41,1.27c-2.8,3.72-3.06,8.6-3.1,14.13
 l-0.05,7.56l-1.42-0.01l0.05-7.56c0.03-4.47,0.07-10.58,3.38-14.97c0.41-0.54,1.05-1.31,1.96-1.71
 c1.23-0.55,2.78-0.35,4.05,0.51c0.94,0.64,1.72,1.58,2.45,2.97c1.66,3.13,2.23,6.63,2.56,9.63
 C77.17,109.39,77.29,113.4,77.08,117.37z"/><path class="st4" d="M66.59,147.98c-0.07,0-0.15-0.02-0.21-0.07c-0.16-0.12-0.19-0.34-0.07-0.5c6.68-8.87,8.31-20.47,9.74-30.7
 c0.03-0.19,0.2-0.33,0.4-0.3c0.19,0.03,0.33,0.21,0.3,0.4c-1.44,10.32-3.08,22.02-9.87,31.03
 C66.81,147.94,66.7,147.98,66.59,147.98z"/><path class="st4" d="M73.97,146.17c-0.11,0-0.21-0.05-0.28-0.14c-6.38-8.3-10.29-18.62-11-29.07c-0.01-0.2,0.13-0.36,0.33-0.38
 c0.21-0.02,0.36,0.13,0.38,0.33c0.7,10.31,4.55,20.49,10.85,28.68c0.12,0.15,0.09,0.38-0.07,0.5
 C74.12,146.14,74.05,146.17,73.97,146.17z"/><path class="st4" d="M103.58,105.95l-1.97-0.05c0.39-14.39-0.11-24.65-1.11-37.49c-0.19-2.44-0.39-4.64-0.9-6.8
 c-0.18-0.79-1.36-3.05-1.88-3.08c0.48-0.51,0.89-1.03,1.2-1.57c1.38,0.08,2.14,2.21,2.6,4.21c0.54,2.3,0.74,4.57,0.94,7.1
 C103.47,81.17,103.98,91.47,103.58,105.95z"/><ellipse class="st7" cx="102.66" cy="111.98" rx="3.33" ry="5.17"/><path class="st15" d="M103.52,109.16c-1,0-1.81,1.26-1.81,2.82s0.81,2.82,1.81,2.82h-0.86c-1,0-1.81-1.26-1.81-2.82
 s0.81-2.82,1.81-2.82H103.52z"/><ellipse class="st7" cx="103.52" cy="111.98" rx="1.81" ry="2.82"/><path class="st7" d="M66.18,147.35l-1.38,0.54c-0.34,0.13-0.41,0.59-0.12,0.81l1.16,0.93c0.29,0.23,0.71,0.06,0.77-0.3
 l0.22-1.47C66.88,147.5,66.52,147.22,66.18,147.35z"/><path class="st7" d="M75.64,146.26l-1.34-0.64c-0.33-0.16-0.71,0.1-0.68,0.47l0.12,1.48c0.03,0.36,0.44,0.56,0.74,0.35
 l1.22-0.85C76.01,146.87,75.97,146.42,75.64,146.26z"/><path class="st4" d="M102.6,109.53c-0.2,0-0.35-0.16-0.35-0.35v-3.22c0-0.2,0.16-0.35,0.35-0.35s0.35,0.16,0.35,0.35v3.22
 C102.95,109.37,102.79,109.53,102.6,109.53z"/></g></g></g></svg>
