<svg role="img" xmlns="http://www.w3.org/2000/svg" version="1.0" viewBox="0 0 628.989 484.8"><title>Cavidad oral</title><desc>Boca abierta vista de frente: labios, dientes, lengua, paladar, úvula y pared posterior de la faringe.</desc><path d="M233.22 73.92c-17.67 8.99-30.9 27.86-43.05 43.57-11.03 14.11-22.79 27.46-29.42 45.13-9.2 23.95-13.27 49.49-10.67 75.39 1.48 11.39 2.56 21.99 6.64 32.58 5.12 12.55 11.03 25.11 15.79 37.7 4.44 10.99 9.6 21.99 13.99 32.98 4.44 10.19 10.31 21.19 17.67 29.42 17.31 20.03 44.89 34.54 70.28 38.86 23.95 4.32 48.970.8 70.32-12.15 6.24-3.92 11.39-7.83 18.39-10.59 7.36-2.76 14.71-5.88 19.87-12.19 17.31-19.99 27.22-51.01 32.38-76.95 2.96-16.07 3.32-31.78 2.96-47.89 0-13.71 2.2-27.06 1.84-40.82-0.4-12.95 1.44-25.50.36-38.46-2.2-20.03-8.12-39.66-18.39-56.93-17.31-29.86-45.29-35.74-74.71-45.97z" fill="#dd788a" fill-rule="evenodd"/><path d="M414.31 247.85c2.24 4.68 3.72 11.39 6.64 15.31-0.72-8.270.36-15.71-0.72-23.59-1.12-7.08-2.2-14.15-2.6-21.23-0.72-9.04 1.12-17.67 1.48-26.70.76-14.51-4.04-29.86-8.07-44.01-1.84-7.04-4.8-13.35-8.12-20.03-2.96-5.48-4.04-12.15-7-17.67-4.8-9.03-11.39-16.11-19.87-21.63-6.64-4.32-14.35-7.08-21.75-10.59-11.39-5.12-21.71-12.55-33.5-16.11-12.87-3.92-27.94-5.52-41.57-3.16-8.84 2-22.47 1.2-29.46 7.47l12.51 1.56c-14.71 1.6-30.18 14.55-41.22 22.03-14.35 9.43-35.7 21.23-43.45 37.34-6.64 13.35-11.79 30.62-12.87 45.57-0.76 6.67 1.48 12.55 1.84 19.230.36 6.28 0 12.59 0 18.47 0 19.27-9.59 36.54-5.52 55.81 2.2 10.19 4.4 20.83 7.72 30.22 1.48 4.72 4.04 9.03 5.52 13.39-0.36-5.920.36-12.59-0.72-18.470.360.36 1.080.76 1.48 1.560.360.40.360.80.72 1.16-1.12-4.68-2.2-9.79-2.56-14.910.36-6.68 1.84-13.35 2.92-19.27 1.12-7.08 1.48-14.11 2.6-20.79 1.48-7.47 4.04-14.55 5.16-22.03 1.84-12.55 2.56-27.1 7-39.3-0.40.8-0.4 1.6-0.4 1.96l1.12-3.92c4.04-9.83 10.67-25.55 13.63-28.66 2.56-3.56 4.4-3.96 7-5.12 5.88-3.16 16.91-3.92 22.83-7.08 4.04-1.96 8.07-1.56 12.51-3.52 6.64-2.76 13.23-7.48 20.99-8.28 4.4-0.76 11.03-2.36 14.710.8-2.56-7.47-14.35-3.56-19.51-1.56-7.36 2.72-14.71 1.56-22.47 2.36-4.4 0-6.6 2.36-10.67 4.32-3.68 1.56-9.19 2.36-13.23 2.72 0 0-1.48 0-0.36-2.36 1.08-2.32 8.44-9.39 18.75-10.99 4.44-0.4 7.75-2.36 11.79-3.52 3.32-1.2 5.88-0.4 8.84-0.8 6.64-0.76 12.87-2.76 19.51-3.52 3.32-0.4 8.12-1.6 11.03 1.16-3.32-5.12-13.63-3.12-18.39-2.36-6.640.8-12.91 2.36-19.51 1.6-1.12-0.4-4.44 0-5.16-0.4-1.12-1.6 0-2.76 1.48-3.16 20.23-8.63 46.01-11.39 67.72-9.83 12.870.8 26.14 3.96 38.3 9.43 39.74 19.67 44.53 68.36 44.17 77.39-0.76 11.39 7.72 22.03 9.55 42.450.36 2.36 1.12 5.12 2.24 7.47 0 4.72 2.2 10.59 2.56 14.510.72 5.52 1.84 10.99 2.2 16.11 0 5.92-1.84 11.79-2.56 17.31-0.36 3.520.36 8.23-1.48 11.39 2.2-4.72 2.96-10.23 5.52-14.95 1.84-3.52 2.6-5.88 2.6-10.2 0-4.72-1.88-8.67-1.88-13.750.4-2 0-4.32 0-6.68zm-240.01 61.68c0 2.720.76 5.08 1.48 7.04-0.36-2.32-0.72-4.68-1.48-7.04zm1.48-15.75c1.12 4.36 2.2 8.28 2.96 12.190.36-3.92-0.76-8.63-2.96-12.19z" fill="#d8657c" fill-rule="evenodd"/><path d="M355.74 78.59c-15.83-7.88-34.26-7.47-51.17-7.08-23.95 0-47.49 2.76-69.56 12.59-7.4 3.12-13.99 6.28-20.63 9.39-5.16 3.56-11.39 7.48-16.95 11.79-2.2 1.96-4.4 3.96-6.24 6.32-4.04 3.92-8.84 8.63-12.87 13.75-0.40.36-0.76 1.16-0.76 1.56-4.04 8.23-7.36 17.67-9.91 27.10.36 1.160.36 2.36 0 3.92-0.4 9.04-1.84 18.07-1.84 27.10.36 2.360.36 4.320.72 6.680.36 6.32 0 12.59 0 18.47 0 9.83-2.56 19.27-4.44 28.3l4.44 5.48c4.4-10.59 7.71-22.79 11.39-34.18 3.32-10.19 5.56-21.59 6.28-32.58 1.84-21.63 12.87-42.81 27.62-58.16 12.51-12.55 30.18-20.83 47.09-25.9 6.28-1.96 13.27-1.6 19.87-1.96 8.47-0.4 16.59-2.36 25.07-2.36 5.880.36 12.110.36 18.03 1.16 12.51 1.96 25.74 11.39 37.9 3.52 7.71-5.08 2.2-11.39-4.04-14.91z" fill="#cd6076" fill-rule="evenodd"/><path d="M268.52 198.64c1.48 2.36 15.87 16.11 18.45 20.81 2.58 5.1 4.42 12.17 4.06 18.05 0 3.540.74 11.79 6.28 7.850.72 4.72-3.32 13.73-9.23 10.59-2.94-1.56-4.42-7.06-4.42-10.19-0.74-10.21 1.84-14.13-0.38-24.34-1.84-5.88-12.89-21.59-14.75-22.77z" fill="#e49aa4" fill-rule="evenodd"/><path d="M397 131.64c1.48 4.72 1.88 14.55 6.63 16.87 5.52-5.88 5.16-16.07 0-21.99z" fill="#eca5a7" fill-rule="evenodd"/><path d="M397 131.64c1.48 4.72 1.88 14.55 6.63 16.87 5.52-5.88 5.16-16.07 0-21.99" fill="none" stroke="#000" stroke-width=".8" stroke-linecap="round" stroke-linejoin="round"/><path d="M397 131.64c1.48 4.72 1.88 14.55 6.63 16.87 5.52-5.88 5.16-16.07 0-21.99" fill="none" stroke="#000" stroke-width=".8" stroke-linecap="round" stroke-linejoin="round"/><path d="M184.25 131.64c-1.46 4.72-1.84 14.53-6.26 16.87-5.9-5.88-5.52-16.09-0.36-21.99z" fill="#eca5a7" fill-rule="evenodd"/><path d="M184.25 131.64c-1.46 4.72-1.84 14.53-6.26 16.87-5.9-5.88-5.52-16.09-0.36-21.99" fill="none" stroke="#000" stroke-width=".8" stroke-linecap="round" stroke-linejoin="round"/><path d="M184.25 131.64c-1.46 4.72-1.84 14.53-6.26 16.87-5.9-5.88-5.52-16.09-0.36-21.99" fill="none" stroke="#000" stroke-width=".8" stroke-linecap="round" stroke-linejoin="round"/><path d="M410.67 199.92c-0.4 2.76 0 5.520.36 8.230.36 3.16 0 9.03 1.48 11.75 2.2 3.92 4.08 0 4.8-3.52 1.84-5.480.76-10.95 0-16.87z" fill="#eca5a7" fill-rule="evenodd"/><path d="M419.83 228.94c-1.48-6.68-1.12-13.75-1.48-20.43-0.36-7.08-1.44-14.11-2.2-21.19-0.36-2.76-0.72-5.88-1.08-8.630.72-3.920.36-8.230.36-12.55 0-0.8-0.36-1.96-0.36-2.76v-2.36l-0.760.4c-0.72-2.36-2.2-4.32-3.28-7.08l-5.88 2.36c0 2.360.36 5.120.72 7.47-0.72 9.04-4.4 12.15-3.28 21.190.36 2.76 2.2 8.63 3.28 15.710.4 5.08-0.72 7.830.76 15.67 1.48 8.24 4.04 8.63 5.88 14.510.72 3.96-0.4 7.880.72 11.390.72 3.16 1.48 7.83 1.84 9.790.36 4.32 3.28-0.76 5.48 2.76 4.76-7.83 1.12-18.03-0.72-26.26z" fill="#eca5a7" fill-rule="evenodd"/><path d="M419.83 228.94c-1.48-6.68-1.12-13.75-1.48-20.43-0.36-7.08-1.44-14.11-2.2-21.19-0.36-2.76-0.72-5.88-1.08-8.630.72-3.920.36-8.230.36-12.55 0-0.8-0.36-1.96-0.36-2.76v-2.36l-0.760.4c-0.72-2.36-2.2-4.32-3.28-7.08l-5.88 2.36c0 2.360.36 5.120.72 7.47-0.72 9.04-4.4 12.15-3.28 21.190.36 2.76 2.2 8.63 3.28 15.710.4 5.08-0.72 7.830.76 15.67 1.48 8.24 4.04 8.63 5.88 14.510.72 3.96-0.4 7.880.72 11.390.72 3.16 1.48 7.83 1.84 9.790.36 4.32 3.28-0.76 5.48 2.76 4.76-7.83 1.12-18.03-0.72-26.26" fill="none" stroke="#000" stroke-width=".8" stroke-linecap="round" stroke-linejoin="round"/><path d="M191.52 260.82c-2.96 5.5-5.92 5.9-2.22 11.01 3.34 4.72 3.7 11.01 5.92 16.11-2.22-6.67-0.36-14.55 0-21.630.38-7.48 3.32-14.55 4.06-22.03-0.74 4.34-3.32 7.88-5.9 11.41zm195.48-0.86c-0.36 5.120.36 10.23 0 15.75-0.36 3.92-1.84 8.64-1.08 12.550.72-2.72 1.44-5.88 2.56-8.63 1.08-2.76 2.56-4.32 4.04-7.08 1.44-3.16-0.36-8.23-2.96-10.59zm-92.82-140.91c5.92-3.16 12.55-2.76 19.19-1.56 8.88 1.56 20.31 3.92 27.66 10.55-1.84-2.32-4.4-2.72-7-3.52-7-2.36-14.03-4.32-21.03-4.68zm1.2 19.99c6.28-2.36 12.15-2.36 19.15-1.16 4.760.36 9.55 1.16 14.35 2.36 2.560.8 4.76 1.96 6.96 1.96-2.92-3.16-9.55-4.32-13.59-5.92-7.36-2.4-13.59-1.6-20.950.4zm-7.4-16.47c1.08 6.26-1.44 12.13-1.08 18.410.72 6.26 1.44 12.53-1.1 18.01 1.1-7.44-2.9-14.49-1.8-21.930.72-3.92 1.8-7.46 2.54-11.75 0-2.74 1.8-6.66 1.08-9.41z" fill="#d8657c" fill-rule="evenodd"/><path d="M307.53 208.15c3.36-1.92 5.92-4.68 9.23-6.64 3.32-1.56 6.64-2.76 9.95-3.92-4.8 0-7.71-0.8-12.15 2.36-2.6 2.36-4.08 3.52-5.92 6.64zm-73.26-8.61c9.57-6.28 25.02-2.74 33.12 5.1-5.14-5.1-8.84-8.63-15.45-10.59-8.48-2.36-15.09 1.96-21.73 8.26zm-12.11-93.16c-9.61 8.29 9.62 5.92 12.93 7.89-4.06 0-7.76 1.18-11.83 1.98-2.220.78-4.440.78-6.66 1.58-5.18 1.58-14.05 7.5-17.01 12.21z" fill="#cd6076" fill-rule="evenodd"/><path d="M200.48 127.72c-2.22 2.36-3.32 7.43 0 8.99 2.220.78 5.18-2.74 6.640.38-9.59-0.38-15.85 8.99-19.19 17.57zm-24.7 82.75c-2.58 11.41-2.58 23.23-4.04 34.64-1.1 9.43-7.38 20.85-5.16 30.68 0-11.01-2.96-21.63 1.48-32.26 1.84-4.72 2.58-8.26 3.3-13.770.74-4.72 2.22-10.23 2.58-14.95z" fill="#cd6076" fill-rule="evenodd"/><path d="M300.5 119.73c7.75-0.8 13.670.8 21.07 2.4 4.44 1.2 7.75 2.4 11.79 5.6-2.56-0.4-4.4-2-7-2.4-2.2-0.4-3.68-1.6-5.92-2-4.44-1.2-13.27-4.8-18.07-3.6zm-1.12 19.67c10.71-2.4 16.99-2 26.94 2.8-3.68-2.4-10.31-2.8-14.39-2-2.560.4-7.360.4-9.59-0.8zm-45.97-8.72c4.44-3.48 9.97-5.02 15.13-6.17 3.34-0.38 11.45-3.1 13.65-0.38-2.94-0.4-5.520.38-7.740.76-2.220.4-11.81 1.94-13.65 3.1zm12.47-15.99c3-3.12 7.47-2.34 11.19-2.34zm72.6 79.67c13.63-0.8 37.9 11.39 47.09 54.57 3.28-25.11-15.07-62.44-47.09-54.57z" fill="#ebb4ba" fill-rule="evenodd"/><path d="M222.94 202.96c-13.99 11.41-24.32 32.24-27.64 41.67-3.32 9.05-12.89 19.67-14.01 29.48 1.86-20.05 8.12-56.99 41.66-71.16z" fill="#e398a0" fill-rule="evenodd"/><path d="M348.31 196c4.44 1.2 5.92 4.32 8.84 7.88 2.6 2.72 5.92 5.08 8.47 8.63 2.24 3.12 4.8 5.08 7 8.63 3.68 5.08 8.84 10.55 11.03 16.83-1.44-3.52-1.44-7.44-2.56-10.95-1.84-4.72-4.8-8.63-7-13.35L362.7 199.16z" fill="#ebb4ba" fill-rule="evenodd"/><path d="M358.7 200.64c1.88 1.2 3.72 3.52 5.56 4.72 3.32 1.96 5.52 3.92 7 7.47 2.56 4.32 5.16 8.99 7.36 13.310.72-10.59-9.6-23.95-19.51-26.3z" fill="#f3d5d7" fill-rule="evenodd"/><path d="M205.1 218.79c-6.24 6.28-10.27 14.91-11.01 24.31 1.84-4.7 3.68-9.02 6.24-12.93 1.84-3.52 3.68-9.02 6.24-10.97z" fill="#ebb4ba" fill-rule="evenodd"/><path d="M366.74 204.64c-0.76 1.960.4 2.32 1.92 1.960.36-0.8-0.4-1.16-1.16-1.56zm4.52 4.72c-2.560.4 0 4.32 1.44 3.56 1.44-0.4 1.08-1.96 0-2.76zm2.12 5.44c-0.36 1.20.36 2 1.08 1.2 0-0.4 0-0.8-0.36-1.2z" fill="#fef9fa" fill-rule="evenodd"/><path d="M286.55 232.94c1.1 2.76-1.1 6.28-1.48 9.41 0 2.36 0 5.90.74 8.63 2.2 6.66 7.7 3.54 9.89-1.58-4.02 0-7.32 3.54-7.32-3.520.36-2.740.72-3.92 0-6.68-0.38-1.56-1.84-2.74-1.1-4.3z" fill="#ebb4ba" fill-rule="evenodd"/><path d="M286.21 244.29c-1.8 1.58-2.18 6.640.74 4.7 1.8-1.180.36-3.9-0.36-3.9zm1.42 6.24c-2.56 4.4 4.72 2 1.08-0.4zm4.4 3.2c0 0.4 2.16-0.8 1.08 0z" fill="#fef9fa" fill-rule="evenodd"/><path d="M309.39 199.16c-4.4 5.88-7.7 12.93-9.87 20.37-0.74 2.74-1.48 5.88-1.48 8.62 0 2.360.74 5.88-0.36 7.83-1.46-3.52-1.1-8.62-1.1-12.53-0.36-3.92-1.84-7.44-0.74-11.75 1.48-7.06 9.15-11.75 15.37-14.89z" fill="#d8657c" fill-rule="evenodd"/><path d="M301.62 205.84c-4.02 3.92-5.12 9.79-3.66 15.670.38-4.7 1.46-10.57 4.38-14.09zm83.99 136.24c-0.36 3.52 0 7.830.72 10.950.76-1.16 1.48-1.96 2.24-2.72-2.6-6.280.36-12.91 3.28-18.39 1.12-2.36 2.6-6.67 4.44-8.63 1.48-1.56 4.4-1.96 4.4-3.92-2.92-0.8-5.52 1.96-7 4.32-1.08 1.96-1.44 4.32-2.92 6.28-1.84 3.12-4.8 4.68-5.92 8.6zm-198-11.83c2.58 3.96 4.76 8.68 5.86 13.410.74 3.14-1.82 8.26 2.2 7.88-0.72-4.34 1.46-9.070.38-13.01-1.1-3.54-6.24-4.32-5.86-8.28z" fill="#cd6076" fill-rule="evenodd"/><path d="M394.44 260.44c4.08 2.76 5.16 9.83 5.92 14.55 1.08 5.120.36 11.39 1.84 16.47 3.28-7.04 2.56-12.95 0-19.63-0.76-2.36-1.12-5.48-2.6-7.43-1.08-1.6-2.92-1.6-4.04-3.16z" fill="#ebb4ba" fill-rule="evenodd"/><path d="M401.84 273.75c-0.36 3.12-0.36 7.40.72 10.51 1.72-3.120.32-9.36-1.08-12.47z" fill="#f3d5d7" fill-rule="evenodd"/><path d="M402.96 276.91c-1.08 1.2-1.48 5.520.76 3.96 1.44-0.80.36-3.16-0.76-3.16zm-1.56-6.64c-0.720.4-1.12 1.16-0.72 1.52 1.44 0 1.08-0.360.72-1.52z" fill="#fef9fa" fill-rule="evenodd"/><path d="M183.41 253.25c-0.74 5.12-1.48 9.85-2.6 14.97-0.74 3.94-2.24 7.9-1.12 12.21 1.5-5.9 1.5-11.81 4.84-16.55 2.22-3.54 5.56-7.47 1.86-11.43z" fill="#ebb4ba" fill-rule="evenodd"/><path d="M183.09 259.08c-1.84 3.2-3.32 8.79-2.58 12.39 1.86-1.6 2.58-5.6 3.7-8 1.1-2 4.04-2.40.36-4.4z" fill="#f3d5d7" fill-rule="evenodd"/><path d="M183.89 258.1c-0.72 1.16-1.08 2.32-1.08 3.48 1.80.38 3.24-1.16 4.32-2.7-0.36-0.78-1.08-1.56-1.44-1.56zm-1.9 7.34c-0.380.4-0.380.82 0 1.64 1.14-0.82 1.14-1.640.76-2.48z" fill="#fef9fa" fill-rule="evenodd"/><path d="M161.32 229c1.48-6.7 1.12-13.75 1.48-20.43l2.22-21.23c0.36-2.740.74-5.88 1.1-8.63-0.74-3.94-0.36-8.26-0.36-12.57 0-0.780.36-1.960.36-2.76v-2.34l0.740.38c0.74-2.36 2.22-4.32 3.32-7.08l5.92 2.36c0 2.36-0.38 5.12-0.74 7.470.74 9.04 4.42 12.17 3.32 21.21-0.36 2.76-2.22 8.63-2.96 15.71-0.74 5.120.38 7.86-1.1 15.71-1.48 8.26-4.06 8.65-5.54 14.53-1.1 3.94 0 7.86-0.74 11.39-1.1 3.16-1.1 9.03-1.48 11.39-0.74 4.32-4.06-2.36-6.28 1.18-4.8-7.86-1.1-18.070.74-26.3z" fill="#eca5a7" fill-rule="evenodd"/><path d="M161.32 229c1.48-6.7 1.12-13.75 1.48-20.43l2.22-21.23c0.36-2.740.74-5.88 1.1-8.63-0.74-3.94-0.36-8.26-0.36-12.57 0-0.780.36-1.960.36-2.76v-2.34l0.740.38c0.74-2.36 2.22-4.32 3.32-7.08l5.92 2.36c0 2.36-0.38 5.12-0.74 7.470.74 9.04 4.42 12.17 3.32 21.21-0.36 2.76-2.22 8.63-2.96 15.71-0.74 5.120.38 7.86-1.1 15.71-1.48 8.26-4.06 8.65-5.54 14.53-1.1 3.94 0 7.86-0.74 11.39-1.1 3.16-1.1 9.03-1.48 11.39-0.74 4.32-4.06-2.36-6.28 1.18-4.8-7.86-1.1-18.070.74-26.3" fill="none" stroke="#000" stroke-width=".8" stroke-linecap="round" stroke-linejoin="round"/><path d="M174.97 196c0 2.38-0.72 4.76-0.72 7.52-0.36-2.36-1.08-4.34-3.28-5.540.74 0 0.74-0.38 1.46-0.78zm-0.72-33.82c0 1.98-0.36 3.96 0 5.52-1.12-1.18-2.24-3.54-4.48-3.94 1.12 0 2.24-0.38 3.36-0.38z" fill="#e37e87" fill-rule="evenodd"/><path d="M410.67 291.02c1.48-5.88 4.4-12.15 5.88-17.67 1.08-5.48-1.84-26.66-1.84-29.02l21.23-2.36-1.8 52.97-14.67 9.79z" fill="#eca5a7" fill-rule="evenodd"/><path d="M417.23 228.62c-2.24 2.36-2.24 8.63-2.24 14.150.4 5.48 3.72 15.67 10.31 14.91z" fill="#fafcfc" fill-rule="evenodd"/><path d="M378.17 313.45s13.95-35.38 2.2-68.76c-11.79-34.58-31.26-47.17-48.93-45.17-12.15 1.16-33.5 9.79-30.9 36.94 1.84 16.11-2.96 23.15-9.59 23.15-6.6 0-11.39-7.04-9.55-23.15 2.6-27.14-18.39-35.78-30.9-36.94-17.31-2-36.78 10.59-48.93 45.17-11.79 33.38 2.2 68.76 2.2 68.76s66.24 64.04 65.88 66c-0.76 1.96 104.1-45.97 102.26-45.97z" fill="#ae0a54" fill-rule="evenodd"/><path d="M281.43 247.01c0 2.760.72 5.12 1.48 6.68-0.4-1.2-1.12-3.92-1.48-6.68zm2.2 8.23c-0.36-0.4-0.36-0.76-0.72-1.560.360.80.72 1.560.72 1.56zm96.78-10.59c-11.75-34.54-31.26-47.13-48.93-45.13-12.15 1.16-33.5 9.79-30.94 36.9 1.12 8.63 0 14.51-2.2 18.43 0 0 0 0.4-0.360.4-1.48 1.56-2.56 3.56-4.8 4.72-1.440.8-5.520.8-6.6-1.16l-2.6-3.16c1.48 1.56 1.48 3.52 2.96 5.12 2.56 2.36 5.16 3.52 8.47 3.12 7.71-1.16 12.51-7.83 14.71-14.91 1.84-6.28 3.32-14.15 5.52-20.79 5.16-9.83 13.23-18.07 25.02-15.35 5.52 1.6 12.87 5.52 17.31 9.83 5.88 5.88 10.67 12.15 15.79 19.23 12.51 18.07 10.31 32.22 11.43 34.94 0-10.2-0.76-21.19-4.8-32.18zm-30.9 38.86c-32.02-17.27-62.2-15.31-88.35-10.99-26.1 4.72-41.94 20.43-45.61 18.07h-0.36c-1.48-1.16-2.96-2.76-3.68-4.32-5.52-9.44-4.44-21.99-1.48-32.18 4.76-17.67 19.15-38.1 38.62-41.62 8.47-1.6 31.3 1.16 31.3 23.95 0 1.960.36 6.68 1.48 10.59-0.36-2.76-0.36-6.28 0-10.59 2.56-27.1-18.43-35.74-30.94-36.9-17.27-2-36.78 10.59-48.93 45.13-11.79 33.38 2.2 68.72 2.2 68.72s11.79 11.39 25.42 24.7l-0.4-29.82 146.11 15.71 3.32-10.59s4.04-10.23 5.88-24.34c-2.56 6.28-8.83 8.63-34.58-5.52z" fill="#9b0b4b" fill-rule="evenodd"/><path d="M229.14 276.55c-5.88-12.19-4.04-36.16 5.88-45.99 2.2-2.36 8.79-8.26 12.11-7.08 2.56 1.18 5.14 7.88 6.24 10.23 2.2 5.9 9.15 21.61 5.86 27.9-1.46 3.14-4.04 2.74-7.34 3.92-8.44 2.76-14.67 9.43-22.75 12.57z" fill="#b9255d" fill-rule="evenodd"/><path d="M179.37 104.5c8.84 10.19 16.19 2.76 23.55-5.08 3.68-3.96 5.52-9.83 9.95-12.99 3.68-3.12 8.84-5.08 12.87-6.64 11.03-3.96 23.59-9.83 35.34-11.79 11.43-1.96 22.47-0.8 33.86 0 9.230.8 18.07-2.36 26.9 0 9.55 2.36 19.51 5.88 28.7 9.43 7.36 2.36 10.67 6.28 16.95 10.19 5.88 3.92 12.51 3.92 17.27 9.79 4.44 5.52 8.12 16.11 17.67 14.15 0-7.47-6.96-18.07-11.03-24.34-10.67-17.67-27.22-28.26-44.53-38.06-16.95-9.43-37.54-16.91-57.05-16.51-14.39 0-27.62 6.28-41.61 9.43-23.55 5.12-44.93 11.79-62.96 31.02-5.88 6.28-14.71 21.59-15.47 31.38zm70.68 303.22c6.64-4.72 11.43-0.4 18.790.4 9.550.76 19.15 2.32 28.7 1.56 11.07-1.56 23.950.4 34.26-5.52 5.88-3.12 11.43-5.88 17.31-8.99 4.04-2 11.03-6.32 15.47-2.36 4.76 3.92 2.2 15.31 0 19.99-6.64 14.55-22.47 18.47-35.74 21.23-30.54 6.64-65.16 3.52-92.38-12.95-2.96-1.6-4.8-3.96-7.76-5.12-2.56-1.2-7.36-0.8-9.55-2.76-5.56-4.72-0.76-8.63 5.16-8.23z" fill="#eca5a7" fill-rule="evenodd"/><path d="m383.01 371.1-13.59 15.67-12.15 14.55-12.15-3.16-13.63 1.56-15.83 9.03s-16.91 2.36-16.91 3.16c-0.360.76-19.15 0-19.51-0.8 0-0.76-16.59-5.88-16.59-5.88l-8.07-0.4-13.99 4.32-33.5-20.79s-7.36-24.35-8.47-29.06c-1.08-4.32-1.48-14.91-0.36-22.790.76-9.03 2.96-17.67 7.71-25.5 20.27-32.98 67.76-38.1 85.03-38.1 17.31 0 64.8 5.12 85.03 38.1 4.8 7.83 7 16.47 7.75 25.5 0 9.04 1.08 18.07-1.12 28.26z" fill="#e8857f" fill-rule="evenodd"/><path d="M374.13 358.22c-3.68 12.19-32.02 21.59-51.53 27.86-19.51 6.28-35.7 2.76-59.24 1.2-23.91-1.2-44.53-13.75-50.81-24.35 4.8 3.56 28.34 11.79 38.66 12.55 10.31 1.2 12.15 2.36 20.63 3.96 8.47 1.96 22.83 3.12 29.42 1.96 6.64-1.6 12.51 1.16 21.75-3.56 9.2-4.32 15.43-5.48 25.02-7.83 9.2-2.76 20.23-4.32 26.1-11.79z" fill="#e16263" fill-rule="evenodd"/><path d="m383.01 371.1-13.59 15.67-12.15 14.55-12.15-3.16-13.63 1.56-15.83 9.03s-16.91 2.36-16.91 3.16c-0.360.76-19.15 0-19.51-0.8 0-0.76-16.59-5.88-16.59-5.88l-8.07-0.4-13.99 4.32-33.5-20.79s-7.36-24.35-8.47-29.06c-1.08-4.32-1.48-14.91-0.36-22.790.76-9.03 2.96-17.67 7.71-25.5 20.27-32.98 67.76-38.1 85.03-38.1 17.31 0 64.8 5.12 85.03 38.1 4.8 7.83 7 16.47 7.75 25.5 0 9.04 1.08 18.07-1.12 28.26" fill="none" stroke="#000" stroke-width=".8" stroke-linecap="round" stroke-linejoin="round"/><path d="M344.35 45.53c-7 1.56-9.19 6.68-11.03 16.51-1.84 9.83-2.6 22.83 1.12 27.14 3.32 4.72 15.47 8.28 19.87 8.68 4.80.36 7-9.83 8.12-16.55 1.08-6.68-1.12-22.03-4.08-27.14-2.56-5.48-7-10.23-13.99-8.63zm23.19 21.99c4.8-4.72 6.64-5.12 11.830.4 5.16 5.12 15.47 15.71 8.84 34.14-2.56 7.87-4.8 11.39-7.36 12.59-0.760.36-4.08-0.8-4.8-1.96-1.12-1.6-2.96-3.96-5.2-5.52-6.28-3.16-8.83-4.72-9.95-11.39-0.76-6.68 5.16-26.7 5.16-26.7z" fill="#f5f9f9" fill-rule="evenodd"/><path d="M293.5 44.73c-3.32 12.63-2.2 33.50.4 40.18 2.2 6.67 12.87 4.32 20.59 4.32 7.76 0 13.99-0.36 15.83-6.68 1.84-6.320.4-28.34-2.2-34.66zm59 368.1c2.2-10.23-0.36-17.31-3.72-21.63-3.68-4.36-19.59-2.36-22.91 3.12-3.72 5.12-0.76 20.470.36 26.38l2.96 10.99z" fill="#f5f9f9" fill-rule="evenodd"/><path d="M377.53 397.44c-2.96-17.67-11.83-21.23-15.51-18.07-2.96 2.76-6.64 12.95-8.47 19.23 0 4.32 0 9.44-1.12 14.15l-10.67 8.63-2.24 6.64 7.04-5.88 15.47 4.32s18.43-11.75 15.51-29.02z" fill="#f5f9f9" fill-rule="evenodd"/><path d="M412.03 352.39c8.84-26.3 11.75-48.29 10.67-49.49-1.84-1.56-5.52-1.96-9.55-3.12-5.16-2-8.47 2.72-9.2 7.84-0.72 4.72-1.48 1.56-2.56 8.63-0.76 5.12-0.76 6.68 0 6.68-3.32 4.32-5.160.8-6.64 7.48-1.44 6.68-1.84 3.92-3.68 9.03-2.2 5.48-2.56 8.63-0.36 11.39-2.2 1.16-8.07 6.68-9.19 9.39-0.72 1.96-1.84 3.56-1.84 6.32 0 5.88-1.84 5.48-2.2 8.63-4.4 1.96-6.60.76-7.36 5.48 2.96 2.76 5.92 8.23 7.36 16.91 0 0.760.36 1.560.36 2.32l16.19-9.79s11.39-17.67 17.99-37.7z" fill="#f5f9f9" fill-rule="evenodd"/><path d="M421.74 301.94c2.56-6.64 4.8-12.11 6.28-18.350.36-1.560.72-3.520.72-4.320.72-2.720.36-8.2-1.84-8.99-1.12 0-7.75-0.8-10.71 3.12-2.2 3.52-0.36 6.28-2.96 12.91-2.96 4.72-2.56 8.23-2.2 12.51zm-0.84-76.51c2.96-1.16 3.32-2.76 5.92-3.92 2.6-1.2 3.32-2.76 3.32-5.120.4-2.76 0-4.72 0-6.68-0.36-1.96 0-3.920.4-6.680.36-2.76 1.08-5.12-2.6-7.88-3.32-2.36-4.8-1.96-8.52-1.16-3.680.8-4.080.4-5.92 2.76-1.84 2.36-1.12 4.32-1.48 7.08-0.76 2.72-2.24 7.44-1.48 10.19 1.12 3.16 1.120.4 1.48 4.320.36 3.96 2.96 10.99 8.87 7.08z" fill="#f5f9f9" fill-rule="evenodd"/><path d="M409.07 206.24c-1.12 6.680.36 14.47 1.84 16.03 2.6 2.36 2.6 4.68 5.52 3.92-2.56-0.8-4.04-5.08-4.4-7.83-0.36-3.88-0.36-1.16-1.48-4.28-0.72-2.760.72-7.43 1.48-10.150.36-2.76-0.36-4.72 1.48-7.04l1.08-1.2c-2.560.8-4.4 5.12-5.52 10.55zm6.32-11.43c1.84 0 4.08-1.16 6.64-2.76 2.6-1.16 6.64-4.72 6.64-8.23 0-3.56-1.44-5.16-1.44-9.07 0-3.56 1.44-11.83-5.2-11.83-6.64-0.4-7.71 1.2-9.95 4.36-1.84 3.16-3.68 7.47-4.04 9.83-0.4 2.760.36 3.960.72 6.320.76 2.36-0.72 8.28 1.12 9.83 1.120.4 3.32 1.56 5.52 1.56z" fill="#f5f9f9" fill-rule="evenodd"/><path d="M405.43 188.53c1.48 3.120.76 2.72 2.56 4.68 1.84 1.96 4.04 3.92 8.44 1.6v-0.4c-0.36 0-0.720.4-1.080.4-2.2 0-4.4-1.2-5.52-1.6-1.84-1.56-0.36-7.43-1.08-9.79-0.36-2.36-1.12-3.52-0.76-6.280.4-2.36 2.2-6.68 4.04-9.79 1.12-1.16 1.84-2.36 2.6-3.16-5.52 1.6-8.07 6.68-9.2 9.84-1.08 3.12-1.48 11.35 0 14.51zm15.07-25.5c5.12-3.12 3.68-6.28 4.04-11.390.36-5.12-0.72-10.99-4.4-14.91-3.68-3.56-6.96-4.36-12.83-2-6.24 2-4.76 2.36-6.96 6.32-2.24 4.32-2.24 4.72-1.48 9.83 1.08 5.48 3.28 5.08 6.6 8.23 2.92 3.16 6.24 6.28 15.03 3.92zm-18.31-27.5c7.36-2.36 8.07-3.16 8.79-8.230.76-5.52 1.84-10.23 1.48-13.79-0.36-3.52-1.08-3.52-4.04-7.83-3.32-4.72-7.36-7.08-11.03-6.68-3.680.4 1.08-3.96-2.2-3.56-3.320.8-7.36 10.23-10.67 15.35-3.32 5.08-4.08 11.390.72 12.95 4.44 1.96 7 5.12 8.47 8.28 1.48 3.12 5.52 4.68 8.47 3.52z" fill="#f5f9f9" fill-rule="evenodd"/><path d="M420.5 163.1c5.16-3.16 3.68-6.32 4.08-11.430.36-5.16-0.76-11.07-4.44-14.99-1.48-1.2-2.6-2-3.72-2.8 4.080.8 7.75 3.16 9.99 7.92 2.56 4.72 4.4 20.91-7.76 22.07h-1.84c1.08-0.36 2.2-0.36 3.68-0.76zM292.46 423.7c11.41 0 21.01 0 29.84-1.16v-1.18c2.58-16.83 1.48-25.05-3.32-26.2-3.32-0.8-18.05 3.12-23.59 5.48-5.16 1.96-5.54 14.07-3.32 21.91l0.38 1.16zM237.6 45.51c7.02 1.58 9.23 7.46 11.45 17.29 1.84 9.81 2.2 21.99-1.12 26.3-3.68 4.72-15.13 7.86-19.93 8.26-4.80.38-7.4-9.43-8.49-16.11-1.12-6.68 1.48-21.99 4.06-27.1 2.58-5.5 7.01-10.21 14.03-8.63z" fill="#f5f9f9" fill-rule="evenodd"/><path d="M214.35 67.52c-4.42-5.12-6.26-5.12-11.39 0-5.16 5.5-15.83 16.09-9.19 34.54 2.94 7.86 4.78 11.39 7.71 12.570.740.38 3.68-0.78 4.78-2.36 1.1-1.58 2.58-3.54 5.16-5.1 5.88-3.54 8.81-5.12 9.55-11.39 1.1-6.68-4.78-27.08-4.78-27.08zm74-22.79c3.68 12.61 2.22 33.48-0.36 40.18-2.2 6.67-12.87 4.32-20.59 4.32-7.74 0-13.99-0.38-15.83-6.7-1.84-6.3-0.36-28.34 2.22-34.64zM229.48 412.79c-2.22-10.23-1.1-15.75 2.22-20.09 3.68-4.34 21.03-3.94 24.34 1.58 3.68 5.120.74 20.49-0.38 26.4l-2.94 11.01z" fill="#f5f9f9" fill-rule="evenodd"/><path d="M204.4 397.42c2.96-17.67 11.79-21.21 15.49-18.05 2.96 2.74 6.64 12.95 8.48 19.23 0 4.32 0 9.41 1.12 14.13l10.69 8.63 2.2 6.66-7-5.88-15.49 4.32s-18.45-11.77-15.49-29.04zm-42.99-234.4c-5.14-3.14-3.66-6.28-4.02-11.39-0.38-5.120.72-11.01 4.4-14.93 3.66-3.54 6.96-4.34 12.83-1.98 6.24 1.98 4.76 2.36 6.96 6.3 2.2 4.32 2.2 4.72 1.48 9.83-1.1 5.5-3.3 5.1-6.6 8.26-2.94 3.14-6.24 6.28-15.05 3.92zm17.67-27.52c-7.33-2.36-8.07-3.14-8.81-8.26-0.72-5.5-1.84-10.21-1.46-13.750.36-3.54 1.1-3.54 4.04-7.88 3.3-4.72 6.24-12.19 9.89-11.79 3.680.4 2.94 4.72 6.24 5.52 3.320.78 5.52 5.9 8.81 10.99 2.94 5.12 3.66 9.05 0 12.59-4.04 3.14-8.44 5.9-10.27 9.03-1.46 3.16-5.5 4.72-8.44 3.54zm110.39 288.2c-11.41 0-20.97 0-29.8-1.16v-1.18c-2.58-16.83-1.1-25.05 3.32-26.2 3.3-0.8 18.01 3.12 23.52 5.48 5.16 1.96 5.52 14.07 3.32 21.91l-0.36 1.16z" fill="#f5f9f9" fill-rule="evenodd"/><path d="M335.96 221.99c-5.52 1.96-8.47 9.04-10.67 14.15-1.84 3.92-5.92 16.07-3.32 20.39 2.2 4.32 9.95 5.48 13.63 6.67 3.68 1.16 7.36 2.72 10.67 5.08 2.92 1.96 3.68 5.12 6.24 7.48 5.16 4.68 7.4-0.8 9.23-6.28 3.28-10.19-2.24-21.19-5.92-30.62-2.56-5.88-9.55-21.19-17.31-17.23z" fill="#b9255d" fill-rule="evenodd"/><path d="M347.99 243.89c-4.8 1.96-10.31 9.43-5.88 13.79 2.2 2.36 5.16 2.72 7.71 4.32 2.92 1.56 3.32 3.52 5.16 5.48 5.48-1.96 2.2-10.59 1.08-14.51-1.84-3.96-1.08-8.68-6.24-9.47zm-95.64-5.88c2.2 5.12 5.86 14.15 4.04 19.65-1.48 5.9-11.01 9.41-16.17 9.41-1.84-5.88 9.55-7.86 10.65-13.35 1.1-3.920.74-8.63 0-12.55-0.36-1.98-1.46-3.940.74-5.520.360.40.74 1.58 1.1 1.98z" fill="#cd758a" fill-rule="evenodd"/><path d="M351.71 257.2c0-0.4 0-0.8-0.36-1.2-1.08 1.2-1.84 5.12 0 5.920.720.36 4.04-1.6 5.12-1.60.72-4.32-1.84-6.68-4.76-3.52zm-100.54-1.96c-1.12 4.340.72 5.52 3.3 3.94 1.1-0.78 2.22-2.36 2.94-3.16-1.1-0.78-2.56-1.18-3.68-1.58-0.36 0-0.720.4-0.720.8z" fill="#dda5b0" fill-rule="evenodd"/><path d="M355.43 257.96c-4.08 1.2-1.12 6.32 1.12 4.36 1.44-1.56-0.76-3.56-1.48-3.96zm-102.8-5.52c-2.26 4.88 3.74 2.86 1.88 0-0.38 0 0 0.42-0.380.42z" fill="#f5e6e8" fill-rule="evenodd"/><path d="M238.69 287.87c1.12 4.72 6.66 2.36 8.12-0.4 2.6 1.96 5.18 3.54 7.38 0 3.32 1.96 8.12 4.72 10.69-0.4 3.32 11.39-4.06 5.52-8.83 11.01-0.74 1.180.36 2.74-1.12 4.32-1.84 1.58-5.16 1.18-7.38 1.58-4.80.38-8.86-0.8-13.630.78-9.59 3.54-14.75 11.39-20.29 19.25-2.96 3.92-5.9 7.08-7.38 12.17-1.84 5.5-3.7 13.35-5.54 18.85-2.96-8.630.38-21.21 2.22-29.84 1.84-6.68 4.8-12.97 9.21-17.69 7.38-8.23 14.75-16.89 25.09-18.85zm66.560.44c-5.16 4.32-4.08 7.84-5.92 14.11-1.84 6.68-2.56 13.75-2.92 20.43-0.36 6.28-0.76 11.75-1.48 17.67-0.76 5.08-0.76 13.35 1.48 18.03 4.76-12.55 3.68-27.06 8.47-39.62 2.2-5.12 6.24-5.92 9.55-10.23 3.68-4.72 6.64-7.83 13.27-8.63 7-1.16 14.35 0 20.59 3.92 3.68 1.96 8.84 5.12 11.79 7.88 4.44 3.52 11.03 4.72 13.27 10.59 2.2 4.72 6.24 12.55 4.76 25.1 3.68-13.31-1.84-27.46-5.88-34.54-5.52-9.39-14.35-17.67-23.95-22.39-7.71-3.52-16.91-5.48-25.02-5.88-4.8-0.4-10.31-0.8-14.35 1.56z" fill="#f0ada5" fill-rule="evenodd"/><path d="M301.26 312.25c2.56-7.08 12.91-14.15 19.19-16.91 2.96-1.2 7.04-0.8 8.15-4.36 1.08-4.32-2.6-5.12-5.56-5.52-5.56 0-12.19 1.2-16.27 4.76-3.68 3.16-7.39 11.39-4.44 16.55z" fill="#f6cdc6" fill-rule="evenodd"/><path d="M200 306.35c-1.84-4.32-0.74-9.41-3.68-13.73-2.94-4.7-3.32-6.28-4.04-11.75-0.74-2.76-3.32-11.39-7.71-7.86-4.8 15.31-3.32 36.88 3.3 48.25 2.94 1.18 5.52 3.92 6.26 7.860.72 4.3 2.56 5.88 4.04 7.430.74-7.83 2.58-15.69 6.24-22.35-1.1-3.14-3.3-4.72-4.4-7.86zm181.930.02c2.2-4.320.72-9.43 3.68-13.75 2.92-4.68 3.28-6.28 4.04-11.750.72-2.76 3.68-11.39 7.71-7.83 4.76 15.27 3.32 36.86-3.32 48.25-2.92 1.16-5.16 3.92-6.24 7.84-0.72 4.32-2.56 5.88-4.04 7.43-0.76-7.83-2.6-15.67-6.28-22.35 1.12-3.12 3.32-4.72 4.44-7.84z" fill="#ebccd1" fill-rule="evenodd"/><path d="M331.56 199.6c-12.15 1.16-33.54 9.79-30.94 36.860.36 2.760.36 5.080.36 7.040.36-1.56 0-3.520.36-5.080.4-2.760.76-5.12 1.84-7.84 1.84-5.52 5.56-12.95 9.59-16.87 9.2-9.43 20.23-12.55 33.14-9.43 8.07 2.36 13.99 7.48 19.15 14.15 1.84 3.12 4.4 5.48 6.6 8.23 1.84 2.72 2.96 7.43 5.52 8.99C365.06 208.23 347.39 198 331.56 199.6zM196.8 274.91c0.38 7.46 1.1 14.91 2.58 22.370.72 4.32 2.2 11.77 4.38 15.29 5.86-5.88 8.79-13.33 16.47-17.65-2.92 1.58-6.58 4.72-9.87 4.72-3.3 0-5.5-3.92-7.32-6.68-1.46-3.14-2.94-6.66-4.04-10.19-0.72-1.18-1.1-3.54-1.82-4.72zm174.38 27.5c1.88 3.16 5.6 1.6 7.790.4-0.72 2.760.36 5.48-1.84 7.43-2.24-0.76-2.24-3.12-3.72-4.68z" fill="#800a3e" fill-rule="evenodd"/><path d="M307.15 290.26c-4.44 2.34-4.82 6.64-3.7 10.91 5.92 1.56 7.75-5.46 5.18-10.13zm6.28-2.32c-1.84 1.58-2.22 3.56-0.74 5.52 2.58 0 5.16-1.56 4.06-4.32zm-87.61 7.36c-3.66 5.52-10.27 6.7-13.93 12.97-3.3 5.5-4.04 12.17-6.62 18.45 1.48-4.7 5.14-7.86 7.33-11.77 1.48-1.96 1.84-3.54 3.68-5.1 1.1-1.18 2.56-0.8 3.66-2.76 1.48-2.36 1.84-4.72 4.42-7.08 1.46-1.56 2.92-3.14 4.02-4.72zm74.69 10.23c-2.2 2.74-3.3 9.41-2.2 12.55 3.66-2.74 4.02-9.81 2.2-13.35z" fill="#f9ddd8" fill-rule="evenodd"/><path d="M367.9 321.61c5.16 5.12 8.07 14.15 8.84 21.230.36 5.12 1.08 9.83-1.84 14.15-2.6 3.52-4.08 6.28-7.75 9.03-2.56 1.96-6.63 3.52-9.91 3.92-3.32 0-6.64-0.4-9.23 1.96-0.72-0.76-1.84-1.56-2.96-1.56 1.48 0 1.88-0.8 2.96-1.16 1.48-1.2 3.32-1.96 4.8-2.76 5.52-2.36 11.03-6.28 13.27-12.19 1.44-3.52 1.84-7.08 2.56-10.590.76-3.56 2.2-6.28 2.2-9.830.4-3.520.4-7.84-1.84-10.59zm-96.5-29.72c9.59-3.94 20.27-3.94 21.37 8.230.38 5.5-0.74 12.95-1.46 18.05-0.74 5.5-0.38 10.97-0.38 16.47-0.36 10.990.74 21.59-1.1 32.56-0.74 3.14-1.84 10.99-4.06 13.35-2.58 3.52-7 3.92-11.41 4.3 1.84-1.16 7-0.38 8.83-0.38 4.06 0 15.47-1.96 19.15-3.14-3.68-0.78-6.62-2.36-8.1-5.9-1.84-3.92-0.74-5.48-0.74-10.19-0.36-7.84-1.84-17.65-1.48-25.50.38-3.52 1.12-7.06 1.12-10.59 0-3.14-0.38-5.88 0-9.410.74-8.23 3.68-20.01 6.26-28.24-2.22 3.54-6.26-0.78-7.38-1.56-2.58-1.58-6.62-1.58-9.19-1.58zm-11.67-8.34c-1.84 3.16 2.92 4.72 4.38 3.16 1.46-1.58-0.72-3.96-2.56-3.56zm-8.470.4c-5.52 6.96 5.52 3.88 1.48 0zm22.45-3.9c-4.02-1.16-5.5 4.22-0.36 3.08 4.38-1.160.36-5.02-1.1-2.32z" fill="#e16263" fill-rule="evenodd"/><path d="M263.36 279.23c-3 4 2.98 4.4 4.48 2 0-0.40.36-0.40.36-0.8-0.74-1.2-1.86-2-2.98-1.2zm6.62 6.64c-2.58 1.58-1.1 5.92 1.1 4.34 1.84-1.58 1.12-5.14-0.36-3.94zm9.63-8.99c-4.38 0-3.28 3.880.74 3.5 4.72-0.38 1.08-5.46-0.74-3.9zm1.44 4.76c-11.01 3.96 5.86 6.32 1.460.8zm8.38-5.62c-2.56-1.58-4.04 3.56-0.74 4.36 2.20.38 5.5-2.78 2.2-3.96zm9.21-1.1c-2.240.4-2.62 3.2-0.38 4 1.860.4 4.08-1.2 2.6-3.2zm-3.96 6.4c-3.3 0-2.2 3.760.36 3.4 2.18-0.38 2.18-2.640.36-3.4zm13.61-4.88c-1.1 0-1.840.4-2.6 1.18 1.12 2.34 4.84 1.96 5.2-0.38-0.74-0.8-1.1-0.8-1.84-0.8zm8.86 2c-1.46 2 1.46 2 2.540.8-0.36-0.8-1.08-0.8-2.18-0.8zm-13.950.88c-2.580.76-3.34 3.76 0 3.4 2.96-0.38 3.7-3.40.74-3.02zm-10.81-5.12c-1.88 3.12 4.12 3.12 3.76-0.4zm-20.93 1.52c-3.74 1.56 3.74 3.92 4.1-0.8zm-12.09 1.92c-5.16 1.2 1.48 6 2.2 0zm66.24 1.68c0 0.8-0.4 1.2-0.4 1.56 1.48 1.2 4 1.56 40.4zm-42.67-5.52c-0.74 2.64 4.42 2.28 4.78 0z" fill="#e16263" fill-rule="evenodd"/><path d="M278.35 277.31c-1.840.4-0.36 3.12 1.840.4zm11.11-1.14c-1.08-0.38-3.28 1.52-2.18 2.66 1.1 1.12 2.54-0.38 2.9-1.14zm5.92-2.38c-1.08 0-2.160.38-2.16 1.140.360.38 1.440.38 1.8-0.38zm3.7 1.52c-1.12-0.4-1.86 1.16-1.12 2.320.74 0 1.48-0.76 2.22-1.16zm9.65 1.54c-1.16-0.42-2.72 0-2.32 1.260.78 0 1.16 0 1.56-0.42zm-6.36 3.58c-1.16 0-1.16 1.52 0 1.140.76 0 0.76-0.76 1.16-1.140.38 0 1.140.38 1.52 0zm-8.10.88c-2.58 1.12-0.36 2.96 1.10.74zm-13.61 1.12c-1.16 0-1.920.74-2.32 1.48 1.160.36 2.32 0 3.08-0.74h0.76zm-9.2-2c-0.720.8-0.72 1.6-0.36 20.72-0.40.72-1.6 2.12-1.6zm-6.32-1.12c-1.46 0-3.28 2.34-1.82 2.74 1.10.38 1.46-1.56 2.54-1.56zm-3.72 4.32c-1.10.38-2.92 2.64-1.1 2.64 1.1 0 1.1-1.88 2.18-1.88zm9.27 3.12c-0.760.38-1.160.76-1.16 1.52h2.32zm1.08-11.05c-1.44-0.78-1.08 3.06 1.440.76zm12.89-1.96c-1.78-0.42-1.42 2.060.7 1.24zm32.84 4.7c-1.20.38-1.2 1.14 0 1.52zm9.51 1.2c-0.72 0-1.44 0-1.840.8 0 0.40.40.80.76 1.2zm-68.12-1.52c-1.46 0-1.84 1.84-0.36 1.84zm-7.04 6.68c-1.44-1.16-2.16 1.9-0.72 2.28z" fill="#ca3144" fill-rule="evenodd"/><path d="M272.54 286.27c0 1.580.38 2.76-1.14 3.94 2.640.38 2.64-1.96 1.9-3.54zm9.65-0.36c1.10.4 2.92-0.38 2.56-1.96 2.160.4 0 3.52-1.82 2.36zm7.67-5.1c1.12-0.4 2.24-1.22 3.36-2.06-0.36 1.66-0.74 2.88-2.6 2.48zm4.32 4.26c1.540.8 2.7-0.4 3.46-20.38 1.6-0.38 4-2.3 2.8zm4.88-5.04c1.460.4 2.56-1.6 3.28-2.40.72 1.2-0.72 2-1.82 2.4zm5.12 3.6c1.12-0.4 2.22-2 2.22-3.2 1.46 2 0 2-1.48 3.2zm4.56-3.26c1.08-0.4 3.24-1.18 2.88-2.740.72 1.960.72 2.74-1.44 3.12zm18.63 2.38c1.160.4 3.04-0.4 3.04-2 0.76 2 1.12 3.2-1.52 2.8zm-53.33 1.16c1.52 0 2.28-1.48 2.28-2.60.76 1.120.38 2.6-1.14 2.96zm-7.83-1.22c1.52 0 1.52-1.54 2.66-1.940.38 1.16-0.38 2.32-1.52 2.32zm-1.36 1.66c0.76 1.180.38 3.92-1.12 3.92 1.88 0 3.36-1.96 2.62-4.32zm-10.27-0.8c0.72 1.180.36 2.36-0.36 3.52 1.08-1.16 2.88-2.34 1.08-4.32zm8.05-5.44c-0.38 1.18-0.74 2.74-1.86 3.520.74-1.16 2.96-1.56 2.96-3.12zm13.65-2.4c-0.36 1.2-1.12 2-2.24 2.4 1.5 0 3.36-0.8 2.62-2.8zm7.36 1.92c0.34 1.240.34 3.28-1.44 3.28 1.780.4 3.2-1.22 2.5-3.28z" fill="#f0ada5" fill-rule="evenodd"/><path d="M271.4 378.93c5.58 0 9.650.4 13.35-3.92 2.98-2.76 4.46-8.26 6.68-10.63-0.36 4.74 1.48 10.630.38 15.73-1.48 8.26-10.39 4.34-16.69 5.9z" fill="#e16263" fill-rule="evenodd"/><path d="M225.74 374.21c1.88 2.76 6.64 3.56 9.59 4.76 4.44 1.56 9.6 3.92 14.03 4.72 10.31 1.96 20.99 2.76 31.3 3.52 11.83 1.2 22.870.4 34.66 0 11.43-0.76 22.51-4.72 33.54-8.63-1.84 5.88-8.08 5.88-12.87 7.08-7.39 1.56-12.19 3.92-19.55 5.12-13.99 2.36-26.54 3.12-39.10.4-6.64-1.2-26.14-4.36-29.82-5.12-2.24-0.8-12.91-6.32-16.99-7.08z" fill="#f0ada5" fill-rule="evenodd"/><path d="M273 388.82c6.24 2.3 13.97 3.06 20.59 3.06s12.51-2.68 18.75-3.44c-7.36 1.52-15.810.38-23.53 1.14-5.90.78-11.41-1.54-16.93-0.76z" fill="#f6cdc6" fill-rule="evenodd"/><path d="M292.02 389.2c-1.14 0-1.520.82-1.14 1.64 2.26 0 4.520.4 6.02-1.24-0.74-1.24-3.76 0-5.64-1.24zm-40.04c-1.48-0.4-2.96 1.18-1.1 2.34 1.480.78 2.94-1.160.74-1.94z" fill="#fff" fill-rule="evenodd"/><path d="M343.67 377.41c4.08 0 9.95-3.52 13.27-5.48 3.64-2.36 6.6-5.12 9.55-7.48 4.4-3.52 6.6-6.28 7.71-12.190.72-3.12 1.44-9.04-1.48-11.39 0 2.760.72 5.52-0.36 7.88-0.36 1.2-1.84 1.96-2.6 3.16-0.36 1.16-0.36 2.72-1.08 3.92-0.76 1.56-1.84 1.96-2.96 3.16-2.2 2.72-2.2 4.68-4.76 6.28-2.24 1.16-2.96 1.56-4.44 3.52-2.56 2.76-5.12 3.56-8.07 5.92zm-74.31 7.88c4.78 1.58 11.410.4 16.190.8 6.260.38 13.25 1.96 19.510.38-3.3-1.18-7-1.18-9.93-1.58-2.58-0.38-4.78-2.36-7-2.76-2.58-0.4-6.26 1.98-8.83 1.98-4.80.4-9.57 0-14.37 0zm17.55-95.42c5.12 4.7 6.58 10.15 6.58 17.190.72-3.12 2.54-7.82 1.82-10.93-1.1-2.74-4.74-5.08-6.94-6.66z" fill="#db314b" fill-rule="evenodd"/><path d="M394.48 275.79c-2.56 1.6-3.32 7.43-2.56 10.15 1.84-4.28 7.72-5.44 2.96-10.15zm-5.88 16.79c-1.84 1.56-5.92 8.59-1.84 9.35-0.76-1.92 0-4.28 1.84-5.44 1.48-1.16 3.32 0 4.04-1.56 2.2-2.72-2.2-5.48-3.32-2.72zm2.08 9.47c-2.16 1.16-2.56 8.15 1.12 8.52 1.44-2.68-0.36-6.96 2.16-9.28-0.72-1.2-1.44-0.4-2.16 0zm-4.04 9.39c-1.48 1.6-1.48 7.08 1.12 7.44 2.92 0 1.84-5.08 0-5.48zm-200.94-36.14c-0.72 1.56-1.46 3.14-0.72 5.1 1.82-0.78 2.18 1.18 3.64 2.34 1.46-2.74-1.08-5.48-1.46-7.84zm3.72 14.47c-1.86 1.98-2.62 5.54-0.38 7.12 1.12-2.36 4.08-2.76 1.86-6.32zm-1.18 18.11c-1.84 1.58 0 11.87 2.92 10.29-1.1-3.96-2.2-5.54-1.1-9.890.36-1.2 2.18-3.560.72-4.76-1.08-0.8-2.18 0-2.540.8zm7.74 5.56c1.860.4 4.82 2.38 2.98 5.12-0.38-2.36-2.24-3.14-3.36-3.92z" fill="#f3e1e3" fill-rule="evenodd"/><path d="M394.4 277.31c-2.6 1.2-1.48 4 1.08 3.2v-2.8zm-4.72 15.67c-1.120.4-1.88 1.16-1.88 2.32 1.88-0.36 4.16-0.36 4.88-2.72-0.36-0.4-1.12-0.4-1.48-0.8 0 0-0.360.4-0.360.8zm1.36 9.76c-2.160.4-2.92 2.8-2.16 4.8 2.160.4 2.52-2.4 3.24-4zm-200.58-12.47c-1.140.8-1.52 1.96-1.9 3.14 1.140.38 2.28 0 3.04-1.18zm-0.64 13.67c-1.84 1.2-2.22 5.140.36 6.32 1.1-1.96 1.1-3.940.74-6.32z" fill="#fbf4f5" fill-rule="evenodd"/><path d="M194.18 300.42c0.72 2.760.72 5.92 1.46 8.68 1.82-0.4 2.56 1.18 3.64 2.36-3.64-5.12-1.08-13.41-4.38-18.55-0.360.4-1.080.8-1.46 1.58zm0.38 24.36c1.48-0.78 3.68-1.18 4.40.78-1.82 2.74-1.46 5.88-1.82 8.99-0.38-2.34-1.84-5.86-1.84-7.82zm188.77-0.34c5.12-2.36 2.56 3.96 1.84 6.28-1.08-1.16-1.08-3.52-1.44-5.08zm6.36-2.84c2.16-1.56 4.32-4.32 4.68-6.680.36-1.56 1.44-6.680.72-7.88-1.8 2.76-1.08 7.12-5.76 5.92 2.52 1.2 3.24 2.76 1.44 5.12zm7.68-36.54c-0.36 1.2-1.12 2.4-1.88 3.2 2.64 1.16 1.88 9.47 1.52 11.83 2.96-1.96 1.84-10.67 2.24-14.63zm-16.91 27.18c-0.360.4-0.72 1.6-1.12 2 2.24 1.56 1.48 4.68 2.96 6.64 0-2.320.72-4.32 2.56-5.48-1.84 0-3.28-0.8-4.04-2.36z" fill="#dfaab4" fill-rule="evenodd"/><path d="M201.16 315.33c-0.36 1.98-1.46 4.32-2.18 6.28 3.28-2.74 5.1-11.75-0.74-12.55 0 2.76 2.56 3.94 2.2 7.08zm-16.91-30.26c0.36 1.18 1.1 2.36 2.56 2.36-0.72 1.96-1.84 3.14-1.46 5.48-1.1-1.56-2.22-3.52-1.48-5.48z" fill="#dfaab4" fill-rule="evenodd"/><path d="M420.99 250.53c2.12 1.2 1.08 4.4 2.8 5.6 0-2-0.68-4.4 0-6zm-14.87-54.53c0 2.40.76 4.760.76 7.520.4-2.36 1.52-4.32 3.4-5.52-0.72 0-0.72-0.4-1.48-0.8zm0.88-33.82c0 20.36 3.96 0 5.52 1.08-1.16 2.16-3.52 4.32-3.92-1.08 0-2.16-0.4-3.24-0.4z" fill="#e37e87" fill-rule="evenodd"/><path d="M314.21 289.78c-1.480.84-0.74 1.680.38 1.68 1.1 0 0.36-1.26-0.38-1.26zm-8.54 3.52c-0.740.8-1.12 1.6-1.5 2.8 30.8 3.36-3.2 1.88-2.8zm-8.84-9.03c-0.380.42-1.140.42-1.14 1.26 1.140.42 1.52 0 1.52-0.84zm-23.93 3.68h1.12c0 0.76-0.36 1.14-1.12 1.52zm12.15-3.2c0 0.8-0.34 1.2-1.040.8zm-19.510.32c0.640.80.64 1.6-0.32 2zm-48.63 19.79c-2.96 1.56-4.44 5.82-5.18 8.91 1.86-1.54 2.22-4.26 4.06-6.2 1.48-1.16 3.7-2.32 4.42-4.28z" fill="#fff" fill-rule="evenodd"/><path d="M336.96 67.12c-2.96 4.72-1.84 16.11 2.24 20.43 2.96 3.16 14.03 5.48 15.51 0-4.44-3.52-9.59-5.88-12.19-11.39-1.12-2.76-2.2-7.83-2.96-9.43zM296.5 61.76c0 5.5 0 12.53 2.22 17.63 2.56 5.48 8.81 3.54 13.95 3.54 1.84 0 6.26 0 7.71-1.58 3.3-3.92-3.68-2.74-5.52-2.74-7.71-0.78-11.01-10.17-16.53-15.27zm-40.09 1.44c-3.32 5.9-2.58 18.83 4.44 20.79 5.88 1.58 16.19 3.14 21.35-1.96-10.31 5.88-18.41-10.19-23.21-17.65zm-32.36 11.03c0 6.7-1.1 13.77 4.78 18.47 4.02-2.34 11.35-3.14 14.27-7.06-3.66-0.8-10.25-0.8-13.17-3.54-2.2-2.36-1.84-7.08-5.14-7.88zm-29.48 21.57c1.84 3.16 2.2 8.29 4.4 11.05 2.56-1.18 3.66-3.94 5.86-5.52 2.94-2.38 6.6-1.2 8.78-3.16-4.38-3.96-13.17 3.94-16.09-4.76zm-4.5 19.77c-1.84 3.52-2.22 7.78-4.46 11.27 4.84-2.32 11.51-5.04 8.55-11.27zm-14.27 29c-0.74 3.54-1.86 7.06-1.12 10.57 3.34-1.96 8.13-7.83 4.08-11.75zm221.57-34.52c-1.8 4.72-2.2 6.68 1.12 10.55 5.48 6.24 1.84-4.68 1.84-7.4zm8.11 36.06c-6.64-1.6-2.56 11.75 3.32 9.440.36-3.56-4.4-8.28-1.48-11.03zm-38.18-67.24c-1.12 3.16-4.44 15.79-2.56 18.55 1.84 2.76 10.67 1.96 13.95 4.32-3.68-3.12-7.36-5.88-8.83-10.63-0.72-2.76-2.2-7.08-2.2-10.23zm45.57 220.75c-2.2 2-4.04 5.92-2.92 8.63 2.92-0.76 3.28-4.32 6.16-5.48zm-9.2 28.3c-2.96 0-8.2 6.28-5.2 9.04 2.6 2.32 5.2-3.52 6.68-5.12zm-38.38 53.89c-3.64-0.4-6.88 12.15-7.24 15.67-0.4 3.12 0 6.240.36 9.35 1.44-4.68 3.24-8.99 6.16-12.51 3.24-4.28 2.88-4.68 3.24-10.55zm-33.82 35.74c-5.52-2.72-7-15.35-3.32-20.47 2.6-3.52 11.79-5.52 16.19-3.920.36 5.12-2.56 1.56-5.16 3.52-5.12 3.96-2.92 11.03-6.24 15.75zm-36.74 1.14c-1.84-3.540.36-8.26-0.74-12.19 2.58-3.16 7.7-4.74 11.35-5.52 2.2-0.78 10.63-1.98 12.090.4 2.56 4.72-9.52 4.72-11.71 7.08-3.66 4.34-4.76 7.88-9.54 11.41zm-30.980.7c-1.84-3.92-4.04-18.81 2.2-19.99 2.94-0.4 16.87 5.88 17.59 8.23-8.06 1.18-13.19 2.74-16.11 10.97zm-30.98-8.16c0-5.5-3.68-9.81-1.1-14.93 1.84-3.94 10.65-3.94 13.97-3.14 1.480.38 9.91 1.96 6.26 4.72-1.84 1.18-7-2.36-9.57-1.58-4.04 1.58-5.14 6.3-5.88 10.21zm-21.67-20.05c0.38-2.78 2.22-9.13 5.54-8.73 1.840.8 4.42 6.74 4.78 8.73-2.94-2-5.16-1.6-7.740.38zM415.43 213.99c-1.08 2.36-1.8 7.08 1.4 7.84 0-2.32-0.32-4.68-0.32-7.44zm-3.36-29.82c-1.08 1.6-1.8 7.20.36 6z" fill="#fafcfc" fill-rule="evenodd"/><path d="M341.03 80.87c-6.72 2.36-0.36 7.83 4.48 6.68-1.48-1.56-1.84-3.52-2.24-5.08zm7.76 6.32c-1.12 1.56-1.12 3.080.36 3.84 1.84-0.76 2.2-2.28 1.48-3.84zm-47.95-12.63c-1.46 1.6-3.3 5.2-1.46 7.2 1.84 0 3.66-1.2 5.12-2.8-0.72-1.2-1.82-2.4-2.56-3.6zm9.29 4.88c-1.80.76-3.24 3.4-0.36 3.76 2.52 0 3.6-2.62 1.8-3.76zm-53.81-6.4c0 4.72-0.76 7.86 2.6 10.21 1.880.78 6.36 2.34 7.83 1.96-0.36-4.32-8.95-3.54-8.57-10.19zm-30.9 11.03c0.76 4.28 1.12 8.15 5.58 7.78 1.86-0.38 7.42-3.5 7.78-5.06-2.96-2.32-7.78 3.9-9.25-1.16zM197.86 98.54c-0.74 6.64 5.82 5.08 6.540.8zm-8.84 20.45c-0.72 1.54-1.1 2.7 0 3.86 2.9 0 2.9-2.7 2.54-4.64zm-14.71 30.68c-0.38 1.54 0 2.72 1.44 3.48 2.18-0.76 2.18-3.48 1.46-5.44zm191.86-58.65c-1.48 4.4-1.08 8.39 3.96 7.2 0-2-0.72-4-0.36-5.2zm33.1 23.18c-1.480.8-2.6 2-3 3.16 1.52 1.56 7.04 5.48 5.96 0zm12.47 187.41c-1.48 2-1.08 4.760.36 6.32 1.48 0 1.84-1.16 1.84-2.76zm-174.19 89.63c-1.5 2.32-0.74 5.040.36 6.96 1.48-0.76 3.34-1.92 4.82-1.920.36-1.16-0.38-2.72-1.48-3.88zm27.28 11.67c-4.48-0.4-3.72 7.43 1.48 5.48 2.24-0.78 3.36-1.56 3.72-3.92zm33.42 1.6c-1.86 1.58-2.24 3.56-1.48 5.94 2.220.38 6.3-1.98 7.4-4.36-0.74-0.38-1.1-0.78-1.84-1.58zm33.26-5.84c-1.080.8-1.84 1.96-1.84 3.16 2.96 1.56 8.79-3.96 5.88-5.96zm32.02-11.87c-3.72-0.44-4.84 4.84-1.48 5.64 2.60.8 4.8-2.4 4.44-4.84zm-146.91-1.96c-1.120.4-1.86 1.98-2.24 3.16 1.88 1.56 4.48 1.18 6.72 0z" fill="#fff" fill-rule="evenodd"/><path d="M277.71 419.41c2.220.78 6.28 3.1 8.47 1.16 1.84-1.56 1.48-7.380.74-9.34-1.1 3.12-4.78 7.78-8.1 8.18zm43.13-7.86c-0.74 2.40.36 7.16-2.2 9.13-1.46 1.18-10.27 0-11.75-0.4 2.58-3.18 4.42-1.58 7.36-2.78 2.2-0.8 3.3-2.78 4.76-4.76zm20.99 3.68c2.2 0 7.36-1.96 8.44-3.96 1.08-1.96 1.08-10.67-0.36-11.87-0.36 3.96-2.56 8.71-2.56 12.27zm21.67-13.03c2.6-3.12 14.31-10.99 7.36-15.35-0.72 2.76-1.84 6.32-2.56 9.47zm13.99-15.31c0 0.8 0 1.60.76 1.96 1.84-0.76 2.2-3.92 3.68-5.88 1.12-1.6 5.16-2.76 5.52-4.76 2.2-5.52-3.680.8-4.4 1.6zm18.43-29.86c1.12 3.56-1.8 3.56-2.52 5.52-0.4 1.6 0 2.760.36 4.32 2.56-1.56 3.64-4.72 5.08-7.08zm8.76-18.15c-3.240.8-4.72 1.2-2.52 5.52 1.08-1.96 2.52-3.52 3.96-5.12zm8.15-24.63c1.84 1.16 1.12 4.32 2.2 6.640.76-2.320.76-4.68 1.48-7.040.72-1.96 1.44-3.56 1.44-5.92zm2.56-109.29c0.36 2.36-0.72 3.92-1.44 5.840.36-0.36 1.8-0.76 2.16-1.160.72-1.160.36-2.720.36-3.88z" fill="#e3eced" fill-rule="evenodd"/><path d="M429.78 256.56c2.56-2 2.56-3.56 5.12-5.52 2.2-1.56 2.56-3.16 2.2-5.92-0.36-2.36-1.08-4.32-1.44-6.28-0.4-1.96-0.76-3.92-0.76-6.68 0-3.16 0-5.52-4.04-7.08-4-2-5.12-1.2-8.790.36-3.28 2-3.64 1.2-5.12 3.96-1.48 3.16-0.36 4.72-0.36 7.47 0 3.12 1.84 10.59 2.92 14.55 1.12 3.92 5.16 10.19 10.27 5.12z" fill="#f5f9f9" fill-rule="evenodd"/><path d="M422.06 246.29c-0.76 2.36-0.76 7.36 2.92 7.36-0.36-2.32-1.08-4.64-1.84-6.96z" fill="#fafcfc" fill-rule="evenodd"/><path d="M420.5 237.66c0.4 1.96-0.4 3.92-0.4 5.840.4-0.76 1.56-1.16 1.96-1.920.36-0.8-0.4-2.36-0.4-3.92zm-9.15-63.32c-0.36 2-1.88 6.32 1.12 5.160.36-1.6-0.76-2.76-0.36-4.36zm-5.88-34.54c0.4-1.2 1.88-2.8 2.96-2.4-0.72 1.2-0.72 2.8 0 3.6zm-14.79-28.22c2.56-0.8 3.28-2.4 2.56-5.2-0.360.8-1.08 1.2-1.44 1.6zm-2.24 3.12c2.96 0 2.240.4 2.96 2.76 1.12 2.36 3.32 3.96 4.4 6.28-2.56-0.36-1.84 0-3.28-1.96-1.48-1.96-3.32-3.52-3.68-5.88zm-9.12-28.3c3 1.96 4.08 6.68 4.84 10.190.36 1.96 1.12 3.920.76 5.88 0 0.8-0.76 1.56-0.76 2.72 1.48-2.32 2.96-7.04 3.32-9.75 0-2.76-3.32-7.43-5.92-7.83zm-30.46-22.31c2.96 1.2 7.71 2.36 9.91 4.72 2.56 2.720.76 8.60.36 12.07-1.08-3.88-2.56-12.07-6.24-13.63zm-32.86-6.8c2.960.8 7.72-1.2 10.270.8 2.92 2 1.84 8.75 1.12 11.51 0-4.36-2.2-7.52-5.52-9.51zm-42.29-0.36c2.22 0 4.78-0.4 6.98-0.78 1.48-0.4 4.04-1.58 5.52-0.78 1.820.78 1.46 1.94 1.46 3.9 0 2.740.36 6.66-0.36 9.770.36-5.46-1.48-8.99-5.52-11.33zm-39.5 7.06c1.86-1.6 6.68-4.78 8.91-3.98 2.60.8 4.44 8.34 3.34 10.71-0.74-1.98-1.12-4.76-2.24-5.94-1.1-1.6-3.34-0.8-5.18-1.2zm-30.14 20.41c1.48-3.12 5.52-6.64 8.46-8.2 2.56-1.96 2.92 1.18 4.02 4.3-1.82-2.34-4.02-1.18-6.24-0.38zm3 20.45c-2.58 1.58-2.94 5.12-3.32 7.86 1.84-3.14 5.52-9.83 9.19-9.83zm162.26-1.66c1.88 0 3.720.4 5.2 1.6 2.56 1.6 1.84 3.6 3.28 6.4-2.56-2.8-5.88-4-8.07-7.2zm-185.93 5.18c4.82 4.32-1.12 12.95-4.84 15.690.76-5.88 1.86-11.37 4.84-16.47 1.1-1.56 2.6-4.32 4.82-4.720.74 1.98 2.96 3.54 3.7 5.9-1.10.4-2.58 0-3.7-0.4zm-9.51 32.16c1.14-0.38 2.66-1.14 3.4-2.28-1.12-1.52-2.64-2.28-4.16-2.68zm46.01 262.08c1.86 1.96 5.58 7.06 7.79 7.430.36-1.96-0.74-4.3-1.12-6.26 0-1.960.38-3.920.38-5.9-1.12 3.14-4.46 4.72-7.05 4.32zm23.98 14.51c2.560.8 5.84 3.56 8.76 2.78 2.92-0.8 1.46-6.36 2.2-9.54-0.74 2.4-2.92 7.93-5.48 6.76zm180.77-128.04c-0.76 1.2-1.88 2.76-2.28 4.32-0.76 1.2-0.76 2.36-0.76 3.920.76-1.56 1.92-3.92 2.68-5.88z" fill="#e3eced" fill-rule="evenodd"/><path d="M415.75 289.46c-0.360.8-2.12 3.16-0.72 3.960.720.36 1.08 0 1.4-0.4z" fill="#fff" fill-rule="evenodd"/><path d="M417.95 258.44c2.56 3.520.4 6.280.76 10.15 2.16 0 1.8-1.16 2.16-2.72 0-1.56 1.12-1.56 1.84-3.12 1.08-3.12-2.2-2.36-3.28-4.32z" fill="#f8dfde" fill-rule="evenodd"/><path d="M420.58 260.76c-1.120.8-1.12 2-0.36 3.2l1.08-2.4c-0.36 0-0.36 0-0.36-0.4zm-0.68 3.52c-0.760.8-0.76 1.56-0.36 2.320.72-0.36 1.44-1.16 1.08-2.32z" fill="#fff" fill-rule="evenodd"/><path d="M171.3 291.02c-1.46-5.9-4.4-12.17-5.88-17.67-1.1-5.48 1.84-26.66 1.84-29.02l-21.31-2.36 1.84 52.97 14.69 9.79z" fill="#eca5a7" fill-rule="evenodd"/><path d="M164.76 228.62c2.22 2.36 2.22 8.63 2.22 14.13-0.36 5.5-3.7 15.69-10.39 14.91z" fill="#fafcfc" fill-rule="evenodd"/><path d="M169.88 352.37c-8.81-26.3-11.77-48.29-10.65-49.47 1.84-1.58 5.5-1.96 9.55-3.14 5.14-1.98 8.44 2.74 9.17 7.860.74 4.7 1.48 1.56 2.58 8.630.74 5.10.74 6.68 0 6.68 3.3 4.32 5.140.78 6.62 7.46 1.46 6.68 1.84 3.94 3.68 9.03 2.2 5.5 2.56 8.630.36 11.39 2.2 1.18 8.07 6.68 9.2 9.410.72 1.96 1.82 3.54 1.82 6.3 0 5.88 1.84 5.5 2.22 8.63 4.4 1.96 6.620.78 7.33 5.5-2.94 2.74-5.88 8.23-7.34 16.89 0 0.78-0.38 1.56-0.38 2.34l-16.15-9.81s-11.39-17.67-18.01-37.7z" fill="#f5f9f9" fill-rule="evenodd"/><path d="M160.28 301.94c-2.56-6.64-4.76-12.11-6.22-18.37-0.38-1.56-0.74-3.52-0.74-4.3-0.74-2.74-0.36-8.21 1.84-8.99 1.1 0 7.67-0.8 10.61 3.12 2.18 3.520.36 6.26 3.28 12.91 2.56 4.7 2.2 8.22 1.84 12.51zm0.72-76.51c-2.96-1.18-3.32-2.76-5.92-3.94-2.58-1.18-3.32-2.74-3.32-5.1-0.38-2.76 0-4.72 0-6.680.36-1.980.36-3.94-0.38-6.68-0.38-2.76-1.12-5.12 2.6-7.88 3.32-2.36 4.8-1.96 8.49-1.18 3.70.8 4.080.4 5.92 2.76 1.86 2.36 1.12 4.32 1.48 7.080.74 2.74 2.22 7.46 1.48 10.21-0.74 3.14-1.10.4-1.48 4.32-0.36 3.94-2.96 10.99-8.88 7.08z" fill="#f5f9f9" fill-rule="evenodd"/><path d="M172.84 206.24c1.1 6.66-0.36 14.47-1.84 16.03-2.58 2.34-2.58 4.68-5.54 3.9 2.96-0.78 4.06-5.08 4.44-7.820.36-3.90.74-1.16 1.46-4.30.74-2.74-0.72-7.42-1.46-10.15-0.38-2.740.36-4.7-1.48-7.04-0.36-0.38-0.74-0.78-1.1-1.18 2.580.8 4.42 5.1 5.52 10.55zm-6.29-11.43c-1.84 0-4.04-1.18-6.62-2.74-2.56-1.2-6.62-4.74-6.62-8.28 0-3.56 1.48-5.14 1.48-9.07 0-3.54-1.48-11.81 5.14-11.81 6.62-0.4 7.74 1.18 9.93 4.34 1.84 3.16 3.68 7.47 4.04 9.850.36 2.76-0.36 3.94-0.74 6.3-0.72 2.360.74 8.28-1.1 9.85-1.10.38-3.3 1.56-5.52 1.56z" fill="#f5f9f9" fill-rule="evenodd"/><path d="M176.47 188.51c-1.46 3.14-0.74 2.74-2.56 4.7-1.84 1.96-4.04 3.92-8.46 1.58v-0.4c0.38 0 0.740.4 1.120.4 2.2 0 4.4-1.18 5.5-1.58 1.84-1.560.36-7.43 1.1-9.790.36-2.36 1.1-3.540.74-6.28-0.38-2.36-2.22-6.68-4.04-9.81-1.1-1.16-1.84-2.34-2.58-3.14 5.52 1.58 8.07 6.67 9.17 9.81 1.46 3.14 1.46 11.37 0 14.51z" fill="#f5f9f9" fill-rule="evenodd"/><path d="M161.46 250.53c-2.6 1.2-1.12 4.4-3.36 5.6 0-20.76-4.4 0-6z" fill="#e37e87" fill-rule="evenodd"/><path d="M169.1 299.62c2.2 1.98 4.04 5.9 2.94 8.63-2.94-0.78-3.3-4.32-6.26-5.48zm9.19 28.3c2.96 0 8.12 6.28 5.18 9.02-2.58 2.34-5.18-3.52-6.66-5.1zM166.6 213.99c1.1 2.36 1.82 7.06-1.46 7.84 0-2.340.38-4.70.38-7.44zm3.22-29.82c1.08 1.6 1.8 7.2-0.36 6z" fill="#fafcfc" fill-rule="evenodd"/><path d="M170.16 301.62c1.46 1.98 1.1 4.74-0.38 6.32-1.46 0-1.84-1.18-1.84-2.76z" fill="#fff" fill-rule="evenodd"/><path d="M204.4 386.89c0 0.78 0 1.58-0.72 1.96-1.86-0.78-2.22-3.94-3.7-5.9-1.1-1.58-4.78-2.76-5.52-4.74-2.22-5.52 3.680.8 4.42 1.58zm-18.35-29.86c-1.08 3.56 1.84 3.56 2.56 5.520.36 1.58 0 2.76-0.36 4.32-2.56-1.56-3.66-4.72-5.12-7.08zm-8.81-18.15c3.260.8 4.7 1.2 2.54 5.52-1.1-1.96-2.54-3.54-4-5.12zm-8.1-24.64c-1.84 1.18-1.1 4.32-2.22 6.66-0.74-2.34-0.74-4.7-1.48-7.06-0.74-1.96-1.5-3.54-1.5-5.9zm-2.6-109.27c-0.34 2.340.7 3.9 1.4 5.84-0.34-0.38-1.74-0.76-2.1-1.16-0.7-1.16-0.34-2.72-0.34-3.9z" fill="#e3eced" fill-rule="evenodd"/><path d="M152.19 256.55c-2.58-1.98-2.58-3.54-4.8-5.52-2.58-1.56-2.96-3.14-2.58-5.90.36-2.36 1.1-4.32 1.48-6.30.36-1.960.74-3.920.74-6.68 0-3.14 0-5.5 4.06-7.08 4.06-1.98 5.16-1.18 8.860.4 3.32 1.96 3.7 1.18 5.18 3.92 1.46 3.160.36 4.720.36 7.47 0 3.14-1.84 10.61-2.96 14.55-1.1 3.94-5.16 10.21-10.33 5.12z" fill="#f5f9f9" fill-rule="evenodd"/><path d="M159.86 246.29c0.72 2.340.72 7.36-2.88 7.360.36-2.32 1.08-4.64 1.8-6.96z" fill="#fafcfc" fill-rule="evenodd"/><path d="M161.42 237.66c-0.36 1.960.36 3.90.36 5.84 0-0.76-1.44-1.16-1.8-1.94-0.36-0.780.36-2.340.36-3.9zm9.18-63.32c0.38 1.98 1.82 6.32-1.08 5.14-0.38-1.580.72-2.760.36-4.34zm-13.29 114.73c0.74 1.18 1.86 2.76 2.6 4.320.36 1.180.36 2.360.36 3.92-0.74-1.56-1.84-3.92-2.58-5.88z" fill="#e3eced" fill-rule="evenodd"/><path d="M166.2 289.46c0.380.8 2.22 3.160.74 3.94-0.360.38-1.1 0-1.48-0.4z" fill="#fff" fill-rule="evenodd"/><path d="M158.48 259.24c2.22 0 3.7-1.56 5.92-3.120.74 1.96-0.36 4.68-1.84 5.06-2.220.78-3.7 0-4.46 3.1v-0.76z" fill="#f8dfde" fill-rule="evenodd"/><path d="M158.82 259.88c-0.72 3.2 3.6 1.2 1.44-0.8zm3.76-1.5c-1.12 3.26 2.560.4 1.1-0.42z" fill="#fff" fill-rule="evenodd"/><path d="M344.35 45.53c-7 1.56-9.19 6.68-11.03 16.51-1.84 9.83-2.6 22.83 1.12 27.14 3.32 4.72 15.47 8.28 19.87 8.68 4.80.36 7-9.83 8.12-16.55 1.08-6.68-1.12-22.03-4.08-27.14-2.56-5.48-7-10.23-13.99-8.63m23.19 21.99c4.8-4.72 6.64-5.12 11.830.4 5.16 5.12 15.47 15.71 8.84 34.14-2.56 7.87-4.8 11.39-7.36 12.59-0.760.36-4.08-0.8-4.8-1.96-1.12-1.6-2.96-3.96-5.2-5.52-6.28-3.16-8.83-4.72-9.95-11.39-0.76-6.68 5.16-26.7 5.16-26.7" fill="none" stroke="#000" stroke-width=".8" stroke-linecap="round" stroke-linejoin="round"/><path d="M289.2 113.05c-0.76 2.76-0.76 5.52-0.38 8.280.76 3.920.76 5.90.38 10.21-0.38 1.96-1.14 3.94-1.14 5.9 0 1.580.76 3.14 1.14 5.120.38 4.72-0.38 8.63-1.14 13.35" fill="none" stroke="#ebb4ba" stroke-width="1.199" stroke-linecap="round" stroke-linejoin="round"/><path d="M293.5 44.73c-3.32 12.63-2.2 33.50.4 40.18 2.2 6.67 12.87 4.32 20.59 4.32 7.76 0 13.99-0.36 15.83-6.68 1.84-6.320.4-28.34-2.2-34.66m24.39 364.94c2.2-10.23-0.36-17.31-3.72-21.63-3.68-4.36-19.59-2.36-22.91 3.12-3.72 5.12-0.76 20.470.36 26.38l2.96 10.99" fill="none" stroke="#000" stroke-width=".8" stroke-linecap="round" stroke-linejoin="round"/><path d="M377.53 397.44c-2.96-17.67-11.83-21.23-15.51-18.07-2.96 2.76-6.64 12.95-8.47 19.23 0 4.32 0 9.44-1.12 14.15l-10.67 8.63-2.24 6.64 7.04-5.88 15.47 4.32s18.43-11.75 15.51-29.02" fill="none" stroke="#000" stroke-width=".8" stroke-linecap="round" stroke-linejoin="round"/><path d="M412.03 352.39c8.84-26.3 11.75-48.29 10.67-49.49-1.84-1.56-5.52-1.96-9.55-3.12-5.16-2-8.47 2.72-9.2 7.84-0.72 4.72-1.48 1.56-2.56 8.63-0.76 5.12-0.76 6.68 0 6.68-3.32 4.32-5.160.8-6.64 7.48-1.44 6.68-1.84 3.92-3.68 9.03-2.2 5.48-2.56 8.63-0.36 11.39-2.2 1.16-8.07 6.68-9.19 9.39-0.72 1.96-1.84 3.56-1.84 6.32 0 5.88-1.84 5.48-2.2 8.63-4.4 1.96-6.60.76-7.36 5.48 2.96 2.76 5.92 8.23 7.36 16.91 0 0.760.36 1.560.36 2.32l16.19-9.79s11.39-17.67 17.99-37.7" fill="none" stroke="#000" stroke-width=".8" stroke-linecap="round" stroke-linejoin="round"/><path d="M377.49 375.01c7-4.32 11.39-3.12 14.31 1.52m9.19-53.25c5.560.4 4.440.8 7.04 2.32 4.44 1.96 4.8 4.64 6.64 4.28" fill="none" stroke="#000" stroke-width=".8" stroke-linecap="round" stroke-linejoin="round"/><path d="M401.48 360.22s-1.44-3.16-5.88-4.72c-4.44-1.6-3.32-0.4-6.64 1.56-2.6 1.2-6.68 8.28-2.24 9.43-2.560.4-2.56 5.88-2.56 5.88" fill="none" stroke="#949494" stroke-width=".8" stroke-linecap="round" stroke-linejoin="round"/><path d="M382.29 378.29c-3.68-0.4-2.2 7.76-6.64 7.76" fill="none" stroke="#bababa" stroke-width=".8" stroke-linecap="round" stroke-linejoin="round"/><path d="M393.72 349.59c-2.24-4.72 1.08-8.28 2.92-13.39 1.48-5.52-0.72-8.28 6.64-9.07 2.96-0.4 8.12 3.16 8.83 5.92m-0.84-10.63c-1.48-1.16-3.68-0.36-4.76-1.96-2.24-2.360.72-4.72 1.08-6.670.36-3.56 0-3.160.72-6.72 1.12-5.92 4.04-6.32 6.28-5.52 4.40.8 5.84 2.76 5.84 2.76" fill="none" stroke="#949494" stroke-width=".8" stroke-linecap="round" stroke-linejoin="round"/><path d="M407.95 330.24c-1.08 2.76-2.92 5.12-5.48 6.68-1.440.8-3.280.8-4.04 2.72 2.6 1.6 1.12 7.83 1.12 9.39m18.07-44.61c-2.16 3.56-2.92 7.12-6.96 8.67 1.84 1.96 3.32 4.32 1.84 6.68" fill="none" stroke="#bababa" stroke-width=".8" stroke-linecap="round" stroke-linejoin="round"/><path d="M403.32 336.64c1.48 0 2.92-0.4 40.8m-39.5-235.7c11.95 1.2 10.83 7.52 13.03 10.63m22.47 13.27s-5.92-0.8-6.32 2.72" fill="none" stroke="#bababa" stroke-width=".8" stroke-linecap="round" stroke-linejoin="round"/><path d="M399.16 126.04c-4.8-7.04-7.04-10.99-6.64-13.35" fill="none" stroke="#bababa" stroke-width=".8" stroke-linecap="round" stroke-linejoin="round"/><path d="M394.44 109.57c-0.72 3.2-2.6 4-6 2.8m34.38 107.93c-4.08-1.96-2.96-0.76-2.6-2.76 0-1.56 2.24-2.72 1.88-3.92-0.76-1.96-1.88-3.16-2.6-4.32-0.36-1.2 2.6-3.16 2.6-4.76-0.36-1.16-4.48-4.32-4.48-5.92" fill="none" stroke="#bababa" stroke-width=".8" stroke-linecap="round" stroke-linejoin="round"/><path d="M419.47 209.35s-3.68 1.6-5.2 2m6-24.75c-2.6 0-1.840.36-1.84-0.8 0-1.6 2.56-4.36 2.2-5.12-0.72-1.2-2.6-2-3.32-2.76-0.76-0.8 1.84-4.76 1.48-5.52-0.76-1.2-4.44-1.2-4.84-2.4m2.16 18.79c-0.32 1.24 0 3.28 0 4.88" fill="none" stroke="#bababa" stroke-width=".8" stroke-linecap="round" stroke-linejoin="round"/><path d="M417.31 177.85s-2.92 2-3.68 2.8m9.83-1.12c-1.520.4-2.640.76-3.04 1.12m-1.76-8.31c2.96-0.76 2.96-0.76 2.96-2.32m5.52 44.45c-1.48-0.72-4.8-1.12-5.2-0.72" fill="none" stroke="#bababa" stroke-width=".8" stroke-linecap="round" stroke-linejoin="round"/><path d="M420.9 225.42c2.96-1.16 3.32-2.76 5.92-3.92 2.6-1.2 3.32-2.76 3.32-5.120.4-2.76 0-4.72 0-6.68-0.36-1.96 0-3.920.4-6.680.36-2.76 1.08-5.12-2.6-7.88-3.32-2.36-4.8-1.96-8.52-1.16-3.680.8-4.080.4-5.92 2.76-1.84 2.36-1.12 4.32-1.48 7.08-0.76 2.72-2.24 7.44-1.48 10.19 1.12 3.16 1.120.4 1.48 4.320.36 3.96 2.96 10.99 8.87 7.08" fill="none" stroke="#333" stroke-width=".8" stroke-linecap="round" stroke-linejoin="round"/><path d="M409.07 206.24c-1.12 6.680.36 14.47 1.84 16.03 2.6 2.36 2.6 4.68 5.52 3.92-2.56-0.8-4.04-5.08-4.4-7.83-0.36-3.88-0.36-1.16-1.48-4.28-0.72-2.760.72-7.43 1.48-10.150.36-2.76-0.36-4.72 1.48-7.04l1.08-1.2c-2.560.8-4.4 5.12-5.52 10.55m18.83-11.11c3.68 2.76 2.96 5.12 2.6 7.88-0.4 2.76-0.76 4.72-0.4 6.68 0 20.4 3.96 0 6.72 0 1.16 0 2.36-0.72 3.12 2.96-2.36 3.32-7.48 4.04-12.590.36-5.48-3.68-11.39-7-12.590.4 0 0.760.4 1.480.8m-12.51-0.32c1.84 0 4.08-1.16 6.64-2.76 2.6-1.16 6.64-4.72 6.64-8.23 0-3.56-1.44-5.16-1.44-9.07 0-3.56 1.44-11.83-5.2-11.83-6.64-0.4-7.71 1.2-9.95 4.36-1.84 3.16-3.68 7.47-4.04 9.83-0.4 2.760.36 3.960.72 6.320.76 2.36-0.72 8.28 1.12 9.83 1.120.4 3.32 1.56 5.52 1.56" fill="none" stroke="#333" stroke-width=".8" stroke-linecap="round" stroke-linejoin="round"/><path d="M420.99 191.32v0.36c3.32-1.56 7.71-3.52 8.07-10.950.72-7.43-0.72-6.67-0.72-8.99 0-2.36-1.84-7.08-5.88-7.88 3.32 1.96 2.56 7.88 2.2 10.99 0 3.92 1.84 5.48 1.84 8.99-0.36 2.76-2.92 5.88-5.52 7.47m-15.55-2.8c1.48 3.120.76 2.72 2.56 4.68 1.84 1.96 4.04 3.92 8.44 1.6v-0.4c-0.36 0-0.720.4-1.080.4-2.2 0-4.4-1.2-5.52-1.6-1.84-1.56-0.36-7.43-1.08-9.79-0.36-2.36-1.12-3.52-0.76-6.280.4-2.36 2.2-6.68 4.04-9.79 1.12-1.16 1.84-2.36 2.6-3.16-5.52 1.6-8.07 6.68-9.2 9.84-1.08 3.12-1.48 11.35 0 14.51m15.07-25.5c5.12-3.12 3.68-6.28 4.04-11.390.36-5.12-0.72-10.99-4.4-14.91-3.68-3.56-6.96-4.36-12.83-2-6.24 2-4.76 2.36-6.96 6.32-2.24 4.32-2.24 4.72-1.48 9.83 1.08 5.48 3.28 5.08 6.6 8.23 2.92 3.16 6.24 6.28 15.03 3.92" fill="none" stroke="#333" stroke-width=".8" stroke-linecap="round" stroke-linejoin="round"/><path d="M429.78 206.16c-1.12-1.52-5.6-1.52-7.84-1.52m9.36 2.32c-0.8 0-0.4-0.4-1.2-0.8m-18.79-47.17c-0.36-1.920.32-3.120.32-4.68-0.32-2.32-1.04-2.32-1.72-4.28-0.72-2.76-1.08-9.39-0.36-11.35m-1.12 3.84c-1.48-0.36-3-0.36-3.76-1.12" fill="none" stroke="#bababa" stroke-width=".8" stroke-linecap="round" stroke-linejoin="round"/><path d="M402.2 135.52c7.36-2.36 8.07-3.16 8.79-8.230.76-5.52 1.84-10.23 1.48-13.79-0.36-3.52-1.08-3.52-4.04-7.83-3.32-4.72-7.36-7.08-11.03-6.68-3.680.4 1.08-3.96-2.2-3.56-3.320.8-7.36 10.23-10.67 15.35-3.32 5.08-4.08 11.390.72 12.95 4.44 1.96 7 5.12 8.47 8.28 1.48 3.12 5.52 4.68 8.47 3.52" fill="none" stroke="#333" stroke-width=".8" stroke-linecap="round" stroke-linejoin="round"/><path d="M421.94 179.89c-0.720.36-0.72 1.08-1.44 1.08 0-0.72-0.72-0.72-0.72-1.440.360.36 1.80.72 2.160.36z" fill="gray" fill-rule="evenodd"/><path d="M420.5 163.1c5.16-3.16 3.68-6.32 4.08-11.430.36-5.16-0.76-11.07-4.44-14.99-1.48-1.2-2.6-2-3.72-2.8 4.080.8 7.75 3.16 9.99 7.92 2.56 4.72 4.4 20.91-7.76 22.07h-1.84c1.08-0.36 2.2-0.36 3.68-0.76" fill="none" stroke="#333" stroke-width=".8" stroke-linecap="round" stroke-linejoin="round"/><path d="M416.51 273.31c1.12-5.48-1.52-18.03-1.52-20.39M292.46 423.7c11.43 0 21.03 0 29.86-1.16v-1.16c2.56-16.83 1.48-25.07-3.32-26.22-3.32-0.8-18.07 3.12-23.59 5.48-5.16 1.96-5.56 14.07-3.32 21.91l0.36 1.16z" fill="none" stroke="#000" stroke-width=".8" stroke-linecap="round" stroke-linejoin="round"/><path d="M395.16 360.86c-2.20.8-4.04 2.8-4.44 5.2-1.08-0.4-1.480.4-2.60.8m3.36-1.6c1.080.4 1.8 1.56 2.16 3.12" fill="none" stroke="#bababa" stroke-width=".8" stroke-linecap="round" stroke-linejoin="round"/><path d="M237.6 45.51c7.02 1.58 9.23 7.46 11.45 17.29 1.84 9.81 2.2 21.99-1.12 26.3-3.68 4.72-15.13 7.86-19.93 8.26-4.80.38-7.4-9.43-8.49-16.11-1.12-6.68 1.48-21.99 4.06-27.1 2.58-5.5 7.01-10.21 14.03-8.63" fill="none" stroke="#000" stroke-width=".8" stroke-linecap="round" stroke-linejoin="round"/><path d="M214.35 67.52c-4.42-5.12-6.26-5.12-11.39 0-5.16 5.5-15.83 16.09-9.19 34.54 2.94 7.86 4.78 11.39 7.71 12.570.740.38 3.68-0.78 4.78-2.36 1.1-1.58 2.58-3.54 5.16-5.1 5.88-3.54 8.81-5.12 9.55-11.39 1.1-6.68-4.78-27.08-4.78-27.08m72.16-23.96c3.68 12.61 2.22 33.48-0.36 40.18-2.2 6.67-12.87 4.32-20.59 4.32-7.74 0-13.99-0.38-15.83-6.7-1.84-6.3-0.36-28.34 2.22-34.64M229.48 412.79c-2.22-10.23-1.1-15.75 2.22-20.09 3.68-4.34 21.03-3.94 24.34 1.58 3.68 5.120.74 20.49-0.38 26.4l-2.94 11.01" fill="none" stroke="#000" stroke-width=".8" stroke-linecap="round" stroke-linejoin="round"/><path d="M204.4 397.42c2.96-17.67 11.79-21.21 15.49-18.05 2.96 2.74 6.64 12.95 8.48 19.23 0 4.32 0 9.41 1.12 14.13l10.69 8.63 2.2 6.66-7-5.88-15.49 4.32s-18.45-11.77-15.49-29.04" fill="none" stroke="#000" stroke-width=".8" stroke-linecap="round" stroke-linejoin="round"/><path d="M214.39 101.42c-11.83 1.18-11.09 7.38-12.95 10.47m-23.51 13.75s5.96-0.8 6.32 2.72" fill="none" stroke="#bababa" stroke-width=".8" stroke-linecap="round" stroke-linejoin="round"/><path d="M181.93 126.04c4.82-7.06 7.04-10.99 6.68-13.35" fill="none" stroke="#bababa" stroke-width=".8" stroke-linecap="round" stroke-linejoin="round"/><path d="M186.81 109.57c0.72 3.2 2.52 4 5.76 2.8" fill="none" stroke="#bababa" stroke-width=".8" stroke-linecap="round" stroke-linejoin="round"/><path d="M161.4 163.02c-5.14-3.14-3.66-6.28-4.02-11.39-0.38-5.120.72-11.01 4.4-14.93 3.66-3.54 6.96-4.34 12.83-1.98 6.24 1.98 4.76 2.36 6.96 6.3 2.2 4.32 2.2 4.72 1.48 9.83-1.1 5.5-3.3 5.1-6.6 8.26-2.94 3.14-6.24 6.28-15.05 3.92" fill="none" stroke="#333" stroke-width=".8" stroke-linecap="round" stroke-linejoin="round"/><path d="M139.96 221.83c1.14 0 0.76-0.36 1.52-0.72m29.14-62.12c0.72-1.94-0.36-3.12-0.36-4.680.36-2.34 1.08-2.34 1.8-4.30.72-2.74 1.08-9.370.72-11.33m1.16 3.84c1.12-0.36 2.62-0.36 3.36-1.12" fill="none" stroke="#bababa" stroke-width=".8" stroke-linecap="round" stroke-linejoin="round"/><path d="M179.07 135.5c-7.33-2.36-8.07-3.14-8.81-8.26-0.72-5.5-1.84-10.21-1.46-13.750.36-3.54 1.1-3.54 4.04-7.88 3.3-4.72 6.24-12.19 9.89-11.79 3.680.4 2.94 4.72 6.24 5.52 3.320.78 5.52 5.9 8.81 10.99 2.94 5.12 3.66 9.05 0 12.59-4.04 3.14-8.44 5.9-10.27 9.03-1.46 3.16-5.5 4.72-8.44 3.54m-17.63 27.58c-5.16-3.16-3.68-6.32-4.04-11.43-0.38-5.140.72-11.05 4.4-14.99 1.46-1.2 2.56-1.98 3.66-2.78-4.020.8-7.34 3.16-9.89 7.9-2.58 4.74-4.42 20.91 7.7 22.09h1.84c-1.1-0.38-2.2-0.38-3.66-0.78" fill="none" stroke="#333" stroke-width=".8" stroke-linecap="round" stroke-linejoin="round"/><path d="M289.46 423.7c-11.41 0-20.97 0-29.8-1.16v-1.18c-2.58-16.83-1.1-25.05 3.32-26.2 3.3-0.8 18.01 3.12 23.52 5.48 5.16 1.96 5.52 14.07 3.32 21.91l-0.36 1.16zm-44.21-231.64c13.67-1.58 33.24 15.73 35.82 32.24" fill="none" stroke="#000" stroke-width=".8" stroke-linecap="round" stroke-linejoin="round"/><path d="M378.17 313.45s13.95-35.34 2.2-68.76c-11.79-34.58-31.26-47.17-48.93-45.17-12.15 1.16-33.5 9.79-30.9 36.94 1.84 16.11-2.96 23.19-9.59 23.19-6.6 0-11.39-7.08-9.55-23.19 2.6-27.14-18.39-35.78-30.9-36.94-17.31-2-36.78 10.59-48.93 45.17-11.79 33.42 2.2 68.76 2.2 68.76" fill="none" stroke="#000" stroke-width=".8" stroke-linecap="round" stroke-linejoin="round"/><path d="M324.88 195.92c-14.03-1.6-21.07 12.55-23.67 29.02m-108.09 33.5c-13.43 12.19-14.55 47.13-5.22 62.84" fill="none" stroke="#000" stroke-width=".8" stroke-linecap="round" stroke-linejoin="round"/><path d="M200 306.35c-1.84-4.32-0.74-9.41-3.68-13.73-2.94-4.7-3.32-6.28-4.04-11.75-0.74-2.76-3.32-11.39-7.71-7.86-4.8 15.31-3.32 36.88 3.3 48.25 2.94 1.18 5.52 3.92 6.26 7.860.72 4.3 2.56 5.88 4.04 7.430.74-7.83 2.58-15.69 6.24-22.35-1.1-3.14-3.3-4.72-4.4-7.86" fill="none" stroke="#000" stroke-width=".8" stroke-linecap="round" stroke-linejoin="round"/><path d="M182.03 292.9c-0.74 3.540.72 6.68 2.18 9.81 1.1 3.140.74 2.760.74 5.9-0.36 3.52 1.46 12.95 5.46 14.11" fill="none" stroke="#000" stroke-width=".8" stroke-linecap="round" stroke-linejoin="round"/><path d="M193.44 302.42c1.52 2.76 1.14 5.10.76 7.83m0.36-2c1.10.8 1.84 1.6 2.56 2.8m-11.83-26.78c0.76 3.16 3.38 3.54 6 4.32m-3.36-0.32c-1.1 1.16-1.84 3.1-1.46 4.64m8.1 30.7c1.1-1.52 2.92-1.52 4 0m-1.76-1.52c0-0.8 0-1.60.32-2" fill="none" stroke="#ca6b82" stroke-width=".8" stroke-linecap="round" stroke-linejoin="round"/><path d="M388.84 258.44c13.39 12.19 14.47 47.13 5.2 62.84" fill="none" stroke="#000" stroke-width=".8" stroke-linecap="round" stroke-linejoin="round"/><path d="M381.93 306.37c2.2-4.320.72-9.43 3.68-13.75 2.92-4.68 3.28-6.28 4.04-11.750.72-2.76 3.68-11.39 7.71-7.83 4.76 15.27 3.32 36.86-3.32 48.25-2.92 1.16-5.16 3.92-6.24 7.84-0.72 4.32-2.56 5.88-4.04 7.43-0.76-7.83-2.6-15.67-6.28-22.35 1.12-3.12 3.32-4.72 4.44-7.84" fill="none" stroke="#000" stroke-width=".8" stroke-linecap="round" stroke-linejoin="round"/><path d="M399.96 292.9c0.72 3.56-0.72 6.68-2.2 9.84-1.12 3.12-0.76 2.76-0.76 5.880.4 3.52-1.44 12.95-5.52 14.11" fill="none" stroke="#000" stroke-width=".8" stroke-linecap="round" stroke-linejoin="round"/><path d="M388.44 302.42c-0.96 2.76-0.96 5.12-0.64 7.83m-0.32-2c-1.120.8-1.88 1.6-2.64 2.8m11.83-26.78c-0.72 3.16-3.36 3.56-6 4.32m3.28-0.32c1.12 1.16 1.84 3.12 1.48 4.64m-7.96 30.7c-1.12-1.52-3-1.52-4.16 0m1.84-1.52c0-0.8 0-1.6-0.32-2" fill="none" stroke="#ca6b82" stroke-width=".8" stroke-linecap="round" stroke-linejoin="round"/><path d="M390.68 350.71c6.640.4 5.92 1.2 12.15 4.32" fill="none" stroke="#000" stroke-width=".8" stroke-linecap="round" stroke-linejoin="round"/><path d="M399.24 299.62c-2.64 3.96-3.76 8.31-2.24 12.63 1.84-2.36 2.96-7.88 2.96-10.63zm-4.4-33.34c0 2.80.4 4.36-1.84 6.32 1.12-0.76 2.6-0.76 3.68-0.36zM383.77 298.1c-1.520.4-3.8 10.27-3.8 11.83 3.04-2.76 3.44-7.08 4.16-10.63zm-185.17 0c-0.36 4.70.72 7.83 2.84 11.35 0-3.92-1.06-8.61-1.76-12.15zm-16.29 1.58c0 3.92-0.38 11.35 2.24 14.090.38-2.740.74-6.26 0-8.99-0.38-1.96-2.24-4.32-2.24-6.68zm5.58 21.27c0.74 3.12 2.96 5.86 4.08 8.97 1.48 2.36 2.96 4.7 5.16 6.64-2.58-3.12-2.58-6.64-4.06-10.53-1.48-3.52-4.44-3.12-6.66-6.26zm207.59-2.06c-1.08 3.56-4.76 8.67-6.6 12.23-1.12 2.72-2.96 5.48-5.16 7.44-0.4-1.96 1.84-3.12 2.92-4.720.76-1.56 1.12-3.12 1.48-4.72 2.2-6.68 4.08-5.12 5.92-8.23zm-209.79-49.41c0.360.760.72 1.52 1.44 2.28-0.72 0-1.440.36-2.160.36zm86.89-63.32c0 1.2-0.74 1.2-1.5 1.6 1.5 1.2 3 2.4 4.48 3.6-0.36-1.6-1.86-3.2-2.6-4.4zm32.82 4c-0.76 2.32-2.28 4.64-2.66 6.960.76-0.76 1.14-1.92 1.9-2.70.76-1.16 1.52-1.94 2.26-2.7-1.120.76-1.5-0.78-1.5-1.56z" fill-rule="evenodd"/><path d="M189.76 290.26c0-1.20.32-2.40.32-3.2m-4.48 5.52c0.4 0 0.8 0 1.2-0.32m7.75 10.47c-0.760.42-2.320.42-2.32 1.24 0 1.64 1.56 1.24 2.32 1.24m2.88 16.07c-0.38-0.88-0.76-0.88-1.52-0.44m-0.32 2.76c-0.68 0-1.04-0.76-0.68-1.52m-9.63-36.14c0.76-0.4 1.12-0.8 1.12-1.2m205.44 2.72c-1.16 1.20.8 2.8 1.16 0m3.28 4.32c-0.72-0.32-1.44-0.32-1.84 0m1.36-5.84c0-0.44-0.32-0.88-0.64-0.88m-6.32 18.23c-0.36 0-2.16 0-2.160.72s1.080.72 1.8 1.04m-2.2 6.39c-0.36-0.8-1.08-1.6-1.84-2m-0.32 11.43c0.72 0 1.44 0 2.16-0.48" fill="none" stroke="#ebccd1" stroke-width=".8" stroke-linecap="round" stroke-linejoin="round"/><path d="M323.36 196.32c-0.36-1.2-0.72-2-1.46-2.8-1.10.4-1.48 2-1.48 3.2-1.84-3.6-4.42-2.8-2.940.8m-71.44-5.46c0-0.78 0-1.180.38-1.58 0 0.40.740.80.74 1.58 0-0.4 1.46-0.78 1.46-1.18 0 0.780.38 1.960.74 2.34 1.1-0.38 1.48-1.56 2.58-2.34 0 1.180.74 1.560.74 2.340.74-1.16 1.84-2.34 3.32-2.740.36 1.580.36 2.740.74 4.3 1.1-0.38 2.2-1.56 3.68-1.940.72 1.56 0 3.9 1.46 4.680.38-0.78 1.48-1.56 2.58-1.56 0 1.56-0.74 3.520.38 4.680.36 0 0.72-0.380.72-0.78m122.89 59.3 2.28-1.2c-0.40.8-0.76 1.6-0.76 2.80.76-0.4 1.88-0.4 2.6-0.4-0.360.4-1.12 1.6-1.48 2.36 1.12 0 1.88 0 2.64-0.36-0.40.76-0.76 1.56-1.16 1.96 1.520.4 2.64 0 3.76 0 0.36 1.6-1.88 2.4-2.6 3.16m-201.16-8.31c-0.36-0.4-1.46-0.8-1.82-1.2 0 1.2 0 1.580.36 2.38-1.82-1.58-2.56 1.18-1.82 2.76-0.38-0.4-0.74-0.4-1.1-0.8-0.380.8-0.38 1.58 0 2.36-1.84-1.96-2.58 2.76-0.38 3.94m98.7-113.41v0.78c1.460.38 3.64-0.78 3.64-2.74-0.72-0.4-1.82-0.4-2.54 0 0.72-0.4 1.82-1.18 2.18-1.96-0.72-0.78-1.82-0.78-2.54-0.4 1.08-1.16 3.26-1.56 2.9-3.52 0-1.56-1.82-1.96-3.26-1.96m-0.38-30.72c0-1.98 3-1.98 4.12-0.8-0.38 1.58-2.24 2.36-3.36 3.14 1.120.4 2.24 0 3.360.8-1.12 1.18-2.24 1.96-3.74 2.74 1.12 1.18 2.980.4 4.1 1.58-0.36 1.16-1.86 1.56-2.98 2.34 5.22-0.38 2.62 2.760.38 5.1" fill="none" stroke="#dd788a" stroke-width=".8" stroke-linecap="round" stroke-linejoin="round"/><path d="M169.82 157.9c1.5 0 3.36-1.94 1.5-3.12-0.38-0.4-1.5 0-1.12 0m5.94-13.03s0 0.480.320.48m3.04-17.35v1.68m5.120c-0.720.38-1.44 1.12-2.16 1.84m9.2-16.79c-0.40.76-0.8 1.9-0.4 2.64m21.71-11.81c0.36-3.54-3.96-1.56-2.520.78m158.31-1.12c0.32-0.360.32-1.120.32-1.52m10.43 11.03c3.24-0.8 2.52-6.4-0.76-2.8m11.27 3.12c-0.320.8-0.32 1.56-0.32 2.32m11.83 10.31c0.320.4 0 1.92 0 2.64m9.19 30.78c0.760.4 2.960.4 2.6-1.2 0-0.8-1.12-0.8-1.84-1.2m-4.76-14.15c-0.80.4-0.80.8-1.2 1.6m9.51 67.8v0.88" fill="none" stroke="#f5f9f9" stroke-width="1.519" stroke-linecap="round" stroke-linejoin="round"/><path d="M430.42 250.57c-4.36-0.8-2.880.36-3.28-1.6 0-1.96 1.84-3.52 1.12-4.68-0.72-1.56-2.2-2.76-3.28-3.52-0.76-1.2 2.16-3.92 1.8-5.12-0.72-1.56-5.48-3.52-5.48-4.72" fill="none" stroke="#bababa" stroke-width=".8" stroke-linecap="round" stroke-linejoin="round"/><path d="M424.98 240.77s-3.04 2-4.56 3.2m13.35-0.08c-1.44-0.4-5.12 0-5.520.4" fill="none" stroke="#bababa" stroke-width=".8" stroke-linecap="round" stroke-linejoin="round"/><path d="M432.7 256.56c2.96-1.6-0.36-3.56 2.2-5.52 2.2-1.56 2.56-3.16 2.2-5.92-0.36-2.36-1.08-4.32-1.44-6.28-0.4-1.96-0.76-3.92-0.76-6.68 0-3.16 0-5.52-4.04-7.08-4-2-5.12-1.2-8.790.36-3.28 2-3.64 1.2-5.12 3.96-1.48 3.16-0.36 4.72-0.36 7.47 0 3.12 1.84 10.59 2.92 14.55 1.12 3.92 8.07 10.19 13.19 5.12" fill="none" stroke="#333" stroke-width=".8" stroke-linecap="round" stroke-linejoin="round"/><path d="M430.86 225.1c4.04 1.56 4.04 3.92 4.04 7.08 0 2.720.36 4.680.72 6.640.4 1.96 1.12 3.92 1.48 6.280.36 1.560.36 2.76-0.36 3.52 2.56-3.12 1.84-8.2 1.48-13.31-0.36-5.48-5.52-10.59-9.23-10.990.76 0 1.120.4 1.880.8" fill="none" stroke="#333" stroke-width=".8" stroke-linecap="round" stroke-linejoin="round"/><path d="M434.42 235.66c-1.08-1.52-5.76-0.36-7.6 0m9.6 0c-0.720.32-0.72-0.32-1.44-0.32" fill="none" stroke="#bababa" stroke-width=".8" stroke-linecap="round" stroke-linejoin="round"/><path d="M421.35 243.13c-0.320.44-0.320.88 0 0.88m-3.36 62.76c0-1.6-2.2-2.8-2.92-1.2-0.76 1.20.72 3.2 1.84 2.8m-4.76 8.23c0.4 0 1.16 0 1.520.32m-6.96 13.35c0.720.4 1.08 1.2 1.76 2m-2.96 5.52c0.32-0.360.64-1.120.64-1.52m-5.84 11.67c0-1.2-1.08-1.2-1.84-0.8m-8.83 20.95c0.36-1.16-0.76-2.72-0.36-4.32m-8.07 15.99c-0.76-0.76-1.12-1.52-1.52-2.32" fill="none" stroke="#f5f9f9" stroke-width="1.519" stroke-linecap="round" stroke-linejoin="round"/><path d="M400.68 337.83c-0.36 1.2-1.08 2.76-1.08 3.92 0-0.76-1.08-1.56-1.48-1.960.76-0.76 1.48-1.96 2.2-2.36zm12.15-25.59c-0.360.76-0.72 1.92-0.72 2.64-0.36-0.36-0.72-0.72-1.44-0.72zm-19.83 50.29c-1.12 1.56 0 2.72 0 3.84-0.36-0.76-0.76-1.12-1.52-1.12zM173.18 140.51c0.720.42 1.080.84 1.8 1.24-0.720.42-1.440.84-2.16 1.24zm15.39-26.3c0.38-0.38 1.14-0.76 1.52-1.14-0.38 0-0.76-0.38-1.14-0.38z" fill="#bababa" fill-rule="evenodd"/><path d="M421.74 301.94c2.56-6.64 4.8-12.11 6.28-18.350.36-1.560.72-3.520.72-4.320.72-2.720.36-8.2-1.84-8.99-1.12 0-7.75-0.8-10.71 3.12-2.2 3.52-0.36 6.28-2.96 12.91-2.96 4.72-2.56 8.23-2.2 12.51" fill="none" stroke="#000" stroke-width=".8" stroke-linecap="round" stroke-linejoin="round"/><path d="M421.62 278.43c-4.4-0.8-4.04 3.16-5.16 6.32-0.36 1.96-1.84 3.12-2.56 5.12-0.360.76-0.76 1.96-0.76 3.12 0 2.36 1.48 3.16 2.96 3.56 1.84 0 2.6 0 3.320.76" fill="none" stroke="#949494" stroke-width=".8" stroke-linecap="round" stroke-linejoin="round"/><path d="M422.42 280.43c-0.36 2.76-2.24 6.28-4.48 7.440.76 1.96-1.52 5.48 0 6.24" fill="none" stroke="#bababa" stroke-width=".8" stroke-linecap="round" stroke-linejoin="round"/><path d="M418.39 290.26c0.72-0.8 1.08-2 1.08-3.2-1.08 0-1.84 1.2-1.08 2z" fill="#bababa" fill-rule="evenodd"/><path d="M425.66 285.15c-1.04-0.36-1.76-0.36-2.480.36m-2.16-7.83c-0.560.8-0.56 1.6-0.56 2" fill="none" stroke="#f5f9f9" stroke-width="1.519" stroke-linecap="round" stroke-linejoin="round"/><path d="M417.23 228.62c-2.24 2.36-2.24 8.63-2.24 14.150.4 5.48 3.72 15.67 10.31 14.91" fill="none" stroke="#333" stroke-width=".8" stroke-linecap="round" stroke-linejoin="round"/><path d="M169.88 352.37c-8.81-26.3-11.77-48.29-10.65-49.47 1.84-1.58 5.5-1.96 9.55-3.14 5.14-1.98 8.44 2.74 9.17 7.860.74 4.7 1.48 1.56 2.58 8.630.74 5.10.74 6.68 0 6.68 3.3 4.32 5.140.78 6.62 7.46 1.46 6.68 1.84 3.94 3.68 9.03 2.2 5.5 2.56 8.630.36 11.39 2.2 1.18 8.07 6.68 9.2 9.410.72 1.96 1.82 3.54 1.82 6.3 0 5.88 1.84 5.5 2.22 8.63 4.4 1.96 6.620.78 7.33 5.5-2.94 2.74-5.88 8.23-7.34 16.89 0 0.78-0.38 1.56-0.38 2.34l-16.15-9.81s-11.39-17.67-18.01-37.7" fill="none" stroke="#000" stroke-width=".8" stroke-linecap="round" stroke-linejoin="round"/><path d="M204.4 374.99c-6.96-4.3-11.37-3.12-14.31 1.54m-9.12-53.25c-5.540.4-4.420.78-7.01 2.32-4.44 1.94-4.8 4.64-6.66 4.26" fill="none" stroke="#000" stroke-width=".8" stroke-linecap="round" stroke-linejoin="round"/><path d="M180.57 360.2s1.48-3.14 5.86-4.72c4.4-1.58 3.3-0.4 6.6 1.58 2.56 1.18 6.58 8.26 2.2 9.43 2.560.38 2.56 5.88 2.56 5.88" fill="none" stroke="#949494" stroke-width=".8" stroke-linecap="round" stroke-linejoin="round"/><path d="M199.6 378.29c3.7-0.4 2.22 7.76 6.64 7.76" fill="none" stroke="#bababa" stroke-width=".8" stroke-linecap="round" stroke-linejoin="round"/><path d="M188.21 349.59c2.2-4.72-1.1-8.28-2.96-13.39-1.46-5.520.74-8.28-6.62-9.07-2.96-0.4-8.12 3.16-8.86 5.92m0.86-10.63c1.46-1.18 3.68-0.38 4.78-1.96 2.2-2.36-0.74-4.74-1.1-6.7-0.38-3.56 0-3.16-0.38-6.7-1.1-5.92-4.42-6.32-6.62-5.52-4.420.78-5.54 2.76-5.54 2.76" fill="none" stroke="#949494" stroke-width=".8" stroke-linecap="round" stroke-linejoin="round"/><path d="M173.94 330.24c1.1 2.76 2.94 5.1 5.5 6.66 1.460.8 3.30.8 4.02 2.74-2.56 1.58-1.08 7.83-0.72 9.39m-18.47-44.61c2.24 3.56 2.98 7.09 7.04 8.67-1.84 1.96-2.96 4.32-1.84 6.68" fill="none" stroke="#bababa" stroke-width=".8" stroke-linecap="round" stroke-linejoin="round"/><path d="M178.57 336.64c-1.44 0-2.9-0.4-40.8m-15.43-117.13c4.04-1.96 2.94-0.78 2.56-2.74 0-1.58-1.82-2.76-1.46-3.960.38-1.96 1.46-3.14 2.2-4.320.36-1.2-2.56-3.16-2.56-4.740.36-1.18 4.38-4.34 4.38-5.92" fill="none" stroke="#bababa" stroke-width=".8" stroke-linecap="round" stroke-linejoin="round"/><path d="M162.42 209.35s3.72 1.6 5.2 2m-5.9-24.77c2.56 0 1.840.38 1.84-0.80.36-1.58-2.58-4.34-2.2-5.120.72-1.18 2.56-1.98 3.3-2.760.72-0.8-1.84-4.74-1.1-5.520.36-1.18 4.02-1.18 4.38-2.38m-2.16 18.79c0.32 1.22 0 3.26 0 4.88" fill="none" stroke="#bababa" stroke-width=".8" stroke-linecap="round" stroke-linejoin="round"/><path d="M164.58 177.85s3.1 2 4.24 2.8m-10.39-1.12c1.520.38 2.660.76 3.04 1.12m2.16-8.31c-3.36-0.76-3.36-0.76-3.36-2.32m-5.44 44.45c1.46-0.74 4.72-1.12 5.44-0.74" fill="none" stroke="#bababa" stroke-width=".8" stroke-linecap="round" stroke-linejoin="round"/><path d="M161 225.42c-2.96-1.18-3.32-2.76-5.92-3.94-2.58-1.18-3.32-2.74-3.32-5.1-0.38-2.76 0-4.72 0-6.680.36-1.980.36-3.94-0.38-6.68-0.38-2.76-1.12-5.12 2.6-7.88 3.32-2.36 4.8-1.96 8.49-1.18 3.70.8 4.080.4 5.92 2.76 1.86 2.36 1.12 4.32 1.48 7.080.74 2.74 2.22 7.46 1.48 10.21-0.74 3.14-1.10.4-1.48 4.32-0.36 3.94-2.96 10.99-8.88 7.08" fill="none" stroke="#333" stroke-width=".8" stroke-linecap="round" stroke-linejoin="round"/><path d="M172.84 206.24c1.1 6.66-0.36 14.47-1.84 16.03-2.58 2.34-2.58 4.68-5.54 3.9 2.96-0.78 4.06-5.08 4.44-7.820.36-3.90.74-1.16 1.46-4.30.74-2.74-0.72-7.42-1.46-10.15-0.38-2.740.36-4.7-1.48-7.04-0.36-0.38-0.74-0.78-1.1-1.18 2.580.8 4.42 5.1 5.52 10.55m-18.83-11.11c-3.68 2.76-2.94 5.12-2.58 7.880.74 2.740.74 4.720.36 6.68 0 1.98-0.36 3.94 0 6.7 0 1.18 0 2.360.74 3.14-2.94-2.36-3.3-7.48-4.04-12.59-0.38-5.5 3.68-11.39 6.98-12.59-0.36 0-0.720.4-1.460.8m12.53-0.32c-1.84 0-4.04-1.18-6.62-2.74-2.56-1.2-6.62-4.74-6.62-8.28 0-3.56 1.48-5.14 1.48-9.07 0-3.54-1.48-11.81 5.14-11.81 6.62-0.4 7.74 1.18 9.93 4.34 1.84 3.16 3.68 7.47 4.04 9.850.36 2.76-0.36 3.94-0.74 6.3-0.72 2.360.74 8.28-1.1 9.85-1.10.38-3.3 1.56-5.52 1.56" fill="none" stroke="#333" stroke-width=".8" stroke-linecap="round" stroke-linejoin="round"/><path d="M160.98 191.3v0.38c-3.32-1.56-7.39-3.52-8.13-10.95-0.74-7.460.74-6.670.74-9.01 0-2.36 1.86-7.06 5.92-7.86-3.32 1.96-2.58 7.86-2.22 10.97 0 3.92-1.84 5.5-1.84 9.020.36 2.76 2.96 5.88 5.54 7.46m15.49-2.8c-1.46 3.14-0.74 2.74-2.56 4.7-1.84 1.96-4.04 3.92-8.46 1.58v-0.4c0.38 0 0.740.4 1.120.4 2.2 0 4.4-1.18 5.5-1.58 1.84-1.560.36-7.43 1.1-9.790.36-2.36 1.1-3.540.74-6.28-0.38-2.36-2.22-6.68-4.04-9.81-1.1-1.16-1.84-2.34-2.58-3.14 5.52 1.58 8.07 6.67 9.17 9.81 1.46 3.14 1.46 11.37 0 14.51" fill="none" stroke="#333" stroke-width=".8" stroke-linecap="round" stroke-linejoin="round"/><path d="M152.11 206.16c1.12-1.52 5.6-1.52 7.83-1.52m-9.11 2.32c0.64 0 0.32-0.40.96-0.8" fill="none" stroke="#bababa" stroke-width=".8" stroke-linecap="round" stroke-linejoin="round"/><path d="M159.94 179.89c0.720.360.72 1.08 1.44 1.08 0-0.720.72-0.720.72-1.44-0.360.36-1.80.72-2.160.36z" fill="gray" fill-rule="evenodd"/><path d="M165.44 273.31c-1.18-5.48 1.54-18.03 1.54-20.39" fill="none" stroke="#000" stroke-width=".8" stroke-linecap="round" stroke-linejoin="round"/><path d="M186.81 360.86c2.20.8 4.04 2.8 4.4 5.2 1.1-0.4 1.480.4 2.560.8m-3.36-1.6c-1.080.4-1.8 1.56-2.16 3.12" fill="none" stroke="#bababa" stroke-width=".8" stroke-linecap="round" stroke-linejoin="round"/><path d="M191.28 350.71c-6.620.4-5.88 1.18-12.15 4.32" fill="none" stroke="#000" stroke-width=".8" stroke-linecap="round" stroke-linejoin="round"/><path d="M167.02 210.83c0.320.440.320.88 0 0.88" fill="none" stroke="#f5f9f9" stroke-width="1.519" stroke-linecap="round" stroke-linejoin="round"/><path d="M151.47 250.55c4.38-0.78 2.920.38 3.3-1.58 0-1.96-1.84-3.52-1.1-4.70.72-1.56 2.18-2.74 3.28-3.520.74-1.18-2.18-3.92-1.82-5.10.72-1.58 5.46-3.54 5.46-4.72" fill="none" stroke="#bababa" stroke-width=".8" stroke-linecap="round" stroke-linejoin="round"/><path d="M156.99 240.77s3 2 4.48 3.2m-13.35-0.08c1.48-0.4 5.16 0 5.520.4" fill="none" stroke="#bababa" stroke-width=".8" stroke-linecap="round" stroke-linejoin="round"/><path d="M149.25 256.55c-2.6-1.580.36-3.54-1.86-5.52-2.58-1.56-2.96-3.14-2.58-5.90.36-2.36 1.1-4.32 1.48-6.30.36-1.960.74-3.920.74-6.68 0-3.14 0-5.5 4.06-7.08 4.06-1.98 5.16-1.18 8.860.4 3.32 1.96 3.7 1.18 5.18 3.92 1.46 3.160.36 4.720.36 7.47 0 3.14-1.84 10.61-2.96 14.55-1.1 3.94-8.12 10.21-13.27 5.12" fill="none" stroke="#333" stroke-width=".8" stroke-linecap="round" stroke-linejoin="round"/><path d="M151.15 225.1c-4.1 1.56-4.1 3.92-4.1 7.05 0 2.74-0.36 4.7-0.74 6.66-0.36 1.96-1.12 3.92-1.48 6.28-0.38 1.56-0.38 2.740.36 3.52-2.6-3.12-1.84-8.21-1.48-13.310.38-5.5 5.58-10.59 9.28-10.99-0.36 0-1.10.4-1.840.8" fill="none" stroke="#333" stroke-width=".8" stroke-linecap="round" stroke-linejoin="round"/><path d="M147.47 235.66c1.1-1.52 5.86-0.38 7.68 0m-9.51 0c0.680.320.68-0.32 1.36-0.32" fill="none" stroke="#bababa" stroke-width=".8" stroke-linecap="round" stroke-linejoin="round"/><path d="M161.02 243.13c0 0.44 0 0.88-0.40.88m3.36 62.76c0-1.6 2.22-2.8 2.96-1.20.72 1.2-0.74 3.2-1.84 2.8m4.72 8.23c-0.34 0-1.02 0-1.360.32m7.04 13.35c-0.360.4-1.1 1.2-1.84 2m2.8 5.52c-0.32-0.38-0.64-1.14-0.64-1.52m5.84 11.67c0-1.2 1.12-1.2 1.84-0.8m8.87 20.95c-0.4-1.160.8-2.740.4-4.32m8.39 15.99c0.38-0.760.76-1.54 1.12-2.32" fill="none" stroke="#f5f9f9" stroke-width="1.519" stroke-linecap="round" stroke-linejoin="round"/><path d="M181.29 337.83c0.36 1.18 1.08 2.76 1.08 3.92 0-0.78 1.06-1.56 1.4-1.96-0.7-0.78-1.4-1.96-2.12-2.36zm-12.15-25.59c0.360.760.72 1.90.72 2.640.36-0.360.72-0.74 1.44-0.74zm19.83 50.29c1.08 1.54 0 2.7 0 3.840.36-0.760.72-1.14 1.44-1.14z" fill="#bababa" fill-rule="evenodd"/><path d="M160.28 301.94c-2.56-6.64-4.76-12.11-6.22-18.37-0.38-1.56-0.74-3.52-0.74-4.3-0.74-2.74-0.36-8.21 1.84-8.99 1.1 0 7.67-0.8 10.61 3.12 2.18 3.520.36 6.26 3.28 12.91 2.56 4.7 2.2 8.22 1.84 12.51" fill="none" stroke="#000" stroke-width=".8" stroke-linecap="round" stroke-linejoin="round"/><path d="M160.26 278.43c4.48-0.8 4.1 3.14 5.22 6.30.38 1.96 2.24 3.14 2.6 5.120.380.780.74 1.960.74 3.14 0 2.36-1.48 3.14-2.96 3.54-1.86 0-2.62 0-3.360.78" fill="none" stroke="#949494" stroke-width=".8" stroke-linecap="round" stroke-linejoin="round"/><path d="M159.62 280.43c0.38 2.74 2.2 6.26 4.38 7.44-0.72 1.94 1.46 5.46 0 6.24" fill="none" stroke="#bababa" stroke-width=".8" stroke-linecap="round" stroke-linejoin="round"/><path d="M163.54 290.26c-0.74-0.8-1.12-2-1.12-3.2 1.12 0 1.84 1.2 1.12 2z" fill="#bababa" fill-rule="evenodd"/><path d="M156.31 285.15c1.1-0.36 1.84-0.36 2.560.36m2.16-7.83c0.480.80.48 1.60.48 2" fill="none" stroke="#f5f9f9" stroke-width="1.519" stroke-linecap="round" stroke-linejoin="round"/><path d="M164.76 228.62c2.22 2.36 2.22 8.63 2.22 14.13-0.36 5.5-3.7 15.69-10.39 14.91" fill="none" stroke="#333" stroke-width=".8" stroke-linecap="round" stroke-linejoin="round"/><path d="M397.44 49.49C360.62 1.16 309.050.76 290.980.76c-18.03 0-69.20.4-106.42 48.73-31.66 40.81-48.25 137.84-49.73 191.64 0 62.04 8.88 135.12 45.69 187.33 37.18 52.25 80.63 55.37 110.45 55.37 29.86 0 73.31-3.12 110.49-55.37 37.22-52.21 45.65-125.28 45.65-187.33-1.44-53.81-18.03-150.83-49.69-191.64zm-4.44 322.05c-35.7 49.85-54.49 52.21-102.02 52.21-47.49 0-65.92-2.36-101.98-52.21-34.98-48.73-33.54-110.77-30.94-131.96 2.2-20.83 7.71-109.97 27.26-136.68 19.15-27.1 43.81-43.61 63.68-45.97 19.91-2.72 31.7-3.52 41.98-3.52 10.31 0 22.110.8 42.01 3.52 19.87 2.36 44.53 18.87 63.68 45.97 19.55 26.7 25.06 115.85 27.62 136.68 2.24 21.19 3.68 83.23-31.3 131.96z" fill="#f5cfd2" fill-rule="evenodd"/><path d="M397.44 49.49C360.62 1.16 309.050.76 290.980.76c0 0 0 0 0 0s0 0 0 0 0 0 0 0c-18.03 0-69.20.4-106.42 48.73-31.66 40.81-48.25 137.84-49.73 191.64 0 62.04 8.88 135.12 45.69 187.33 37.18 52.25 80.63 55.37 110.45 55.37 0 0 0 0 0 0s0 0 0 0 0 0 0 0 0 0 0 0c29.86 0 73.31-3.12 110.49-55.37 37.22-52.21 45.65-125.28 45.65-187.33-1.44-53.81-18.03-150.83-49.69-191.64zm-4.44 322.05c-35.7 49.85-54.49 52.21-102.02 52.21-47.49 0-65.92-2.36-101.98-52.21-34.98-48.73-33.54-110.77-30.94-131.96 2.2-20.83 7.71-109.97 27.26-136.68 19.15-27.1 43.81-43.61 63.68-45.97 19.91-2.72 31.7-3.52 41.98-3.52 10.31 0 22.110.8 42.01 3.52 19.87 2.36 44.53 18.87 63.68 45.97 19.55 26.7 25.06 115.85 27.62 136.68 2.24 21.19 3.68 83.23-31.3 131.96z" fill="none" stroke="#000" stroke-width=".8" stroke-linecap="round" stroke-linejoin="round"/><path d="M164.7 103.26c5.52-18.43 13.59-38.46 25.75-53.37 13.27-16.11 30.22-26.3 48.61-33.78 16.59-7.43 32.78-9.03 50.81-9.03 10.67 0 20.63 2 30.94 3.16 5.880.4 13.27 0 18.43 2.36 4.76 2.36 8.07 7.48 12.11 9.79-6.6-8.99-24.66-7.43-33.86-8.23-12.15-0.76-22.47 4.32-33.86 8.23-9.59 3.56-19.91 2-29.82 5.12-8.12 2.76-16.95 5.52-24.3 9.44-8.84 5.08-12.15 13.35-19.15 19.63-4.08 3.92-9.6 5.48-13.63 9.39-4.8 4.32-8.84 10.23-12.87 14.95-4.8 6.28-10.31 12.95-14.39 19.99-1.84 3.56-8.47 16.51-7.71 19.63zM286.19 430.02c6.24-2.36 15.07 0 21.35 0 8.07-0.76 15.83-1.16 23.55-2.36 12.87-2.32 24.66-6.28 35.34-14.87 9.95-8.23 21.35-19.23 27.98-30.62 6.64-11.75 18.39-23.15 22.43-36.1-4.4 17.27-12.11 36.5-22.79 50.21-7 8.63-15.47 15.71-24.3 22.39-9.59 7.04-21.35 16.07-32.02 21.19-9.96 5.08-26.14 6.28-37.18 6.64-11.79 0-25.02-1.16-36.82-3.12-18.03-2.76-33.86-12.15-44.93-25.9 12.91 5.92 26.5 8.63 41.26 10.59 5.520.8 10.31 0 15.83 0 4.04 0 7 3.16 9.91 1.96z" fill="#fae6e6" fill-rule="evenodd"/><path d="M181.61 74.23c9.95-21.19 26.9-41.59 47.15-51.01 21.37-10.19 52.31-21.59 74.78-9.01-11.41-3.14-22.47 2.74-32.78 6.28-10.31 3.14-19.89 2.74-29.82 7.05-9.59 4.32-17.33 7.46-24.68 15.31-3.68 3.92-8.47 5.5-12.53 9.02-3.68 2.76-6.64 5.9-10.67 8.26zm74.88 360.9c16.55 7.04 34.58 4.32 51.85 4.32 17.31 0 30.18-3.16 44.13-13.75-16.55 10.99-36.78 6.28-54.81 5.92-7.72 0-16.190.76-23.91 1.56-7.710.4-14.71-1.96-22.07-0.8 0-0.76-0.76-0.4-0.76-1.16z" fill="#fdf5f5" fill-rule="evenodd"/><path d="M211.91 39.98c-1.48 1.56-2.96 1.96-2.22 5.08 3.7-1.16 6.64-5.86 9.57-8.21-1.84-2.34-4.04-2.74-5.16-1.56z" fill="#fff" fill-rule="evenodd"/><path d="M211.17 39.98c5.14-9.79 11.75-11.75 21.69-15.29 11.75-4.3 22.43-7.06 34.54-5.88-12.11 3.14-23.89 1.58-34.54 10.97-4.04 3.52-5.88 6.66-10.65 9.39-4.06 2.36-9.19 3.54-13.25 5.88zm63.62-27.38c-2.18 0-3.66 0-4.76 2.32 2.58 2.32 6.6 1.56 9.520.4-0.72-2.32-2.18-1.94-3.28-1.94zm10.59 423.74c7-3.52 11.43-1.96 18.43-1.56 8.470.76 16.95 0 25.380.76-5.52 2.36-18.03 5.44-23.55 4.68-3.68-0.4-7-3.12-11.03-3.48-2.6-0.4-5.520.36-8.470.36zm59.32-10.27c1.12 1.6 2.960.4 3.32 3.16 3.68-0.76 5.48-4.72 1.84-6.72-1.480.8-2.2 1.6-2.96 2.8z" fill="#fff" fill-rule="evenodd"/><path d="M436.42 185.73c3.72 13.35 2.6 27.1 3.72 40.46 1.12 9.43 2.96 18.07 2.96 27.50.36 29.46-3.72 58.52-11.15 87.19 2.6-18.43 5.2-39.66 2.24-58.12-2.6-16.87 1.12-33.38-0.76-50.25-2.96-25.94-1.48-51.49-5.96-76.63 1.88 5.12 4.12 10.63 5.6 16.11 1.48 5.12 1.88 13.75 4.84 17.67zM298.3 478.07c24.30.4 41.61-7.08 63.68-19.67 27.98-16.11 43.81-49.93 53.01-80.99-14.71 18.51-20.95 40.89-40.09 55.84-22.11 16.91-49.33 22.39-74.39 29.86-15.83 4.72-36.06 1.56-51.89-2.36-10.31-2.76-22.11-1.16-32.06-5.12 7.75 4.32 9.95 6.68 17.31 11.03 7 4.32 18.79 9.79 26.5 10.19 9.590.8 29.82 4.32 38.660.8zM156.69 193.68c-6.26 49.49-7 67.56-2.22 99.76 5.16 32.2 16.57 68.72 42.34 100.12-19.87-16.09-49.33-55.75-53.75-109.95-4.06-54.19 9.57-66.36 13.63-89.92zM352.11 42.41c31.3 12.15 54.49 57.73 60 89.15-15.07-51.05-50.81-70.32-67.36-76.19-16.19-6.28-42.73-6.28-67.04-7.08 16.95-5.88 50.09-12.19 74.4-5.88z" fill="#f0bcc1" fill-rule="evenodd"/><path d="M301.7 48.41c7.75-1.2 14.390.76 22.11 2.32 9.19 1.96 18.79 3.16 27.98 5.92 7 2.32 12.51 7.43 18.43 11.75 6.96 5.08 17.67 9.79 20.95 19.19-9.55-16.47-19.51-30.94-37.54-35.66-5.16-1.2-10.31-1.56-14.71-3.16-5.92-2.36-12.51-1.56-18.79-1.96-4.8 0-9.950.4-14.710.4zm-25.18 429.54c16.59 1.2 51.21 1.56 77.35-12.55s47.89-45.93 50.81-58.88c-5.88 11.79-33.86 38.1-58.52 49.45-24.7 11.79-51.21 23.19-69.64 21.99zm161.34-270.6c0 12.95 4.04 26.7 4.76 39.620.36 6.68 0 12.95-0.72 19.23-0.72 7.83 0 16.87-1.84 24.7 0-9.79-1.8-19.19-1.44-29.02 0-5.880.72-12.55 0-18.43-1.12-5.88-2.56-10.99-2.2-17.27 0-3.92-1.12-7.83-0.72-11.75 0-3.92 1.8-7.83 1.44-11.79z" fill="#e898a2" fill-rule="evenodd"/><path d="M242.37 16.91c0 5.5 0 10.99 1.86 16.49 1.86 4.7 7.79 8.23 8.54 12.53m3.66-31.82c0 9.05-0.38 17.73 5.14 25.98m7.68-27.5c0 9.83 3.28 17.290.74 27.5m13.25-30.62c5.52 5.92 1.84 18.510.74 25.98m14.67-25.98c2.58 7.06-2.96 21.53-4.46 28.94m19.63-26.94c1.88 6.28 0 13.71-2.28 19.59m22.99-16.47c0.36 6.68-0.76 13.71-3.8 19.19m22.79-13.03c-2.56 12.63-6.56 26.42-18.31 32.3m29.82-21.99c-0.36 8.23-7.76 14.51-13.35 19.19m21.03-12.47c-1.84 10.23-10.27 16.87-18.39 20.79m26.86-6.32c-1.08 4.68-5.16 7.44-8.88 8.96m21.03-0.8c-2.92 3.6-6.24 6.76-10.31 8.31M218.77 30.26c0.36 7.83-0.38 22.29 8.81 24.63m-20.47-12.79c3.68 8.6 7.36 16.81 16.15 20.31M198.24 50.25c1.82 6.3 4 11.01 10.15 13.35m-19.83-3.2c1.88 4.78 4.12 9.15 7.83 12.31m-15.43 1.52c1.12 3.92 4.44 6.64 8.47 6.64m-12.15 4.72c1.48 1.2 3.3 2.4 5.12 2.8m49.71-63.96c-0.38 7.46 1.1 14.91 5.14 21.19m30.46 388.4c-3.98 12.17-6.16 25.9-2.16 38.46m-12.79-41.26c-5.26 10.23-7.52 18.91-7.14 30.3m-7.74-30.7c-4.02 3.54-5.84 9.05-7.68 14.15m-1.12-21.27c-3.68 1.6-6.24 5.16-7.36 9.12m89.78 3.52c8.79 7.08 6.98 22.77 6.98 33.34m7.5-31.34c6.96 6.68 7.68 20.35 5.12 29.34m24.23-39.66c5.28 3.96 9.35 9.47 8.63 16.15m1.68-27.82c7.4 5.52 11.83 13.79 9.63 23.19m-33.94-4.88c6.68 6.32 8.15 21.27 5.2 29.5" fill="none" stroke="#fff" stroke-width=".8" stroke-linecap="round" stroke-linejoin="round"/><path d="M354.35 23.19c-0.72-1.2-4.44-1.2-4.080.8 0 1.2 3.36 2.36 4.08 3.16-1.08 2.36-4.44 1.6-6.320.8m19.19 5.08c-1.08-0.4-4.04-1.2-5.160.4-1.08 2.36 1.88 1.96 2.6 3.52 1.48 3.96-4.04 4.32-5.92 1.6m16.15 1.92c-1.44-1.2-3.28-2-4.72-0.8-2.96 2.4-0.4 20.72 3.560.360.8 4 1.60.72 3.2-1.440.36-3.28-1.2-3.64-2.8m10.75 9.87c1.08 1.2 1.76 1.96 2.8 3.12m12.47 5.92c-1.08-1.2-2.16-1.6-3.64-0.80.36 1.6 2.56 2.8 1.84 4.76-1.12 3.16-5.48-0.4-5.88-2.36M329.32 33.06c3.28 3.56 8.71-3.96-1.12-3.16m8.04-12.99c-6.2-1.96-5.8 5.08 1.8 4.32M312.77 17.67c1.1-1.2 4.04-2.4 5.12-1.2m-8.1 12.29c2.24 1.54 4.46 0 5.94-1.96-0.74-2.34-4.46-2.34-6.32-1.94m-16.97 11.27c1.1 1.16 5.16 2.32 6.26-0.4 1.1-3.88-4.78-3.88-6.64-4.280.74-4.68 7.74-1.56 10.31-2.34M281.43 32.94c1.84 0 6.59-0.38 6.96-3.080.72-3.08-5.48-2.3-6.96-1.92m-13.93 10.51c1.82 0 5.12 0 6.58-1.96-1.08-2.36-4.38-3.56-6.96-2.76m-7.02 6.4c1.1-1.94 3.66-3.12 3.66-5.08-2.2-1.16-4.76 1.58-7.32 1.58 1.82-1.58 4.4-3.14 5.5-5.48-2.2-1.18-5.140.4-6.98 1.96m-4.78 10.47c1.480.38 4.42-1.58 4.42-3.540.36-5.12-5.52-0.4-7 1.18m-13.35 4.42c1.84-1.2 4.42-3.2 5.52-5.2-2.56-3.2-7.72 2-9.2 4m-5.42 11.35c1.48-1.54 2.94-3.88 1.48-5.84a9.68 9.68 0 0 0-5.18 4.3m-1.08 9.37c1.12-1.16 2.24-2.34 2.6-3.92-1.86-1.56-4.08-0.38-5.94 1.180.36-1.96 1.86-3.14 1.48-5.1-2.240.8-4.1 3.54-5.22 5.1m-4.320.34c-2.620.4-4.86 4.36-6 6.72m-8.88 6.32c1.12-1.96 1.84-3.94 3.68-5.52M186.85 82.43c0-1.5 1.08-3.4 2.16-4.16m-8.39 11.35c1.1-1.6 1.84-2.8 2.56-4.4m83.49 360.96c-1.82-1.18-4.4-0.78-5.50.78-2.2 2.76 0 2.76 2.2 3.54 1.840.78 4.4 0 4.04 3.12-0.74 2.36-6.6 2.74-8.05 2.36m-31.24-12.51c7.36 1.54 7.36-3.50.38-3.9m-7.9-9.83c1.50.76 3.36 1.9 5.2 2.64m93.86 15.35c-2.56-1.2-5.5 1.58-6.24 4.36 1.84 1.96 6.24-0.8 8.79-0.8m51.61-31.86c-1.840.4-7.32 3.16-5.48 6.32 2.2 3.12 8.75-3.56 9.83-5.52M362.1 430.06c-1.84 1.2-4.08 2.4-4.08 4.8 2.6 1.2 5.52-1.2 7.36-3.2" fill="none" stroke="#f5cfd2" stroke-width="1.519" stroke-linecap="round" stroke-linejoin="round"/><path d="M365.38 419.91c1.48-1.2 2.92-2.4 4-3.2m-28.62 20.55c1.8-0.8 3.24-2.44 4.32-3.68m-19.51 7.12c6.24-5.12 6.96 4.32 1.48 2.76m-12.83-0.04c1.84-0.8 3.32-2 5.52-2.4m-51.49-1.14c-1.1-0.38-4.44-1.18-5.18-0.38-4.1 2.74 4.08 3.54 5.18 3.92m-15.93-8.63c-2.96-4.4-8.86 3.6 1.46 3.2m-18.03-7.92c-1.16 2.4 1.16 4 3.08 3.6m-11.51-10.23c0.76 1.94 2.28 2.32 4.16 1.94M179.81 78.59c1.84-1.94 3.32-4.28 5.52-5.84M296.94 11.11c1.8-0.4 2.88-0.8 4.320.4" fill="none" stroke="#fae6e6" stroke-width="1.519" stroke-miterlimit="8"/><path d="M282.95 10.95c1.1-0.32 2.2-0.32 3.28-0.32m-31.26 5.92c1.120.4 2.22 0 2.96-0.4m-18.47 3.12c1.48-0.36 3.3-1.12 5.12-1.12m-36.14 25.02c-1.38-0.4-2.42 1.2-3.12 2.8m-8.88 8.31c2.22-0.8 4.06-2.04 5.52-3.68m68.46-36.54c-6.02-0.8-4.5 7.92 1.5 3.56m-5.68 417.07c1.14 2 3.38 1.6 4.88 1.2" fill="none" stroke="#fdf5f5" stroke-width="1.519" stroke-miterlimit="8"/><path d="M354.35 49.97c-0.76-0.4-4.48-2.44-2.6-4.04 1.12-0.84 4.08 1.6 5.16 2.04m17.59 14.15c-0.68-1.2-1.04-2.4-1.76-3.2M343.71 48.77c-1.12-0.8-5.68-2.8-3.4-4m21.71 398.24c1.48-0.36 2.6-0.72 3.68-1.44m-20.15 10.47c2.2-0.8 4-1.6 6.16-3.2m-35.34 18.51c1.84 1.16 5.84-1.56 5.48-3.52-0.36-3.96-5.12-0.8-6.60.36m-53.97 6.28c1.460.4 5.46 2.36 6.20.4 1.08-3.16-4-3.16-5.46-2.76m112.47-31.74c1.12-0.76 2.24-2.32 3.36-3.12" fill="none" stroke="#f0bcc1" stroke-width="1.519" stroke-miterlimit="8"/><path d="M345.07 463.16c1.880.4 3.36-1.64 4.8-2.48m-20.15 5.52c1.48-0.4 2.6-0.8 3.68-1.2m21.67-408.39c0.760.36 1.12 1.96 1.84 1.96 1.080.36 3.6-0.4 3.6-1.6-0.36-0.76-1.8-1.96-2.16-2.36m-22.15-4.32c1.520.84 3.04 1.28 4.56 1.68" fill="none" stroke="#e898a2" stroke-width="1.519" stroke-miterlimit="8"/><text xml:space="preserve" style="line-height:125%;text-align:start" transform="translate(6.683 26.757)" font-size="18.625" font-weight="400" font-stretch="Normal" letter-spacing="0" word-spacing="0" font-family="Arial"><tspan x="0" y="0"><tspan dx="0" dy="0" fill="#0070c0">Upper lip</tspan></tspan></text><text xml:space="preserve" style="line-height:125%;text-align:start" transform="translate(.02 453.498)" font-size="18.625" font-weight="400" font-stretch="Normal" letter-spacing="0" word-spacing="0" font-family="Arial"><tspan x="0" y="0"><tspan dx="0" dy="0" fill="#0070c0">Lower lip</tspan></tspan></text><text xml:space="preserve" style="line-height:125%;text-align:start" transform="translate(31.001 248.456)" font-size="18.625" font-weight="400" font-stretch="Normal" letter-spacing="0" word-spacing="0" font-family="Arial"><tspan x="0" y="0"><tspan dx="0" dy="0" fill="#0070c0">Uvula</tspan></tspan></text><text xml:space="preserve" style="line-height:125%;text-align:start" transform="translate(488.557 307.587)" font-size="18.625" font-weight="400" font-stretch="Normal" letter-spacing="0" word-spacing="0" font-family="Arial"><tspan x="0" y="0"><tspan dx="0" dy="0" fill="#0070c0">Palatine tonsil</tspan></tspan></text><text xml:space="preserve" style="line-height:125%;text-align:start" transform="translate(16.177 347.563)" font-size="18.625" font-weight="400" font-stretch="Normal" letter-spacing="0" word-spacing="0" font-family="Arial"><tspan x="0" y="0"><tspan dx="0" dy="0" fill="#0070c0">Tongue</tspan></tspan></text><text xml:space="preserve" style="line-height:125%;text-align:start" transform="translate(487.225 154.68)" font-size="18.625" font-weight="400" font-stretch="Normal" letter-spacing="0" word-spacing="0" font-family="Arial"><tspan x="0" y="0"><tspan dx="0" dy="0" fill="#0070c0">Palate</tspan></tspan></text><path d="M84.91 19.63h147.25v2H84.91v-2zM230.82 16.63l8 4-8 4V16.63zM84.91 242.53h198.18v2H84.91v-2zm196.84-3 8 4-8 4v-8zM84.91 340.47h152.21v2H84.91v-2zm150.87-3 8 4-8 4v-8zM81.87 447.37h153.25v2H81.87v-2zm151.91-3 8 4-8 4v-8z" fill="#b2b2b2" stroke="#b2b2b2" stroke-width=".02" stroke-linejoin="round"/><path d="m477.63 147.55-179.21 1.04v2l179.25-1.04-0.04-2zm-177.89-2-8 4.04 8.04 3.96-0.04-8zM477.63 300.5h-84.23v2h84.23v-2zm-82.91-3-7.99 4 8 4V297.5z" fill="#b2b2b2" stroke="#b2b2b2" stroke-width=".04" stroke-linejoin="round"/></svg>
