<svg role="img" xmlns="http://www.w3.org/2000/svg" version="1.0" viewBox="0 0 418.205 498.595"><title>Cavidad nasal</title><desc>Corte sagital de la fosa nasal con los cornetes superior, medio e inferior y el suelo de la fosa.</desc><defs><clipPath clipPathUnits="userSpaceOnUse" id="a"><path d="M7.2 2.48h417.75v498.98H7.2z"/></clipPath></defs><path d="M167.5 184.49S7.88 290.38 44.81 371.69c0 0 46.05-23.99 54.05 0l96.74 33.62 150.79-46.01s3.32-25.9 42.45-19.03l4.4-28.14s-73.04-38.02-72.2-62.84c1.08-25.07 10.75-53.77-56.52-52.65-66.96 1.08-97.02-12.15-97.02-12.15z" fill="#dd9ec3" fill-rule="evenodd"/><path clip-path="url(#a)" d="M126.08 3.88S97.42 91.55 99.34 119.69c1.96 28.1 14.35 57.88-6.32 87.39-20.71 29.5-52.41 76.91-68.68 96.22-16.27 19.55-23.19 55.13-5.8 67.52 17.67 12.67 31.98 6.36 26.46-12.95-5.8-19.55-8.28-54.29 86.07-138.4 45.21-39.98 83.83-6.88 110.85-7.44 26.74-0.56 62.56-11.31 68.64 12.67 6.36 23.7-11.03 57.88 28.98 71.68 39.98 13.79 47.97 15.71 49.33 43.85h34.74V4.16l-297.54-0.28z" fill="#f2c9aa" fill-rule="evenodd"/><path d="M143.47 3.72s-7.16 54.33-16.27 77.75c-19.03 47.65 1.4 96.7-11.03 116.29-12.39 19.31-27.86 39.13-21.79 45.21 5.8 5.76 34.22-33.9 46.05-40.82 12.15-6.88 25.11-17.91 74.19-4.4 49.37 13.23 100.1-19.59 105.9 36.1 6.04 55.69 1.08 49.33 31.42 58.73 30.34 9.35 42.17 18.43 42.73 47.09h28.94V4.28l-280.15-0.56z" fill="#e5dfae" fill-rule="evenodd"/><path d="M91.66 240.13s4.96 2.76 4.7 5.8c-0.56 3.04-33.12 38.9-41.95 51.31-9.11 12.13-7.46-0.82-3.58-5.52 3.86-4.68 38.08-54.63 40.84-51.59z" fill="#ccd6e1" fill-rule="evenodd"/><path d="M45.33 299.86s4.680.54 3.04 4.66c-1.66 4.14-15.97 29.16-15.15 39.620.84 10.73 3.32 18.15-3.86 20.91-7.16 2.46-11.01-17.33-4.96-29.98 5.8-12.65 17.35-36.32 20.93-35.2z" fill="#ccd6e1" fill-rule="evenodd"/><path d="M142.71 102.78c-5.52 0-13.77 20.37-14.05 32.76-0.28 12.11-4.7 54.23 8.54 51.21 13.23-3.04 47.37-11.29 28.64-30.28-24.78-25.07-10.45-54.25-23.13-53.69zm195 103.78c8-6.32 15.71-3.04 20.39-8 4.4-4.96 11.83-6.08 26.46 22.07 14.59 27.82 39.38 29.74 19.83 65.6-12.11 22.03-20.11 6.88-36.660.28-16.51-6.92-33.06-1.96-33.06-32.54 0-30.3-6.36-40.49 3.04-47.41z" fill="#d18db8" fill-rule="evenodd"/><path d="M97.74 359.06c-4.72 3.880.8 6.64 1.92 17.35 1.12 10.750.28 42.41-2.76 52.33-2.76 9.95-6.92 23.15 7.72 34.74 14.91 11.27 23.7 30.26 28.14 11.27 4.4-18.71-7.44-49.01 2.2-48.49 9.630.28-7.16 30.3 6.36 33.06 13.79 3.04 30.06-20.63 31.42-4.68 1.4 15.71 7.72 3.04 12.95-6.32 5.24-9.11 58.48-69.16 160.78-69.96v-19.03s-71.96-10.47-128.76 16.83c-41.09 19.83-39.74-2.24-67.60.8-27.82 3.04-29.22 3.04-34.74-3.28-5.52-6.36-10.75-20.11-17.63-14.63z" fill="#f2c9aa" fill-rule="evenodd"/><path d="M142.43 390.78v34.72s-1.64-6.08-8.81-6.08c-7.16 0-9.91 9.37-8.81 20.95 1.1 11.55 8.81 46.25-4.4 29.74-13.23-16.53-18.75-15.97-18.19-34.160.56-18.17 4.96-38 3.3-49.01-1.64-11.03-0.54-14.89 11.57-7.17 12.13 7.71 25.34 2.22 25.34 11.01z" fill="#f8e6bd" fill-rule="evenodd"/><path d="M142.41 390.96v34.2s1.1 12.39-0.82 16.81c-1.66 4.68-6.36 15.15 4.4 10.47 9.37-4.14 14.33-4.96 18.47-5.52 4.96-0.82 8.28-4.96 8.28-14.05-0.28-9.38 6.88-41.35-3.6-45.77-10.45-4.42-26.72-4.42-26.72 3.86zm38.68 13.83-1.96 20.11s-3.04 16.23 7.72 5.52c10.75-10.75 32.54-26.18 50.73-34.46 21.23-9.63 71.16-21.51 72.8-29.22 1.64-7.72-39.14 1.12-55.13 5-15.99 3.84-35.58 15.95-45.49 15.95-9.91 0-27.3 2.48-28.66 17.11z" fill="#e5dfae" fill-rule="evenodd"/><path clip-path="url(#a)" d="M141.93 456.36s-4.14 33.34-3.3 40.5c0.82 6.88 5.22 1.38 7.96-6.62 2.76-8 10.45-17.35 17.87-21.49 7.42-4.4 10.43-8.81 9.07-17.07-1.38-8.55-25.84-0.56-31.6 4.68z" fill="#f0f2f3" fill-rule="evenodd"/><path d="M162.5 4.28s-9.12 83.23-4.96 102.26c3.88 18.99 10.75 77.43 54.05 81.83 43.57 4.68 103.66 3.6 118.29 5.24 14.91 1.36 45.21-12.39 59-11.31 13.79 1.12 34.18-11.83 34.18-11.83V4.28H162.5z" fill="#863187" fill-rule="evenodd"/><path d="M168.7 3.64s-10.75 75.27-8 90.14c2.48 14.87 2.48 29.22 16.27 25.63 13.79-3.56 23.7-24.79 27.58-17.07 4.12 7.71-33.66 15.71-33.1 28.10.56 14.91 9.67 20.15 20.95 22.07 11.31 2.2 21.79 14.31 30.58 4.12 10.23-11.83 6.36-40.77 12.43-39.42 6.04 1.68-17.39 38.34-2.48 46.05 14.59 7.71 57.33 19.55 60.36 1.64 3-17.91-8.28-39.42 1.36-38.02 9.91 1.64-8 2.2 2.76 40.5 5.52 20.39 22.87 7.71 34.18 4.16 11.27-3.6 19.03-11.87 30.58-11.87 11.87 0 59.52-0.84 61.44-34.74V3.08l-254.930.56z" fill="#b370a8" fill-rule="evenodd"/><path d="M179.93 3.88s-17.67 86.91-6.36 99.62c11.31 12.67 29.5-32.3 41.38-11.87 11.55 20.71-39.46 30.34-32.26 41.66 7.16 11.31 33.62 25.95 37.22 4.96 3.56-20.95 1.92-39.42 19.03-34.18 28.66 8.56-13.23 50.73 7.72 54.89 20.95 3.88 45.21 12.67 37.78-20.15-4.16-18.47-5.52-30.9 8.79-31.7 31.18-1.68-2.76 56.24 24.55 53.25 27.02-3.04 37.22-19.07 59.84-16.83 22.59 1.92 44.09-17.95 45.45-36.98V4.16l-243.13-0.28z" fill="#cca3c8" fill-rule="evenodd"/><path d="M288.58 218.19c0.84 0 15.75 10.51 17.99 13.51 4.96 6.36 3.04 18.23 4.12 25.66 2.48 16.79-16.55 1.08-22.67-2.2-4.68-2.48-9.39-5-14.35-6.08-3.88-0.84-11.07 1.08-14.35-0.56-3.32-1.64-3.32-6.6-6.12-8.83" fill="none" stroke="#343434" stroke-width="1.199" stroke-linecap="round" stroke-linejoin="round"/><path d="M173.25 243.61c5.28 4.68 8.31 11.83 9.39 20.390.84 7.160.56 13.75 8.28 17.35 10.75 4.92 25.660.24 37.54 1.36 23.7 2.48 47.17 4.68 70.08 11.55 4.4 1.36 14.31 6.04 18.75 4.4 6.6-2.2 2.76-11.830.56-15.95-5-8.79-15.75-14.87-22.07-22.03" fill="none" stroke="#343434" stroke-width="1.199" stroke-linecap="round" stroke-linejoin="round"/><path d="M318.45 297.58c2.2 5 6.6 5.28 10.47 7.75 4.4 3.04 5.24 6.64 6.04 11.590.56 4.68 2.76 10.51-1.08 13.79-3.32 3.04-14.35 5.28-18.75 6.36-6.64 1.12-12.71-0.28-19.310.28-9.12 1.12-17.95 2.2-27.02 2.76-18.510.84-38.06 2.48-56.84 1.68-12.39-0.56-27.820.56-39.14-5-9.11-4.12-15.47-16.27-26.5-15.43m-83.31 3.72c6.08 10.27 11.31 1.96 19.59 4.72 6.34 1.94 12.39 14.41 11.29 20.79" fill="none" stroke="#343434" stroke-width="1.199" stroke-linecap="round" stroke-linejoin="round"/><path d="M391.24 169.74s-27.9 2.48-41.98 6.88c-14.35 4.44-44.97 8.55-66.48 5-21.27-3.6-79.47-21.27-81.67-8.55-2.24 12.95 15.43 6.04 16.55 15.99l2.480.56s0.56-4.16 7.16-3.88c6.920.28 6.36 4.12 6.36 4.12l3.040.28s0.84-2.48 6.92-2.76c6.32-0.28 6.08 3.6 6.08 3.6h3.56s0.56-3.04 5.24-3.04c4.72 0 6.92 3.6 6.92 3.6h3.04s-0.56-2.76 5.8-2.76c6.64 0 11.31 3.56 11.31 3.56h3.04s3.32-3.84 20.15-4.12c16.83-0.28 71.72-14.87 82.75-15.43l-0.24-3.04z" fill="#f6ea62" fill-rule="evenodd"/><path d="M44.85 371.69s45.99-23.99 53.97 0" fill="none" stroke="#343434" stroke-width="1.199" stroke-linecap="round" stroke-linejoin="round"/><path clip-path="url(#a)" d="M126.16 3.92S97.46 91.58 99.42 119.73c1.92 28.1 14.31 57.88-6.36 87.39-20.71 29.5-52.41 76.91-68.68 96.22-16.27 19.55-23.19 55.13-5.8 67.52 17.67 12.67 31.98 6.36 26.46-12.95-5.76-19.55-8.28-54.29 86.07-138.4 45.21-39.98 83.83-6.88 110.85-7.44 26.78-0.56 62.6-11.31 68.68 12.67 6.36 23.7-11.03 57.88 28.98 71.68 39.98 13.79 47.97 15.71 49.33 43.85" fill="none" stroke="#343434" stroke-width="1.199" stroke-linecap="round" stroke-linejoin="round"/><path d="M143.51 3.76s-7.16 54.33-16.27 77.75c-19.03 47.65 1.4 96.7-11.03 116.29-12.39 19.31-27.86 39.13-21.79 45.21 5.8 5.76 34.22-33.9 46.09-40.82 12.11-6.88 25.07-17.91 74.19-4.4 49.37 13.23 100.1-19.59 105.9 36.1 6.08 55.69 1.12 49.33 31.46 58.73 30.34 9.35 42.22 18.43 42.73 47.09" fill="none" stroke="#343434" stroke-width="1.199" stroke-linecap="round" stroke-linejoin="round"/><path d="M91.7 240.17s4.96 2.76 4.7 5.8c-0.56 3.04-33.12 38.9-41.95 51.31-9.11 12.13-7.46-0.82-3.58-5.52 3.86-4.68 38.08-54.63 40.84-51.59" fill="none" stroke="#343434" stroke-width="1.199" stroke-linecap="round" stroke-linejoin="round"/><path d="M45.37 299.9s4.680.54 3.04 4.66c-1.66 4.14-15.97 29.16-15.15 39.620.84 10.73 3.32 18.15-3.86 20.91-7.16 2.46-11.01-17.33-4.96-29.98 5.8-12.65 17.35-36.32 20.93-35.2m97.38-197.08c-5.52 0-13.77 20.37-14.05 32.76-0.28 12.11-4.7 54.23 8.54 51.21 13.23-3.04 47.37-11.29 28.64-30.28-24.79-25.07-10.45-54.25-23.13-53.69" fill="none" stroke="#343434" stroke-width="1.199" stroke-linecap="round" stroke-linejoin="round"/><path clip-path="url(#a)" d="M337.75 206.59c8-6.32 15.71-3.04 20.39-8 4.4-4.96 11.83-6.08 26.46 22.07 14.59 27.82 39.38 29.74 19.83 65.6-12.11 22.03-20.11 6.88-36.660.28-16.51-6.92-33.06-1.96-33.06-32.54 0-30.3-6.36-40.49 3.04-47.41" fill="none" stroke="#343434" stroke-width="1.199" stroke-linecap="round" stroke-linejoin="round"/><path d="M173.25 458.96c2.24 9.07 7.75-2.2 12.43-10.47 5.24-9.11 58.48-69.24 160.82-70.08" fill="none" stroke="#343434" stroke-width="1.199" stroke-linecap="round" stroke-linejoin="round"/><path d="M346.51 359.38s-71.96-10.47-128.76 16.83c-41.09 19.83-39.74-2.24-67.60.8-27.82 3.04-29.22 3.04-34.74-3.28-5.52-6.36-10.75-20.11-17.63-14.63-4.72 3.880.8 6.63 1.92 17.35 1.12 10.750.28 42.41-2.76 52.33-2.76 9.95-6.92 23.15 7.72 34.74 14.91 11.55 23.7 30.26 28.14 11.55 4.4-18.99-7.44-49.29 2.2-48.77 9.630.28-7.16 30.3 6.36 33.06" fill="none" stroke="#343434" stroke-width="1.199" stroke-linecap="round" stroke-linejoin="round"/><path d="M142.47 390.82v34.72s-1.64-6.08-8.81-6.08c-7.16 0-9.91 9.37-8.81 20.95 1.1 11.55 8.81 46.25-4.4 29.74-13.23-16.53-18.75-15.97-18.19-34.160.56-18.17 4.96-38 3.3-49.01-1.64-11.03-0.54-14.89 11.57-7.17 12.13 7.71 25.34 2.22 25.34 11.01" fill="none" stroke="#fff" stroke-width="1.199" stroke-miterlimit="8"/><path d="M142.45 391v34.2s1.1 12.39-0.82 16.81c-1.66 4.68-6.36 15.15 4.4 10.47 9.37-4.14 14.33-4.96 18.47-5.52 4.96-0.82 8.28-4.96 8.28-14.05-0.28-9.38 6.88-41.35-3.6-45.77-10.45-4.42-26.72-4.42-26.72 3.86m38.68 13.83-1.96 20.11s-3.04 16.23 7.72 5.52c10.75-10.75 32.54-26.18 50.73-34.46 21.23-9.63 71.16-21.51 72.8-29.22 1.64-7.72-39.14 1.12-55.13 5-15.99 3.84-35.58 15.95-45.49 15.95-9.91 0-27.3 2.48-28.66 17.11" fill="none" stroke="#343434" stroke-width="1.199" stroke-linecap="round" stroke-linejoin="round" stroke-miterlimit="10"/><path clip-path="url(#a)" d="M141.99 456.4s-4.16 33.34-3.32 40.5c0.84 6.88 5.24 1.4 7.96-6.6 2.76-8 10.47-17.35 17.87-21.51 7.43-4.4 10.43-8.79 9.07-17.07-1.36-8.55-25.82-0.56-31.58 4.68" fill="none" stroke="#343434" stroke-width="1.199" stroke-linecap="round" stroke-linejoin="round" stroke-miterlimit="10"/><path d="M391.24 169.74s-27.9 2.48-41.98 6.88c-14.35 4.44-44.97 8.55-66.48 5-21.27-3.6-79.47-21.27-81.67-8.55-2.24 12.95 15.43 6.04 16.55 15.99l2.480.56s0.56-4.16 7.16-3.88c6.920.28 6.36 4.12 6.36 4.12l3.040.28s0.84-2.48 6.92-2.76c6.32-0.28 6.08 3.6 6.08 3.6h3.56s0.56-3.04 5.24-3.04c4.72 0 6.92 3.6 6.92 3.6h3.04s-0.56-2.76 5.8-2.76c6.64 0 11.31 3.56 11.31 3.56h3.04s3.32-3.84 20.15-4.12c16.83-0.28 71.72-14.87 82.75-15.43" fill="none" stroke="#fff" stroke-width=".64" stroke-miterlimit="8"/><path d="M162.54 4.32s-9.11 83.23-4.96 102.26c3.88 18.99 10.75 77.43 54.05 81.83 43.57 4.68 103.66 3.6 118.29 5.24 14.91 1.36 45.21-12.39 59-11.31 13.79 1.12 34.18-11.83 34.18-11.83" fill="none" stroke="#343434" stroke-width="1.199" stroke-linecap="round" stroke-linejoin="round" stroke-miterlimit="10"/><path clip-path="url(#a)" d="M168.74 4.8s-10.75 74.16-8 89.03c2.48 14.91 2.48 29.22 16.27 25.66 13.79-3.6 23.7-24.82 27.58-17.11 4.12 7.71-33.66 15.71-33.1 28.10.56 14.91 9.67 20.15 20.95 22.07 11.31 2.2 21.79 14.31 30.58 4.12 10.23-11.83 6.36-40.77 12.43-39.42 6.04 1.68-17.39 38.34-2.48 46.05 14.59 7.71 57.33 19.55 60.36 1.64 3-17.91-8.28-39.42 1.36-38.02 9.91 1.64-8 2.2 2.76 40.5 5.52 20.39 22.87 7.71 34.18 4.16 11.27-3.6 19.03-11.87 30.58-11.87 11.87 0 59.52-0.8 61.44-34.7" fill="none" stroke="#fff" stroke-width="1.199" stroke-miterlimit="8"/><path clip-path="url(#a)" d="M179.93 5.08s-17.67 85.79-6.36 98.46c11.31 12.67 29.5-32.26 41.38-11.87 11.55 20.71-39.46 30.34-32.26 41.66 7.16 11.31 33.62 25.91 37.22 4.96 3.56-20.95 1.92-39.42 19.03-34.18 28.66 8.52-13.23 50.73 7.72 54.85 20.95 3.88 45.21 12.67 37.78-20.11-4.16-18.47-5.52-30.9 8.79-31.74 31.18-1.64-2.76 56.28 24.55 53.25 27.02-3.04 37.22-19.03 59.84-16.83 22.59 1.92 44.09-17.91 45.45-36.94" fill="none" stroke="#fff" stroke-width=".64" stroke-miterlimit="8"/><path d="M214.69 175.61c3.58 7.2 4.14 14.63 3.58 22.65-0.56 3.320.28 8-1.92 10.75-1.38 1.94-3.32 3.04-5.24 4.42-1.92 1.66-2.2 3.32-3.04 5.52 1.12-3.02 4.42-4.14 6.62-6.06 2.48-2.22 1.92-4.98 3.86-7.18-0.84 3.58-1.1 6.9-3.04 9.93 2.2-1.66 2.48-6.08 3.04-8.550.54 1.920.28 3.580.54 5.80.28 1.92 1.66 3.3 2.2 5.24-0.54-1.94-1.64-4.14-1.64-6.36 0-1.640.28-2.76-0.28-4.14 1.1 2.5 1.38 6.36 2.76 8.55-0.28-2.2-0.56-4.96-1.38-6.9-0.28-1.66-1.38-2.48-1.66-4.14-1.1-3.04-0.26-6.36 0-9.380.56-3.320.28-6.64 1.38-9.670.82-3.3 2.76-5.8 4.4-8.55-2.46 2.22-4.94 5.8-5.5 9.39-1.1-3.320.82-7.46 0-11.05-0.28 3.6-0.54 6.64-0.54 10.21 0-3.86-2.22-7.17-4.14-9.65zm18.15 8.69c1.12 1.940.84 4.70.84 6.9v10.47c0 3.040.28 6.06-0.28 9.09-0.56 2.48-2.5 4.96-3.34 7.180.84-1.66 2.22-2.76 2.78-4.420.56-1.10.84-2.2 1.12-3.3 0 1.92-0.84 3.3-1.12 4.96-0.28 1.66 0 3.04 0 4.4-0.28-3.02 1.66-5.78 1.38-8.810.84 1.10.56 2.22 1.4 3.320.82 1.1 2.5 1.92 2.76 3.3-0.54-1.38-1.66-3.04-2.48-4.4-0.28-0.84-1.12-1.38-1.12-2.5 1.4 3.32 5 3.04 7.76 4.7-1.38-1.1-2.76-1.94-4.42-2.76-1.4-0.56-1.94-1.1-2.78-2.2-1.38-1.94-0.84-4.98-0.84-7.180.28-4.960.84-9.65 2.5-14.610.28-0.820.56-1.92 1.12-2.760.54-1.1 1.66-1.92 1.94-3.02-1.120.26-2.22 2.48-2.78 3.58-0.56 1.1-1.1 2.2-1.38 3.3-0.28-1.1-0.28-2.76-0.28-4.14-0.28-1.640.28-3.86-0.56-5.240.28 3.040.56 6.080.56 9.11-1.66-2.5-1.12-6.08-4.16-7.460.820.56 1.66 1.94 1.66 3.04zm14.730.78c1.64 1.92 2.2 3.04 2.46 5.52 0 3.02-0.54 6.34-0.26 9.360.54 3.32 1.36 7.170.82 10.75-0.28 1.38-0.82 2.48-1.38 3.86-0.54 1.1-0.82 2.48-1.64 3.580.56-0.820.82-1.64 1.64-2.740.56-0.560.82-1.12 1.1-1.940.54-1.380.54-2.760.82-4.14 1.08 1.94-0.54 5.24-0.54 7.460.26-2.22 1.9-4.98 1.08-7.180.54 1.94 1.92 3.3 3 4.96-1.36-1.1-1.08-3.58-2.46-4.68 1.10.82 4.64 3.02 6 2.2-1.08-0.82-2.72-0.54-3.82-1.66-1.08-0.82-1.36-1.38-1.62-2.74-0.56-3.04-1.38-5.8-1.64-8.84 0-2.76-0.28-5.5 1.08-8 1.64-2.2 3.82-4.68 4.38-7.430.26-0.540.26-1.10.26-1.66-0.82 1.66-1.36 3.32-2.46 4.98-0.54 1.1-2.44 2.48-2.44 3.58 0-1.10.54-2.760.54-3.860.28-1.380.82-3.040.54-4.42-0.26 2.22-1.08 4.96-1.36 7.17 0-1.1-0.28-2.76-0.28-4.14 0-0.82-0.54-1.94-1.08-2.760.82 1.94-0.28 4.680.82 6.34-0.54-1.38-1.64-3.3-3.28-3.3zm14.47 1.08c1.68 1.68 3.04 3.6 3.88 5.8 1.36 3.040.84 6.920.84 10.23 0 1.64 0 3.040.28 4.68 0 1.40.24 2.52 0 3.88-0.56 2.76-4.16 4.68-3.88 7.72 1.12-1.92 2.76-3.56 4.12-5.240.84-1.080.84-3.320.84-4.68 1.12 2.20.56 5.8-0.28 80.84-1.64 1.4-2.76 1.4-4.4 0-1.4-0.28-2.76-0.28-3.88v-0.56c0.28 1.40.28 3.040.84 4.440.8 1.08 1.36 1.64 1.92 3.04-0.56-2.24-1.92-4.72-1.92-7.20.24 1.4 1.08 3.6 2.72 4.16-1.36-0.84-1.36-1.96-1.92-3.04-0.28-0.84-1.08-1.4-1.36-1.96-1.4-1.92-1.12-4.68-1.4-6.64-0.28-2.2-0.56-4.4-0.28-6.320.28-1.120.28-2.520.28-3.60.28-1.68 1.12-2.76 1.68-3.880.28-0.560.52-0.840.52-1.12-1.640.56-2.76 4.16-3 5.84-0.84-1.4-0.56-3.6-1.12-4.72-0.28 1.120.28 3.040.56 4.44-0.84-1.12-1.12-2.52-2.2-3.32-0.56-0.56-1.68-0.84-2.24-1.4zm19.67 1.96c1.64 1.64 3.28 2.2 4.12 4.40.8 3.04 0 6.360.28 9.390.28 2.2 1.36 5.520.52 7.43-0.52 1.12-1.64 1.92-2.44 3.04-0.84 1.12-1.92 2.76-2.2 4.160.56-1.96 1.92-3.88 3.56-5.28 1.08-1.08 1.92-1.92 1.92-3.560.56 1.08-0.56 2.48-0.84 3.56-0.52 1.12-1.08 2.52-1.36 3.60.56-2.76 2.76-4.68 3-7.44 0 1.92-0.24 3.6-0.24 5.52 0 1.360.52 2.480.8 3.84-0.56-2.20.28-4.120.28-6.32 0-1.12-0.28-1.96-0.28-3.040.56 1.080.56 2.2 1.08 3.320.560.8 1.4 1.92 1.64 3.04-1.08-1.96-0.8-4.44-2.16-6.08-1.64-1.96-1.36-3.88-1.64-6.64 0-2.48-0.84-5.240.28-7.430.24-1.12 1.08-2.24 1.88-3.040.56-1.12 1.12-2.76 1.64-3.32-1.08 1.92-2.72 3.32-3.8 4.96 0-1.92 0-4.40.52-6.63-0.52 2.24-1.08 4.44-1.08 6.63-0.56-1.64-0.28-3.88-1.64-5.240.84 1.360.28 3.6 1.08 4.96-0.8-0.8-1.08-1.92-2.16-2.2-0.84-0.56-1.64-0.56-2.2-1.4z" fill="#933e8d" fill-rule="evenodd"/><path d="M225.7 172.14c-1.660.28-2.76 0-3.32 0-0.54-0.28-0.54-0.28-1.1-0.56-0.28-0.28-0.56-0.56-0.82-0.56-0.28-0.28-0.84-0.28-1.12-0.56-0.54 0-0.82-0.28-1.38-0.840.560.560.84 1.12 1.38 1.40.28 0 0.84 0 1.120.28 0 0 0.540.280.260.56-0.540.28-1.38-0.28-1.92-0.56-0.84-0.28-1.66 0-2.5 0-0.54 0-1.1-0.56-1.92-0.56-0.560.28-1.380.84-1.940.280.820.56 1.66 0 2.48 0 0.840.280.280.56-0.280.84-0.26 0-0.54 0-0.820.28-0.28 0-0.82-0.28-0.82 0 0.540.28 1.38 0 2.2-0.280.56-0.56 1.38-0.56 1.94-0.280.28 0 0.82 0 1.10.280.280.56-0.280.56-0.560.84-0.820.28-1.920.28-2.760.56h-1.38c-0.28 0-0.54-0.28-1.1-0.56-0.82-0.28-1.10.28-1.940.28h1.12c0-0.280.54-0.280.54 0 0.560.28 1.10.56 1.660.56-0.280.28-0.820.56-1.10.56-0.280.28-0.560.28-1.10.28-0.560.28-1.120.54-1.4 1.10.84-0.82 1.94-0.82 3.04-1.10.84-0.28 1.12-0.84 1.94-0.840.56 0 1.38-0.56 1.94 0 0.540.56-0.84 1.12-1.1 1.38-0.280.56-0.560.84-0.84 1.4-0.280.56-0.560.28-1.10.28-0.56 0-1.10.28-1.660.56-0.280.28-0.560.84-1.10.840.28-0.280.82-0.28 1.1-0.560.56-0.280.82-0.56 1.1-0.56h1.66c-0.280.84-1.10.84-1.66 1.4-0.280.28-0.540.56-0.82 1.120.54-0.84 1.92-1.12 2.76-1.960.56-0.840.56-1.68 1.38-2.520.28-0.260.82-0.54 1.38-0.540.56 0 0.280.28 0 0.82-0.280.28-0.560.56-0.82 1.12l-0.840.84c-0.280.28-0.540.56-0.820.84-0.28 0-0.560.56-0.840.840.56-0.28 1.12-1.12 1.94-1.12-0.560.56-1.10.84-1.1 1.4-0.280.56-0.28 1.12-0.28 1.380.28-0.540.56-1.10.82-1.380.28-0.560.56-0.840.56-1.120.28-0.840.56-1.4 1.38-2.240.280.28 0 0.28 0 0.56v1.12c-0.280.84-0.82 1.4-0.82 1.96 0-0.280.54-1.120.82-1.4l0.560.56v0.56c0.260.56 0 0.84 0 1.120.54-0.56 0-1.68-0.28-2.24v-1.68c0-0.28 0-0.840.28-1.120.26-0.540.54-0.280.82 0 0.280.560.280.84 0 1.4-0.280.84-0.28 2.240.28 3.08 0 0.280.280.560.560.82-0.28 0-0.28-0.54-0.28-0.82-0.28-0.28-0.28-0.56-0.28-1.12 0-0.28 0-0.840.28-1.120.28-0.840.28-1.40.28-1.96v0.84c0.260.280.260.560.260.840.280.84 1.38 1.4 1.12 1.96 0-0.56-0.28-1.12-0.56-1.68-0.28-0.28-0.56-0.56-0.56-1.120.280.280.840.56 1.120.840.260.280.540.280.820.840.280.280.280.560.56 1.12 0 0.280.26 1.12 0 1.120.26-1.12 0-2.24-0.84-3.08-0.28-0.28-0.82-0.28-1.1-0.56-0.28-0.28-0.28-0.84-0.28-1.120.56-1.1 1.660.28 1.940.560.280.280.540.560.820.84l0.560.56v0.28c0-0.84-0.84-1.12-1.1-1.68-0.28-0.28-0.84-1.12 0-1.380.26-0.280.82 0 1.1 0 0.560.260.82-0.28 1.38-0.280.82-0.28 1.38-0.28 2.2-0.28h-2.48c-0.540.28-1.660.28-2.2 0-0.56-0.560.26-1.120.54-1.120.56-0.280.56-0.28 1.94-0.56z" fill="#843f8e" fill-rule="evenodd"/><path d="M240.33 175.17h-2.22c-0.280.28-0.840.54-1.380.54-1.120.28-1.94 0-2.78-0.26-0.56-0.28-1.12-0.56-1.66-0.56-0.56 0-0.84 0-1.40.28-0.82 0-1.94 0-2.5-0.840.280.560.560.84 1.12 1.120.560.26 1.38 0 1.940.26-0.560.28-0.560.56-0.840.56-0.540.28-0.820.28-1.10.280.820.28 1.38-0.28 2.22-0.560.84-0.54 2.5-0.82 3.060.560.26 1.38-1.4 1.38-2.22 1.1H230.9c-0.28 0-0.820.28-1.38 0-0.28-0.28-0.28-0.56-0.84-0.82-0.28 0-0.56-0.28-0.82-0.28-0.56 0-1.4 0-1.96-0.280.280.280.840.56 1.120.560.28 0 0.840.26 1.10.260.28 0 0.560.280.840.56 0 0 0.280.540.560.54-0.56 0-1.120.28-1.660.28-0.280.28-0.84 0-1.4 0 0.840.28 1.660.56 2.780.280.28 0 0.56-0.28 1.1-0.280.28 0 1.12-0.28 1.4-0.280.280.28-0.840.56-1.120.56-0.540.28-1.10.28-1.660.56-0.840.26-1.10.54-1.38 1.1-0.280.54-0.28 1.1-0.56 1.380.28-0.840.84-1.94 1.94-1.94 0 0.56-0.56 1.66-0.28 2.220.28-0.84 0-1.660.84-2.220.56-0.54 2.22-0.82 2.78-0.82-0.560.28-1.120.54-1.4 1.1-0.560.28-0.560.82-0.82 1.38-0.280.56-0.84 1.38-1.68 1.66 1.12-0.28 1.68-1.1 2.22-1.940.56-1.1 1.4-1.66 2.78-1.660.56 0 1.40.28 1.40.840.260.54-0.560.82-0.84 1.1-0.840.28-1.380.28-2.220.82-0.560.28-0.840.56-1.12 1.10.56-0.82 1.68-1.1 2.78-1.360.56-0.28 1.4-0.56 1.66-1.120.280.560.56 1.120.28 1.94 0 0.54-0.28 1.1-0.28 1.660.28-0.560.84-1.380.84-1.94 0-0.540.28-1.92 1.12-1.660.540.280.26 1.380.26 1.940.280.540.56 1.10.56 1.66v1.1c0.84-1.1-0.28-2.48 0-3.58 0-0.560.28-1.120.84-1.120.56-0.26 1.1 0 1.380.560.560.82 1.4 1.92 1.66 2.76 0 0.82-0.54 1.66-0.54 2.48 0 0.28 0 0.280.280.54-0.28-0.820.26-1.920.54-2.74 0-1.12-0.54-1.66-0.82-2.48-0.56-0.56-1.4-1.94-0.56-2.50.28 0 0.56 0 1.10.280.28 0 0.840.28 1.40.28s1.1-0.28 1.66-0.28c0.560.28 1.120.28 1.940.280.28 0 0.84 0 1.4-0.28 0-0.280.26-0.540.26-0.82-0.260.54-0.820.82-1.660.82-0.820.28-1.66-0.28-2.5-0.28-0.82-0.26-1.66-0.26-2.5-0.26-0.54 0-1.1 0-1.1-0.560.28-0.28 1.1-0.56 1.38-0.56 1.12-0.26 1.94-0.82 3.06-0.820.560.28 1.940.82 2.780.28-1.120.28-1.68-0.28-2.5-0.56-1.12 0-1.66 0-2.780.56-0.56 0-1.660.54-2.220.28-0.56-0.56-0.56-2.22 0-2.48zm14.53 3.6c-0.560.84-2.46 1.4-3.560.84-0.28-0.28-0.56-0.56-0.82-0.84-0.56 0-0.82 0-1.38-0.280.560.56 1.10.56 1.64 1.120.28 0 0.560.280.560.560.28 0 0.540.280.540.54-0.540.28-1.1-0.26-1.64-0.26-0.28-0.28-1.1-0.84-1.64-0.840.540.280.820.56 1.360.840.280.260.820.540.56 1.1 0 0.56-0.820.56-1.10.84-0.540.54-1.10.82-1.92 1.38-0.260.28-0.540.56-0.820.84-0.280.26-0.280.26-0.280.820.28-0.560.84-1.1 1.38-1.38-0.280.28-0.280.56-0.540.82 0 0.28 0 0.56-0.280.840.54-0.560.82-1.38 1.1-1.940.26-0.56 1.08-0.84 1.64-1.12l0.54-0.54c0.28 0 0.82 0 1.10.280.820.54-0.82 1.1-1.1 1.38-0.820.56-2.18 1.1-1.64 2.22 0-0.28 0-0.840.28-1.120.26-0.260.82-0.82 1.08-0.82-0.260.56-1.08 1.38-0.54 1.94 0-0.560.28-1.120.54-1.380.28-0.560.56-1.12 1.1-1.120.56-0.280.280.560.280.84-0.280.28-0.560.28-0.560.54-0.260.28-0.260.56-0.260.84 0-0.560.54-0.840.82-1.1 0 0 0 0.260.280.26v1.68c0-0.560.26-0.840.26-1.12 0-0.28-0.26-0.56-0.26-1.1 0-0.280.26-1.4 1.08-1.40.56 0 0.820.840.56 1.12-0.280.28-0.560.56-0.560.82l-0.260.28v0.56c0-0.280.26-0.560.54-0.840.28-0.260.54-0.260.54-0.54v1.1c-0.260.28-0.260.56-0.260.56v0.56c0-0.280.26-0.560.26-1.120.28-0.280.28-0.560.28-1.1 0-0.56-0.28-1.680.54-1.680.84 0 1.1 1.12 1.1 1.68v0.82c0 0.56-0.260.84-0.54 1.12 0 0.28 0 0.54-0.280.540.28-0.260.82-0.54 1.1-1.1v-0.84c0.280.280.540.560.540.84 0 0.280.280.280.280.56 0-0.28 0-0.84-0.28-1.12-0.26-0.28-0.26-0.82-0.26-1.1-0.28-0.56-0.28-0.84-0.56-1.4 0-0.26-0.54-0.54-0.54-0.820.28 0 0.540.280.820.28h1.1c0.54 0 1.360.54 1.64 1.1l-0.56-0.56c0-0.26-0.26-0.26-0.54-0.54-0.54-0.28-0.82-0.28-1.36-0.28-0.56-0.28-1.1-0.28-1.1-0.840.28-0.54 1.1-0.54 1.36-0.280.56 0 0.82 0 1.38-0.260.26 0 0.54-0.56 1.08-0.28-0.26-0.28-0.54-0.28-0.54 0-0.28 0-0.54 0-0.820.28-0.54 0-1.1 0-1.64-0.28-0.28 0-1.10.28-1.38-0.28-0.26-0.560.28-0.840.56-1.12zm34.2 5.96c-0.560.56-1.920.56-2.48 0-0.28-0.28-0.28-0.56-0.56-0.84-0.28 0-0.56 0-0.84-0.28l0.840.84c0.280.280.280.280.280.560.28 0 0.280.280.280.56-0.28 0-0.84-0.28-0.84-0.56-0.56-0.28-0.8-0.56-1.36-0.840.560.280.80.56 1.080.84 0 0 0.280.560.280.84-0.280.28-0.80.28-1.080.28l-1.680.84c-0.28 0-0.560.28-0.560.28l-0.560.56c0.28-0.280.84-0.56 1.12-0.84 0 0.28-0.280.56-0.280.56-0.280.28-0.280.56-0.280.560.28-0.280.56-0.84 1.12-1.120.28-0.280.84-0.56 1.12-0.56h0.52c0.28 0 0.56 0 0.840.280.280.56-0.840.56-1.080.56-0.560.28-1.680.56-1.68 1.40.28-0.280.28-0.560.56-0.840.28 0 0.56-0.280.84-0.28-0.280.28-0.840.84-0.84 1.40.28-0.280.56-0.840.84-1.120.28-0.280.52-0.560.8-0.560.56 0 0.280.56 0 0.84 0 0-0.28 0-0.280.28-0.24 0-0.240.28-0.240.56 0-0.280.24-0.560.52-0.84 0 0.28 0 0.280.280.28 0 0.28 0 0.28-0.280.56v0.56c0-0.280.28-0.280.28-0.56v-0.84c0.28-0.280.56-1.12 1.12-0.840.28 0 0.280.56 0 0.84 0 0.28-0.280.28-0.560.56v0.28l-0.280.280.56-0.56c0.28 0 0.56 0 0.56-0.28v0.28c0 0.28-0.280.28-0.280.56l-0.280.28v0.56c0-0.280.28-0.560.28-0.840.28-0.280.56-0.560.56-0.84 0-0.28 0-1.120.56-1.120.520.280.52 1.120.52 1.4v0.84c-0.280.28-0.520.28-0.520.56-0.28 0-0.280.28-0.280.280.28-0.280.52-0.280.8-0.56 0-0.28 0-0.280.28-0.56v0.56c0 0.280.280.560.280.56v-0.84c-0.28-0.28-0.28-0.56-0.28-0.84v-1.12c0-0.28-0.28-0.28-0.28-0.560.28 0 0.280.280.560.28h0.84c0.280.280.840.840.84 1.12v-0.28l-0.56-0.56c-0.28-0.28-0.56-0.28-0.84-0.56-0.28 0-0.84-0.28-0.56-0.840.28-0.280.84 0 1.12 0 0.280.280.560.280.840.280.28 0 0.56-0.280.8-0.28h-0.8c-0.56 0-0.84 0-1.4-0.28-0.28 0-0.56 0-0.84-0.56 0-0.280.28-0.280.56-0.56zm-20.63-2.84c-0.280.28-1.360.28-1.640.52-0.560.28-0.840.56-1.360.28-0.28 0-0.56-0.28-0.56-0.28-0.28-0.24-0.56-0.24-0.84-0.24-0.52-0.56-0.24-1.12-0.8-1.680.280.280.280.840.28 1.4 0 0.520.280.520.80.8-0.52-0.28-0.8-0.28-1.08-0.52-0.56 0-0.56-0.28-0.84-0.56 0 0.560.560.80.84 1.080.56 0 1.08 0 1.360.280.28 0 0.56 0 0.560.28 0 0.28-0.560.28-0.560.28-0.560.28-0.80.28-1.360.28-0.28 0-0.560.28-0.84 0-0.28-0.28-0.8-0.28-1.36 0-0.28 0-0.560.28-0.840.520.56-0.24 1.68-1.08 2.2-0.24-0.28 0-0.520.24-0.80.52-0.28 0-0.56 0-0.840.280.56 0 1.12-0.56 1.64-0.8h0.84c0.28 0 0.56 0 0.560.240.24 0 0.240.28 0 0.56h-0.56l-0.560.56c-0.280.28-0.560.56-0.56 1.08 0 0.28-0.240.56-0.240.84 0-0.280.24-0.560.24-0.840.28-0.520.56-0.80.84-0.8l0.84-0.84c0.24 0 0.52-0.280.52 0 0.280.28 0 0.84-0.280.84-0.240.28-0.520.52-0.520.8-0.280.28-0.280.56-0.280.84 0-0.560.8-1.36 1.36-1.64h0.56v-0.28c0.28-0.280.28-0.280.28 0v0.56c-0.280.24-0.280.52-0.280.8-0.280.28-0.280.56 0 0.84v0.52c0.28-0.52-0.28-1.360.28-1.920.52-0.520.80.560.8 1.12v-0.84s-0.28-0.28-0.28-0.52c0-0.280.28-0.840.84-0.560.28 0 0.840.280.560.8 0 0.28-0.280.56-0.28 1.12 0-0.560.56-0.840.56-1.36v0.52c0.24 0 0.24 0 0.240.280.28 0 0.560.280.560.56v-0.56c-0.28 0-0.28 0-0.28-0.28-0.28-0.28-0.52-0.52 0-0.520.56 0 0.840.24 1.120.52s0.520.840.52 1.12v-0.84c-0.24-0.28-0.52-0.28-0.52-0.56-0.56-0.24-0.56-0.24-1.12-0.24-0.28-0.28-0.8-0.56-1.08-0.84-0.56-0.28 0-0.840.56-0.840.8 0 1.080.28 1.36 1.12l0.80.8c0.28 0 0.560.280.560.28h0.56c-0.56-0.28-0.84-0.52-1.12-0.52-0.24-0.28-0.52-0.56-0.52-0.840.52 0 1.92 0 2.440.56-0.24-0.56-1.08-0.84-1.36-0.84-0.56-0.28-1.08 0-1.36-0.28-0.28 0-1.12-0.52-1.12-0.8s0.56-0.280.56-0.56c0.28 0 0.56 0 0.840.280.28 0 0.80.280.80.80.28-0.52-0.52-0.8-0.8-1.080.52 0 1.08 0 1.36-0.28-0.28-0.28-0.56 0-1.08 0h-1.12c-0.28 0-0.560.28-0.8 0-0.28-0.80.24-0.80.8-1.08z" fill="#843f8e" fill-rule="evenodd"/><path d="M390.28 170.5c-73.03 16.31-81.27 13.27-95.06 13.27-13.51-0.28-37.5-6.64-51.29-9.68-13.47-3.04-21.23-1.36-21.23-1.36" fill="none" stroke="#843f8e" stroke-width=".64" stroke-linecap="round" stroke-miterlimit="8"/><path d="M238.85 175.41s1.68-1.68 11.03 1.36c9.67 2.76 29.78 6.08 39.7 7.16 10.23 1.36 39.46-0.56 50.21-2.76 10.47-2.48 47.97-9.63 50.97-10.19" fill="none" stroke="#843f8e" stroke-width=".64" stroke-linecap="round" stroke-miterlimit="8"/><path d="M253.89 179.89s1.4-1.36 5-0.24c3.840.8 22.59 4.16 26.42 4.68 3.880.56 39.42 4.16 105.78-13.03" fill="none" stroke="#843f8e" stroke-width=".64" stroke-linecap="round" stroke-miterlimit="8"/><path d="M267.32 184.01s3.04-1.36 5.8-0.8c2.760.56 24.82 3.28 33.1 2.48 0 0 63.72-6.08 84.39-14.07" fill="none" stroke="#843f8e" stroke-width=".64" stroke-linecap="round" stroke-miterlimit="8"/><path d="M288.02 186.21s0.84-0.28 4.720.28c4.120.56 40.220.8 98.34-16.55" fill="none" stroke="#843f8e" stroke-width=".64" stroke-linecap="round" stroke-miterlimit="8"/><path d="M290.78 194.2c-1.08-0.6-3.24 1.68-1.6 1.960.28 0 2.16-0.56 2.44-0.840.24-0.84-0.56-1.12-1.08-1.12zm5.560.28c-0.84-0.56-2.48 1.12-2.48 1.92 0 1.36 2.760.56 3.560.560.840.28 2.44 0 1.92-1.12-0.56-1.08-2.48-1.08-3.28-1.36zm-4.44 2.72c-0.84-0.56-2.60.8-2 1.60.84 0 1.72-0.8 2.28-1.6h-0.56zm2.76 1.44c0.560.28 4.12 2.96 4.4 1.080.24-1.08-2.76-1.08-3.28-0.8zm8.52-0.8c0 0.8 1.96 2.16 2.76 2.72 1.120.24 3.6-0.84 3.36-2.16-0.56-1.92-5.84-0.84-6.96-0.84zm7.48-2.52c0.560.8 4.4 2.6 4.96 1.040.24-1.56-3.28-1.28-4.12-1.04zm0.72 3.32c-1.12 1.08-2.24 2.44-1.96 4.080.28 2.4 2.24 3.2 4.2 1.88 1.36-1.08 1.36-2.440.56-3.8-0.56-0.8-1.4-1.88-2.52-1.6zm-8.55-3.32c0.56 0 2.240.84 2.80.280.56-1.12-1.4-0.84-1.96-0.84zm-1.28 3.56c-0.560.520.52 1.6 1.04 1.080.24-0.8-1.04-1.64-1.6-1.08zm-20.15-4.16c0-0.28 1.120.88 1.68 1.160.80.28 3.28-0.84 2.2-2-0.84-0.6-3.6 0-4.440.56zm-0.88 1.6c-0.8 0-1.36 1.6 0 1.36 1.36-0.560.84-1.92-0.24-1.36zm4.160.6c-0.560.28-1.40.8-1.68 1.360.560.52 1.68-0.8 1.68-1.36-0.28 0-0.28-0.28-0.28-0.28zm-7.67-3.04c-1.080.28-3.28 1.12-2.72 2.520.84 1.92 30.28 3.84-0.280.8-0.56 1.6-1.120.52-1.68-0.28-0.28-1.92-0.84-2.44-0.28zm-5-0.2c0.56 0 1.4-0.56 1.68-0.280.840.56 0 1.68-0.56 1.96-1.120.24-2.28-1.12-1.12-1.96zm-3-0.12c-1.44 0-0.84 3.080.56 2.24 1.12-0.84-0.28-2.52-0.56-1.96zm2.48 2.48c-0.560.28-3.28 1.68-1.64 2.520.560.24 1.88-0.56 2.72-0.560.52 0 0.8 0 1.32-0.28-0.24-0.84-1.08-1.96-1.88-1.4zm6.88 1.52c-0.84-0.28-20.24-1.68 1 1.120.24 1.68-0.24 1.68-1.28zm-24.55-4.76c-1.380.56-2.48 1.12-2.2 2.8 1.380.28 3.560.56 2.74-1.4-0.54 0-0.54-0.28-0.82-0.56zm3.90.32c-0.28 0-0.82 0-1.10.28-0.560.28-0.56 1.12-0.56 1.68 0 0.560.280.84 1.1 1.120.56 0 1.380.28 1.920.280.82-0.280.82-1.960.28-2.52-0.28-0.28-0.54-0.84-1.1-0.84h-0.82zm4.98-0.04c-0.84-0.28-1.4 1.12-1.4 1.68-0.28 1.40.840.84 1.680.560.56 0 0.84 0 1.12-0.280.28-0.280.28-0.840.28-1.12-0.28-0.28-0.84-0.56-1.12-0.84h-0.84zm2.720.52c0.760.84 1.28 2.52 1.04 3.32 0 0.56 0 1.68-0.52 1.96-0.280.24-0.520.24-0.8 0-0.28-0.56 0-1.12 0-1.68s0.28-0.840.28-1.36c0.24-0.280.24-1.960.24-1.96zm-1.36 2.28c-0.26-0.28-1.640.26-1.920.52-0.560.26-1.120.78-0.28 1.040.56 0 1.66 0 1.94-0.520.26-0.260.26-0.78 0-1.04zm-2.58 2.62c0.28-0.280.56-0.280.84-0.280.56 0 1.14-0.3 1.7-0.30.840.30.56 1.160.28 1.72-0.280.28-0.84 0-1.12 0-0.58 0-1.7 0-2-0.28 0-0.280.3-0.580.3-0.58zm-1.34-1.76c-0.28-0.26-1.44 1.3-1.44 1.56 0 0.780.3 1.30.860.780.58-0.52 1.14-1.56 1.14-2.08s0-0.52-0.56-0.26zm-7.36-0.26h-0.86c-0.580.28-0.280.84-0.28 1.38 0 0.28-0.3 1.1-0.3 1.38 0 0.260.860.82 1.140.820.30.260.86 0 1.14-0.280.28-0.280.28-1.10.28-1.64 0-0.56 0-0.82-0.56-1.1 0-0.28-0.56-0.56-0.56-0.56zm2.38-0.88c-1.10.28-0.82 1.38-0.54 2.2 0 0.56 0 1.380.82 1.64h0.54c0.28-0.260.84 0 1.1-0.260.28 0 0.56-0.560.82-0.82 0-0.28-0.54-0.84-0.82-1.1-0.26-0.28-0.82-0.56-1.36-0.82 0 0-0.56-0.28-0.56-0.84zm-0.52-3.12c-0.580.880.28 2.32 1.14 1.46 0-0.30.28-0.88 0-0.88-0.28-0.28-0.86-0.58-0.86-0.28zm-6.88-0.56c0 0.280.540.280.80.28s0.520.280.520.82c0.260.560.26 2.2-0.52 2.48-0.80.26-1.32-0.82-1.58-1.38 0-0.28-0.28-0.54-0.28-1.1 0-0.260.8-0.54 1.06-0.82zm-9.71-0.02c-0.26-0.3-1.36-0.3-1.640.28-0.260.28-0.26 1.14-0.26 1.42-0.280.58-0.56 1.16-0.28 1.44 1.10.56 2.46-0.58 2.74-1.440.26-0.280.26-0.56 0-1.14 0-0.28-0.28-0.28-0.56-0.56zm3.380.32c-0.54-0.3-0.82 0-1.080.56-0.280.28-0.28 1.7-0.28 1.980.540.56 1.620.28 1.90.28 1.08 0 1.620.56 2.70.560.52 0 0.52-0.560.26-1.12 0-0.86-0.54-1.42-1.08-1.7s-1.08-0.56-1.62-0.86c-0.26 0-0.8 0-1.080.3zm5.32 2.78c-0.86-0.84-1.44 1.4-1.44 1.96-0.280.56-1.72 3.36 0 3.080.28 0 1.44-0.28 1.72-0.560.56-0.280.56-1.40.56-1.96 0-0.56-0.28-1.12-0.28-1.4 0-0.56-0.28-0.84-0.56-1.12zm1.84 1.92c0-0.28 0-0.28-0.26-0.28-0.260.56-0.26 1.64-0.26 2.2 0 0.540.26 1.080.780.540.26-0.540.5-1.360.26-1.92-0.26-0.26-0.52-0.54-0.78-0.82zm-4.940.52c0.260.58 0 1.74-0.28 2.32-0.540.56-1.88 0-2.7-0.3h-0.8c-0.28-0.280.26-0.860.54-1.140.26-0.580.8-0.88 1.34-0.880.540.3 1.080.3 1.620.58zm-3.78-1s0.26-0.280.54-0.28c0.54-0.56 1.08-0.28 1.62-0.280.54 0 0.8-0.28 1.340.28 0 0.280.540.560.540.84h-1.34c-0.540.28-1.08 0-1.62-0.28-0.28-0.28-0.54 0-0.82 0-0.26 0-0.54 0-0.54-0.28zm-1.16-1.48c-0.280.56-0.280.84-0.56 1.38 0 0.840.28 1.66 0 2.22-0.28 1.36-1.440.82-2.280.26-1.16-0.54-0.58-1.1 0-1.920.56-1.1 1.7-1.1 2.84-1.66zm-5.68-1.58c0-0.86-0.54-1.72-1.34-2.28-0.82-0.3-2.44 0-2.98 1.14 0 0.280.28 1.140.54 1.420.280.30.82 1.14 1.36 1.140.54 0 1.34-0.28 1.62-0.560.54-0.280.54-0.580.8-0.86zm-5.68-1.7c-0.28 0-0.84-0.56-1.12-0.56-0.84 0-1.120.56-1.4 1.12-0.280.54-0.28 1.10.28 1.38s1.40.28 1.680.54c0.28-0.540.56-1.380.56-1.92 0-0.28 0-0.56-0.28-0.84zm1.72 3.3c0.28-0.26-0.3-0.54-0.58-0.54-0.56-0.28-1.420.54-1.7 1.1-0.30.26-0.30.54-0.580.82 0 0.26-0.280.54-0.560.82-0.30.820.280.820.84 1.080.580.28 1.440.54 20.280.58 0 0.86-0.54 1.14-1.10.28-0.540.28-0.820.28-1.36-0.28-0.54-0.56-0.82-0.84-1.1zm3.480.62c-0.26 0-0.54 0-1.080.28-0.80.54-0.8 1.08-0.8 2.16 0 0.54-0.280.820.54 1.080.54 0 1.08-0.26 1.62 0 0.26-0.540.52-1.340.52-1.88 0-0.28-0.8-1.08-0.52-1.36zm-10.97-5c-0.54 0-1.10.28-1.380.54-0.280.56-0.280.82 0 1.38 0 0.26 0 0.820.280.820.280.260.82 0 1.1 0 0.28 0 0.56 0 0.82-0.56 0-0.26-1.1-2.18-1.1-2.46zm1.90.2c0 1.7-0.5 3.4-0.5 4.8 0 0.56-0.26 1.120.26 1.40.50.280.76-0.28 1-0.84v-1.68c-0.24-0.58-0.24-1.42-0.24-1.98s0-1.12-0.52-1.4zm1.92 3.68s0.520.30.520.58c0 0.28-0.52 1.42-0.52 1.42-0.52 0-0.52-1.42-0.26-1.7zm-5.22-0.28c0.54 0 0.82-0.28 1.1-0.280.80.280.80.80.8 1.6v1.6c0 0.28 0 0.28-0.260.54-0.540.26-1.1-0.26-1.36-0.26-0.28-0.28-0.82-0.54-0.82-0.8-0.28-0.54 0-0.80.28-1.08 0-0.520.26-0.80.54-1.32zm-5.18-4c0.52 0 1.58-0.28 1.840.280.520.280.52 1.960.52 2.52-1.320.28-1.84-1.12-2.64-1.96 0-0.280.28-0.560.54-0.56zm1.84 4.5c-0.52 0-1.32-1.1-1.84-0.82-0.280.28-0.28 1.38-0.28 1.64 1.06 1.92 2.640.28 1.86-0.82zm-4.1-3.6c1.080.84 1.34 2.82-0.28 2.82-1.9 0-1.62-2.82 0-3.12zm-5.46-1.54s-0.28 0 0-0.28c0.80.28 2.42 0 2.70.540.260.78-0.28 1.32-0.82 1.58-1.080.52-2.44-0.52-2.16-1.84zm-0.12 3.54c0.28 0 3.56-0.3 2.2 1.14-0.280.56-2.2-0.28-2.48-0.86zm-1.9-4.14h-0.28c0.56 1.94 1.1 4.96-1.66 3.32-1.12-0.56-1.4-0.56-1.12-1.660.56-1.1 1.4-1.38 2.22-1.38zm-5.20.48c0.82-0.26 2.18-0.54 1.1-1.64-0.28-0.54-1.66-0.54-2.2-0.82-3.04-1.38-0.84 2.20.54 2.2zm-3.28 1.2c1.080.28 3.520.28 3.78 1.84-1.62 0-3.24-0.26-4.32-1.3v-0.26zm-1.74-5.5c1.680.28 1.68 4.62-0.84 3.82-1.12-0.28-1.96-2.46-1.4-3.540.28-1.1 1.12-0.28 2.24-0.28zm-6.32 4.86c1.680.26 3.360.8 5.040.8 0-0.8-0.56-0.8-1.12-1.36-0.56-0.54-0.56-1.36-1.12-1.64-1.68-1.64-1.960.82-2.52 1.64zm-0.64-2.98v0.26c0.54-0.260.82-1.36 1.64-1.640.28-0.280.820.28 1.380.28 0-1.10.26-1.92-0.28-3.02-0.54-0.56-2.74-1.94-3.58-1.94-2.2 0-0.26 5.240.56 6.32zm-2.96-1.1c0.840.56 2.24 2.76 1.96 3.86-1.40.28-3.920.54-5.32 0-0.56-1.38 1.68-3.86 3.08-3.86zm-3.06-0.56c0.56-0.56 2.2-0.56 2.76-1.40.54-0.84-0.82-1.96-1.38-2.24-1.1-0.28-2.20.56-2.76 1.4-0.28 1.120.56 2.8 1.66 1.96zm1.3-6.9c0.30.580.3 1.74 1.16 2.020.56 0 0.84-0.580.84-1.16 0-0.86-2-2.04-2-0.58zm-5.08-5.54c1.380.84 2.78 1.68 3.34 3.060.280.56 1.1 2.5 1.1 2.78-0.260.56-2.22 3.34-2.78 3.34-1.10.54-3.06-2.78-3.62-3.62-1.12-1.94-0.56-4.44 1.12-5.84zm-1.96 10.45c0.28-0.58 1.9 0 2.460.560.260.280.26 1.40.54 1.70.280.28 1.080.84 1.08 1.12-0.26 1.4-6-0.56-4.36-2.82zm0.72 4.94c0.86 0 2.56-0.56 2.28 1.12-0.84 0-1.7 0-2.28-0.28zm-2.58-4.58c-0.28 1.380.26 3.3-0.28 4.66-0.28 1.1-0.28 1.36-1.66 1.36-0.84-0.26-2.22-0.26-3.32-0.54-4.16-1.1 2.76-6.58 5.52-5.48zm-1.12-1.96c0.28-0.82 1.380.54 1.92 0 0.82-0.56-0.26-2.2-0.54-2.48-0.56-0.82-0.56-1.38-1.64-0.54-0.560.54-0.84 1.64-0.28 2.2zm-1.98-8.6c0.560.840.84 3.3 1.66 3.30.82 0 1.92-3.02 2.2-3.560.54-3.32-3.3-2.2-3.580.26zm1.68-7.39c0 0.54-0.8 2.42-0.52 2.70.520.8 1.32-0.28 1.84-0.820.52-0.80.26-2.7-1.32-1.88zm3 2.7c-0.280.58-0.28 1.74 0 2.320.52-0.580.52-2.02-0.28-2.32zm-7 6.16c0 0.56-4.32 2.74-2.7 3.84 1.080.8 2.44-2.46 2.16-3.28zm1.5 2.96c-1.64 1.1-3.56 3.02-4.4 4.94-1.1 2.740.84 1.92 2.480.82 1.38-0.820.82-1.08 1.66-2.740.26-0.82 1.08-1.360.26-2.46zm-5.84 8.31c0.560.84 1.38 1.660.84 2.48 0 0-1.40.54-1.680.82-0.820.28-1.10.54-1.940.54-1.12 0-1.68 0-1.12-1.360.56-1.92 2.5-0.56 3.34-1.64zm-7.67 2.24c-0.54 0-1.1 1.86-0.82 2.64 1.1 0 3-2.640.82-2.36zm7.38-7.46c-0.82 1.36-0.82 2.72-2.18 3.82-1.10.82-2.48 1.08-3.84-0.28-1.66-2.18 3.28-4.64 5.2-3.82zm-9.55 2.94c-1.92-0.84-2.48 1.12-2.76 2.5 1.920.82 3.84-1.94 2.2-2.22zm-2.28 4.52c0.540.28 1.360.54 1.620.820.280.260.54 2.160.28 2.42-1.36 1.88-1.9-1.34-1.62-2.42zm-7.20.76c-1.68-0.28-2.8 1.94-2.24 3.320.56 1.36 1.4 1.1 2.520.82 1.12-0.28 1.96-0.28 1.96-1.66 0-0.82-0.56-2.2-1.4-2.2zm2.86-2.46c-0.30.86 1.14 1.14 1.420.30.28-0.86-0.86-1.16-1.42-0.86zm-7.02 1.1c-1.360.56-0.8 3.34-2.44 3.88-0.54 0-2.72-0.82-3-1.380.56-1.1 2.72-2.78 3.82-2.78zm-0.2 5.52c-1.4-0.28-3.64 1.88-3.36 3.240.28 1.34 3.08 1.34 4.2 1.60.56-1.6 0-3.22-0.84-4.58zm7.710.84c0.28-0.28 3.04-3.12 3.04-0.56-0.26 1.12-2.20.56-3.040.56zm1.04-4.9c0-0.26-0.28-0.26-0.28-0.26-0.540.8-1.08 2.680.82 2.16 1.06-0.540.54-1.620.26-2.44-0.26 0-0.80.28-0.80.28zm-18.43 2.9c1.08 1.4 3.52 1.4 4.04 3.34 0 1.38-1.88 3.88-3.22 4.16-4.06 1.38-2.98-6.66-1.08-6.38zm-6.12 7.83c-0.54-1.94-3.52-4.16-5.42-3.04-1.9 1.1-2.18 3.3-0.82 4.96 1.36 1.94 2.72 2.48 4.34 1.1 1.9-1.64 1.1-2.2 0-4.14zm2.04 5.76c-4.22-3.6-7.88 9.12-2.82 4.42 1.14-1.1 1.7-2.2 2.82-3.040.84-0.26 1.68-0.26 1.96-0.820.56-1.38-0.84-2.22-1.96-1.94zm-11.15-0.56c0.560.56 2.48 1.66 2.22 3.04 0 1.4-1.66 2.5-2.22 3.32-0.84 1.12-0.84 2.76-1.66 3.6-2.22 2.2-3.06-0.84-2.78-2.48 0-3.32 1.4-6.64 4.72-6.36zm-5.76 14.25c-0.26-1.94-2.2-1.94-3.32-0.56-1.38 1.38-4.44 8.26-1.94 9.63 1.660.82 3.06-0.54 4.16-1.380.56-0.82 2.5-1.64 3.04-2.48 1.66-2.74-0.82-4.12-1.66-6.32zm8.04-5.46c-1.40.28-5 5.2-1.94 5.2 1.66 0 4.14-3.54 2.48-4.64zM100.5 229.42c-1.380.84-3.88 6.44-1.66 6.72 1.38 0 3.04-3.08 3.3-3.92 0-1.12-0.54-1.68-1.1-2.52zm25.14-36.14c0.28-1.9 2.5-3.24 4.16-4.6-0.54-0.82-1.38-2.18-1.94-3-1.12-1.36-0.84-1.36-1.94-0.8-1.120.8-2.24 3.52-2.24 4.6-0.28 1.10.56 3.8 1.96 1.9zm-1.16-19.95s0-0.56-0.28 0c-0.28 1.08-1.12 4.1-0.56 5.48 1.12 1.36 1.940.54 2.5-0.28 1.1-1.920.28-4.94-1.38-6.04-0.280.28-0.560.56-0.56 1.1zm-1.62-14.11c-0.26 2.46-1.06 6.02 1.06 7.92 1.32-0.820.8-5.460.8-7.1-0.52-2.74-2.12-1.64-2.120.54zm-0.9-9.91c0.560.8 2.52 3.2 2.8 1.08 0-1.34-1.68-1.88-2.52-1.08zm0.66-9.79c0-0.28-0.26-0.28-0.54-0.28 1.08 1.94 5.16 3.6 3.8 0-0.8-1.92-4.08-3.6-4.08-0.54zm-0.68-13.47c-2.54 0-2.24 6.960.84 6.14 3.66-1.120.86-5.58-0.84-6.7zm7.14-8.23c0 2.78-0.52 6.36-1.86 8.55-1.34-0.82-2.14-2.2-1.86-4.14 0-2.48 1.06-3.3 2.92-4.42zm-5.76-11.29c0.28 2.5-2.72 6.36-1.36 9.120.82 1.38 2.72 1.12 3.54-0.260.82-1.120.82-3.32 1.1-4.7 0-0.840.8-2.220.54-3.04-0.54-2.78-3-0.84-4.36-0.56zm3.68-10.49c1.38 1.94 2.5 3.32 2.5 5.8 0 2.760.28 5.52 1.66 8 2.2-1.64 3.32-5.78 4.98-8 1.66-2.2 4.14-4.68 2.76-7.71-1.1-2.22-5.54-3.88-7.74-3.88-4.16 0-4.72 4.42-4.44 7.74zm5.18-16.79c0 1.38-1.42 5.84 0 6.94 1.68 2.22 3.66-1.66 4.5-3.06 1.12-1.660.56-1.66-0.56-3.34-0.84-0.82-2.26-3.06-3.1-0.82zm11.97 10.13c-1.92-0.82-2.2 7.71 0 7.71 3.280.26 4.92-9.09-0.54-8.54zm-2.82-16.75c-1.1 1.92-2.74 10.710.28 11.81 3 1.08 5.72-4.14 6.26-6.320.56-1.66 1.36-7.160.28-8.79-1.64-2.76-5.46 1.92-6.82 3.3zm-2.98-9.09c-1.12 1.1-4.72 6.32-1.94 6.86 3.320.82 3.86-4.38 1.66-5.76zm13.13 30.7c-1.36 1.1-2.74 7.38-1.1 8.47 1.380.8 2.46-1.1 2.74-2.460.26-1.64-0.82-4.38-1.92-5.74-0.260.28-0.260.54-0.260.82zm1.7 18.31c-1.96 0-1.96 6.960.28 5.860.84-0.56 2.8-3.62 2.52-4.46-0.28-0.84-1.96-1.96-2.52-1.68zm3.04 8.91c-1.98-0.28-2.84 6.3-1.42 7.12 2.26 1.08 2.26-5.740.86-6.84-0.28 0-0.28 0-0.280.28zm0.84 14.03c0 0.84 2.72 3.84 3.8 1.66 1.08-1.92-2.16-5.5-2.98-3.3zm4.68 8c-0.840.560.28 2.48 1.12 2.48 1.4 0 0-2.2-0.84-2.48-0.280.28-0.280.56-0.28 1.12zm4.68 7.96c0.240.260.240.520.480.52-0.24-0.52-0.48-1.06-0.96-1.6v0.8zm-24.25-94.48c0-0.28-0.28-0.56-0.28-0.56-1.66 1.94-2.5 7.74-0.28 9.680.840.82 1.120.28 2.22 0 0.56-0.28 1.1-1.1 1.66-1.380.82-0.28 2.22 0 2.76-0.56 1.38-1.66 0-3.6-0.28-4.98-0.54-2.2 0-4.42-0.54-6.64-1.12-4.98-6.1 1.94-6.92 3.88zm-0.26-10.03c1.1-0.82 5.78 2.46 7.16 1.64 1.36-1.1-1.1-5.48-0.84-7.40.28-1.66 2.2-5.5-0.54-5.5-1.66-0.28-3.58 2.48-4.4 3.58-0.82 1.64-1.66 3.84-1.1 5.76zm9.91 4.78c-1.880.28-1.08 3.88-1.08 5.260.28 1.940.28 6.08 1.08 7.46 1.32-2.48 2.92-6.36 1.86-9.12-0.26-0.82-2.14-3.6-2.94-1.66zm-0.92 23.46c-0.80.26-0.52 3.24-0.26 4.040.26-1.340.26-3.780.26-4.32zm-6.64-47.01c1.94 1.38 2.76 4.98 5.24 5.82 3.56 1.1 2.46-4.98 1.64-6.64-0.28-1.12-0.54-2.5-1.64-3.06-1.94-0.56-4.96 3.06-5.24 2.78zm3.3-15.03c-0.26-0.28-0.26-0.28-0.54-0.56-0.82 1.38-2.76 6.32-1.92 7.70.82 2.18 2.74-0.84 3.56-1.66 1.66-1.64 1.92-1.640.84-3.56-0.28-1.1-0.84-2.76-2.2-2.76zm7.840.54c0.28-0.28 0-0.28 0-0.54-1.42 1.64-2 4.12-2.56 6.04-0.58 3.3 1.7 4.4 3.12 1.10.86-1.64 1.98-7.97-1.98-7.14zm-6.58-5.52c-0.56 1.68 5.16 2.78 5.980.28 1.62-3.34-4.62-0.28-5.72-0.54zM329.4 197.76c1.68-1.12 6.12-0.56 4.48 2.24-1.4 2.48-4.48-0.28-4.76-1.96zm10.67-1.08c-0.56 1.36-1.12 3.880.84 4.12-0.28 0 4.72-2.2 4.72-2.20.84-0.56 2.2-1.360.56-2.76-2.24-1.68-4.72 2.48-6.12 2.2zm-17.95 1.04c1.4 1.68 4.68 6.4 3.88 8.88-1.12 3.32-4.72 3.08-7.2 1.68-4.16-2.24-1.36-10.83 2.48-9.99zm10.83 5.84c-1.36 0-3-0.28-3.28 1.4-0.28 1.4-0.56 2.76-0.84 3.88-0.280.56-0.84 3.04-0.56 3.32 1.40.8 4.4-3.88 4.96-4.720.56-0.84 1.08-1.080.84-2.2-0.28-0.56-1.12-1.4-1.68-1.4zm-14.15 9.19c0.56-0.28 3.320.56 4.16 1.08 1.640.8 2.16 3.240.24 4.6-2.2 1.32-4.12-3.8-4.4-5.12h0.28zm9.71 3.16c-1.12-1.12-4.2 7.99-1.12 7.750.84 0 2.8-3.04 3.08-3.88 0-1.12-1.12-3.88-1.96-4.44zm-6.08 8.39c-0.280.280.28 1.680.28 2.20.28 1.68 0 4.12 1.4 5.520.840.8 4.96 2.44 6.08 1.08 1.08-1.36-1.12-4.68-2.2-5.2-1.68-0.84-3.04-3.32-5-2.2zm4.44 13.23c-0.28-1.08-1.080.28-1.360.84-0.56 1.32-0.56 5.12 1.6 5.12 1.080.24 2.16-1.36 2.16-2.44-0.24-1.36-1.08-3.24-1.88-4.04zm-2.76 10.11c0.56-0.28 1.4-0.28 2.2-0.28 1.12 0 2.48-0.28 3.040.840.56 1.12 0 2.76 0 4.16 0 0.560.8 2.480.56 3.04-0.28 1.36-4.12-1.4-4.68-1.68-0.84-0.52-1.4-0.8-1.4-1.64 0-1.40.84-2.76 1.12-4.16zm8.28 11.59c-0.56-0.28-1.4-0.56-2.2-0.84-1.12-0.28-2.2-1.96-3.32-1.12-1.92 1.4-0.24 4.720.28 6.40.280.560.56 2.24 1.12 2.520.80.24 2.2-1.4 2.44-1.960.84-0.56 1.4-1.12 1.68-1.960.24-1.36-0.84-2.76-0.56-4.16zm-1.16 11.31c0-0.84-3.28 1.68-3.56 2.76-0.28 1.12-0.56 4.72 1.08 4.72 1.640.24 3-2.76 3.56-3.880.8-1.92 0-1.92-1.64-3.32zm4.16 3.56c-0.560.56-1.4 4.68-1.4 6.080.28 2.72 2.24 1.64 4.44 1.08 1.68-0.56 2.2-0.28 1.68-2.2-0.56-1.92-2.8-3.56-4.44-4.68zm8.83 8.84c-1.64-0.84-6.4 1.08-4.16 3.24 1.12 1.36 3.040.28 4.720.56 1.12 0 1.960.28 3.040.28-0.52-1.64-1.36-3.28-2.76-3.56zm6.880.56c-0.28 0-0.28-0.28-0.56-0.280.560.28 8.55 1.68 6.08 4.2-0.80.84-6.64-2.24-6.64-3.08zm9.67 4.92c-1.40.28-4.48 1.64-3.64 3.280.84 1.92 5.88 1.64 7.55 2.160.24-2.72-1.12-5.16-4.2-5.16zm5.840.08c0 1.12 2.2 3.92 3.04 2.240.8-1.12-2.48-3.68-3.04-2.24zm1.68 6.56c0.560.84 4.68 3.04 5.52 1.120.8-2.24-3.84-2.8-4.96-1.4zm7.2-2.16c1.12 1.68 9.28 5 6.28 8-2.72 2.48-5.16-4.68-5.72-6.04zm6.8 11.31c1.68-2.2 2.8-3.32 5.56-1.92 1.64 1.12 6.6 5.8 5.8 8-1.96 4.12-8.55-4.68-10.51-5.8zm9.2-2.56c0.840.56 2.16 1.08 3.24 1.080.84 0 4.04-1.08 3.8-2.16-0.56-1.68-6.20.24-7.040.8zm4.96 5c-0.28-0.24-0.56-0.24-0.56-0.24 2.2 3.28-1.12 11.23 3.88 12.59 1.920.52 3.88-0.56 5.24-1.92 1.4-1.12 3.88-2.48 4.16-4.120.8-4.4-5.52-6.32-8.55-7.39-1.68-0.84-5.28-0.84-4.72 2.2zm-1.92 11.59c1.920.84-0.56 6.04 2.2 6.6 1.880.52 1.08-5.2-1.36-5.48zm5.2 8.79c-0.28 1.4-4.48 5.24-1.68 6.6 1.92 1.08 1.92-4.92 1.12-6.04zm12.07-20.99c0.56 2.24-0.56 4.2-0.28 6.16 2.240.52 4.2-0.28 4.44-2.24 0-0.84-0.24-3.08-0.8-3.92-1.4-0.84-1.96 0-3.08 1.12zm-10.47-4.04c-0.28 0-0.560.28-0.560.28 1.680.24 5.28 2.44 6.68 1.920.84-0.28 1.64-3.88 1.4-4.68-0.28-0.84-2.24-1.68-3.36-1.68-1.92 0-3.6 2.24-4.72 3.88zm0.92-6.4c1.320.8 3.48-1.92 3.48-3.280.24-3.28-3.2 1.36-3.76 3zm5.92-8.19c0-0.28-0.28-0.28-0.28-0.56 1.68 1.36 3.64 4.68 5.88 4.680.56-1.92 3.32-7.160.56-8.55-2.8-1.12-6.72 1.68-7.56 3.88zm0.4 5.48c-0.280.840.56 4.96 2.2 4.72 2.16-0.28-0.28-3.88-1.64-4.16zm7.080.28c1.12 2.2 4.64-2.8 3.84-4.2-1.64-2.24-3.28 3.36-3.84 4.2zm-1.68-16.23c1.4 1.36 2.24 5.8 3.88 6.08 1.680.52 2.52-2.24 2.52-3.60.24-2.2-0.56-3.88-2.52-4.44-2.2-0.56-2.480.56-3.88 1.96zm0.6-9.39c-0.6-0.28-0.28 1.64-0.28 2.48 1.120.24 3.68-1.96 2.84-3.04-0.56-0.84-2.28-0.84-2.84-1.12zm3.4-8.04c0 1.64 0 6.88 1.4 8 1.64 1.08 1.92-1.4 2.2-3.040.24-1.12-1.12-6.36-3.04-4.12zm-7.2-11.31c-0.56-0.24-0.84-0.24-1.12-0.240.28 1.36 1.12 2.76 1.64 4.120.84 1.40.84 3.6 1.92 4.68 2.2-1.36 3-4.96 6.28-4.96-1.36-2.48-2.72-4.68-3-7.43-0.28-2.480.28-5.52-1.36-7.75-2.2 1.12-5.2 6.92-4.92 9.39zm-8.79-9.63c0.840.84 2.16 4.36 3 4.36 1.32 0 1.32-3.520.8-4.36l-1.64-0.8c-0.52 0-0.8-0.84-1.080.56zm18.11-8.68c-1.960.84-1.68 9.68 0 8.04 1.4-1.12 1.4-7.76-0.84-8.04zm-12.67 5.92c1.960.8 5-2.2 5.84-3.88 1.36-2.20.56-5.24-0.56-7.71-1.4-3.6-3.60.56-4.72 2.76-1.68 3.04-1.68 5.8-0.56 8.84zm11.07-15.67c-1.4 0-2.52 4.44-2.52 5.56 1.120.56 1.68 1.08 2.520.28 1.64-1.68-0.28-5-0.84-6.4zm-9.43-3.84c-0.28-0.28-0.28-0.56-0.28-0.28 2.52 4.44 6.16 3.64 6.44-1.120.28-1.4 0-1.96-1.12-2.52-2.24-1.12-3.92 1.68-4.76 3.36zm-6.68 5.16c1.120.56 1.4 5.56 1.68 6.960.24 2.76-1.68 6.36-4.44 3.88-1.96-1.4-2.52-3.32-1.96-5.560.28-1.12 1.12-4.72 2.24-5.56 1.08-0.56 1.64 0 2.76-0.56zm-12.87-0.24c1.4 1.36 1.92 3.84 3.56 4.92 1.08-2.440.84-8.23-3.28-5.48zm5.6-8.24c-1.12 2.2 7.36 6.6 7.360.84 0-3.04-4.36-2.48-6-1.36zm-13.03-6.92c-1.12-1.08 1.64 3.04 1.92 3.88 1.12 1.64 1.96 4.12 3.6 5.48 2.2-2.72 6.88-6.32 2.76-9.59-1.92-1.68-7.16-2.24-8.55-0.56zm14.31-12.15c-0.28-2.48 11.91-0.24 9.15-5.48-2.48-5-9.15 1.92-10.27 4.12zm-4.88-5.76c-1.36 1.96-2.2 8.79-5.24 6.88-1.12-0.52-1.96-4.4-1.12-5.480.56-0.84 3.32-0.84 4.44-1.12zm-8.39 11.23c0.56 1.12 4.2 3.4 5.32 2 1.4-2-3.36-2.6-4.48-2zm-14.63-7.72c2.8 1.96 4.76 5 7.24 6.640.28-1.64 2.76-6.64 1.96-8-1.68-3.36-6.96 0-8.36 1.64zm-16.15 3.36c0.84 2.12 4.32 2.88 4.32 0-1.08-0.56-2.68 0-3.240.24zm9.35-2.28c0.560.280.80.52 1.60.28 0-0.560.24-1.12 0-1.68-1.32-0.56-1.320.28-1.6 1.4zM152.09 394.88c-6.3-2.2-4.92 7.12-4.64 10.69 0 2.18 0 5.48 2.74 5.48 1.640.26 5.2-1.38 6.84-1.92 4.92-1.92 1.36-8.21-0.54-11.23-0.84-1.38-3.02-3.84-5.22-2.74zm2.26-4.18c0 1.64 5.7 8.78 5.98 3.020.26-4.4-5.18-1.64-6.54-3.56zm9.79 1.34c-1.96 2.48-4.76 6.34-3.36 9.36 1.4 2.48 3.36 4.4 6.42 2.76 4.74-2.76 3.08-12.67-3.06-12.11zm0.04 15.99c0.540.82 4.34-2.24 4.62 2.220.26 1.94-0.54 3.88-0.82 5.84 0 0.820.28 4.16-0.82 5-1.62 1.1-5.16-4.18-5.7-5.84-0.56-2.780.8-4.72 2.16-6.93zm-5.76 2.92c-0.28-0.28-6.32 1.92-7.7 3.02-1.66 1.64-1.66 4.66-0.28 6.29 1.66 1.92 6.6-0.26 7.97-1.92 1.36-1.640.82-5.20.26-7.12zm-10.75 12.83c3.86 2.22 5.24 5.26 3.6 9.12-0.56 1.38-2.5 8.55-4.44 8.55-3.04 0-2.2-7.43-2.2-8.830.28-3.3 1.1-6.9 4.14-8.84zm12.69-3.04c-2.22-0.84-5.02 3.86-5.3 5.8 0 3.04 1.68 5.8 4.48 4.16 1.66-1.12 6.14-3.6 6.4-5.82 0-1.94-2.78-5.26-5.02-4.14zm-4.36 13.83c0-0.28-0.28-0.56-0.56-0.56-1.96 1.94-7.81 14.31-1.12 9.91 1.96-1.38 3.62-3.3 3.36-5.78-0.28-1.92-1.4-1.38-2.24-2.76zm9.04-3.52c-2.2 1.1-7.97 9.59-2.48 9.05 3.84 0 4.66-7.13 2.74-9.61zm30.8-37.82v0.54c-3.320.28-6.38 2.18-8.04 4.64-1.1 1.38-4.44 7.38-0.82 6.56 1.94-0.54 3.6-3 4.98-4.1 1.1-1.08 2.78-1.64 3.6-2.72 3.32-3.020.56-5.48-3.04-3.28zm-10.19 15.19c0.28 2.2-0.28 4.14-0.56 6.36-0.28 1.66-0.84 5.24 1.4 3.32 1.66-1.38 3.6-10.79-0.56-9.68zm-0.22 12.61c-1.380.84-3.34 5.62-0.82 5.06 1.1-0.28 3.32-3.94 3.06-4.78-0.84-1.14-2.52-0.28-3.060.56zm12.17-22.57c-0.54 1.36-2.74 2.18-3.58 3.28-2.2 2.48-2.2 4.94-2.48 7.96 0 1.92-1.94 5.76-0.82 7.42 1.64 2.18 4.14-1.1 5.24-2.48 1.92-2.46 4.4-4.38 6.62-6.86 1.1-1.36 3.02-3.28 2.2-5.22 0-0.82-2.48-3.28-3.04-3.84-1.64-1.1-3.580.56-5.5 1.66zm2.44-5.54c1.64-0.56 3.56-1.94 5.22-1.66 1.36 0 4.1 1.66 3.56 3.04-0.82 1.66-4.38 2.2-5.76 1.66-1.38-0.56-2.2-1.94-3.3-1.1zm15.490.02c-2.48 2.5-4.42 4.98-5.52 8.55-0.280.84-1.94 3.88-1.38 4.70.82 1.1 3.32-1.66 4.14-2.48 1.94-1.66 7.44-3.86 8-6.640.82-4.42-4.96-1.38-6.34-2.76zm3.54-3.28c-0.28 1.4 1.38 1.94 2.78 2.5 2.760.82 4.72-0.28 6.93-2.22 2.2-1.66 3.88-3.88 6.1-5.8 1.38-1.4 4.44-2.22 4.7-4.44-4.42-0.56-8.86 4.44-12.47 6.36-1.66 1.12-3.6 1.4-5.26 2.5-0.840.56-1.4 1.1-2.22 1.66-0.560.56-1.40.56-0.840.56zm6.04 5.78c3.58 0 8.26-5.24 11.27-7.43 1.1-1.12 8.79-5.82 8.26-1.4-0.56 3.32-7.16 5.54-9.63 6.92-2.74 1.38-7.14 3.3-10.45 3.04zm18.73-16.81c-0.28 0-1.94 2.18-1.66 3.280.56 2.44 4.4 2.18 6.32 1.64 1.1-0.56 2.2-1.1 1.38-3-0.82-2.2-3.84-1.92-5.78-1.92zm9.65-2.52s-0.56-0.28-0.28 0c0.84 1.960.84 3.88 0 5.84-0.56 1.08-2.52 3.04-1.68 3.88 1.68 2.2 8.87-3.88 10.55-4.44 1.92-1.12 5.24-2.52 3.6-5-1.96-3.08-8.04-1.96-10.83-1.12zm14.63-2.76c0.28 3 7.710.84 7.71-1.360.52-3.32-6.88-0.56-8.280.28zm0.92 6.28c-0.56 0-0.56 0-0.28-0.240.56-0.28 8.23-5.76 7.71-2.2-0.56 1.92-6.88 3.8-8.28 3.56zm11.83-9.83c-0.84 2.24-5 10.23 1.36 6.92 1.4-0.8 3.32-2.76 1.96-4.4-1.12-1.4-3.32-0.84-4.44-1.96zm8.6-2.28c-0.84-0.28-2.24-0.28-3.080.56-0.840.84-0.280.560.28 1.960.28 1.96-0.28 4.48 2.24 4.2 1.4-0.28 5.56-2.52 6.12-4.20.52-2.52-3.36-3.36-5-3.36zm9.83 1.4c1.120.24 4.72 0 5-1.680.52-1.92-4.16-0.52-5 0z" fill="#a57e5c" fill-rule="evenodd"/><path d="M251.33 240.29c1.4 1.12 2.8 2.76 3.6 4.440.84 1.920.84 4.12 2.76 5.24 3.32 1.92 9.11 1.36 12.99 1.64 4.440.56 8.040.84 12.15 2.76 4.16 1.64 9.39 3.32 12.71 6.88 2.48 2.76 6.36 6.36 8 9.35-2.76 0-6.6-3.56-8.84-4.96-3.04-1.92-6.08-4.12-9.11-5.76-5.52-3.04-12.71-5.8-19.03-6.36-4.16-0.28-8.31-0.28-11.35-3.04-1.92-1.64-1.92-2.48-1.92-4.96-0.28-2.2-0.84-3.28-1.68-5.24zm-72.28 16.95c0.54 4.70.82 10.21 2.2 14.89 1.94 6.36 4.98 9.65 10.75 12.13 3.88 1.66 7.74 2.48 12.15 2.48 3.02 0 6.06-0.82 9.1-0.82 3.32-0.28 6.90.28 10.490.28 4.960.28 11.29-0.56 15.43 2.2-3.58-0.54-6.9-1.66-10.47-1.38-4.420.28-8.55 1.1-12.69 1.66-7.180.54-14.610.28-21.51-0.28-7.74-0.28-14.91-7.71-15.73-15.17-0.84-5.24 1.1-10.19 0-15.43zm-4.96-9.35c-1.08-1.36-6.04-6.88-1.64-6.62-1.38 0-3.84-1.38-4.120.84-0.56 1.66 2.74 3.3 3.58 3.86zm78.35-9.34c0.82-1.46 2.740.88 3.28 1.74-0.54-0.86-0.54-2.6-1.64-3.2-0.54 0-1.92 0-2.20.6zm39.14-20.05c4.16 3.28 8.84 6.04 12.67 9.59 4.4 3.6 5.52 8 6.64 13.470.24 1.92 0 4.4 0 6.32 0-7.68 0-15.67-2.48-23.07-1.12-3.04-2.76-6.88-5.52-8.79-1.4-1.12-2.76-2.2-4.4-2.48-0.84-0.28-3.04-1.4-3.88-1.12-1.360.560.56 2.48 0 3.6-0.28 1.36-3.32 1.36-2.76 2.76zm7.96 44.89c3.08 1.4 5.28 4.96 7.76 7.16 2.52 2.2 4.72 4.12 7.2 6.04 0-2.2-2.2-4.92-3.04-7.39-0.28-1.64-0.56-3.6-0.56-5.52-1.64 1.68-2.76 2.76-5.24 2.48-1.96-0.28-3.32-1.08-5-2.2zm21.07 22.87c0 1.960.84 4.160.84 6.360.28 2.2-0.84 4.12-0.56 6.04 3.56 2.48 7.39 4.68 10.67 7.71 4.36 3.84 3.84 9.63 4.92 14.830.28-3.840.8-9.59-0.56-13.19-1.64-3.84-5.72-5.48-7.92-8.79-1.92-2.48-1.64-5.52-3-8.28-1.12-1.92-3.56-2.72-4.68-4.68z" fill="#cf86b4" fill-rule="evenodd"/><path d="M321.29 287.07c2.76 3.6 8.28 5.84 12.15 7.75 2.76 1.4 5.52 2.2 8.28 3.6 3.32 1.36 6.08 3.32 9.67 4.16 6.04 1.08 11.03 4.12 16.51 6.08 5.28 1.92 10.23 6.08 13.27 10.47 1.36 1.96 3.28 6.64 2.48 9.11-4.72-7.71-10.47-13.23-18.23-17.39-6.88-3.6-13.79-4.72-20.95-6.92-2.76-0.84-5.24-2.2-7.71-3.32-2.2-0.84-4.68-1.36-6.64-2.2-3.84-1.68-6.32-4.72-8.28-8.28zm-118.25-81.59s-27.56-11.31-55.43 4.98c-27.56 16.55-84.65 76.95-97.34 108.39-12.97 31.180.28 38.08-3.32 49.37l5.8-4.14s3.58-4.68 0-12.41c-3.58-7.710.56-37.5 15.45-54.33 14.89-17.11 62.6-99.04 134.84-91.86z" fill="#cf86b4" fill-rule="evenodd"/><path d="M61.92 327.56c3.86 8.55 15.73 2.48 21.53 4.98 7.16 3.02 8.54 13.79 7.72 20.41-5.52 3.32-11.87-0.82-17.93 0-5.8 1.12-10.77 8.55-14.63 1.12-2.48-4.42-3.32-13.25-3.32-18.51 0-3.58 4.42-14.35 7.18-6.06z" fill="#cf86b4" fill-rule="evenodd"/><path d="M67.16 322.92c2.2 3.58 6.33 1.66 9.65 1.94 3.860.54 6.62 1.38 9.91 3.58 3.04 1.92 4.96 3.86 6.62 6.9 1.38 2.74 1.38 8.54 4.42 10.17 3.02-7.16-4.7-18.73-10.47-22.03-3.04-1.66-20.97-5.8-19.590.28zm191.36-80.79c1.68 4.12 6.08 4.12 9.95 4.4 4.4 0 8.550.84 12.95 1.96 6.92 1.92 12.43 8.23 18.51 12.11 1.92 1.08 6.08 3.28 8.27 2.2 1.12-0.84 1.64-3.32 1.4-4.68-0.28-2.76-1.68-5.52-1.96-8.28-0.8-5.520.56-11.03-2.2-15.99-1.36-1.92-6.08-8.28-7.16-2.76-0.56 2.480.8 5.8 1.36 8.560.56 3.32 1.64 6.32 1.4 9.63-0.56 6.88-6.08 1.92-9.39 0-4.96-3.04-9.11-6.6-15.19-6.88-4.4-0.28-8.550.28-12.950.84-1.40.24-4.160.52-4.72-0.84zm48.85 32.62c4.68 3.28 8.55 8.52 10.19 14.270.84 2.2 1.08 4.12-0.84 5.76-1.36 1.4-2.48 1.64-4.4 1.4-4.16-0.84-8.84-3.04-12.95-4.4-1.92-0.84-9.68-1.12-8.55-4.960.84-2.2 6.64-1.64 8.28-1.36 3.040.28 5.24-1.12 5.8-4.120.52-1.960.28-4.120.28-6.08 0-2.20.52-2.2 1.92-0.8zM179.37 247.09c6.36 8.57 2.22 21.55 9.67 29 3.86 3.58 11.59 4.14 16.83 4.7 6.90.54 14.07-0.56 20.97-0.28 3.320.28 6.360.82 9.37 1.92-3.3-3.02-11.85-3.86-16.83-4.68-7.18-0.84-16.27-2.22-22.91-4.98-10.75-4.7-8.81-19.05-16.83-25.13zm138.96 54.85c1.96 3.88 8.04 3.6 10.79 7.47 2.48 3.04 4.4 11.07 4.16 15.23-0.28 3.88-11.35 11.59-11.35 6.36-0.28-1.12 1.68-2.48 2.2-3.320.84-1.68 1.12-3.04 1.4-4.720.84-4.16-0.28-7.75-1.92-11.35-1.96-3.32-9.43-7.47-8.31-11.07 1.4-0.28 2.480.28 3.04 1.4zm-172.06 16.59c9.93-7.16 27.84 14.85 36.4 17.59 8.26 2.76 16.25 3.3 25.07 3.3 9.1 0 18.470.82 27.28 0-9.360.82-19.83-1.64-29.48-1.92-8-0.56-16.25-1.1-23.43-4.96-10.47-6.04-23.71-17.03-35.84-15.65z" fill="#e8b8d3" fill-rule="evenodd"/><path d="M145.39 324.86c8.02-3.34 15.45 6.08 20.71 10.77 6.9 6.1 14.89 8.29 23.73 9.41 9.93 1.38 20.690.54 30.9 1.1 6.620.28 22.35 2.76 28.12-0.82-9.37 1.1-19.59 1.1-29.24 2.48-11.31 1.66-20.97 4.42-32.54 3.32-10.77-1.1-17.95-1.1-25.39-9.39-5.24-5.54-9.93-11.07-16.29-15.21zm186.45 8.49c-1.92 4.76-8.28 7.28-12.95 8.39-7.44 1.68-14.63 2.48-22.35 1.96-6.36-0.28-12.43-1.12-18.75-1.4-3.6 0-7.20.28-10.79 0 2.76 0 5.56-1.12 8.31-1.4 2.76-0.28 5.24-0.56 8-0.84 5.52-0.56 11.03-1.4 16.55-1.68 6.08-0.56 11.870.28 17.91-0.56 3.88-0.84 9.95-1.96 12.99-3.92z" fill="#cf86b4" fill-rule="evenodd"/><path d="M300.18 259.24c2.48 1.64 8 5.2 8.55 0 0.24-2.16-0.84-4.36-1.4-6.56-0.8-2.76-0.28-5.48-1.08-8.23 0 4.40.52 8.23 1.08 12.630.56 4.36-3.56 4.92-6.6 2.44zm8.79 35.62c3.88 1.96 8.55 2.2 8.83-30.52-4.68-3.6-7.43-5.52-11.59 1.12 4.16 4.12 7.71 4.12 11.87-0.28 3.28-2.76 3-5.2 2.72zm17.27 13.23c5.28 1.12 5.28 10.75 5.84 14.910.24 1.920.24 3.84-1.12 5.52-1.12 1.08-3.88 3-5.84 3 2.24-1.08 4.44-4.4 5.28-6.60.56-1.920.84-4.40.56-6.6-0.28-1.96-1.12-3.88-1.68-5.8-0.56-1.92-0.8-2.48-2.2-3.88zM184.85 263.4c-0.28 1.940.84 5.26 1.38 7.460.56 1.94 1.68 4.7 3.06 6.36 3.6 3.86 11.05 3.04 15.75 2.76-4.42-0.82-12.15-0.28-14.93-4.42-1.38-1.92-2.76-4.14-3.88-6.08-0.54-1.1-0.82-3.3-1.1-3.86zm-13.41-19.27c-1.66-2.48 1.1-4.16 3.3-2.48-0.82-0.56-1.64-2.24-3.02-1.96-1.380.28-1.1 2.22-0.28 3.34zm79.01-3.84c0-1.40.54-5.36 2.72-3.66-2.44-1.12-4.64 0-3 3.1zm-105.54 82.95c-3.020.28-2.2-3.94 0-4.78-4.4-1.42-4.96 3.66-0.26 4.22z" fill="#fff" fill-rule="evenodd"/><path d="M335.48 218.51c-0.84-8.04 10.19-11.31 15.99-13.79 3.04-1.12 7.16-3.88 10.19-4.44 3.6-0.84 5.52 2.48 7.43 4.96 5.52 6.92 9.91 13.79 14.59 21.55 4.44 6.88 10.19 11.83 15.15 18.19 1.68 1.64 7.44 7.71 4.96 9.91-3 2.2-10.43-6.08-12.11-7.72-5.24-5.24-9.63-9.91-13.51-16.27-3-4.96-6.04-8.84-9.91-12.95-5.76-5.8-11.83-6.92-19.83-6.08-6.080.84-8 2.48-11.83 6.88zM130.76 146.83c0-13.79 4.16-27.86 11.05-39.18 4.44 1.66 3.04 13.81 4.44 18.21 1.64 5.26 6.34 13.25 6.08 18.77-4.7-3.04-7.48-8.55-9.95-13.23-6.64-0.84-4.7 12.95-11.05 13.79z" fill="#bd72a8" fill-rule="evenodd"/><path d="M335.68 239.09c0.56 6.36 1.96 12.15 1.96 18.79 0 6.36-0.28 11.03 4.12 15.71 4.4 4.44 9.35 4.96 14.87 6.92 6.36 1.92 12.95 3.84 19.03 7.16 1.120.84 2.48 1.68 3.84 2.2-3-0.52-6.04-3.56-8.79-5.24-2.76-1.36-5.52-3.28-8.28-4.4-5.24-1.92-10.19-3.6-15.15-6.08-5.52-2.76-7.16-5.52-8-11.87-0.84-5.8-1.4-11.87-2.76-17.63-0.28-1.68-0.56-3.04-1.4-4.72zM130.08 164.5c-0.28 6.34 0 17.89 7.44 19.81 3.320.82 7.17-0.82 10.19-1.92 3.32-0.82 7.18-1.38 9.91-3.3-6.60.28-12.93 4.12-19.27 3.3-7.71-0.82-5.52-10.73-8.28-15.67zm183.61 44.61s6.92 8.04 8.55 26.5c1.36 18.47 1.92 42.45 8.23 47.13 0 0-4.68-5.24-6.32-28.66-1.36-23.19-2.2-35.3-10.47-44.97zm42.45-18.31s26.18-8 33.06-6.6c6.88 1.36 25.59-7.2 27.22-8.59 0 0-13.19 9.67-26.66 9.67-13.51 0-32.22 4.16-33.62 5.52zM107.78 213.27s-16.35 23.11-12.47 27.78c2.78 3.56 14.67-9.63 14.67-9.63s-11.89 10.17-13.27 8.26c-1.66-1.92 4.98-19.79 11.07-26.4zm30.5-109.29s-13.83 17.43-11.89 60.52c0 0-1.94-48.63 11.89-60.52zm22.63-94.26s-6.6 69-6.06 90.5c0 0-4.42-24.82 6.06-90.5zM367.66 296.74s29.02 9.12 27.9 39.1c0 0 5.52-26.7-27.9-39.1z" fill="#fff" fill-rule="evenodd"/><path d="M107.39 381.13c-0.3 1.320.56 2.1 1.98 2.360.28-0.780.28-1.580.28-2.36-0.84-0.28-0.84 0-1.420.26zm8 3.9c0.560.540.56 1.08 1.42 1.340.28-1.88-0.86-2.16-1.72-0.8zm-3.06 5.46c0.28-2.44-1.72-1.36-1.140.52zm5.9 1.68c0.52 0 0.520.84 1.02 0 0-0.84 0-1.12-0.24-1.68-0.78-0.28-0.520.28-1.040.28zm-3.94 11.21c0.280.280.560.560.840.82 1.96-1.64-0.56-3.84-2.52-2.18zm-5.52-5.18c0.54 0 1.06-0.56 1.84-0.28-0.52-1.72-0.78-0.56-1.3-0.28zm9.290.8c0-0.80.54-1.36-0.54-1.36-0.280.28 0 0.56 0 0.82zm7.02 1.4c0.54 0 0.820.28 1.360.280.8-1.44 0-2.88-1.08-2.88zm-2-13.23c0.280.6 0 0.30.560.88zm-10.51 25.07c-0.82 0 0.260.280.520.28-0.26-1.4-2.14-1.68-2.96-0.28zm10.51-1.88c0-1.98-1.96-3.68-2.8-1.4zm-4.64 8.31c-0.6 0-1.20.24-0.90.96zm0.56 4.8c0.8-0.780.8-1.3-0.56-1.84zm10.39-12.15c0 0.320.30.320.880.32zm0.4-21.95c-0.28-0.28-0.28-0.84-0.88-0.84v1.12zm6.32 3.8c0 0.320.240.640.480.64zm-25.36 29.82c-0.260.56-0.520.84-0.52 1.40.26 0 0.520.28 1.020.28-0.24-1.12-0.24-1.12-1.02-1.68-0.260.28-0.260.56-0.26 1.12zm2.66 27.02c0 1.08 0 1.9 1.4 2.160.84-1.080.84-1.62 0-2.72-1.120.28-0.840.56-0.84 1.36zm-5.5-4.18c-0.54 0-0.82-0.28-0.82-0.54 1.08-1.12 1.9-0.28 2.16 1.36zm14.69 12.49c1.84-0.840.8-4.56-0.8-2.84zm-3.62 4.58c0.3 0 0.30.540.86 0 0.28-1.64-0.28-3.54-1.72-4.1zm0.54-17.81c0.56 0 0.280.520.840.520.56-1.32-0.28-1.06-1.12-1.6zm-4.7-5.82c-0.54 0-0.820.26-0.820.5h1.08c-0.26-0.5-1.08-0.76-1.34-1.28-0.540.26-0.540.52-0.82 1.04zm4.42-5.5c0.26 0 0.52 0 0.78-0.280.26-0.58 0-0.86-0.52-1.16zm-8.63-1.12c-0.480.28-0.72 0-0.960.560.240.56 0 0.280.24 0z" fill="#f3bf9d" fill-rule="evenodd"/><path d="M129.2 411.49c0.28-0.28 0-0.820.54-0.540.540.80.54 1.620.54 2.42-1.080.26-1.08-0.26-1.36-0.54zm3.08 4.34c0.24-0.30.24-1.160.96-0.86v1.14c0 0.56-0.24-0.58-0.24-0.28zm3.48-12.75c0.26-0.52-0.52-0.780.26-1.040.260.520.260.520.26 1.28-0.52 0-0.78-0.24-1.04-0.24zm1.92 9.91c0.28-0.260.84-0.52 1.4-0.78-0.28-1.06-0.84-0.52-1.68-0.52zm-3.88-6.34c0.560.30.28 1.14 1.120.86 0-1.72-0.84-0.86-1.68-0.86zM133.1 396.2c0.260.26 0 0.80.80.80.54-1.080.28-1.34-0.54-2.16-0.80.28-0.80.82-1.08 1.62zm4.3-4.4c1.1-0.84 1.36-1.680.82-2.8-0.54 0-0.540.28-0.820.56zm-19.79 20.93c0.240.54 0 1.060.76 1.06 0-1.320.24-0.52-0.76-1.6 0 0.54-0.26 1.08-0.52 1.34zm-3.64 4.18c0 0.28 0 0.560.280.560.84-1.40.84-0.84-0.28-1.68v1.12zm9.49-2.4c0.28-0.30.82 0 0.56-1.2-0.84-0.32-1.660.3-2.220.9zm-17.49 23.31c0.840.280.840.84 1.680.56-0.28-1.12-0.28-0.84-1.12-1.4-0.560.28-0.280.56-0.56 1.12zm13.83 9.99c0.84 1.66 2.22 2.2 2.48 0-0.82-0.84-1.36-0.28-1.920.28zm-6.14 6.92c-0.260.28 0 0.560.280.560.82-1.42-0.54-2-1.66-1.42zm-5.42-12.13c0.26 0 0.260.540.540.54 2.46-1.66-0.82-4.16-1.38-0.54zm-2.84-9.93s0.3-0.480.9-0.24c0.30.240.30.480.30.72-0.6-0.24-0.9-0.24-1.2-0.48zm0.4 9.61c0.240.280.480.280.960.54 0-1.08 0-1.62-0.24-2.16-0.72 0 0 0.28-0.480.54z" fill="#f3bf9d" fill-rule="evenodd"/><path d="M364.42 277.99c3.88-0.28 8.83 3.32 12.39 4.44 3.6 1.08 6.08 3.04 9.39 4.68 3.56 1.92 6.6 4.12 9.91 1.12 3.04-2.76 5.8-9.12 7.16-13.27 2.2-5.24 1.96-10.19-2.76-13.79-2.2-1.92-5.24-1.92-7.71-3.56-2.48-1.68-3.56-4.16-6.88-4.44-5.52-0.56-9.91 5.24-12.39 9.39-2.48 3.84-4.96 4.12-8.28 6.6-2.76 1.96-4.16 6.92-0.28 8.84zM133.02 149.31c-3.06 5.8-1.66 13.51 0 19.870.56 2.2 1.38 8.81 3.04 10.19 3.34 1.92 7.78-2.76 10.81-3.86 2.78-0.84 8.88-0.56 9.97-4.14 1.1-4.7-4.98-6.08-7.75-7.71-4.44-3.04-8.88-14.35-14.97-13.79z" fill="#dd9ec3" fill-rule="evenodd"/><path d="M104.9 264.4c-11.29 7.43-50.73 40.53-27.56 49.63 11.03 4.42 18.19 3.04 26.46 14.35 3.86 5.24 12.41 22.33 22.07 18.75 6.34-2.2-5.24-21.51-3.04-29.78 2.76-10.47 14.61-17.37 25.08-15.45 7.18 1.1 23.71 16.83 27.3 2.22 1.36-5.26-5.8-11.59-8.28-16.55-3.32-6.64-6.08-15.17-7.18-22.35-1.1-7.71-0.28-11.85 2.48-18.49 2.22-4.96 8-10.19 7.71-15.71-0.82-17.11-15.43-9.93-23.43-4.14-9.37 6.9-19.03 12.13-27.56 19.59-6.08 5.24-10.21 12.95-15.17 17.93zm234.94 43.13c3.32 5.8 3.32 15.99 1.08 22.03-1.64 4.44-8.28 13.79-1.92 17.35 2.76 1.64 5.24-0.56 7.44-1.92 3.04-2.2 5.8-4.4 9.67-5.24 6.08-1.64 15.99-0.28 20.95-4.96 10.75-10.19-27.58-26.14-34.74-28.06-1.64-0.56-3.6-1.68-3.04 1.36zM214.71 272.24c2.76 1.92 6.64 1.64 9.91 2.2 3.880.8 7.43 2.48 11.03 3.56 6.6 2.2 12.63 3.04 19.83 3.84 6.320.56 12.91 1.92 19.27 3.32 3.840.8 7.68 2.72 11.55 2.720.52-3.28-8-4.92-10.19-5.76-8.55-3.84-17.35-3.56-26.42-4.68-7.72-1.08-13.75-4.92-20.91-6.84-2.76-0.56-12.11-4.16-13.23-0.28zm-25.55 56.73c10.75 6.36 21.79 5.28 33.66 5.8 8.280.28 16.55 1.68 24.82 2.24 7.430.52 14.63-0.84 22.07-1.68 6.36-0.8 12.95-1.08 19.31-1.92 6.08-0.84 12.67-0.84 18.75-0.28 1.92 0 5.24 1.12 5.8-1.12 1.08-3.04-4.68-5.8-6.64-6.08-4.96-1.36-10.190.28-15.15 1.12-6.360.84-12.950.56-19.31 1.12-12.67 1.36-25.94 1.92-38.34 1.08-12.67-1.08-27.02-2.76-38.62-8.55-2.2-1.08-6.08-3.32-8.83-2.48-1.920.56-3.32 2.76-1.64 4.44z" fill="#e0a9ca" fill-rule="evenodd"/><path d="M218.23 13.03c-7.440.28-13.79-1.64-20.95 2.76-9.67 6.36-12.43 20.43-7.43 30.66 4.68 9.35 4.96 5.52-1.96 14.07-5.8 7.44-5.52 19.83 5.52 11.03 8.28-6.92 11.59-22.91 22.07-27.34 3.6-1.36 8.55-1.36 10.23 2.76 1.92 5-5.52 10.51-8 13.79-3.32 4.72-6.64 17.39 3.28 10.79 6.36-4.16 10.23-20.15 20.99-12.99 10.75 6.92-4.44 14.63-9.39 18.23-4.12 3.32-17.91 17.91-4.96 19.03 10.190.84 14.91-19.87 24.82-23.19 14.35-4.4 9.11 8.28 6.64 15.19-3.04 8-4.44 21.51 2.2 28.42 9.63 10.19 11.59-9.12 10.47-16.03-0.56-4.68-7.71-27.86 2.76-27.58 5.520.28 9.39 17.11 16.27 7.71 1.92-2.480.28-9.63 1.92-13.23 2.24-4.4 5.24-7.16 10.51-6.36 15.99 2.24 11.55 21.27 11.03 31.74-0.56 11.31 2.76 40.82 21.51 32.54 19.59-8.55-1.68-40.26 4.12-54.05 2.76-6.08 8.84-9.39 14.91-6.64 9.11 3.88 10.19 18.75 14.35 26.22 3.28 5.8 11.31 15.71 19.59 13.51 9.91-2.76 4.12-17.39 1.92-23.75-3.32-9.63-8.28-17.07-14.07-25.1-4.68-6.32-7.16-11.030.84-15.71 14.59-8.28 19.03 8.55 29.78 12.43 6.6-8.28-0.28-24.86-7.43-30.1-13.27-9.91-31.18-3.04-44.13 3.32-19.07 9.11-35.34 20.71-57.13 21.27-8.840.24-17.91-0.84-24.55-7.48-5.52-5.8-5.8-12.95-9.35-19.31-4.72-8-9.12-4.68-17.39 0-8 4.44-11.31 9.39-17.95 1.68-3.28-3.88-4.68-11.07-11.03-6.36z" fill="#d2abcd" fill-rule="evenodd"/><path d="M129.96 8.44s-27.34 83.49-26.5 106.89c1.1 23.43 11.05 60.320.56 77.95 0 0 9.37-15.15 4.14-56.75-5.26-41.59 0-45.73 21.81-128.1z" fill="#fff" fill-rule="evenodd"/><path clip-path="url(#a)" d="M20.53 313.53s-15.69 32.28-6.06 47.45c9.36 14.89 24.77 18.19 28.34 9.38 0 0-9.35 7.17-19.25-1.66-9.91-8.81-15.41-22.89-3.04-55.17z" fill="#fff" fill-rule="evenodd"/><path d="M25.78 336.4c-2.2 3.88-2.48 9.93-2.48 14.350.28 2.76 0 8.84 3.32 10.77 6.04 3.02-0.28-8.84-0.28-9.93-0.56-4.14 1.92-9.65 0-13.25zm27.76-44.83c-1.620.8-3.54 3.78-2.18 5.66 1.1-1.08 4.08-5.12 3.54-6.48zm39.56-45.83c-0.26-1.1-1.1-2.74-1.92-3.84-1.1 1.1-3.04 5.2-3.04 6.56 1.38-0.26 2.48-1.64 3.6-2.72z" fill="#fff" fill-rule="evenodd"/><path d="M212.19 198.6c2.22-0.28 3.88 1.38 3.88 4.14 0 3.04-2.76 3.58-4.72 1.10.84-0.82 2.24-0.26 3.34-0.540.28-1.66-1.38-2.76-1.94-4.14zm10.15 2.68c-0.52 0-1.320.28-2.120.28 0 1.960.54 3.920.8 5.88h0.8c1.04-2.24-1.6-4.480.52-5.6zm7.51 1.22c3.16-1.38 1.58 4.12 2.12 5.76-0.280.28-0.80.54-1.340.54-0.78-1.640.28-4.66-1.06-5.48zm8.52 1.32c-3.36-3.02-2.52 2.2-2.52 3.840.840.26 1.96 0 2.52-0.56-1.12-0.54-2.24-2.46-0.84-3.28zm8.57-0.22c3.580.56 3.58 8.15-1.38 6.79 1.12-2.44 3.6-2.72 1.38-5.7zm6.3-0.8c-0.560.820.54 6.48 2.2 4.6 1.08-1.62-2.2-2.7-2.2-4.06zm10.47-0.32c1.960.56 2.24 1.68 2.52 3.60.28 1.920.28 3.84-2.24 2.76 0-1.12 1.12-1.640.84-2.76 0-1.12-0.84-2.48-1.12-3.6zm5.28-0.88c-1.120.280.24 3.880.8 4.68 1.08 1.12 2.440.56 3.52 1.64-2.44-1.36-2.96-3.84-4.32-6.04zm14.310.08c2.24-0.56 3.36 6.04 2.24 6.6-1.40.52-0.84-1.92-0.84-2.480.28-1.36-0.28-2.76-0.84-3.84zm5.6-0.08c0 1.4-0.56 3.36 0 4.440.52 1.12 1.84 1.96 2.64 2.76-1.04-1.36-2.12-4.12-2.4-5.8z" fill="#f9e2d2" fill-rule="evenodd"/><path d="M127.24 216.79s17.37-20.65 38.62-23.13c21.51-2.22 44.37 4.68 44.37 4.68s-25.36-6.34-45.21-2.48c-19.57 3.58-37.78 20.93-37.78 20.93zm186.41 37.1s-2.52 24.07 14.31 34.86c17.11 10.79 28.66 12.15 28.66 12.15s-28.66-9.95-33.34-18.51c-4.4-8.55-9.39-11.87-9.63-28.5zm-5-45.09s8.91 4.16 11.67 33.1c0 0-4.44-25.62-11.67-33.1zm25.98 168.22s-99.62 7.2-145.43 63.32c0 0 36.46-55.33 145.43-63.32zM99.1 365.18c-0.84-1.66-1.12-3.32 0-4.98 3.62-1.38 6.42 3.6 7.51 6.34-2.78-2.48-8.07-8-7.79-0.82zm33.9 17.79c1.92 0 3.58 0 5.50.84 1.380.56 2.48 2.24 4.14 2.24 1.36 0 3.84-1.96 4.94-2.52 1.94-0.84 3.3-1.4 5.5-0.56-3.02-1.96-7.42-0.56-9.61 1.4-2.480.56-3.3-1.4-5.5-1.68-1.94-0.56-3.580.56-5.520.84zm53.57 8.36c-2.2 3.02-4.98 5.5-6.64 9.33-1.38 3.84-1.66 8.23-2.76 12.33-1.4-4.38 0-10.41 1.94-14.25 1.38-2.74 4.14-7.13 7.46-7.13zm-89.97 43.49c-3.34 9.65 0 20.41 8.02 26.46-5.26-6.06-10.23-16.53-7.48-24.8z" fill="#fff" fill-rule="evenodd"/><path d="M403.75 197.52c-2.2-0.56-5.76 0-6.6 2.48-1.68 4.12 2.76 4.68 5.24 5.76 9.07 3.84 4.96-5.20.56-8.23zm9.68 101.18c-0.280.84-0.56 1.96-0.84 2.52 2.76 1.36 3.84-0.84 3.6-3.36zm-8.28 20.35c-0.56 1.4-1.4 2.8-1.68 4.2 2.520.84 4.48-1.12 2.8-3.64zm8 0c-0.280.84-0.56 1.96-0.28 3.04 1.88-0.24 1.64-2.2 1.08-2.48z" fill="#a57e5c" fill-rule="evenodd"/></svg>
