<svg xmlns="http://www.w3.org/2000/svg" viewBox="0 0 267.817 325.909"><title>Unión esofagogástrica</title><desc>Esófago distal atravesando el diafragma y desembocando en el estómago.</desc><defs><clipPath id="a" clipPathUnits="userSpaceOnUse"><path d="M-.24-.16h267.52v326.12H-.24z"/></clipPath></defs><path fill="#f8d8cf" fill-rule="evenodd" d="M.76 210.43h265.28v-1.28H.76zm0 5.88h265.28zm0-3.36h265.28v-.4H.76zm0-5.88h265.28v-1.68H.76zm238.85-80.43-26.86-7.55-16.19-2.96-14.19-1.28-13.43 4.64-16.59 6.32-14.59 11.39-2.36.4v1.28c.8 2.08 0 4.2-.8 4.64l-3.96.4-.4-5.48-7.08.84-16.19.84-8.68-5.48-13.43-3.36-22.51-.84-36.7 1.28L.76 133.8v64h265.28v-60.6l-26.42-10.55zm-131.08 21.07c-1.96-.84-2.76-3.8-2.36-7.16l3.16 1.68zM.76 203.72h265.28v-1.28H.76zm0-2.96h265.28v-2.12H.76z"/><path fill="none" stroke="#000" stroke-linecap="round" stroke-linejoin="round" stroke-width=".8" d="M135.4 138.84c.72 2.12 0 4.22-.72 4.64m-28.48-2.96c-.38 3.4.38 6.36 2.26 7.2"/><path fill="#d794a2" fill-rule="evenodd" d="M133.08 185.93c.36-3.8.36-7.16 0-9.67-.4-1.68-.8-3.8-1.6-5.04-.4-1.28-1.56-2.12-2.36-3.4-.8-1.24-1.2-2.52-2.4-4.2-.76-.84-2.76-1.68-3.52-2.52l-4.76-5.48c-1.96-2.08-3.96-5.04-5.12-8-.8-1.68-1.2-3.36-1.6-5.04-.8-2.12-1.96-3.8-2.36-5.92-.8-1.68-.4-4.6-.8-6.28-.4-2.12-1.56-3.4-1.56-5.08-.8-4.64-1.2-9.23-1.6-13.87 0-.84-.4-6.75-.4-9.27-1.2-22.31-.4-79.95.8-101.42h16.19c-.8 23.15-.4 91.34 1.2 107.73 0 4.2 1.16 14.31 4.72 16.83.8.44 2 .44 2.76 0 2.4-1.24 2.4-4.64 2-10.91-.4-3.8-.8-7.6-.4-10.95.4-4.64 1.96-9.27 4.32-12.63 3.16-3.8 7.52-5.48 12.27-4.2 5.92 2.08 10.63 8.84 11.83 17.23 1.2 10.11-6.72 14.31-15.39 18.95-4.36 2.12-9.07 4.64-11.87 8-3.16 3.36-4.32 8-3.16 12.19 2 5.92 7.92 11.39 14.23 13.07 7.92 1.68 10.67-1.68 15.39-8.43l5.96-8c5.52-6.32 13.39-10.51 21.31-10.95 5.12-.4 11.83.44 18.15 5.48.8.84 1.6 2.12 2.4 2.96 1.16.84 2.36 1.28 3.56 2.52.76 1.28 1.16 2.96 1.96 4.2.8 1.28 2.36 1.72 3.16 3.4.8 1.24 1.2 3.36 1.96 5.04.8 1.28 1.6 1.68 2.4 3.36.8 2.12 1.56 5.04 2.36 7.59.4 1.68 1.2 2.92 1.96 5.04.4 1.68.4 3.36.8 5.04.4 1.28.8 2.52.8 3.8.4 1.68 0 4.2.4 5.88 0 1.28.8 2.12.8 3.4 0 1.68-.4 3.76-.4 5.88 0 1.28.76 2.12.76 3.8 0 4.2 0 8.39-.36 12.59z"/><path fill="#c24f71" fill-rule="evenodd" d="M131.48 124.84c2.36-.84 3.56-2.08 3.56-5.04v-6.72c.4-4.64 1.96-8 1.96-12.59.4-4.64 2-6.76 5.92-8.44 1.6-.84 3.56-1.24 4.36.44.8 2.08-1.16 3.76-1.16 5.44 3.56.88.36-5.04 3.56-5.04 2.76-.4 2.76 2.96 2.76 4.64.4 3.36.8 5.88-2.76 6.72-20.44-7.92-2.52-8.31.84 3.96 1.28 10.27-.84 8.68 6.32 2 0 3.6-2.12 5.56-1.28 3.16.84 1.6 4.24.4 5.92 3.16.4 5.92-5.08 7.12-8 1.56-5.88-.4-10.95-3.16-15.55-2-3.36-2.76-4.2-6.32-5.48-2.8-.84-5.16-2.12-7.92-2.52-3.96-.44-9.52 2.52-11.47 6.32-1.6"/><path fill="#a42554" fill-rule="evenodd" d="M132.64 109.77c.4-2.52.8-5.44 1.6-7.96.4-1.28 1.2-1.68 1.56-2.52.8-1.28.8-2.96 1.2-4.2 1.2-3.8 8.71-9.23 11.07-3.8 1.2-2.52 5.96 1.28 7.12 2.96 2 2.08 1.6 4.6 1.2 7.12 0 1.68.4 3.8 0 5.48-.8.4-1.2.84-2 .84 2 .84 4.36 2.52 3.96 5 7.12-4.6 4.36-12.15.4-18.03-2.76-3.36-5.12-7.55-9.47-8.39-3.96-1.24-8.31-2.52-11.87.84-1.96 2.12-9.12 10.07-6.72 13.87z"/><path fill="#c24f71" fill-rule="evenodd" d="m204.96 152.31-1.2.4c1.6.88 3.56.88 4.36-.84-1.2.44-2.36.44-3.16.44m22.51 30.7c-.4-2.96-1.2-6.32-1.6-9.27-.76-5.88-2.76-11.75-5.12-17.23-.4-1.68-1.2-3.36-1.96-5.04-2.4-4.64-5.16-8.83-8.31-12.59-1.16-.88-1.96-1.28-3.16-1.72.4 3.4.8 5.92.4 8.84 0 .84-.4 1.28-.4 1.68 0 1.28 1.2 2.12 1.2 3.36 0 0-.4.44-.4.84.8-.4 1.6-.84 2.36-1.24 2.4 1.24 2.76 2.08 2.76 5.04 0 1.68-.36.84 0 2.52 0 .84 1.2 1.68 1.2 2.52 1.56 2.96 1.56 5.04.8 8.43-.4.84-3.16 7.56-.8 7.56 2.76.4 2.36-8 2.36-9.67 0-4.2 2-4.64 4.36-1.28 2.76 4.64 3.56 11.35 5.52 16.39.8 2.96 1.2 5.92 1.2 8.84 0 1.68-.4 3.8.36 5.04 0-4.6-.36-8.79-.76-12.99z"/><path fill="#c24f71" fill-rule="evenodd" d="M144.51 156.03h-.4c2.4.84 3.96 2.96 6.36 2.96 2.36-.44 4.32-2.12 6.72-2.12 2.36 0 2.76.44 3.16 2.96 0 .84-.8 2.08-.4 2.52 1.16.8 1.96-1.28 1.96-2.12.8-2.08-.4-4.2 0-6.28.8-2.52 3.16-4.2 5.56-5.04 2.36-.4 4.32 0 4.72 3.36 0 .4-.4 2.52 0 2.92.8.84 2.4 0 2.4-1.24.36-1.28-1.2-1.68-1.6-2.96-.4-.8 0-2.08-.4-2.92-.4-2.08-2.36-3.76-1.56-5.88.76-2.92 7.08-7.12 7.48-2.08.4.4-.76 5.88 1.6 3.36 1.56-1.68-1.6-4.2-1.2-6.28 0-2.52 5.56-5.88 8.32-5.48 3.96.44 1.96 5.04 2.76 7.16 1.96 0 .8-4.2 3.16-5.48 1.6-.84 4.36-.84 5.92 0 .8.44 2.4 2.12 2.76 2.96 1.2 1.68 0 2.92.4 4.6.8 2.08 2.8 2.08 3.96 4.2.8 1.24 1.2 4.2 3.96 2.92 1.2-.4 1.6-3.76 1.96-6.72-.36-.84-.36-1.24-.76-1.68-1.2-1.24-2.4-1.64-3.56-2.48-.8-.84-1.6-2.12-2.4-2.96-6.32-5.04-13.03-5.88-18.15-5.44-7.92.4-15.83 4.6-21.35 10.87l-5.92 8c-4.76 6.68-7.51 10.03-15.43 8.36z"/><path fill="#a42554" fill-rule="evenodd" d="M206.44 140.12c.8.84 2.36.4 3.16 1.24 1.2.84 3.56 3.36 3.96 5.04.36-1.28-1.6-3.36-1.6-5.04-.4-.84-.4-1.24-.8-1.68-1.16-1.24-2.36-1.68-3.52-2.52-.8-.84-1.6-2.08-2.36-2.92-6.32-5.04-13.03-5.88-18.15-5.44-7.88.4-15.75 4.6-21.27 10.87l-5.92 7.96c-2.36 3.36-4.32 5.88-6.32 7.12v.4c5.92 0 8.28-10.43 13.79-9.59.8 0 1.2 1.68 1.6 1.24 1.16-.84-.4-1.68-.4-2.52 0-1.68.8-3.76 1.56-5 1.6-2.12 3.56-2.96 5.52-3.8.4-.4 2-.4 2.4-.84.76-.8.76-2.08 1.56-2.92 1.56-1.24 6.32-2.08 8.27-2.08 1.96-.44 3.16-.84 3.56 1.68 2.76-.44 6.68 0 9.03 1.24 2.36 1.28 2.76 2.52 3.96 4.6.4.84 1.16 2.12 1.96 2.96z"/><path fill="#d794a2" fill-rule="evenodd" d="M172.22 219.19c19.35 5.44 40.26 3.76 50.09-3.4 3.16-2.52 5.16-5.44 5.56-8.39v-.44c.36-6.71.36-13.03 0-18.91l-94.7-11.39c.4 2.56.4 5.48 0 9.27 0 .44-.4.44-.4.44-1.6 11.75 16.55 26.9 39.46 32.82z"/><path fill="#c24f71" fill-rule="evenodd" d="M129.48 153.91c2.4 2.52 5.16 3.36 6.71 6.76-.36-1.28-.36-2.12-.36-3.4l-6.36-3.36zm98.38 43.01c-.4 2.96-1.2 5.48-2.8 8a106 106 0 0 1-1.16 3.8c0-.84-.4-2.08 0-2.92 0-2.12 3.96-8.87-.4-10.15-1.2 0-1.96 2.56-3.56 1.72-1.2-.44-1.2-2.12-1.2-2.96-.4-2.96 0-6.36.4-8.87 0-1.68 1.6-2.52 2-3.8 0-2.08-2.4-2.96-3.56-1.68-1.2 1.28.4 5.48.4 7.16 0 2.56-.4 5.08.36 7.59 1.6 6.32-.36 10.11-1.56 16.03v1.28c-.4 0-.8-.44-1.2-.44-3.56-.4-4.72 1.28-6.72 2.96 0-2.52 0-5.08.8-7.59.8-2.96 1.6-5.04 2-7.6.36-2.96.76-5.88 0-8.84-.8-2.12-2.4-3.8-2.4-5.92-.4-1.28 0-2.96 0-4.2 0-6.76-1.96-11.39-6.72-15.19-4.32-3.8-11.03-2.52-13.43-8.88-.76-2.92-.4-4.2-3.16-5.48-2.36-1.24-5.52-2.12-7.12 0-1.96 2.56-1.16 9.27-.36 11.83 1.56 4.2 5.12 4.64 7.47 8l-5.12-7.16c-2-2.12.8-2.96-.8-5.48-1.96-2.56 0-5.52 2.76-5.92 2.76-.84 2.76.4 3.16 2.96.8 2.96 2 2.08 3.16 5.04 1.2 2.96 5.16 2.96 7.92 4.64 2.36 2.12 3.96 2.56 7.12 3.8 1.56 1.28 1.16 2.56 1.56 4.24.4 2.96 2.76 5.04 2.4 7.6 0 3.36-1.2 6.32-1.2 10.11v10.11c.4 4.64-.4 9.71 0 14.75l-.4.44c0 .4 0 .4-.4.4-1.56.84-3.16.84-5.12 1.28-1.2 0-20.84-3.16 1.28 0-2.56-.8-4.68 0-6.76.76-1.68 1.96-2.96 2.76-4.24.8-1.68.8-3.36.4-5.04 0-1.72-.8-3.8-.8-5.92 0-2.12 1.2-3.36 2.36-5.08 3.56-4.64 1.6-8.44-.4-13.07-.76-1.68-1.16-4.64-2.36-5.88-.8-.84-3.16-1.68-4.36-.84 0 .4.4.84.4.84 1.2-.44.8-.84 2.4 1.24 1.96 2.12 1.96 2.56 2.36 5.52 0 2.92 1.2 3.36.4 7.16-.8 3.36-1.6 4.64-2.4 6.76-1.16 2.52-1.56 3.36-.76 6.72 1.16 2.96 1.96 4.24-1.2 7.59-2.76 3.4-2.36 4.24-4.36 7.59-1.96 2.96-3.16 4.24-7.88 3.8-4.76 0-1.6-2.96.8-4.64 2.36-1.68 3.92-3.8 5.12-5.08 1.2-1.24 1.6 0 2.36-4.64.4-4.2 1.2-6.72-.76-8.84-1.6"/><path fill="#e7c2c8" fill-rule="evenodd" d="M224.62 219.23c-11.03 8-32.74 9.67-53.25 4.2-20.55-5.48-40.3-18.91-42.25-33.26-2.36 12.63-6.72 27.38-9.47 37.9-3.96 14.75-11.03 29.06-26.82 29.06-12.23.4-11.07-4.2-18.95-5.92-7.92-2.08-9.07.84-13.43-.4-3.56-1.28-17.35-12.63-35.94-9.67-11.43.84-12.63 34.1 3.96 33.26.4 0 .4-.44.4-.44 9.47-1.28 15.39 2.12 18.95 7.16 3.56 4.64 6.32 13.47 11.83 18.51 11.07 10.95 19.35 9.28 29.62 10.55 9.87.84 9.87 10.91 39.46 14.31 29.22 3.76 86.47-36.62 99.06-93.9 1.6-7.16 2.4-13.87 3.16-20.19-.76 3.36-3.16 6.32-6.32 8.84z" clip-path="url(#a)"/><path fill="none" stroke="#58585a" stroke-linecap="round" stroke-linejoin="round" stroke-width=".8" d="M224.62 219.23c-11.03 8-32.74 9.67-53.25 4.2-20.55-5.48-40.3-18.91-42.25-33.26-2.36 12.63-6.72 27.38-9.47 37.9-3.96 14.75-11.03 29.06-26.82 29.06-12.23.4-11.07-4.2-18.95-5.92-7.92-2.08-9.07.84-13.43-.4-3.56-1.28-17.35-12.63-35.94-9.67-11.43.84-12.63 34.1 3.96 33.26.4 0 .4-.44.4-.44 9.47-1.28 15.39 2.12 18.95 7.16 3.56 4.64 6.32 13.47 11.83 18.51 11.07 10.95 19.35 9.28 29.62 10.55 9.87.84 9.87 10.91 39.46 14.31 29.22 3.76 86.47-36.62 99.06-93.9 1.6-7.16 2.4-13.87 3.16-20.19-.76 3.36-3.16 6.32-6.32 8.84" clip-path="url(#a)"/><path fill="#e1b1b9" fill-rule="evenodd" d="M223.54 223.38c-3.96 8.44-10.67 22.75-14.63 29.46-31.58 52.61-73.47 54.29-87.31 46.69-13.43-7.16-19.35-11.75-29.62-11.75-10.67 0-30.06 2.52-36.38-8.44-6.72-11.79-16.59-15.55-27.66-10.11-1.56.44-2.36 1.28-3.16 1.72 1.2-.44 2.76-.84 3.96-1.28 9.47-1.28 17.39 3.8 20.95 8.44 3.56 5.04 5.52 13.03 11.07 18.07 11.43 10.95 18.95 9.27 28.82 10.51 9.87 1.28 10.67 10.11 37.14 13.91 29.66 4.6 85.75-38.3 98.42-95.54 0-.84.4-1.24.4-2.08"/><path fill="#d794a2" fill-rule="evenodd" d="M89.67 306.73c9.87 1.24 10.67 10.07 37.14 13.87 29.62 4.6 85.67-38.3 98.3-95.5-5.92 15.59-34.34 87.91-96.74 90.03-13.79 0-28.02-10.11-38.7-8.39zM57.69 292.1c2.38 5.84 11.41 14.15 23.99 13.75-3.92-.84-15.33-3.76-23.99-13.75"/><path fill="none" stroke="#58585a" stroke-linecap="round" stroke-linejoin="round" stroke-width=".8" d="M24.57 241.09c-11.49.84-12.69 33.98 4.34 33.14"/><path fill="#f0d9dc" fill-rule="evenodd" d="M60.88 254.53c8.71-3.8 12.23 0 19.35 2.52s13.43 5.48 24.07 0c11.03-5.48 16.59-19.35 20.91-37.86 3.96-18.11 3.56-18.55 9.07-13.07 5.16 5.48 13.83 15.59 35.5 20.63-14.59-.84-32.34-10.95-36.66-2.52-4.36 8.84-4.36 35.78-28.82 40.42-24.07 4.6-25.27-5.08-31.18-5.48-6.28-.44-9.07-6.76-12.23-4.64z"/><path fill="#fff" fill-rule="evenodd" d="M105.82 256.6c8.28-4.62 11.83-11.77 15.37-21.87 3.16-10.53 6.3-22.75 6.3-22.75-1.56 19.37-5.12 39.99-21.67 44.61z"/><path fill="#e1b1b9" fill-rule="evenodd" d="M176.09 228.1c5.96 1.68 25.66 4.2 39.46-1.28 5.56-2.08 9.07-4.2 9.07-4.2l-2.76 7.16-8.68 14.67s5.52-10.07-4.32-11.31c-4.36-.84-29.98-1.68-32.78-5.04z"/><path fill="#f0d9dc" fill-rule="evenodd" d="M134.68 139.72c.32 0 0 0 0-.56z"/><path fill="#c24f71" fill-rule="evenodd" d="M111.65 134.6c2 7.14 3.18 12.17 8.34 17.21 2 1.68 3.18 4.2 5.16 5.88 2.38 2.1 5.96 2.52 7.54 5.46-1.58-3.78-5.94-3.78-8.31-5.88-2.78-2.52-3.58-5.88-4.38-9.23-.78-3.36-1.18-6.3-3.16-8.81-1.6-2.1-4.78-2.94-4.38-5.9zm72.76 12.27c4.36-1.72 4.76 2.96 5.96 5.92.4.84 1.16.84 1.16 1.68.4.84 0 1.68.4 2.52.8 1.72 2 2.12 3.96 2.12 2.36 0 3.16 0 5.52 1.72 1.6 1.24 3.96 5.04 5.96 2.52 3.92-5.92-7.51-5.92-9.87-7.2-.8-.4-2.8-.84-3.16-2.12-.8-1.24.36-5.48 1.96-6.32 1.2-.44 7.92 2.12 8.68.4 2-4.24-7.88-3.36-9.47-3.36-4.36 0-1.56 2.96-3.96 5.48-1.16-1.28-2.76-5.92-4.32-4.64zm.44 13.39c-2.36-1.28.76 5.48 1.16 6.32.8 2.52 3.56 8.39-.76 8.39-3.56 0-6.72-5.04-7.52-8-.76-1.68-1.16-4.2-2.76-5.04-1.16-.84-2.76-.84-3.56.44 1.2 1.68.8 2.92 1.6 4.6.8.84 1.56.84 2.36 1.68s1.6 1.68 2.36 2.52c1.2 1.28 2.36 2.96 2.36 5.08.4 2.08-1.16 2.92-2.36 4.2-3.52 2.92-5.12 5.88-5.52 10.51-.4 4.2-3.56 8.39-2.36 12.15 1.56-.4 1.56-2.08 1.56-3.36.4-2.52.8-4.2 1.2-6.28.8-2.96 1.6-5.48 3.56-80.8-.84 1.56-2.12 2.76-2.52.8-.44 1.16 0 1.96-.44 2.36-.84 3.56-3.36 3.16-5.44-.4-.84-1.56-1.68-1.2-2.56 0-.84 1.6-.4 2-.4 1.16.84 1.16 1.68 2.36 1.28.8 0 1.96-.88 2.36-1.28 1.56-2.12 0-4.2-1.56-6.32-.8-1.24 0-2.52-.4-3.76-.8m9.97 69.78c0 2.96 4.32 8.04 0 10.15-1.56.4-3.16-.84-3.56.84 0 .84.8 1.68.8 2.52.8 1.28.8 2.12.4 3.8-.4.84-1.2 4.2.8 2.52 1.56-1.24-.4-4.64 0-6.32.36-2.96 6.63-4.2 3.12-8zm22.83-4.08c-2.4 2.08-.4 3.8 1.2 4.64 2.4 1.24 3.96 2.08 4.76 4.6.4.84-.4 1.28.4 2.12.8.4 2-.84 2.4-1.68 1.96-2.52-.8-4.2-.4-6.76 0-2.08 2.36-6.28-.4-7.55-2.8-1.28-1.2 3.8-1.2 4.64 0 1.68 0 3.8-1.2 4.2-1.2.44-2.76-2.12-3.56-.84zm-67.5-68.68c3.96 5.06-1.58 8.86-1.98 13.91-.4 2.96 0 5.06.8 8.02.4 1.68.8 7.58 3.56 7.16 3.56-.84 0-4.2-.78-5.48-1.6-2.1-1.98-5.48-1.2-80.4-1.7 3.18-3.8 3.18-5.48.38"/><path fill="#f0d9dc" fill-rule="evenodd" d="M101.82.76c-1.2 23.98-2 91.74-.4 107.73.78 18.09 4.74 39.56 14.25 50.07l4.76 5.48c8.31 8.83 10.29 10.93 8.71 21.45 0 .84.38 2.1 1.58 2.1 1.18.42 1.98-.42 2.38-1.68.38-3.78.38-7.16 0-9.67-.4-1.68-.8-3.78-1.6-5.06-.38-1.26-1.58-2.1-2.36-3.36-.8-1.26-1.2-2.52-2.38-4.22-.8-.84-2.78-1.68-3.58-2.52l-4.74-5.48c-1.98-2.1-3.96-5.04-5.16-7.97-.8-1.7-1.18-3.38-1.58-5.06-.8-2.1-1.98-3.8-2.38-5.9-.8-1.68-.4-4.62-.8-6.32-.38-2.1-1.58-3.36-1.58-5.04-.8-4.64-1.18-9.25-1.58-13.89 0-.84.4-7.16 0-9.67 0-2.52-.8-4.64-.8-8 0-2.94.4-6.32.4-10.09 0-2.96-.4-5.9-.4-8.83 0-26.11.4-58.92 1.2-74.08z"/><path fill="none" stroke="#000" stroke-linecap="round" stroke-linejoin="round" stroke-width=".8" d="M101.82.76c-1.2 23.98-2 91.74-.4 107.73.78 18.09 4.74 39.56 14.25 50.07l4.76 5.48c8.31 8.83 10.29 10.93 8.71 21.45 0 .84.38 2.1 1.58 2.1 1.18.42 1.98-.42 2.38-1.68.38-3.78.38-7.16 0-9.67-.4-1.68-.8-3.78-1.6-5.06-.38-1.26-1.58-2.1-2.36-3.36-.8-1.26-1.2-2.52-2.38-4.22-.8-.84-2.78-1.68-3.58-2.52l-4.74-5.48c-1.98-2.1-3.96-5.04-5.16-7.97-.8-1.7-1.18-3.38-1.58-5.06-.8-2.1-1.98-3.8-2.38-5.9-.8-1.68-.4-4.62-.8-6.32-.38-2.1-1.58-3.36-1.58-5.04-.8-4.64-1.18-9.25-1.58-13.89 0-.84.4-7.16 0-9.67 0-2.52-.8-4.64-.8-8 0-2.94.4-6.32.4-10.09 0-2.96-.4-5.9-.4-8.83 0-26.11.4-58.92 1.2-74.08"/><path fill="none" stroke="#000" stroke-linecap="round" stroke-linejoin="round" stroke-width=".8" d="M101.82.76c-1.2 23.98-2 91.74-.4 107.73.78 18.09 4.74 39.56 14.25 50.07l4.76 5.48c8.31 8.83 10.29 10.93 8.71 21.45 0 .84.38 2.1 1.58 2.1 1.18.42 1.98-.42 2.38-1.68.38-3.78.38-7.16 0-9.67-.4-1.68-.8-3.78-1.6-5.06-.38-1.26-1.58-2.1-2.36-3.36-.8-1.26-1.2-2.52-2.38-4.22-.8-.84-2.78-1.68-3.58-2.52l-4.74-5.48c-1.98-2.1-3.96-5.04-5.16-7.97-.8-1.7-1.18-3.38-1.58-5.06-.8-2.1-1.98-3.8-2.38-5.9-.8-1.68-.4-4.62-.8-6.32-.38-2.1-1.58-3.36-1.58-5.04-.8-4.64-1.18-9.25-1.58-13.89 0-.84.4-7.16 0-9.67 0-2.52-.8-4.64-.8-8 0-2.94.4-6.32.4-10.09 0-2.96-.4-5.9-.4-8.83 0-26.11.4-58.92 1.2-74.08"/><path fill="#f0d9dc" fill-rule="evenodd" d="M122.05.76c-.4 16.87-.4 56.84 0 83.79 0 2.08-.4 4.64-.4 6.32 0 2.08.8 3.36.8 5.04 0 2.52-.4 5.04-.4 6.76.4 2.52.8 4.2 1.2 5.88 0 1.24-.4 4.2 0 6.32.4 2.52 1.56 4.2 1.96 6.32.8 1.68 1.6 3.36 2.76 4.2.8.44 2 .44 2.76 0 2.4-1.28 2.4-4.64 2-10.95-.4-1.68.4-3.76 0-5.48 0-2.08-.4-3.36-.4-5.44.4-2.56 2.36-5.08 3.16-7.59.8-1.68 0-3.8 1.16-5.04 1.2-1.28 3.16-1.68 4.36-2.52 2.76-1.28 5.12-2.56 7.88-1.72 1.2.44 2 1.72 3.16 2.56 1.2.84 2.76 1.24 3.56 2.52 1.2 1.24 1.56 3.8 2.36 5.88.8 2.12 2.36 3.8 2.76 6.32 0 1.68-.4 3.36-.76 5.04-.8 1.72-1.2 3.8-2.4 5.48-1.16 1.28-3.52 2.12-5.12 3.4-2.36 1.24-4.32 3.36-7.12 5.04-2.36 1.24-5.12 2.12-7.48 3.8-1.96 1.24-3.16 2.92-4.36 4.2-1.56 1.68-3.12 2.96-3.92 4.64-.8 2.52 0 5.04.8 7.55.76 1.68 1.56 3.8 2.76 5.08 1.16 1.68 2.76 4.2 4.32 5.48 2.36 1.68 4.76 1.68 7.12 2.52 1.56 0 2.76.4 3.56.4 1.56 0 2.76-.4 3.92-.84 1.2-.4 2.36-.84 3.16-1.68s1.6-2.52 2.76-3.8c.4-.4 1.6-1.24 2.36-2.08.4-.84 1.2-2.56 1.2-2.56s1.96-1.68 2.76-2.52c.8-1.24 1.6-3.36 1.6-3.36.76-.4 1.56-.84 1.96-1.28.8-.84 1.16-1.68 1.96-2.52s2-1.24 2.76-2.08c.8-.44 1.6-.44 2.36-.84 1.2-.84 2-1.72 3.16-2.12.8-.44 2-.44 3.16-.44.8-.4 2-1.24 3.16-1.24.8 0 2.36-.44 3.16-.84 1.6 0 3.16.4 5.12.4 1.2.44 2.4.84 3.56 1.28 1.2.4 2.36.4 3.56.84.8.4 1.6 1.28 2.36 1.68 1.2.84 2.76.84 3.16 1.68.8.44 1.6 2.12 2.36 2.96 1.2.84 2.4 1.24 3.56 2.52.8 1.28 1.2 2.96 2 4.2.76 1.28 2.36 1.68 3.12 3.4.8 1.24 1.2 3.36 2 5.04.8 1.28 1.56 1.68 2.36 3.36.8 2.12 1.56 5.08 2.36 7.59.4 1.68 1.2 2.92 2 5.04.36 1.68.36 3.36.76 5.04.4 1.28.8 2.56.8 3.8.4 1.68 0 4.2.4 5.92 0 1.24.8 2.08.8 3.36 0 1.68-.4 3.8-.4 5.88 0 1.28.76 2.12.76 3.8 0 4.2 0 8.44-.36 12.63 0 1.24.36 2.08 1.56 2.08s1.96-.4 1.96-1.68c2.76-31.14-4.32-57.24-18.11-73.23-2-2.08-5.92-5.04-6.71-5.88-5.52-3.8-12.23-5.92-19.35-5.48-9.44.84-18.15 5.04-24.07 12.63l-6.28 8c-4.76 6.72-5.56 8-11.47 6.72-5.12-1.24-9.83-5.44-11.43-10.07-.76-2.96 0-5.48 2.4-8 2.36-2.96 6.68-5.08 10.63-7.59 9.07-4.64 19.31-10.11 17.35-23.15-1.2-9.68-7.12-17.67-14.19-20.19-5.92-1.68-11.83 0-16.59 5.48-2.76 4.2-4.32 9.23-5.12 14.71v3.8c0 2.52.4 5.48.4 7.56 0 1.28 0 2.52.4 3.8 0 .44-.4.44-.8 0-.4-2.12-1.16-5.48-1.56-10.11-.8-10.07-1.2-39.98-1.2-66.92 0-16.39 0-31.54.4-40.41z"/><path fill="none" stroke="#000" stroke-linecap="round" stroke-linejoin="round" stroke-width=".8" d="M122.05.76c-.4 16.87-.4 56.84 0 83.79 0 2.08-.4 4.64-.4 6.32 0 2.08.8 3.36.8 5.04 0 2.52-.4 5.04-.4 6.76.4 2.52.8 4.2 1.2 5.88 0 1.24-.4 4.2 0 6.32.4 2.52 1.56 4.2 1.96 6.32.8 1.68 1.6 3.36 2.76 4.2.8.44 2 .44 2.76 0 2.4-1.28 2.4-4.64 2-10.95-.4-1.68.4-3.76 0-5.48 0-2.08-.4-3.36-.4-5.44.4-2.56 2.36-5.08 3.16-7.59.8-1.68 0-3.8 1.16-5.04 1.2-1.28 3.16-1.68 4.36-2.52 2.76-1.28 5.12-2.56 7.88-1.72 1.2.44 2 1.72 3.16 2.56 1.2.84 2.76 1.24 3.56 2.52 1.2 1.24 1.56 3.8 2.36 5.88.8 2.12 2.36 3.8 2.76 6.32 0 1.68-.4 3.36-.76 5.04-.8 1.72-1.2 3.8-2.4 5.48-1.16 1.28-3.52 2.12-5.12 3.4-2.36 1.24-4.32 3.36-7.12 5.04-2.36 1.24-5.12 2.12-7.48 3.8-1.96 1.24-3.16 2.92-4.36 4.2-1.56 1.68-3.12 2.96-3.92 4.64-.8 2.52 0 5.04.8 7.55.76 1.68 1.56 3.8 2.76 5.08 1.16 1.68 2.76 4.2 4.32 5.48 2.36 1.68 4.76 1.68 7.12 2.52 1.56 0 2.76.4 3.56.4 1.56 0 2.76-.4 3.92-.84 1.2-.4 2.36-.84 3.16-1.68s1.6-2.52 2.76-3.8c.4-.4 1.6-1.24 2.36-2.08.4-.84 1.2-2.56 1.2-2.56s1.96-1.68 2.76-2.52c.8-1.24 1.6-3.36 1.6-3.36.76-.4 1.56-.84 1.96-1.28.8-.84 1.16-1.68 1.96-2.52s2-1.24 2.76-2.08c.8-.44 1.6-.44 2.36-.84 1.2-.84 2-1.72 3.16-2.12.8-.44 2-.44 3.16-.44.8-.4 2-1.24 3.16-1.24.8 0 2.36-.44 3.16-.84 1.6 0 3.16.4 5.12.4 1.2.44 2.4.84 3.56 1.28 1.2.4 2.36.4 3.56.84.8.4 1.6 1.28 2.36 1.68 1.2.84 2.76.84 3.16 1.68.8.44 1.6 2.12 2.36 2.96 1.2.84 2.4 1.24 3.56 2.52.8 1.28 1.2 2.96 2 4.2.76 1.28 2.36 1.68 3.12 3.4.8 1.24 1.2 3.36 2 5.04.8 1.28 1.56 1.68 2.36 3.36.8 2.12 1.56 5.08 2.36 7.59.4 1.68 1.2 2.92 2 5.04.36 1.68.36 3.36.76 5.04.4 1.28.8 2.56.8 3.8.4 1.68 0 4.2.4 5.92 0 1.24.8 2.08.8 3.36 0 1.68-.4 3.8-.4 5.88 0 1.28.76 2.12.76 3.8 0 4.2 0 8.44-.36 12.63 0 1.24.36 2.08 1.56 2.08s1.96-.4 1.96-1.68c2.76-31.14-4.32-57.24-18.11-73.23-2-2.08-5.92-5.04-6.71-5.88-5.52-3.8-12.23-5.92-19.35-5.48-9.44.84-18.15 5.04-24.07 12.63l-6.28 8c-4.76 6.72-5.56 8-11.47 6.72-5.12-1.24-9.83-5.44-11.43-10.07-.76-2.96 0-5.48 2.4-8 2.36-2.96 6.68-5.08 10.63-7.59 9.07-4.64 19.31-10.11 17.35-23.15-1.2-9.68-7.12-17.67-14.19-20.19-5.92-1.68-11.83 0-16.59 5.48-2.76 4.2-4.32 9.23-5.12 14.71v3.8c0 2.52.4 5.48.4 7.56 0 1.28 0 2.52.4 3.8 0 .44-.4.44-.8 0-.4-2.12-1.16-5.48-1.56-10.11-.8-10.07-1.2-39.98-1.2-66.92 0-16.39 0-31.54.4-40.41"/><path fill="none" stroke="#000" stroke-linecap="round" stroke-linejoin="round" stroke-width=".8" d="M122.05.76c-.4 16.87-.4 56.84 0 83.79 0 2.08-.4 4.64-.4 6.32 0 2.08.8 3.36.8 5.04 0 2.52-.4 5.04-.4 6.76.4 2.52.8 4.2 1.2 5.88 0 1.24-.4 4.2 0 6.32.4 2.52 1.56 4.2 1.96 6.32.8 1.68 1.6 3.36 2.76 4.2.8.44 2 .44 2.76 0 2.4-1.28 2.4-4.64 2-10.95-.4-1.68.4-3.76 0-5.48 0-2.08-.4-3.36-.4-5.44.4-2.56 2.36-5.08 3.16-7.59.8-1.68 0-3.8 1.16-5.04 1.2-1.28 3.16-1.68 4.36-2.52 2.76-1.28 5.12-2.56 7.88-1.72 1.2.44 2 1.72 3.16 2.56 1.2.84 2.76 1.24 3.56 2.52 1.2 1.24 1.56 3.8 2.36 5.88.8 2.12 2.36 3.8 2.76 6.32 0 1.68-.4 3.36-.76 5.04-.8 1.72-1.2 3.8-2.4 5.48-1.16 1.28-3.52 2.12-5.12 3.4-2.36 1.24-4.32 3.36-7.12 5.04-2.36 1.24-5.12 2.12-7.48 3.8-1.96 1.24-3.16 2.92-4.36 4.2-1.56 1.68-3.12 2.96-3.92 4.64-.8 2.52 0 5.04.8 7.55.76 1.68 1.56 3.8 2.76 5.08 1.16 1.68 2.76 4.2 4.32 5.48 2.36 1.68 4.76 1.68 7.12 2.52 1.56 0 2.76.4 3.56.4 1.56 0 2.76-.4 3.92-.84 1.2-.4 2.36-.84 3.16-1.68s1.6-2.52 2.76-3.8c.4-.4 1.6-1.24 2.36-2.08.4-.84 1.2-2.56 1.2-2.56s1.96-1.68 2.76-2.52c.8-1.24 1.6-3.36 1.6-3.36.76-.4 1.56-.84 1.96-1.28.8-.84 1.16-1.68 1.96-2.52s2-1.24 2.76-2.08c.8-.44 1.6-.44 2.36-.84 1.2-.84 2-1.72 3.16-2.12.8-.44 2-.44 3.16-.44.8-.4 2-1.24 3.16-1.24.8 0 2.36-.44 3.16-.84 1.6 0 3.16.4 5.12.4 1.2.44 2.4.84 3.56 1.28 1.2.4 2.36.4 3.56.84.8.4 1.6 1.28 2.36 1.68 1.2.84 2.76.84 3.16 1.68.8.44 1.6 2.12 2.36 2.96 1.2.84 2.4 1.24 3.56 2.52.8 1.28 1.2 2.96 2 4.2.76 1.28 2.36 1.68 3.12 3.4.8 1.24 1.2 3.36 2 5.04.8 1.28 1.56 1.68 2.36 3.36.8 2.12 1.56 5.08 2.36 7.59.4 1.68 1.2 2.92 2 5.04.36 1.68.36 3.36.76 5.04.4 1.28.8 2.56.8 3.8.4 1.68 0 4.2.4 5.92 0 1.24.8 2.08.8 3.36 0 1.68-.4 3.8-.4 5.88 0 1.28.76 2.12.76 3.8 0 4.2 0 8.44-.36 12.63 0 1.24.36 2.08 1.56 2.08s1.96-.4 1.96-1.68c2.76-31.14-4.32-57.24-18.11-73.23-2-2.08-5.92-5.04-6.71-5.88-5.52-3.8-12.23-5.92-19.35-5.48-9.44.84-18.15 5.04-24.07 12.63l-6.28 8c-4.76 6.72-5.56 8-11.47 6.72-5.12-1.24-9.83-5.44-11.43-10.07-.76-2.96 0-5.48 2.4-8 2.36-2.96 6.68-5.08 10.63-7.59 9.07-4.64 19.31-10.11 17.35-23.15-1.2-9.68-7.12-17.67-14.19-20.19-5.92-1.68-11.83 0-16.59 5.48-2.76 4.2-4.32 9.23-5.12 14.71v3.8c0 2.52.4 5.48.4 7.56 0 1.28 0 2.52.4 3.8 0 .44-.4.44-.8 0-.4-2.12-1.16-5.48-1.56-10.11-.8-10.07-1.2-39.98-1.2-66.92 0-16.39 0-31.54.4-40.41"/><path fill="#f9eff0" fill-rule="evenodd" d="M129.12 184.73c-3.16 15.99 19.35 32.42 42.25 38.74 20.51 5.48 42.22 3.8 53.29-4.2 3.92-2.96 6.32-7.16 6.72-11.39.36-1.24-3.56-1.68-3.56-.4-.4.84-1.2 2.12-1.6 2.96s-.4 2.08-1.16 2.92c-.8.84-1.6 1.72-2.76 2.56-1.2.84-3.16 1.24-4.76 2.08-1.2.84-1.96 1.72-3.56 2.12-1.16.44-2.36 0-3.56.44-1.16.4-2.76.84-4.32 1.24-1.6.44-3.16 0-5.16 0-1.16.44-2.76.84-4.32.84-.8 0-2.36-.84-3.16-.84-1.2 0-2.36.84-3.56.44-.8 0-1.96-.44-3.16-.44-1.2-.4-2.36 0-3.56 0-1.56-.4-2.76-.84-4.36-1.24-.76 0-2.36 0-3.52-.44-.8 0-2-.84-3.16-.84-.8-.44-1.6-.44-2.76-.44-1.2-.4-2-1.24-3.16-1.68-1.2-.4-2.4-.4-3.56-.84-1.2-.4-2-1.68-3.16-2.12-.8-.4-2 0-2.4-.4-1.16-.44-1.96-1.68-3.16-2.12-1.16-.84-2.76-.84-3.92-1.68-.8-.4-1.6-1.68-2.4-2.12-.76-.4-1.56-.84-2.36-1.24-.76-.44-1.16-1.68-1.96-2.56-.8-.4-1.96-.84-2.76-1.68-.8-.4-1.2-1.68-2-2.52-.76-.4-1.56-1.28-1.96-1.68-.8-1.28-1.2-2.12-1.56-3.36-.4-.88-1.2-1.28-1.6-2.12-.4-1.28 0-2.12 0-3.36-.4-1.28-.8-2.56-.4-3.8 0-.84-3.56-1.72-3.96-.84z"/><path fill="none" stroke="#000" stroke-linecap="round" stroke-linejoin="round" stroke-width=".8" d="M129.12 184.73c-3.16 15.99 19.35 32.42 42.25 38.74 20.51 5.48 42.22 3.8 53.29-4.2 3.92-2.96 6.32-7.16 6.72-11.39.36-1.24-3.56-1.68-3.56-.4-.4.84-1.2 2.12-1.6 2.96s-.4 2.08-1.16 2.92c-.8.84-1.6 1.72-2.76 2.56-1.2.84-3.16 1.24-4.76 2.08-1.2.84-1.96 1.72-3.56 2.12-1.16.44-2.36 0-3.56.44-1.16.4-2.76.84-4.32 1.24-1.6.44-3.16 0-5.16 0-1.16.44-2.76.84-4.32.84-.8 0-2.36-.84-3.16-.84-1.2 0-2.36.84-3.56.44-.8 0-1.96-.44-3.16-.44-1.2-.4-2.36 0-3.56 0-1.56-.4-2.76-.84-4.36-1.24-.76 0-2.36 0-3.52-.44-.8 0-2-.84-3.16-.84-.8-.44-1.6-.44-2.76-.44-1.2-.4-2-1.24-3.16-1.68-1.2-.4-2.4-.4-3.56-.84-1.2-.4-2-1.68-3.16-2.12-.8-.4-2 0-2.4-.4-1.16-.44-1.96-1.68-3.16-2.12-1.16-.84-2.76-.84-3.92-1.68-.8-.4-1.6-1.68-2.4-2.12-.76-.4-1.56-.84-2.36-1.24-.76-.44-1.16-1.68-1.96-2.56-.8-.4-1.96-.84-2.76-1.68-.8-.4-1.2-1.68-2-2.52-.76-.4-1.56-1.28-1.96-1.68-.8-1.28-1.2-2.12-1.56-3.36-.4-.88-1.2-1.28-1.6-2.12-.4-1.28 0-2.12 0-3.36-.4-1.28-.8-2.56-.4-3.8 0-.84-3.56-1.72-3.96-.84"/><path fill="#e4b8c0" fill-rule="evenodd" d="M183.21 154.83c-2 1.28-.4 3-.8 5.08 0 2.12-1.6 30.4 5.08 0-1.24-.8-6.32 1.2-6.76 1.6 0 2 3.8 3.6 3.4 0"/><path fill="#f6e9eb" fill-rule="evenodd" d="M168.98 166.18c-2 1.28-.4 4.28 0 5.52-.4-1.68 0-3.8 1.6-4.24.4-.4 0-.4-.4-.84zm22.95 7.99c-1.2 2.52-1.6 2.92-4 3.76 2.4-.4 3.6.4 4-2.92zm19.35 6.32c1.2.88 0 2.56 1.6 2.56 1.16 0 2.72-1.68 2.36-2.56-.4.44-2.76 2.96-2.76.88zm-44.29 21.03c-1.2-2.56-3.2 3.76 0 .84.4.4 1.2 4.6 2.4 3.36.4 0-1.6-3.36-2-4.2zm19.71-61.48c.4.88-.44 2.2 0 2.64.84-.44 1.24-2.2.4-2.64zm8.71-4.12c-1.96.8.4 3.28-.76 4.92.76-1.2.4-4.12 2.32-4.52 0 0-.76-.4-1.16-.84zm-53.62 29.38c.8.86.8 1.3 1.18 2.58.4.86 0 1.72 1.18 2.14 1.16-.84-.4-2.14.78-2.56-.78 0-1.18 0-1.56-.44z"/><path fill="#c24f71" fill-rule="evenodd" d="M108.13 41.22c.8 3.38.4 7.59.8 10.97 0 3.78 0 8-.4 11.79-.4 5.9-2.4 13.05-.8 18.95.8 2.12 2 4.22 2.4 6.76 0 2.94-.8 5.06-1.2 8 0 2.54 0 5.9.8 8.44.8 1.68 1.6 2.1 2.4 3.78-3.6-3.78-1.6-10.53-1.2-15.15.4-2.12 0-4.22 0-6.34 0-2.94-1.6-9.67-1.2-12.21 1.2-5.48.4-4.64 0-10.11 0-1.68.4-3.8.4-5.48 0-2.52-1.2-5.06-.8-7.58zm5.2 27.36c1.2 6.72.8 13.01.8 19.73.4 2.52.78 5.88 2.36 7.56.8 1.68 3.16 2.52 3.16 4.2-1.96-2.94-3.16-8.39-3.54-12.17-.8-3.78.38-6.72.38-10.49-.38-4.62-1.96-8.39-1.18-13.01.4-4.62-1.98-8.39-1.98-12.61zm.02 30.28c1.16 3.36 2.34 10.49.38 13.83-.38 1.26-1.54 1.26-1.94 2.94-.78 2.1.78 4.62 2.34 5.86 1.16-1.24-1.16-4.18-.4-6.28 0-1.26 1.18-2.1 1.56-2.94 1.16-2.92 0-5.86 0-8.79z"/><path fill="#e4b8c0" fill-rule="evenodd" d="M114.19 98.04c2.32 2.1 4.66 8.86 4.26 12.21 0 .84-1.94 11.79.78 7.6 1.18-1.7-.38-5.48.4-7.6.38-1.68 1.54-2.94 1.54-4.64-.38-2.52-3.1-3.78-4.26-5.06-1.18-2.1-1.56-4.2-3.9-5.06z"/><path fill="#f6e9eb" fill-rule="evenodd" d="M118.45 104.32c0 1.26 0 2.5.4 3.74 2-1.24.4-2.9-.4-4.16z"/><path fill="#a42554" fill-rule="evenodd" d="M180.49 174.97c3.12 2.56-1.2 5.56-2.4 7.67.8-.4 3.96-2.12 4.36-2.96 1.16-1.72-.8-3-.8-4.72zm11.43 13.55c.8.44 1.56.84 2.32 1.24.76.84-.4 1.68.76 2.08.76-1.64 0-2.88-.36-4.16 0 .44-.8.84-1.56.84zm11.03-4.68c.8 2.16-.4 4.32-1.2 6l.4-.4zm5.92 6.32c0 2.08 1.2 3.8 1.2 5.92-.4 1.68-1.6 3.36-1.6 5.04.4-1.24.8-3.8.8-5.04 0-.88-.8-1.72-.8-1.72-.4-.84 0-2.96.4-5.08zm-88.47-68.68c.42 1.28 1.24 2.96 1.24 4.22-.4 1.26-2.06 1.68-2.06 3.78 0-.84-.42-2.1 0-3.36s1.66-1.68 1.24-2.94zm97.5 33.34c.4 2.12-3.12 3.76-.76 5.84.36-1.64.76-3.32 2.72-1.64 0-.44.36-.44.36-.84zm2.88 44.29c3.48-1.28 3.84-1.28 3.08 2.88 0-1.24-.76-2.48-1.16-2.88z"/><path fill="#e4b8c0" fill-rule="evenodd" d="M137.86 108.09c0 2.5.4 5.02.4 7.54s-1.18 4.62-1.58 6.72c6.28.82 2.74-8.39 4.32-11.33 1.96-4.18 3.9-.84 6.64-2.1-1.16-3.34-9.38 1.26-8.6-4.18 0-1.26 1.18-1.68 1.18-3.36.38-1.68-.8-2.94.38-4.62-2.74-1.26-1.96 3.36-2.34 5.04 0 1.26-.78 2.1-1.18 3.36 0 1.68.78 2.94.78 5.02z"/><path fill="#f6e9eb" fill-rule="evenodd" d="M138.12 108.91c1.24.84 1.24 2.52 1.24 3.78.42-1.26-.4-3.78 1.64-3.78-.82-.42-2.46-.86-2.88-.86z"/><path fill="#c24f71" fill-rule="evenodd" d="M150.83 108.85c-1.2 1.28-1.6 2.56-3.2 3-1.2.4-2.4-.44-3.6 0-1.6.84-.8 1.68-.8 2.96.4 1.28 0 4.24.4 5.96 4.4.4 0-4.68 1.6-6.8.8-.84 2.4 0 3.6-.84 1.6-.88 2.4-2.56 4-3.4zM109.37 4.12c-1.56 6.75 0 13.93.76 20.27.4 3.8-1.92 13.51 1.16 16.03-1.16-6.74 1.16-13.91 0-20.67-.38-5.08-1.92-9.71-2.32-14.77z"/><path fill="#e4b8c0" fill-rule="evenodd" d="M113.73 18.97c-.4 5.46-.4 10.93-.4 16.83 0 3.78-2 8.83-.8 12.61 0-5.46 2-11.35 2.4-16.83.4-5.04-1.2-8.41-1.6-13.47zm8.29 127.42c-.38 7.22 6.32 5.52 10.25 7.64 0-6.8-11.83-2.96-11.43-9.36z"/><path fill="#f6e9eb" fill-rule="evenodd" d="M123.97 149.75c.8 2.56 3.16 3.4 4.72.84 0 .44 0 .44-.38.86-1.18-.42-3.16-1.7-3.54-2.14z"/><path fill="#eda091" fill-rule="evenodd" d="M105.92 138.82c-10.27-13.97-49.41-11.43-87.37-8.46l-17.79.84v4.24l17.79-1.28c35.18-2.54 75.51-5.08 84.59 7.2.4.84 1.6.84 2.38.42 1.18-.84 1.18-2.12.4-2.96m160.12-2.94c-14.59-7.6-59.92-28.7-96.62-19.39-13.43 3.36-21.31 10.11-26.82 14.75-2.36 2.12-4.76 3.8-5.92 4.24-1.2 0-20.84-2 2.12.4 1.24 1.2 2.08 2.4 1.68 2.36 0 4.72-2.12 7.88-5.08 5.52-4.64 13.03-10.95 25.27-13.91 36.66"/><path fill="none" stroke="#000" stroke-linecap="round" stroke-linejoin="round" stroke-width=".8" d="m.76 135.44 17.79-1.28c35.18-2.54 75.51-5.08 84.59 7.2.4.84 1.6.84 2.38.42 1.18-.84 1.18-2.12.4-2.96-10.27-13.97-49.41-11.43-87.37-8.46l-17.79.84m265.28 4.68c-14.59-7.6-59.92-28.7-96.62-19.39-13.43 3.36-21.31 10.11-26.82 14.75-2.36 2.12-4.76 3.8-5.92 4.24-1.2 0-20.84-2 2.12.4 1.24 1.2 2.08 2.4 1.68 2.36 0 4.72-2.12 7.88-5.08 5.52-4.64 13.03-10.95 25.27-13.91 36.66"/></svg>