<?xml version="1.0" encoding="UTF-8"?>
<svg id="Capa_1" xmlns="http://www.w3.org/2000/svg" version="1.1" xmlns:xlink="http://www.w3.org/1999/xlink" viewBox="0 0 66.5 66.5">
  <!-- Generator: Adobe Illustrator 30.5.1, SVG Export Plug-In . SVG Version: 2.1.4 Build 3)  -->
  <defs>
    <style>
      .st0 {
        fill: #fff;
      }

      .st1 {
        fill: none;
      }

      .st2 {
        fill: #e52828;
      }
    </style>
    <clipPath id="clippath">
      <path class="st1" d="M55.8,1.2H10.7C5.5,1.2,1.2,5.5,1.2,10.7v45.1c0,5.2,4.2,9.5,9.5,9.5h45.1c5.2,0,9.5-4.2,9.5-9.5V10.7c0-5.2-4.2-9.5-9.5-9.5ZM36.4,23.2c0,.2-.2.4-.4.4s-.4-.2-.4-.4.2-.4.4-.4.4.2.4.4Z"/>
    </clipPath>
  </defs>
  <path class="st0" d="M60.4,39.2l-10.4-6,10.4-6c.4-.2.5-.7.2-1.1l-7.6-13.1c-.2-.4-.7-.5-1.1-.3l-10.4,6V6.6c0-.4-.4-.6-.7-.6h-15.3c-.5,0-.7.4-.7.8v12l-10.4-6c-.4-.2-.8,0-1.1.3l-7.6,13.1c-.2.4-.2.8.2,1l10.5,6-10.4,6c-.4.2-.5.7-.2,1.1l7.5,13c.2.5.7.6,1.2.3l10.4-6v12.1c0,.4.3.6.6.7h15.2c.3,0,.9-.2.9-.6v-12.2s10.5,6,10.5,6c.5.2.9,0,1.1-.4l7.5-13c.2-.4.1-.9-.3-1.1ZM52.2,52.1l-12-6.9v13.9h-13.8v-13.9s-12,6.9-12,6.9l-6.9-12,12-6.9-12-6.9,6.9-12,12,6.9V7.4h13.8v13.8s12-6.9,12-6.9l6.9,12-12,6.9,12,6.9-6.9,12Z"/>
  <path class="st2" d="M57.6,25.9l-5.9-10.1-12.7,7.3v-14.6h-11.7v14.6s-12.7-7.3-12.7-7.3l-5.8,10.2,12.7,7.3-12.7,7.3,5.8,10.2,12.7-7.3v14.7h11.7v-14.6l12.7,7.3,5.9-10.2-12.7-7.3,12.7-7.3ZM33.2,12.1c1.1,0,2,.9,2,2s-.9,2-2,2-2-.9-2-2,.9-2,2-2ZM31.7,17.2c-.4-.2-.5-.6-.4-1,0-.2.2-.2.4-.2.9.6,2.1.6,3,0h.3c0,0,.2.1.2.2.4,1.1-1.9,1.9-3.5,1ZM34.3,17.8v3.9s-2.2.8-2.2.8v-1.9s0-2.8,0-2.8c.7.2,1.5.2,2.2,0ZM33.5,54.1v1.9c0,.1-.2.3-.3.3-.1,0-.3-.1-.3-.2v-1.9s0-2,0-2l.7-.2v2.1ZM36.3,49.1c0,.7-.5,1.4-1.2,1.9-1.5,1-3,.5-3.9,2.8l-.3.8c-.3-.3-.2-.6-.2-.9.3-1.3,1.2-2.2,2.5-2.7.6-.2,1.2-.5,1.6-.9.4-.4.6-1,.4-1.6-.2-.5-.6-.8-1-1.1v-1.6c1.4.8,2.4,1.9,2.2,3.3ZM32.6,40.9l1.2-.4v3.6c0,0-.2,1.9-.2,1.9v3.2c0,0-.1,1.2-.1,1.2l-.8.3v-2.4c0,0-.1-2.8-.1-2.8v-2.5c0,0-.1-2-.1-2ZM37.2,37.9c-.4.7-1.1,1.3-1.9,1.6l-1.8.6c-.7.2-1.4.5-2,1-.6.5-.7,1.3-.3,2,.3.5.6.8,1.1,1.2v1.8c-1.5-.9-3-2.2-3-4,0-1.7,1.5-2.9,3.1-3.5l1.5-.5c.5-.2.9-.4,1.3-.7.5-.5.7-1.2.3-1.8-.3-.4-.7-.6-1.2-.8v-2.1c.8.3,1.5.5,2,1,1.4,1.1,1.7,2.9.8,4.4ZM32.2,26c.6-.4,1.3-.3,2,0v1.8s-.1,2.7-.1,2.7v2.2s-.1,2.6-.1,2.6v2.4c0,0-1.5.5-1.5.5l-.2-8.4v-3.8ZM34.4,25.6c-.4,0-.8-.3-1.2-.3-1.6,0-3.2,1.8-2.9,3.6.2,1.1.9,1.9,1.8,2.5v2.4c-3.2-1.4-5.1-4.7-3.5-7.9.7-1.3,1.8-2.3,3.2-2.8.8-.3,1.6-.7,2.4-.9,1.9-.5,4.5.9,4.3,2.1-.1,1-2.6,1.6-4.1,1.3ZM39.5,25.2c-.2-.3-.3-.6-.7-.6v-.4c.5,0,.8.3.9.8h.9c-.2.4-.9.5-1.1.1Z"/>
  <path class="st0" d="M40.6,25.1c-.2.3-.9.4-1.1,0-.2-.3-.3-.6-.7-.6v-.4c.5,0,.8.3.9.8h.9Z"/>
  <path class="st0" d="M33.6,52v2.1s0,1.9,0,1.9c0,.1-.1.3-.2.3-.1,0-.3-.1-.3-.2v-1.9s0-2,0-2l.7-.2Z"/>
  <path class="st0" d="M36.3,49.1c0,.7-.5,1.4-1.2,1.9-1.5,1-3,.5-3.9,2.8l-.3.8c-.3-.3-.2-.6-.2-.9.3-1.3,1.2-2.2,2.5-2.7.6-.2,1.2-.5,1.6-.9.4-.4.6-1,.4-1.6-.2-.5-.6-.8-1-1.1v-1.6c1.4.8,2.4,1.9,2.2,3.3Z"/>
  <polygon class="st0" points="33.9 40.4 33.8 44 33.7 45.9 33.7 49.1 33.6 50.2 32.8 50.5 32.8 48.2 32.7 45.4 32.7 42.9 32.6 40.9 33.9 40.4"/>
  <path class="st0" d="M37.2,37.9c-.4.7-1.1,1.3-1.9,1.6l-1.8.6c-.7.2-1.4.5-2,1-.6.5-.7,1.3-.3,2,.3.5.6.8,1.1,1.2v1.8c-1.5-.9-3-2.2-3-4,0-1.7,1.5-2.9,3.1-3.5l1.5-.5c.5-.2.9-.4,1.3-.7.5-.5.7-1.2.3-1.8-.3-.4-.7-.6-1.2-.8v-2.1c.8.3,1.5.5,2,1,1.4,1.1,1.7,2.9.8,4.4Z"/>
  <path class="st0" d="M34.2,26v1.8s-.1,2.7-.1,2.7v2.2s-.1,2.6-.1,2.6v2.4c0,0-1.5.5-1.5.5l-.2-8.4v-3.8c.5-.4,1.2-.3,1.9,0Z"/>
  <path class="st0" d="M35.2,14.1c0,1.1-.9,2-2,2s-2-.9-2-2,.9-2,2-2,2,.9,2,2Z"/>
  <path class="st0" d="M31.7,17.2c-.4-.2-.5-.6-.4-1,0-.2.2-.2.4-.2.9.6,2.1.6,3,0h.3c0,0,.2.1.2.2.4,1.1-1.9,1.9-3.5,1Z"/>
  <path class="st0" d="M34.3,17.8v3.9s-2.2.8-2.2.8v-1.9s0-2.8,0-2.8c.7.2,1.5.2,2.2,0Z"/>
  <path class="st0" d="M34.2,22.2c-.8.2-1.6.6-2.4.9-1.4.5-2.5,1.5-3.2,2.8-1.6,3.2.2,6.5,3.5,7.9v-2.4c-.9-.6-1.6-1.4-1.8-2.5-.3-1.8,1.4-3.5,2.9-3.6.4,0,.8.2,1.2.3,1.5.3,4-.3,4.1-1.3.2-1.2-2.4-2.6-4.3-2.1ZM36,23.6c-.2,0-.4-.2-.4-.4s.2-.4.4-.4.4.2.4.4-.2.4-.4.4Z"/>
  <path class="st2" d="M36.4,23.2c0,.2-.2.4-.4.4s-.4-.2-.4-.4.2-.4.4-.4.4.2.4.4Z"/>
</svg>