<?xml version="1.0" encoding="UTF-8"?>
<svg id="Capa_1" xmlns="http://www.w3.org/2000/svg" version="1.1" viewBox="0 0 60.5 60">
  <!-- Generator: Adobe Illustrator 30.5.1, SVG Export Plug-In . SVG Version: 2.1.4 Build 3)  -->
  <defs>
    <style>
      .st0 {
        fill: #3b4350;
      }

      .st1 {
        fill: #e52828;
      }
    </style>
  </defs>
  <polygon class="st1" points="43.1 30 57.1 38 50.6 49.2 36.7 41.1 36.7 57.2 23.8 57.2 23.8 41.1 9.9 49.2 3.5 38 17.4 30 3.5 22 9.9 10.8 23.8 18.8 23.8 2.8 36.7 2.8 36.7 18.9 50.6 10.8 57.1 22 43.1 30"/>
  <g>
    <path class="st0" d="M32.4,9c0,1.2-1,2.2-2.2,2.2s-2.2-1-2.2-2.2,1-2.2,2.2-2.2,2.2,1,2.2,2.2Z"/>
    <path class="st0" d="M28.5,12.4c-.4-.2-.6-.6-.4-1.1,0-.2.2-.2.4-.2,1,.7,2.3.7,3.3,0h.3c0,0,.2.1.2.2.4,1.2-2.1,2.1-3.9,1Z"/>
    <path class="st0" d="M31.5,13.1v4.2s-2.4.9-2.4.9v-2c0,0,0-3.1,0-3.1.8.2,1.6.2,2.4,0Z"/>
    <path class="st0" d="M31.3,17.9c-.9.2-1.8.7-2.7,1-1.6.6-2.8,1.6-3.5,3.1-1.8,3.5.3,7.2,3.9,8.7v-2.7c-1-.7-1.8-1.6-2-2.8-.3-2,1.5-3.9,3.2-3.9.4,0,.9.2,1.4.3,1.7.3,4.4-.3,4.5-1.4.1-1.3-2.6-2.9-4.8-2.3ZM33.2,19.4c-.3,0-.5-.2-.5-.5s.2-.5.5-.5.5.2.5.5-.2.5-.5.5Z"/>
    <path class="st0" d="M31.3,22v2s0,3,0,3v2.5c0,0-.1,2.8-.1,2.8v2.6c0,0-1.6.5-1.6.5l-.2-9.2v-4.2c.5-.4,1.3-.3,2,0Z"/>
    <path class="st0" d="M30.6,50.6v2.3s0,2.1,0,2.1c0,.1-.1.3-.2.4-.1,0-.3-.1-.3-.3v-2s0-2.2,0-2.2l.7-.2Z"/>
    <path class="st0" d="M34.6,35.2c-.5.8-1.2,1.5-2.1,1.8l-2,.7c-.8.3-1.6.6-2.2,1.1-.6.6-.8,1.4-.3,2.2.3.5.7.9,1.2,1.3v2c-1.6-1-3.3-2.4-3.2-4.4,0-1.9,1.7-3.2,3.4-3.8l1.7-.6c.5-.2,1-.4,1.4-.8.6-.5.8-1.3.3-2-.3-.5-.8-.7-1.3-.9v-2.4c.8.3,1.6.6,2.2,1.1,1.5,1.2,1.9,3.2.9,4.8Z"/>
    <polygon class="st0" points="30.9 37.9 30.8 41.8 30.8 43.9 30.7 47.4 30.7 48.7 29.8 49 29.8 46.4 29.7 43.3 29.6 40.6 29.6 38.4 30.9 37.9"/>
    <path class="st0" d="M33.7,47.4c-.1.8-.6,1.6-1.3,2.1-1.6,1-3.3.6-4.3,3l-.4.9c-.3-.3-.3-.7-.2-1,.3-1.4,1.4-2.5,2.7-3,.7-.3,1.3-.5,1.8-1,.5-.5.7-1.1.4-1.7-.2-.5-.6-.9-1.1-1.2v-1.7c1.5.9,2.7,2.1,2.5,3.7Z"/>
    <path class="st0" d="M38.4,21.1c-.3.4-1,.4-1.2,0-.2-.3-.3-.6-.8-.6v-.4c.6,0,1,.3,1,.9h1Z"/>
  </g>
  <path class="st0" d="M60.1,36.6l-11.4-6.6,11.4-6.6c.5-.3.5-.8.3-1.2l-8.3-14.4c-.2-.4-.7-.6-1.2-.3l-11.4,6.6V.7c0-.4-.4-.7-.8-.7h-16.8c-.5,0-.8.4-.8.9v13.1l-11.5-6.6c-.4-.2-.9-.1-1.2.3L.1,22.2c-.2.4-.2.9.2,1.1l11.5,6.6L.4,36.6c-.5.3-.5.8-.3,1.2l8.3,14.3c.2.5.8.6,1.3.4l11.4-6.6v13.3c0,.4.3.7.7.8h16.7c.4,0,.9-.2.9-.7v-13.4s11.5,6.6,11.5,6.6c.5.2,1,0,1.2-.5l8.3-14.3c.2-.4.2-.9-.3-1.2ZM50.6,49.2l-13.9-8v16.1h-12.8v-16.1l-13.9,8-6.4-11.1,13.9-8L3.5,22l6.4-11.1,13.9,8V2.8h12.9v16.1l13.9-8,6.4,11.1-13.9,8,13.9,8-6.4,11.1Z"/>
</svg>