<?xml version="1.0" encoding="UTF-8"?>
<svg id="Capa_1" xmlns="http://www.w3.org/2000/svg" version="1.1" viewBox="0 0 60.6 60">
  <!-- Generator: Adobe Illustrator 30.6.0, SVG Export Plug-In . SVG Version: 2.1.4 Build 109)  -->
  <defs>
    <style>
      .st0 {
        fill: #1068ff;
      }

      .st1 {
        fill: #fff471;
      }
    </style>
  </defs>
  <path class="st0" d="M43.1,30l13.9,8-6.4,11.1c-.2,0-13.9-7.9-13.9-7.9v16.1h-12.8v-16.1l-13.9,8-6.4-11.1,13.9-8L3.5,22l6.4-11.1,13.9,8V2.8h12.9v16.1l13.9-8,6.4,11.1-13.9,8Z"/>
  <g>
    <path class="st1" d="M32.4,9c0,1.2-1,2.2-2.2,2.2s-2.2-1-2.2-2.2,1-2.2,2.2-2.2,2.2,1,2.2,2.2Z"/>
    <path class="st1" d="M28.4,12.3h0c-.4,0-.6-.5-.4-1,0-.2.2-.2.4-.2,1,.7,2.3.7,3.3,0h.3s.2.1.2.2c.4,1.2-2.1,2.1-3.9,1h.1Z"/>
    <path class="st1" d="M31.5,13.1v4.2l-2.4.9v-5.1c.8.2,1.6.2,2.4,0Z"/>
    <path class="st1" d="M31.3,17.9c-.9.2-1.8.7-2.7,1-1.6.6-2.8,1.6-3.5,3.1-1.8,3.5.3,7.2,3.9,8.7v-2.7c-1-.7-1.8-1.6-2-2.8-.3-2,1.5-4,3.2-3.9s.9.2,1.4.3c1.7.3,4.4-.3,4.5-1.4,0-1.3-2.6-2.9-4.8-2.3ZM33.2,19.4c-.3,0-.5-.2-.5-.5s.2-.5.5-.5.5.2.5.5-.2.5-.5.5Z"/>
    <path class="st0" d="M33.7,18.9c0,.3-.2.5-.5.5s-.5-.2-.5-.5.2-.5.5-.5.5.2.5.5Z"/>
    <path class="st1" d="M31.3,22v12.9l-1.6.5-.2-9.2v-4.2c.5-.4,1.1-.4,1.8,0h0Z"/>
    <path class="st1" d="M30.7,50.6v4.4s-.2.3-.3.4c-.2,0-.5,0-.5-.3v-4.2s.8-.3.8-.3Z"/>
    <path class="st1" d="M34.6,35.3c-.5.7-1.2,1.4-2.1,1.7l-1.3.5h0s-.7.2-.7.2c-.3,0-.5.2-.8.3-.5.2-1,.5-1.4.8-.6.6-.8,1.4-.3,2.2.3.5.7.9,1.2,1.3v2c-1.6-1-3.3-2.4-3.2-4.4,0-1.9,1.7-3.2,3.4-3.8h.3c0-.1,1.4-.6,1.4-.6,0,0,.1,0,.2,0,.4-.2.9-.4,1.2-.7.6-.5.8-1.3.3-2-.3-.5-.8-.7-1.3-.9v-2.4c.8.3,1.6.6,2.2,1.1,1.5,1.2,1.9,3.2.9,4.8Z"/>
    <path class="st1" d="M33.8,47.6h0c0,.1,0,.5-.3.8-.3.5-.7.8-1.1,1.1-.7.5-1.2.6-1.7.8-.3,0-.6.2-.8.3-.3.1-.5.2-.8.5-.4.3-.7.8-1,1.5l-.2.4c-.1.3-.2.5-.2.5,0,0-.2-.3-.2-.5,0-.7.2-1.3.3-1.4.5-.9,1.4-1.5,2.1-1.8.1,0,.2-.1.3-.2.2,0,.4-.2.5-.2.5-.2.9-.4,1.2-.8s.7-1.1.4-1.7c-.2-.5-.6-.9-1.1-1.2v-1.7c1.5.9,2.7,2.1,2.5,3.7Z"/>
    <path class="st1" d="M38.4,21h0c-.3.5-1,.5-1.2,0-.2-.3-.3-.6-.8-.6v-.4c.6,0,1,.3,1,.9h1Z"/>
  </g>
  <path class="st1" d="M60.1,36.5h0l-11.4-6.5,11.4-6.6c.5-.3.5-.8.3-1.2l-8.3-14.4c-.2-.4-.7-.6-1.2-.3l-11.4,6.6V.7c0-.4-.4-.7-.8-.7h-16.8c-.5,0-.8.4-.8.9v13.1l-11.5-6.6c-.4-.2-.9,0-1.2.3L.1,22.2c-.2.4-.2.9.2,1.1l11.5,6.6L.4,36.6c-.5.3-.5.8-.3,1.2l8.3,14.3c.2.5.8.6,1.3.4l11.4-6.6v13.3c0,.4.3.7.7.8h16.7c.4,0,.9-.2.9-.7v-13.4l11.5,6.6c.5.2,1,0,1.2-.5l8.3-14.3c.2-.4.2-.9-.3-1.2ZM50.6,49.1h0c0,0-13.9-7.9-13.9-7.9v16.1h-12.8v-16.1l-13.9,8-6.4-11.1,13.9-8L3.5,22l6.4-11.1,13.9,8V2.8h12.9v16.1l13.9-8,6.4,11.1-13.9,8,13.9,8-6.4,11.1Z"/>
  <path class="st1" d="M31.2,38l-.5,11c-.2,0-.3.2-.5.2,0,0-.2,0-.3.2l-.2-10.9c.2-.1.5-.2.8-.3l.7-.2Z"/>
</svg>