<svg xmlns="http://www.w3.org/2000/svg" viewBox="0 0 960 580" width="960" height="580" role="img"><title>La nefrona</title><desc>A la izquierda, el riñón en corte con la corteza, la médula y la pelvis renal. En el centro, el esquema de una nefrona con el glomérulo, el túbulo proximal, el asa de Henle, el túbulo distal y el colector. A la derecha, cuatro fichas describen la función de cada tramo: filtración en el glomérulo, reabsorción de la mayor parte del agua y del sodio en el túbulo proximal, creación del gradiente que concentra la orina en el asa de Henle, y ajuste final del sodio, del potasio y del ácido en el túbulo distal y el colector.</desc><defs><style>:root{--f:#ffffff; --p:#f1f5f9; --b:#cbd5e1; --t:#0f172a; --s:#475569;--ac:#0369a1; --al:#b91c1c; --ok:#047857; --am:#8f5700; --vi:#6d28d9;}@media (prefers-color-scheme: dark){:root{--f:#0b1220; --p:#16202f; --b:#334155; --t:#e2e8f0; --s:#94a3b8;--ac:#38bdf8; --al:#f87171; --ok:#34d399; --am:#fbbf24; --vi:#a78bfa;}}.fondo{fill:var(--f)}.t-titulo{font-family:'Segoe UI',Roboto,'Helvetica Neue',Arial,sans-serif;font-size:26px;font-weight:700;fill:var(--t)}.t-sub{font-family:'Segoe UI',Roboto,'Helvetica Neue',Arial,sans-serif;font-size:14.5px;fill:var(--s)}.t-caja-tit{font-family:'Segoe UI',Roboto,'Helvetica Neue',Arial,sans-serif;font-size:14.5px;font-weight:700}.t-caja{font-family:'Segoe UI',Roboto,'Helvetica Neue',Arial,sans-serif;font-size:12.8px;fill:var(--t)}.t-pie{font-family:'Segoe UI',Roboto,'Helvetica Neue',Arial,sans-serif;font-size:12.5px;fill:var(--s)}.t-nota{font-family:'Segoe UI',Roboto,'Helvetica Neue',Arial,sans-serif;font-size:12.8px;fill:var(--s)}.t-etq{font-family:'Segoe UI',Roboto,'Helvetica Neue',Arial,sans-serif;font-size:12.5px;fill:var(--t)}.t-formula{font-family:'Segoe UI',Roboto,'Helvetica Neue',Arial,sans-serif;font-size:30px;font-weight:700;fill:var(--t)}.t-formula-nota{font-family:'Segoe UI',Roboto,'Helvetica Neue',Arial,sans-serif;font-size:12.5px;fill:var(--s)}.caja{fill:var(--p);stroke:var(--b);stroke-width:1;rx:10}.regla{stroke:var(--b);stroke-width:1}.tono-tinta{fill:var(--t)} .tono-suave{fill:var(--s)} .tono-acento{fill:var(--ac)}.tono-alerta{fill:var(--al)} .tono-ok{fill:var(--ok)} .tono-ambar{fill:var(--am)}.tono-violeta{fill:var(--vi)}.bd-tinta{stroke:var(--t)} .bd-suave{stroke:var(--s)} .bd-acento{stroke:var(--ac)}.bd-alerta{stroke:var(--al)} .bd-ok{stroke:var(--ok)} .bd-ambar{stroke:var(--am)}.bd-violeta{stroke:var(--vi)} .bd-borde{stroke:var(--b)}.fl-panel{fill:var(--p)} .fl-borde{fill:var(--b)} .fl-none{fill:none}.fl-tinta{fill:var(--t)} .fl-suave{fill:var(--s)} .fl-acento{fill:var(--ac)}.fl-alerta{fill:var(--al)} .fl-ok{fill:var(--ok)} .fl-ambar{fill:var(--am)}.fl-violeta{fill:var(--vi)}</style><marker id="punta" viewBox="0 0 10 10" refX="8" refY="5" markerWidth="5" markerHeight="5" orient="auto-start-reverse"><path d="M0 0 L10 5 L0 10 z" fill="context-stroke"/></marker></defs><rect class="fondo" x="0" y="0" width="960" height="580"/><text class="t-titulo" x="60" y="48">La nefrona</text><text class="t-sub" x="60" y="72">La unidad que filtra: por dónde pasa el líquido y qué ocurre en cada tramo</text><line class="regla" x1="60" y1="84" x2="900" y2="84"/><svg x="60" y="108" width="193" height="250" viewBox="0 0 270.652 482.154" preserveAspectRatio="xMidYMid meet"><defs><clipPath clipPathUnits="userSpaceOnUse" id="k1-a"><path d="M1.04 5.36h270.32v482.51H1.04z"/></clipPath></defs><path clip-path="url(#k1-a)" d="M228.2 281.05c10.37 18.67 20.23 44.11 8.81 64.34-11.41 20.77-17.13 39.44-49.83 60.2-32.72 20.75-71.14 6.22-89.31-7.28-18.69-14.01-33.74-19.19-52.95-42.03-18.69-22.31-17.13-26.46-24.41-55.01-7.78-29.06-16.09-29.06-17.65-60.18-1.56-31.660.52-37.38 4.68-56.57 4.16-19.73 8.31-34.26 12.97-51.91 4.16-17.65 21.81-38.92 31.68-51.37 9.85-12.97 10.37-21.29 39.46-46.19 29.06-24.91 64.36-33.74 100.7-24.91 29.08 9.33 75.27 50.33 75.27 89.78 0 39.44-10.37 56.05-23.35 69.02-12.47 12.45-12.99 11.93-16.09 26.98-3.12 15.05-6.24 19.19-5.72 28.540.52 9.33 4.68 20.75 0 33.2-4.68 11.950.52 12.97 5.72 23.37z" fill="#b0756d" fill-rule="evenodd"/><path clip-path="url(#k1-a)" d="M267.14 286.79c-7.28-42.55-11.93-40.99-16.61-61.22-4.68-20.77-5.72-40.99-15.57-47.23-3.64 4.68-4.66 7.79-6.74 17.65-3.12 15.05-6.24 19.21-5.72 28.540.52 9.33 4.68 20.75 0 33.2-4.68 11.930.52 12.97 5.72 23.35 3.62 6.76 7.78 15.05 10.37 23.35 9.85 10.39 11.93 32.18 11.41 42.03-0.52 9.85-1.56 28.02-2.6 51.89-1.04 23.86 7.28 30.1 8.31 46.17 1.04 16.090.52 22.33-2.08 36.84h11.41c2.6-11.93 0-33.2-4.16-59.66-4.14-26.980.52-34.76 5.72-64.86 5.18-30.08 3.12-53.430.52-70.04z" fill="#e2a86f" fill-rule="evenodd"/><path d="M192.4 24.75c10.39 4.16 21.31 7.79 29.6 16.61 7.8 7.78 11.95 18.67 17.15 28.02 6.24 9.85 12.47 21.27 14.03 32.68 2.06 10.89-1.04 23.85-4.68 34.24-2.6 9.33-6.24 21.27-14.55 27.48-7.8 6.76-16.11 6.76-23.89 13.49-7.8 7.25-16.11 13.49-21.83 22.31-6.24 10.89-5.2 20.75-2.6 32.68 4.68 23.35 22.87 40.46 34.8 60.18 5.72 9.33 12.47 21.27 13.51 31.64 1.04 11.41-7.79 22.83-12.99 32.68-10.37 19.71-22.85 35.28-43.61 44.61-10.39 4.16-21.83 5.7-33.26 4.16-11.41-1.04-19.21-7.79-30.12-11.93-20.77-8.83-40-21.79-58.69-34.76-18.19-12.97-19.23-35.28-22.87-55.51 5.2 1.04 6.24 10.89 7.8 15.55 2.6 6.24 5.72 11.93 10.91 16.61 11.43 9.34 22.85 18.67 35.32 26.96 8.31 5.2 14.03 12.45 22.85 16.61 11.43 4.68 21.31 5.18 33.26 3.12 20.77-3.12 43.61-8.83 58.68-24.39 10.39-10.89 11.95-25.42 8.31-38.92-3.64-13.99-3.64-23.35-13.51-33.72-5.2-5.7-9.35-10.89-14.55-16.59-5.18-5.72-16.09-7.28-20.25-14.01-7.79-13.49-4.16-29.56-4.68-44.09-1.04-17.13-2.08-24.9 10.39-38.92 9.87-11.41 21.81-18.15 35.32-24.36 12.99-6.24 19.73-18.69 21.81-33.2 2.08-14.01-3.12-26.98-3.12-40.99-0.52-9.85-4.14-16.59-8.29-25.43-2.6-5.7-5.72-18.67-13.51-18.67z" fill="#aa6863" fill-rule="evenodd"/><path d="M208.47 196.5c4.66-5.18 13.95-9.85 21.19-9.85-1.02 4.68-7.24 8.84-9.29 14.01-2.58 5.7-2.58 11.93-2.58 18.67 1.02 13.47 3.62 28-1.56 40.95-7.24-8.29-24.3-29.54-14.47-40.95 1.04 5.7 1.04 13.47 6.72 17.11 7.24-4.66 2.08-15.03 3.1-21.79 1.04-7.78 9.83-15.03-0.52-19.69zM130.62 16.91C91.17 28.32 70.4 67.26 45.99 96.84c-6.24 7.28-15.07 17.13-17.67 25.95-2.58 9.87-5.18 19.73-8.29 29.06-6.24 19.73-11.95 41.53-14.03 62.28-1.04 13.49-3.64 24.93-0.52 38.42 2.6 11.93 10.39 23.35 14.03 35.8-1.56-10.37-5.2-19.71-6.24-29.58-1.56-8.81 1.04-16.61 1.04-24.91 1.04-17.65 4.68-30.62 15.05-45.15 9.36-14.01 21.31-28.54 28.04-44.11 9.36-21.29 20.77-36.34 37.4-52.43 15.57-14.53 29.08-35.28 50.37-42.55 11.93-4.16 28.04-9.33 40.49-6.24 13.51 3.64 27.52 14.55 32.72 27 5.2 12.45 9.36 35.28 7.8 49.29-1.04 14.03-19.75 25.45-32.2 33.74 38.94-3.62 62.3-21.79 59.2-54.49-2.6-33.22-16.63-45.67-22.35-55.03-6.22-9.85-18.17-19.19-28.54-24.91-10.91-6.24-21.31-6.24-33.24-6.24h-16.61c-6.24 0-11.43 2.08-17.67 3.12z" fill="#aa6863" fill-rule="evenodd"/><path d="M32.48 116.55c-5.2 4.68-5.72 17.13-8.31 23.89a10816.47 10816.47 0 0 1-7.78 23.35c-4.68 17.13-8.31 32.7-8.84 51.89 5.72-17.63 7.28-36.84 17.65-51.89 7.28-10.37 17.13-16.61 20.25-29.06 3.64-12.45 7.28-19.21 16.09-29.58 7.28-9.85 16.09-17.13 23.89-26.46 8.81-10.39 16.09-21.81 25.95-31.14 9.33-9.36 22.31-14.01 35.3-16.61 28.02-5.2 54.49-4.68 74.22 19.21 16.09 19.71 23.35 39.44 24.91 64.340.52 11.95-1.56 22.85-6.74 33.22-2.08 4.68-3.64 11.41-7.28 14.53-3.64 3.64-11.93 8.31-16.09 10.89 23.36 8.31 38.94-33.2 41.01-49.29 3.1-24.41 2.08-47.23-13.49-66.44-14.03-17.13-24.93-31.14-45.17-39.96-21.79-8.83-45.67-7.28-67.46-1.56-22.33 5.72-38.42 20.77-53.47 37.88-8.81 9.87-14.53 21.81-22.83 31.66-3.64 5.2-7.28 11.93-11.95 16.61-5.7 5.72-9.33 8.31-11.93 16.09-0.52 1.04-1.04 2.08-1.56 2.6zm184.29 72.69c3.14-1.04 7.29-3.64 10.93-3.120.52 6.76-7.28 14.53-8.31 21.27-1.58 7.78-0.52 16.590.52 24.37 1.04 7.78-0.52 16.59-1.58 24.36-2.08 12.95-8.31-5.7-10.41-9.85 5.22 7.25 8.86 1.56 8.86-4.66 0-6.22 0-13.49-1.56-19.19-1.56-6.22-1.56-11.41 1.04-17.63 1.56-4.66 9.37-13.47 0-15.03z" fill="#a45d5a" fill-rule="evenodd"/><path d="M187.73 233.34c2.08 9.33 9.87 18.15 15.59 25.92 6.22 8.81 11.41 17.63 16.61 26.96 7.8 14.01 17.65 28.54 12.47 45.13-9.87 30.08-29.6 64.32-62.84 72.1-15.59 3.64-34.8 4.66-48.83-3.64-8.81-5.18-17.13-10.89-25.96-16.07-8.81-5.2-18.69-9.34-27-15.05-3.64-2.58-7.79-5.18-10.39-8.81 10.91 2.6 19.23 10.89 29.6 15.05 10.39 3.62 18.19 11.41 28.58 15.03 11.93 3.64 24.41 2.6 36.34 1.56 11.95-1.04 24.43-3.12 35.84-8.29 10.91-5.2 18.19-17.11 24.41-26.96 6.24-9.35 12.47-17.65 13.51-29.060.52-7.78-1.04-18.67-4.68-25.41-5.2-9.33-13.51-16.09-18.69-25.43-4.16-6.74-6.24-13.47-10.91-19.71-5.2-6.74-11.43-14.51-12.47-23.32-1.56-11.410.52-29.58 5.72-39.44 3.64-6.74 11.43-10.37 19.75-10.37-10.39 2.08-14.03 12.45-16.11 21.27-1.04 4.68-2.08 9.85-2.08 15.050.52 3.64 2.08 9.34 1.56 13.49z" fill="#a45d5a" fill-rule="evenodd"/><path d="M185.57 206.28c-3.64 9.87-0.52 22.85 2.6 32.72 1.56 4.68 5.18 11.43 9.33 15.07 2.08 1.56 4.66 1.56 7.26 3.12 2.08 1.04 4.16 3.64 5.2 5.18-2.6-10.37-10.89-18.17-15.05-28.56-4.14-10.39-3.62-22.33 0-32.72 3.12-8.31 20.75-15.59 27.48-20.27-4.66 0-22.29 3.64-25.92 7.28-2.08 1.56-8.29 6.24-7.78 9.87z" fill="#995854" fill-rule="evenodd"/><path d="M190.32 209.43c2.08-18.15 22.31-28.02 35.28-33.2 14.51-6.24 24.89-18.69 30.08-33.22 10.35-30.62 9.33-65.38-12.45-91.32-21.27-25.45-49.27-39.98-81.93-39.98-9.86 0-18.17 2.08-27.5 3.12 11.41 5.2 28.02 0 39.94 2.08 10.37 2.08 19.71 6.76 29.56 9.85 9.33 2.6 14.53 9.35 20.75 16.61 7.26 7.79 15.03 15.57 20.23 24.91 4.66 8.83 5.7 17.65 6.74 27 1.04 9.85 3.64 19.19 2.08 29.04-2.6 16.09-12.45 33.74-26.96 41.53-19.19 10.37-35.8 19.71-40.98 43.07zM64.64 72.9C56.35 85.87 43.89 97.8 35.06 110.77c-4.14 6.76-8.29 12.45-10.37 20.77-2.08 7.26-3.64 14.53-5.18 22.31-1.56 6.24-4.68 11.93-6.24 18.17-2.08 6.74-1.56 13.49-4.68 20.23 9.35-19.19 15.05-39.95 23.89-59.14 4.14-9.35 9.34-18.69 16.07-26.98C55.31 97.8 64.64 91.58 70.88 82.23 82.29 64.6 94.22 39.7 111.33 27.22 95.26 31.38 79.17 52.67 68.28 64.6zM63.2 364.54c8.83 11.41 23.35 19.21 34.76 27.5 13.49 9.36 26.44 15.05 42.01 18.69 32.66 7.77 62.74-18.69 80.37-44.11 9.85-14.01 17.63-30.62 16.09-47.75-1.56-15.57-8.31-31.16-17.65-44.13-6.74-9.33-12.95-17.13-19.71-25.42-3.62-4.16-5.7-6.24-7.78-11.41-2.08-4.68-2.08-11.43-4.66-15.59-2.6 16.61 6.22 34.78 16.07 48.29 10.89 14.53 24.39 26.46 26.96 45.15 2.6 17.65-7.78 33.22-16.59 47.75-7.78 12.45-20.75 25.95-34.22 32.18-16.09 7.26-35.28 7.78-51.35 3.12-8.29-2.6-15.57-4.68-22.83-8.83-7.26-4.66-13.99-8.81-21.79-12.45-4.66-2.08-10.35-4.68-13.99-8.81z" fill="#995854" fill-rule="evenodd"/><path d="M140.9 64.64c-9.87 5.7-21.81 23.87-30.64 31.64-8.29 6.76-15.05 13.49-21.29 22.33-11.93 16.09-26.46 34.26-35.3 52.93-11.93 24.41-23.89 55.01-21.29 83.57 1.04 11.93 5.72 23.86 10.39 35.28 3.12 8.84 5.7 18.69 10.89 26.46 6.24 9.35 19.21 18.17 27 26.48 7.78 8.29 23.37 10.89 32.7 16.59 20.77 13.49 60.74 4.16 72.68-15.05 10.91-18.15 1.04-47.21-9.85-61.74-14.03-18.69-38.94-21.81-43.09-45.67-4.68-28.02-4.68-77.33 17.65-94.46 9.85-7.78 29.06-3.64 39.98-10.37 8.81-5.72 20.77-19.21 22.85-29.58 3.62-16.61-5.72-36.86-17.65-44.11-5.72-3.64-19.21-7.79-25.96-6.24-5.72 1.04-20.77 4.16-24.41 8.84z" fill="#b37a73" fill-rule="evenodd"/><path d="M198.58 89.61c-0.52-1.04-1.04-2.08-2.08-3.12 2.08-2.08-1.56-2.08-1.04-4.68 0 0.52-0.520.52-1.040.52-4.14-1.56 1.56-7.78-3.64-6.220.52-0.52-1.02-3.12-2.06-4.16-0.52-1.56-2.08-3.12-3.64-2.08 1.04 5.72-2.080.52-4.16 2.08 0-0.52-1.04-1.04-1.04-1.56-1.54 0-2.58-0.52-3.62-1.04 0 0.52-0.52 1.04-0.52 1.04-1.040.52-2.6 0-3.12-1.04-1.560.52-7.78-3.12-7.780.52-2.6 1.04-5.2 2.6-7.78 3.12-1.560.52-3.12 0-4.68 0-1.56 0-2.6 1.04-4.16 1.56-1.54 1.04-2.06 1.04-3.62 1.04-0.520.52-1.56 0-2.60.52-1.040.52 0 0.52-1.04 1.56-1.56 1.56-5.18 2.08-6.74 3.62 2.58 1.56 0 2.08-1.04 2.6-0.520.52-3.12 0-1.56 2.08-2.6 1.56-1.56 2.6-2.6 4.68 0 0-1.04 2.08-1.56 2.08 0 0 0.520.520.52 1.04-0.520.52-1.560.52-2.08 1.02-2.58 2.6-3.62 6.24-6.22 8.83-1.040.52-1.560.52-2.08 1.04-1.04 1.04-1.04 1.56-2.08 2.08-0.520.52-1.540.52-2.58 1.56-0.52 1.02-0.52 2.06-1.04 2.58-1.56 1.56-4.16 1.04-6.24 3.12-1.04 1.56-1.04 3.64-1.56 4.68-1.02 1.56-3.1 1.56-4.14 3.12-1.04 1.04-1.56 2.06-2.6 3.1-1.04 1.04-1.56 1.04-2.08 2.6v-0.52c-2.08 2.08-3.1 4.68-5.7 6.24-1.040.52-2.080.52-3.12 1.56-1.04 1.04-0.52 2.58-1.56 3.62-1.040.52-2.6 0-3.1 1.04-1.56 1.04-1.04 2.08-1.56 3.64-0.52 2.08 0 1.56-1.56 3.12-0.52 1.04-2.08 1.04-3.12 2.6-2.6 3.62-3.64 9.33-6.22 13.49-1.04 2.6-3.64 3.62-4.68 5.7-0.520.52-0.52 3.12-1.04 3.64 0 0.52-1.040.52-1.04 1.04 0 1.040.52 1.560.52 2.6 0 4.16-2.6 8.29-5.18 11.93 1.56 2.6-1.56 3.12-2.08 5.2-1.04 3.1 1.56 3.62 0 6.22-1.56 2.6-4.16 3.64-4.16 6.24-0.52 2.6 1.04 4.140.52 6.74-0.52 1.04-2.08 2.08-2.08 3.64 0 1.56 1.04 1.56 1.04 2.60.52 3.12 0 3.64-1.04 6.74-0.52 2.08-0.52 3.64 1.04 5.72 1.04 1.04 3.12 1.56 4.68 2.08v1.04c0 1.56-1.56 1.56-2.08 3.64-1.04 2.060.52 2.580.52 4.660.52 2.08-1.56 3.12-1.56 5.20.52 1.56 2.08 2.08 2.08 4.66 0 3.12-3.12 5.72-1.04 8.83 1.04 2.6 5.72 5.2 3.12 7.78 3.12 4.68 7.78 7.28 5.18 14.01 1.04 0 1.56 1.04 2.08 1.56-0.52 2.08-1.04 2.6-0.52 4.68 0 0.52 1.04 1.04 1.56 2.08 0 0.52-0.52 2.08-0.52 2.6 0 0.52 3.12 6.74 3.64 7.26 1.04 1.04 3.1-0.52 4.140.52 1.56 1.04 1.04 2.6 1.56 4.680.52 2.08 1.04 2.6 1.56 3.62 1.04 2.08 2.08 1.56 2.08 4.16 3.12 0 5.18 4.68 8.29 6.24 2.08 1.04 3.12 1.04 4.16 3.620.52 2.6-1.04 2.6 1.56 4.16 2.58 2.08 7.25 3.64 5.18 8.31-1.04 1.54-4.14 1.54-0.52 3.62 1.56 1.04 4.16-1.04 5.2 1.56 1.56-0.52 4.66-0.52 3.62 2.08 1.56 1.04 5.72-1.04 8.31-0.52 1.020.52 1.02 0 2.060.520.520.52 0 2.080.52 2.6 1.560.52 3.64-1.04 5.2-0.52 1.04 3.64 3.64 2.08 6.22 3.12 1.56 1.04 1.56 2.6 3.12 3.12 1.56 0 3.12-0.52 4.68-1.04 2.58-0.52 5.7-0.52 8.29 0 3.620.52 3.12 1.54 6.74-1.56 2.6-2.08 3.64-1.04 6.24-2.08 1.54-0.52 4.14-3.12 5.18-5.2 1.56 0 2.6 1.04 3.64-2.08 0-0.52-0.52-1.56 0-2.58 0-0.52 1.04-0.52 1.56-1.04 0-1.04 0-3.120.52-4.16 1.04-1.56 2.06-0.52 3.1-1.56 1.56-1.56 0-1.04 0-3.12 0-2.08 1.04-5.7 4.16-4.66-1.04-1.56-2.6-5.2-3.12-6.76-1.04-3.120.52-3.64 1.04-6.24 0-3.62-2.08-2.58-4.14-4.66-0.52-1.040.5-1.56-0.52-3.12-1.04-0.52-2.6 0-3.12-1.04 3.64-4.16-5.2-3.64-6.76-4.16-0.5 0-1.02-0.52-1.54-0.52-0.52-1.04-1.04-1.54-2.08-2.58-1.04-1.04-3.12 0-3.12-2.6-3.12 0-8.81-4.68-8.81 0-3.64-0.52-7.78-1.04-11.41-2.08-1.04-0.52-2.6-1.04-3.64-1.56 1.04-3.12-4.14-4.68-3.62-1.04-2.080.52-4.16 0-6.24-0.520.52-1.56 1.04-3.12-0.52-4.68-1.04 1.04-3.1 1.04-4.66-0.52 3.1-2.580.52-5.18-3.12-3.62 1.04 1.56 1.04 4.14-1.04 4.14h-0.52c-0.52-0.52-1.56-1.54-2.08-2.06-0.52-0.52-0.52-1.04-1.04-2.08-1.04-1.56-3.1-2.6-4.14-4.16-1.04-2.080.52-4.16-2.6-4.160.52-2.58-1.56-2.08-1.56-3.1-0.52-1.56 0-2.6 0-4.16-2.08 0-3.12-1.56-3.12-3.64 4.16 0 2.6-4.68 2.08-7.25-0.52 0-0.52 0-1.040.52-0.52-0.52 0-1.04 0-1.04-0.52 0-1.04 0-1.54-0.52 1.02-2.6-0.52-3.12-0.52-4.68-0.52-2.080.52-3.120.52-5.2 0-2.58-0.52-2.580.5-4.660.52-1.56 2.08-3.120.52-4.68-2.06 2.08-4.140.52-4.66-2.08 0-1.56 1.56-3.64 2.08-5.70.52-1.56 1.04-4.16 1.04-6.24-0.52-0.52-1.56-1.04-2.08-2.08 0-1.04 1.04-1.56 1.04-2.6-0.52-2.08-2.08-3.62-0.52-5.7 1.04-1.56 4.14-0.52 4.66-4.160.52-2.6-1.56-2.08 0-4.68 1.04-2.58 3.12-2.08 1.56-4.66-1.56-2.6-4.14-2.6-2.6-6.240.52-0.52 1.56-0.52 1.56-1.04l0.52-1.56c0-0.52 1.04-2.08 1.56-2.6 1.04-2.58 1.04-4.66 2.6-6.74 1.04-1.04 2.6-1.04 3.1-2.08 1.04-1.56 0-2.60.52-3.640.52-2.08 2.08-3.1 2.6-5.70.52-1.56 0-1.56 1.04-3.120.52-1.56 2.08-1.04 2.6-3.120.52-1.04-0.52-2.6-0.52-3.640.52-0.52 1.04-1.02 1.04-1.54 1.04-0.52 2.08-1.04 2.6-1.56 1.54-1.56 1.54-3.12 1.54-4.68 1.04-1.04 1.56-2.08 2.08-3.64h0.52c0 1.040.52 1.56 1.56 1.56 2.08 0 0.52-1.56 1.04-2.08 0-1.04 2.08-4.14 2.6-1.04 1.56-1.04 4.14 1.04 4.14-2.08 0-2.06-2.58-2.060.52-4.140.52-0.52 1.04-0.52 1.56-0.520.520.52 1.040.52 1.04 1.04 2.08-1.04 1.04-2.6 2.08-3.64 1.04-1.04 2.08-0.52 3.12-1.56 2.06-1.56 1.02-4.68 4.66-4.68 0 2.6 2.08 1.04 3.12 0 1.04-1.54 0-2.58 2.6-3.1l1.04 1.04c1.02 0 2.06-1.04 3.1-1.04 1.560.52 2.08 1.56 3.12 2.08v1.54c0.520.52 1.560.52 2.60.52 0-1.040.52-1.560.52-2.06 1.56-0.52 3.1 1.02 3.1 2.58 1.56 0 3.12 0 4.16 1.04 1.04-1.04 1.04-2.6 2.08-3.12 1.04-0.5 2.6 0 3.620.52 0 0.520.52 1.040.52 1.04 1.560.52 2.60.52 4.16 1.04 0-1.56 1.04-2.6 2.6-3.62h2.6c1.02-0.52 1.54-1.56 2.06-1.56 2.6-0.52 2.6 1.04 4.68-0.52 1.04-1.04 1.56-2.6 2.6-3.64 1.04-1.04 2.58-0.52 3.62-1.56 1.56-1.040.52-2.6 2.08-3.64 1.04-1.04 1.56 0 2.08-0.52 1.04 0 1.04-0.52 1.56-1.04v-1.04c0.52 0 1.04 0 1.56-0.50.52-0.52 1.04-0.52 1.56-1.56-2.08-2.08-1.56-7.28-1.56-10.39 0-2.580.52-2.58 1.56-5.18 1.02-2.08-1.56-2.6-2.08-1.56z" fill="#b67e78" fill-rule="evenodd"/><path d="M189.84 89.51c-1.54-2.08-4.66-1.04-5.7-3.12 3.12-1.56-1.04-3.64-3.12-3.64-1.04 0-1.560.52-2.6 0-0.52-0.52 0-1.56-0.52-1.56-0.52-0.52-1.56-0.52-2.6-0.52-0.52-0.52-1.040.52-1.56-0.52-0.52-0.52 1.04-1.56 1.04-1.56-0.52-1.56-1.04-1.04-2.6-1.04-1.040.52-2.6 1.56-3.64 1.56-1.040.52-2.6-0.52-3.64-0.52-1.56 1.56-5.2 3.12-4.68-0.52h-1.56l0.52-0.52c-4.16-0.52-1.04 2.6-2.6 4.16-2.08 1.56-5.2-0.52-6.760.52l0.52-0.52c-1.04-0.52-2.08-0.52-3.12 0 1.56 2.6-2.08 4.16-4.16 4.16 0-0.52-0.52-1.04-0.52-1.56-2.6-0.52-2.08 3.12-3.12 4.68-0.52 0 0-0.52-0.52-0.52-2.60.52-1.04 4.68-3.64 5.72 0 0 0-0.52-0.52-0.52-3.12 1.02-2.08 3.1-3.12 5.7-3.12-2.08-2.08 2.08-3.64 3.64-1.56 1.56-3.62 2.6-5.18 4.16-1.56 2.08-7.8 9.85-9.87 7.26-0.520.52-0.52 1.56-0.52 2.6-0.52 0-0.52 0-0.52-0.52-0.52 2.08-0.52 4.16-2.6 5.2-1.040.52-3.64 0-4.68 1.56-1.56 1.04-0.52 3.64-1.56 5.2-1.04 1.04-2.6 1.56-2.08 3.62h-1.56c-0.52 2.6-1.04 3.12-2.08 5.2-0.52 1.04 0 1.56-1.56 2.6-0.52 0-1.560.52-2.080.52-2.6 1.04-2.6 2.08-3.64 3.64-0.52 2.08-1.56 2.6-1.56 4.66-1.04 0-1.040.52-1.56 1.04 1.56 1.56-1.56 2.6-2.60.52-2.08 1.560.52 2.60.52 4.16 0 2.08-1.560.52-2.6 2.080.520.520.52 1.560.52 2.08-1.040.52 0 2.08-1.04 2.6-1.560.52-1.56-1.56-2.6-1.04-2.08 1.56 1.04 5.72-1.04 5.2-1.04 2.58-0.52 4.66-0.52 6.740.520.52 1.04 1.04 1.04 2.6l-2.6 3.12c-1.04 0-3.640.52-4.16 1.56-1.04 1.56 1.04 2.08 1.04 3.64 0 1.02-1.56 1.54-2.08 2.58-0.52 1.56 1.04 2.08 0 3.64-0.52 1.56-2.08 1.04-2.6 2.6-0.520.52 0 3.12-0.52 4.16 0 0.52-1.04 1.56-1.56 2.6 0 0.52 1.04 2.6 1.04 4.14 0 1.56-0.52 5.72-1.56 7.28-0.52 1.56-2.08 2.08-2.6 3.12-0.52 2.08 0 1.560.52 3.120.52 3.12 1.04 5.7 1.04 8.29 0 3.12-1.56 4.68-1.56 7.28 0-0.520.52 3.120.52 3.12s1.04 2.6 1.04 3.1c0 1.04-1.04 2.08-1.56 3.12 0 2.08 1.56 2.6 1.56 4.16 0 1.04-1.04 1.56-1.56 3.12 0 2.080.52 1.04 1.04 2.6 1.56 2.6 2.08 4.66 2.08 7.260.52 3.12 2.08 5.2 2.6 8.310.52 2.60.52 4.68 1.56 6.760.52 1.02 1.56 2.06 1.56 3.1 0 1.04-1.04 1.56-0.52 2.08 0 1.04 1.04 1.04 1.04 1.56l1.56 7.79c1.04 3.12 3.12 4.14 3.12 7.25 0 1.04-1.04 4.16 0 4.68 1.56 1.04 2.6-1.04 3.12-2.08 1.560.52 1.56 2.080.52 3.12h2.08c0 1.04-0.52 3.12 0 3.640.52 1.04 2.080.52 2.6 1.560.520.52 0 2.60.52 3.12 1.56 1.02 2.08 0 3.640.5 3.64 1.04 1.04 2.08 3.64 4.16 1.04 1.04 2.6 0 3.64 1.04 1.56 1.040.52 2.08 1.56 3.12 1.56 1.56 3.640.52 5.72 2.08 1.04 1.040.52 2.6 1.56 3.12 1.04 1.04 2.60.52 3.64 1.04 2.080.52 2.6 2.6 5.2 3.1 2.60.52 4.16-1.02 6.75-1.54-0.52-1.04-1.56-2.08-2.6-2.6-0.520.52-2.08 1.04-2.6 1.56-0.52-2.6-3.12-0.52-4.16-2.6-1.56-3.12 1.04-2.6 2.08-5.2-0.52 0-1.04-1.04-2.08-1.04 1.56-3.12-12.47-1.56-7.79-7.78-4.68 1.04-2.08-6.24-3.12-7.79-1.04-1.56-8.840.52-7.28-4.16-3.64-0.52 2.08-6.22-3.12-6.220.52-0.52 1.04-1.56 1.56-2.08-2.6 0-9.88-7.8-4.68-8.84 0-2.08-2.6-2.6-3.12-4.68-0.52-1.54 1.56-3.1-1.56-3.1 0-2.6 2.6-2.08 3.12-3.64 0-0.52-2.08-3.64-2.6-4.16 0 0 1.04-1.560.52-2.08 0-0.52-1.56-1.04-2.08-1.56-1.04-1.56-1.04-3.12-3.12-4.66 1.56-2.6-2.08-3.64-1.56-6.76h1.56c0-2.6-0.52-4.16-2.6-6.24 1.56-0.52 2.6-1.04 3.64-1.56-0.52-1.04-1.56-2.08-2.08-3.1 2.08-1.04 1.04-4.16 1.56-6.24 0-1.04 1.04-1.560.52-3.12 0-1.56-1.56-2.08-2.08-3.64-0.52-3.12 1.56-5.18 1.04-7.78 0-2.08-3.12-4.68 1.56-5.20.52-4.16-2.08-6.76-0.52-10.89 2.6-0.52 1.04-2.6 0-4.16 3.12-1.56 1.04-3.64 3.12-4.680.520.52 2.080.52 2.6-0.520.52-1.56-2.08-1.56-2.08-2.6 0-2.08 2.08-4.16 2.6-5.70.52-1.04 1.04-2.08 1.04-3.12 0-1.04-1.04-2.6-1.04-3.640.52-2.6 3.12-2.08 3.12-4.68 0-3.12-2.6-2.6 0-5.7v-0.52c1.04-1.56 3.12-3.12 1.56-4.160.52-1.04 2.08-0.52 2.6-2.080.52-1.04-0.52-2.08 0-3.64 1.04-1.04 2.08-1.04 2.6-1.56 2.6-2.08 5.2-2.08 5.72-5.20.52-1.020.52-2.06 1.04-3.620.52-1.04 1.56-1.04 1.04-2.6 1.04 0 2.08-0.52 2.6-1.56-2.6-1.04-1.04-3.12 1.04-3.12-0.52 1.56 1.56 3.12 2.6 1.56 1.04-1.56-0.52-3.12 0-4.680.52-0.52 1.56-1.04 1.56-1.560.52-1.040.52-1.56 1.04-2.60.52-0.5 1.56-0.5 2.08-1.540.52-0.52 0-1.04 1.04-2.08 1.56-1.04 3.64 0 5.2-2.08 1.04-0.52 1.04-1.56 1.56-2.60.52-0.52 1.56-0.52 1.56-1.04 1.54-2.08 1.54-3.64 4.14-4.68 2.6-1.56 2.08-1.04 2.6-4.16 3.12 1.04 2.08-1.02 2.6-3.10.52-2.08 1.56-3.12 4.16-3.64l-1.56-0.52c1.04-0.52 1.56-0.52 2.08-1.04-0.520.52-0.52 1.56-0.52 2.08l0.520.52c-0.52 0-0.520.52 0 1.04 1.56-0.52 1.04-1.56 2.08-2.6 1.04-0.52 1.56-1.04 3.12-1.56v0.52c0.520.52 1.56 0 2.6-0.52-0.52 2.6 2.08 1.04 2.6-0.52 2.60.52 3.64-1.04 4.68-3.12 1.56-2.6 1.56-2.08 3.12 0 0.52 0 1.04-1.56 1.04-2.08 1.56-0.52 2.08 0 1.56 1.56 2.08-2.6 2.08 2.08 3.64 2.6 2.080.52 5.2-1.56 3.64-3.64 1.56-0.52 3.12-0.52 3.64 1.04 1.04 0 2.08-0.52 3.12 0-0.52 1.56 6.76 2.08 5.2-1.56 2.08-1.04 3.12 2.08 5.2 0 2.6 2.6 6.22-2.08 3.64-4.14 1.56-1.04 4.14-2.08 3.1-4.16z" fill="#ba8981" fill-rule="evenodd"/><path d="M208.93 201.2c-4.12 2.6-5.66 9.85-6.18 14.53 0 2.06-0.52 17.61 4.12 14.510.52 0 0.52-14.51 1.04-16.59 1.02-3.64 6.16-14.01 3.08-14.53z" fill="#b37a73" fill-rule="evenodd"/><path d="M153.47 93.66c0 1.56 3.64-2.08 5.720.520.52-2.6 2.6-1.56 4.16-1.560.52 0 1.56-1.04 2.6-1.040.52 0 1.56 1.04 2.6 1.04 2.6 0 6.76-2.08 10.39 0 1.56-1.04 1.56-3.120.52-4.68-1.56 1.56-2.08 0-3.64-0.52-0.52-0.52-1.04-1.04-1.56-1.04-1.56-0.52-1.56 1.04-3.12 1.04s-2.08-1.04-3.64-1.56c-2.08-0.52-3.120.52-5.2 1.04l-4.68 3.12c-1.56 1.04-2.08 3.12-3.64 3.64-1.56 1.04-3.12-0.52-4.680.52-1.56 1.04-2.08 2.6-3.12 3.64 1.56-0.52 3.12-1.56 4.68-2.08z" fill="#c59b93" fill-rule="evenodd"/><path d="M155.97 92.22c5.22-3.64 19.31-6.24 24.53-1.04-5.22-2.08-23.49-0.52-26.62 4.16zM70.4 230.74c-2.64 7.26-1.06 18.670.52 25.94 1.58 8.84 4.2 18.17 7.88 26.46-2.1-5.7-2.1-12.45-3.14-18.15-1.06-5.2-3.16-10.91-4.22-16.09-1.56-10.39 1.58-21.810.54-32.2-3.68 2.6-3.16 8.31-3.16 12.47z" fill="#c59b93" fill-rule="evenodd"/><path d="M72.54 211.51c-0.5 1.56 1.04 1.56 1.04 3.12 0 1.04-0.52 2.6-0.52 3.64 0 0.520.52 2.080.52 3.12s-0.52 2.08-0.52 3.64c0 1.040.52 2.080.52 3.64 0 1.04-1.04 2.6-0.52 4.16 0 1.04 1.56 1.04 1.56 2.060.52 1.56-0.52 2.6-0.52 3.64 0 1.56 1.04 2.080.52 3.12 0 1.56-1.04 2.6-1.04 3.64 0 1.04 1.04 2.08 1.56 3.120.52 1.56 0 2.6 0 4.16 0 1.04 1.04 2.08 1.04 3.12 0 1.54-0.52 2.58-0.52 4.14 0 2.08 1.56 5.2 2.6 6.750.52 1.56 1.54 3.12 1.54 4.680.52 2.08-0.52 3.64 0 5.72 0 2.08 2.08 3.12 2.6 5.180.52 1.560.52 3.12 1.04 4.68 1.04 3.64 1.04 6.76 3.62 9.36 2.08 2.08 6.22 4.16 6.22 7.78-2.06-2.06-4.14-2.06-6.22-3.62-2.06-2.08-1.02-4.68-3.62-5.72-3.12-1.56-4.66-1.56-5.18-5.2-1.04-3.12-1.04-5.72-2.6-8.31-1.04-2.06 0-5.18-0.52-7.26-0.52-2.08-2.6-3.64-2.6-5.72 0-1.560.52-3.640.52-5.2-0.52-1.56-2.58-3.12-2.58-4.16-0.52-1.040.52-3.62 0-4.66 0-1.04-2.08-2.08-2.6-3.12-1.04-2.6-2.08-5.2-1.56-8.310.52-1.56 1.56-2.6 1.04-4.68-0.52-2.08-2.08-1.56-1.56-3.64 1.04-2.06 2.08-0.5 1.56-3.62 0-2.08-1.56-2.08-0.52-4.16 0-1.04 1.56-1.04 1.56-1.56 0-1.04-1.04-1.56-0.52-2.6 0-2.080.52-2.6 1.56-4.16zm-0.5-6.18c-0.52 2.06-1.56 3.6 0 5.14 2.6-2.04 2.6-5.14 2.6-7.2z" fill="#c59b93" fill-rule="evenodd"/><path d="M81.27 289.82c-1.04 1.60.52 3.72 3.12 3.72 0-2.12-0.52-3.72-2.08-4.8z" fill="#c59b93" fill-rule="evenodd"/><path d="M166.34 87.95v1.56c1.08 0 3.2 0 4.28-0.520.52-1.04 0-1.04 0-1.56zm7.91 1.56c0.48 1.040.960.52 1.44 0z" fill="#fff" fill-rule="evenodd"/><path d="M261.38 100.94c1.54 13.49 1.04 26.98-2.6 39.46-3.62 11.41-12.43 23.86-21.25 32.68-7.26 6.76-14.51 11.41-24.86 15.57-10.37 3.64-15.03 7.78-19.71 19.21 0 1.020.52-0.52 0 0.52 3.64-14.53 6.24-19.73 18.15-25.96 9.33-5.18 20.73-12.45 27.98-20.23 5.7-5.72 9.83-11.93 12.95-19.21 3.12-6.22 6.22-10.37 8.29-19.71zm-66.98 132.4c2.62 10.91 11.97 18.17 18.21 28.04 5.22 8.29 12.49 17.65 16.65 26.98 4.16 10.37 8.31 17.65 9.35 28.54 1.04 11.41-4.16 24.93-8.83 35.3-1.04 2.08-2.08 4.68-3.64 6.74-0.52-6.74 3.12-15.57 4.68-22.31 1.56-6.24 2.6-14.53 1.56-21.29-1.56-11.41-8.84-21.79-13.51-32.7-3.66-8.29-8.34-16.61-12.49-24.91-3.64-6.76-11.97-15.57-10.39-23.89z" fill="#8a4646" fill-rule="evenodd"/><path d="M213.67 255.06c0.52 1.04 3.64 5.7 5.2 5.18 2.08-0.5 2.08-5.7 2.08-7.25 1.56-5.2 1.56-10.39 1.04-16.09-1.56-10.91-1.56-21.81 2.08-32.2 1.56-5.7 5.2-12.45 4.16-18.69-1.04 3.12-2.6 5.2-3.64 8.31-1.04 3.12-2.6 6.76-4.16 9.36-3.12 6.22-2.08 9.85-1.56 16.61 1.04 8.81 3.64 26.46-4.16 32.7 0 0.52-0.520.52-1.04 1.04z" fill="#995854" fill-rule="evenodd"/><path d="M209.99 248.89c3.12 3.12 4.66 7.77 7.75 10.35 4.14-2.58 5.68-16.55 4.14-20.71-1.56 2.6-0.52 8.29-2.58 11.39-2.08 3.12-6.72 2.6-7.75-0.52zm6.8-60.7c4.12-1.02 8.23-3.1 11.83-3.62-1.02 5.18-1.54 13.95-5.14 18.07 1.04-2.58 2.06-7.22 1.54-9.79-1.02-2.58-5.14-5.18-8.23-3.62z" fill="#8f4e4c" fill-rule="evenodd"/><path d="M209.51 192.24c-5.2 1.06-10.41 6.78-12.49 11.45-3.66 7.28-1.04 11.43 2.6 17.69 1.56 2.6 6.26 16.11 9.37 9.35 1.04-2.6-0.52-7.28-1.04-9.87-0.52-3.12-1.04-6.78 0-9.89 1.04-3.12 4.16-6.24 4.16-8.840.52-4.16-4.16-4.16-2.6-9.37z" fill="#b37a73" fill-rule="evenodd"/><path d="M206.9 198.6c-8.31 1.54-9.38 23.33-2.6 26.42 2.6-7.78-1.04-15.03 4.18-21.77 1.04-1.56 7.28-5.18 7.28-6.74-0.52-4.68-7.790.52-8.85 1.56z" fill="#ba8981" fill-rule="evenodd"/><path d="M206.94 199.12c-7.74 3.62-5.66 11.37-5.66 18.07 1.02-2.58 1.02-7.21 2.06-10.31 1.02-2.06 6.18-7.24 5.68-7.76zm4.62-2.66c-0.520.5-1.04 0-1.040.98 1.04-0.48 1.04-0.98 1.56-1.48-1.04-1-2.08 0-2.08 1.48zm-10.35 23.77c1.02 0 1.52-0.5 1.52-1.5 0-0.5-0.5-0.5-0.5-0.5-1.020.5 0 0.5 0 1z" fill="#c59b93" fill-rule="evenodd"/><path d="M203.78 203.7c-1.04 1.04-2.1 3.14-2.1 4.7 2.1-1.56 2.1-4.7 4.72-6.26 0 0-1.04-0.54-0.52-0.54zm-2.58 9.33c1.02 0 1.52 0 1.52-0.52l-0.5-0.52zm8.79-15.03s0.540.48 1.6-0.48c0 0-1.06-0.48-1.06 0z" fill="#fff" fill-rule="evenodd"/><path d="M234.96 186.53c-6.74 7.79-4.68 19.21-7.78 28.02-1.56 5.72-0.52 9.870.52 15.57 1.04 5.2 1.04 11.410.52 17.13 0 3.12-0.52 6.24-1.56 9.33-1.04 2.6-4.68 5.2-3.64 8.31 4.16-4.68 8.29-6.75 9.33-13.49 0-4.160.52-5.72 4.66-8.31 5.72-4.14 12.97 18.69 14.51 23.89 4.16 14.01 6.74 21.27 8.29 35.8 1.04 9.88 4.68 18.69 3.12 28.54-1.04 7.28-1.04 15.57-2.6 25.94 2.6-8.29 4.16-19.19 4.16-28.020.5-6.74 0-14.01-0.52-20.75-0.52-6.24-0.52-12.97-0.52-19.21 0-7.78-1.04-14.53-3.12-21.79-3.62-12.97-7.78-24.93-11.91-37.9-4.16-12.45-4.68-24.39-7.25-37.36-0.52-2.6-3.12-6.75-5.7-8.31z" fill="#d29d65" fill-rule="evenodd"/><path d="M262.96 281.47c2.6 15.57 5.72 46.71 1.56 67.46-4.18 20.77-8.34 38.4-8.34 51.89 0 14.01 4.16 26.46 5.22 36.32-4.18-15.03-8.88-28-8.34-37.36 0-9.34 6.24-39.44 9.37-59.14zm-34.34-7.68c3.14 7.79 10.45 21.27 12.01 26.96 1.04 5.7 11.99 11.93 11.99 36.82 0 24.86-2.6 42.49-2.6 48.71 3.64-16.57 9.38-54.95 5.74-72.56-3.66-17.11-8.88-11.93-12.53-21.79-3.64-9.33-11.99-13.47-14.61-18.15z" fill="#d29d65" fill-rule="evenodd"/><path d="M226.66 224.98c-0.52-4.16-0.52-8.310.52-12.47 1.56-4.16 1.56-8.31 2.6-12.47 1.04-4.16 1.56-8.31 3.1-12.47 2.6-5.72 5.7-0.52 6.74 3.12 2.08 8.31 4.16 15.59 5.18 23.91 1.04 8.31 4.68 18.69 8.29 26.48 2.6 5.2 2.6 9.87 4.14 15.59 2.6 7.8 4.68 15.59 5.7 23.37-2.58-4.66-2.58-9.85-4.14-14.53-1.04-5.2-3.62-9.36-5.7-14.55-5.7-11.95-7.26-25.45-11.91-37.92-1.56-3.12-5.7-17.15-9.31-8.84-0.52 2.6-0.52 5.2-1.04 7.8-1.04 3.12-3.12 5.72-3.12 8.83z" fill="#bd8851" fill-rule="evenodd"/><path d="M256.29 401.88c0-10.35 7.24-36.8 10.33-72.06 3.1-24.36-5.68-67.4-11.37-79.85l-2.08 1.04c5.18 15.05 15.01 55.49 11.39 79.85-3.62 24.89-9.31 61.7-8.28 70z" fill="#bd8851" fill-rule="evenodd"/><path d="M147.23 143.09c2.080.52 5.18-2.6 4.66 2.06 2.6-1.04 3.12-4.66 5.72-2.58 1.54-1.04 3.1-2.08 5.18-1.04 1.04-2.6 2.6-1.04 4.66-1.04 1.04-0.52 1.56-1.04 2.08-1.04 1.56 0 2.60.52 3.640.52 1.02-1.56 2.58-0.52 4.14-0.52 2.080.52 3.12-0.52 4.66-1.04 1.04-0.52 1.56-1.04 2.6-0.520.520.520.52 2.08 1.04 2.08 1.56 1.04 3.62-0.52 2.6-2.6 2.06-1.04 3.62-0.52 5.18-1.56 1.04-0.520.52-1.56 1.56-2.60.52-0.52 1.54-0.52 2.06-0.52 1.04-1.56 2.08-2.6 3.12-3.640.52-0.52 1.56-0.52 2.08-1.560.52-0.52-1.04-0.52-0.52-1.56 1.04-2.08 3.62 0 4.66-0.52 3.12-0.52 1.04-1.560.52-3.12 0-1.56 3.12-6.24 4.66-7.28 1.56-1.56 2.08 0 2.08-3.120.52-1.560.52-4.16 2.6-3.64-2.08-1.040.52-3.64 1.04-5.20.52-0.52 1.02-2.080.52-3.12 0-1.04-1.56-1.04-1.56-2.08-0.52-2.08 2.06-3.62 2.06-5.7 0-1.56-1.02-1.56-1.54-2.6v-3.12c0-2.08-1.04-3.64-1.56-6.24 0-2.08 1.56-3.64-0.52-5.72-1.56-2.08-3.12-1.56-4.14-4.68-0.52-2.6-0.52-2.6-2.6-4.16-0.52-2.08-2.6-2.08-3.64-3.64-0.52-1.040.52-1.56 0-2.6-0.52-1.56-1.04-1.04-2.06-1.56-3.12-2.08-2.6-5.2-6.74-4.68-4.16 0-7.26-2.08-10.89-4.68-1.04-0.52-1.56-1.56-3.12-1.56-1.54 0-0.50.52-1.54 1.04-1.040.52-0.52 1.04-2.08 1.04-0.520.52-1.56 0-2.6 0v-0.52c-1.56-0.52-3.62 0-3.1 1.56-1.04 1.04-4.68 1.56-5.72 0 0.52-0.52 0-0.520.52-1.04-1.02 0-2.060.52-2.58 1.040.520.520.52 1.04 1.04 1.04-1.04 1.56-1.56 0-2.6 0-1.040.52-1.04 1.04-2.08 1.04-2.060.52-3.620.52-5.7 1.04-1.560.52-5.180.52-6.74 2.08-1.04 1.04-0.52 1.04-1.04 2.08v1.56c0 0.52-1.040.52-1.04 1.04-1.56 4.16 3.12 1.56 5.7 1.04 6.76-1.56 14.01-2.6 20.75-2.08 6.740.52 14.510.52 20.73 3.64 4.14 1.56 7.25 6.76 9.33 10.39 5.7 8.83 7.26 18.71 4.66 28.56-1.56 7.28-4.16 16.63-10.37 20.79-8.79 5.2-19.17 8.31-29.02 10.91-7.78 1.56-17.61 3.12-23.84 8.84zm-2.08-81.05c-2.08 1.04-4.16-0.52-6.76 0-2.08 1.04-1.56 3.12-3.64 4.16-1.040.52-2.080.52-2.6 1.04-1.04 1.04-1.04 2.08-1.56 2.6-1.56 2.6-3.12 1.56-5.2 1.04-2.08 1.04-0.52 2.060.52 2.58-0.520.52-1.56 1.04-2.08 1.56 0 0.520.520.520.52 1.04-0.52 1.04-1.56 1.04-2.08 1.04 0 2.6-1.04 2.08-2.08 3.64-1.56 1.56-0.52 2.08-2.6 3.62-3.12 1.56-7.8 0-5.72 4.68-1.040.52-2.08 1.04-2.6 1.56 1.040.520.520.52 1.56 1.04-1.04 1.04-1.56 1.04-2.6 1.04 2.08 3.62-7.280.52-4.16 5.18-0.52 0-2.080.52-2.60.52-1.04 1.04 0 2.08 0 2.6-1.04 1.56-4.16 2.08-5.2 2.60.52 0 1.04 1.04 1.04 1.04-0.520.52-1.56 1.04-2.6 1.56-2.08 1.54-0.52 1.02-0.52 2.58-0.52 1.56 0 0.52-1.56 2.08-1.040.52-2.60.52-3.64 1.56-0.520.52-0.52 2.08-1.56 2.6-1.04 1.04-2.08 1.04-3.12 1.56-2.6 1.04-3.12 2.58-2.6 5.18-3.640.52-3.12 4.16-4.68 6.24-3.12-1.04-5.2 2.08-4.16 4.66-4.16 1.04-4.16 5.72-6.76 9.33 0 0.52-1.04 1.56-1.56 2.08 0 0.52-0.52 1.04-0.52 1.56 0 0.52 1.56 1.04 1.56 1.56-0.52 1.04-1.56 1.56-2.08 2.08-0.52 1.040.52 1.56-0.52 2.6-0.520.52-1.56 0-2.08 1.04-0.52 1.020.52 2.06 0 3.1-0.520.52-2.080.52-2.6 1.04-1.040.52-1.56 2.08-2.08 2.6-2.08 4.16-3.12 7.78-5.72 11.41-1.04 2.08-2.6 3.64-4.16 5.18-1.56 1.56-3.12 2.6-2.6 4.68-4.160.52-3.12 6.24-4.68 8.29-1.56 2.6-6.76 3.12-4.68 7.28-1.56 1.04-2.6 2.08-3.64 3.62-1.56 2.6 0 3.12 0 5.20.52 2.08-4.16 5.7-1.04 6.22-1.56 2.08-3.64 2.08-1.56 4.16-3.12-0.52-2.6 2.08-2.6 4.16 0 1.04 0 2.08-0.52 2.58 0 0.52-0.52 1.04-0.52 1.04 0 1.040.52 1.040.52 1.04s1.040.52 1.560.52c0 0.52-0.52 1.04-0.52 1.56s0.52 2.080.52 3.12c0.52 1.56-1.04 3.64-1.04 5.180.52 2.08 2.6 2.6 3.64 4.680.52 2.08 0 4.68 3.12 5.2 4.160.5 7.8-6.76 8.31-9.87 0-7.26-0.52-13.47 1.04-20.75 2.08-6.74 5.2-12.97 7.79-19.71 2.08-5.2 5.2-9.85 7.79-15.05 2.6-6.22 4.16-12.97 7.8-18.67 4.16-6.75 9.35-11.93 14.03-18.17 9.35-11.41 17.67-23.35 27.02-34.76 5.2-6.22 10.39-13.47 16.11-19.19 6.24-5.7 14.55-10.37 20.27-17.11z" fill="#b37a73" fill-rule="evenodd"/><path d="M29.9 237.9c0 0.52-2.08 3.64-2.08 5.2 0 1.04 1.04 1.04 1.04 2.080.52 1.56-0.52 2.6-0.52 3.64 0 1.56 2.08 2.6 1.56 4.68-0.52 2.08-2.6 3.64-2.6 5.72 0 2.08 2.08 3.64 2.08 5.20.52 1.04-0.52 2.08-0.52 3.120.52 1.56 1.04 1.04 2.08 2.6 1.56 2.6 3.64 6.24 2.6 9.36-0.52 1.56-4.16 6.24-0.52 5.72 1.04-0.520.52-3.12 2.08-2.08 1.56 1.04 0 2.6-0.52 3.640.520.52 1.56 1.04 1.56 2.08 0 0.52-1.04 1.04-1.04 1.56 0 0.52 1.040.52 1.04 1.02 0 0.52 1.040.52 1.04 1.040.520.52 0 1.04 0 1.560.52 1.560.52 2.080.52 3.64-0.52 1.04-2.08 1.56-1.04 2.6 1.04 1.56 1.56 0 2.6 0 1.04 0 1.04-2.08 2.08 0 0.5 1.04 0 2.08 0 3.12 3.1-0.52 1.54 3.12 1.02 4.68 2.60.520.52 3.64 1.56 4.68 1.56 2.08 3.64-0.52 4.68 2.60.52 1.04 0 2.08 0 2.60.52 1.56 1.04 1.04 1.04 2.080.52 1.04 1.04 1.04 1.04 2.080.52 1.04 0 1.040.52 2.08 1.56 3.12 7.26 3.12 8.29 5.72 1.56 2.6-1.56 3.12-1.56 4.68 0 2.6 3.12 1.56 4.160.52 2.08 1.04 2.08 2.6 2.6 4.680.52-0.52 1.04 0 1.56-0.52 1.04 4.68 9.33 0 11.41 3.64 1.04 1.560.52 3.62 2.6 4.14 2.080.52 6.22-0.52 6.22-2.58 0-2.08-5.18-6.76-6.22-8.31-4.68-6.24-7.79-13.51-11.93-19.75-6.24-8.83-12.45-17.15-17.13-27-5.72-13.51-9.85-28.06-12.97-42.62zM88.55 345.43c1.56 2.08 0 2.6 0 4.140.52 1.56 2.08 1.56 3.64 1.04 0 1.04 0 2.60.52 3.64 1.04-0.52 4.68-0.52 5.2 1.56 0 1.02-1.56 1.54-1.04 2.580.520.52 2.08 0 3.12 0 0-0.52 0-2.06 1.04-1.56 1.020.520.52 2.08 1.02 2.6-0.5-0.52 2.6 2.08 1.56 2.08 1.04 0 2.08-1.04 2.08-1.56 0 0 0-0.52-0.52-0.52 1.56-1.56 2.080.52 2.6 1.56 0 0.52-0.52 1.04 0 1.56 0 1.04 1.040.52 1.56 1.040.520.52 1.04 0 1.56 1.040.520.520.52 1.540.52 2.06 1.04 1.56 1.04 2.08 2.6 2.6 2.060.52 1.56-1.04 3.10.52 1.560.52 1.04 2.6 2.08 3.120.52 1.04 2.6 1.54 3.64 1.04 1.56-0.52 1.04-2.6 2.6-3.12 0 0.520.52 1.560.52 1.56 0 0.52 0 0 0.52 0 0 0.52 0 1.040.52 1.04 1.04 0 2.080.52 3.10.52-1.54-3.12 3.12-2.6 3.12-0.52 1.040.52 1.56 0 2.08-0.52-1.04-3.12 1.56-1.04 2.6 0 2.6-1.56 3.12-4.16 6.22-3.64 2.60.52 4.16 2.08 6.76 1.56 2.6-0.52 4.16-2.6 6.24-3.12 2.06 0 6.22 2.08 5.7-1.560.520.52 1.560.52 1.56 1.04 1.04-0.52 2.08-0.52 2.6-1.04 0 0 0.52 1.04 1.560.520.52 0-0.52-1.040.52-1.54 1.04-0.52 2.08 0 3.1-0.52 1.04-0.52 1.56-1.56 2.08-2.60.52-0.52 1.56-2.08 2.6-2.6 1.56-0.52 2.080.52 3.640.52 1.56 0 3.64-2.6 1.56-4.140.52-0.52 1.04-0.52 1.56-0.520.520.52 1.04 1.04 1.56 1.54-0.52-2.06 1.02-2.58 2.58-1.54-0.52-1.56 0-3.120.52-4.680.52-2.58 1.04-2.08 2.6-3.62 2.6-2.08 0-1.56 0-3.640.52-1.56 3.12-1.56 4.16-3.12-0.52 0-1.04-1.02-1.04-1.54 1.56-1.56 1.56-3.12 2.08-5.20.52-1.04 1.04-2.08 1.04-3.1 0-1.04-1.04-1.04-1.04-2.6 0-1.04 1.04-1.04 1.04-2.080.52-1.560.52-1.04 0-2.6 0-0.52-0.52-0.52-0.52-1.04 0-0.50.52-1.020.52-1.54 0-1.04 1.04-1.56 0-2.6 2.58-1.04 1.04-5.18-2.08-4.160.52-2.58-2.08-4.14-0.52-6.22-0.52 0-1.56-0.52-2.08-0.52 0-2.08-2.6-1.56-4.68-1.56-3.1 0-2.080.52-1.56 3.64 2.6 9.33-1.54 22.81-7.25 30.08-8.29 9.83-22.31 16.59-34.78 19.17-7.78 1.56-15.030.52-22.82-1.56-7.78-1.54-16.09-6.74-24.39-6.74z" fill="#b37a73" fill-rule="evenodd"/><path d="M160.7 141.51c-2.06-1.04-4.14 0-4.66 2.08-0.52 1.560.52 2.58-0.52 3.62-0.520.52-2.08 0-2.6 1.04-1.54 1.560.52 4.16-2.06 5.72-1.56 1.56-4.680.52-3.64 3.62-2.080.52-0.52 2.6-2.58 3.64-0.52 0-1.56-1.04-2.6 0-0.52 1.56 1.04 2.08 1.04 2.6-0.52 1.04-1.56 1.56-2.08 2.6 0 0.52 1.04 1.540.52 2.58 0 0.52-0.52 1.04-1.04 2.08 0 1.04 1.04 2.080.52 3.12 0 3.12-1.560.52-3.12 2.6-1.54 2.06 3.12 1.56 4.16 2.06 2.6 3.12-3.12 2.6-3.64 3.12-1.02 1.56 1.04 1.560.52 2.08-0.52 1.56-1.04 1.04-2.06 1.56-0.52 1.04-1.04 2.08-0.52 3.12-1.560.52-2.6 3.62-0.52 3.62-0.52 1.56-1.56 1.56-1.56 3.640.52 1.04 1.56 1.56 1.56 2.6-0.52 1.04-1.56 2.06-1.56 2.58-0.52 2.080.52 3.640.52 5.2 0 1.04-1.04 1.56-1.04 2.6 0 1.040.52 2.080.52 2.6-2.08 1.02-3.64 1.02-2.08 3.620.52 1.04 1.040.52 1.56 1.560.52 1.56-0.52 2.08 0 3.120.52 1.56 3.64 1.56 3.12 4.14 0 1.56-1.56 1.04-1.56 2.6 0 1.56 1.04 1.04 2.08 2.08 1.54 3.12-1.56 7.78-1.04 11.410.52 2.6 2.06 2.6 3.62 3.12 1.040.52 1.56 0 2.08 1.540.52 1.04-1.04 2.08-0.52 2.60.52 1.56 1.56 1.04 2.08 1.560.520.52 0 2.60.52 3.64 0 0.520.52 0 1.020.52v2.08c1.04 1.02 1.56 1.54 2.6 1.54 0-0.520.52-1.540.52-2.06 1.04 0 1.56 1.040.52 2.06 1.04 2.08 1.56 0 2.60.520.52 0 2.580.52 1.04 1.56-1.04 3.12 6.22 5.2 7.75 7.28 1.56 1.54 1.56 3.62 4.16 4.14 2.08 0 4.14-2.08 5.7 0 0.52 1.04-0.52 2.08 0 3.120.52 1.04 1.04 0 2.08 1.04 1.04 1.56 1.04 3.12 3.1 4.14 2.08 1.56 2.6 1.56 3.12 4.16 0 1.04-0.52 1.560.52 2.60.520.52 1.560.52 2.08 1.04 1.02 1.040.52 1.560.52 2.580.5 1.04 2.06 1.56 2.58 2.6 1.04 1.56 2.08 3.64 2.6 5.720.52 2.08 2.58 10.89 0 12.45-3.12 1.54-4.68-6.24-5.18-7.79-2.6-7.26-7.26-12.45-12.97-17.63-7.26-6.24-15.55-11.41-22.81-17.63-8.79-7.28-15.53-15.57-20.73-25.94-4.66-9.85-5.7-20.75-7.25-31.12-1.56-10.380.52-23.35 3.64-33.2 4.14-12.97 11.91-23.35 18.65-34.76 2.6-3.12 6.21-6.76 10.37-6.76z" fill="#b37a73" fill-rule="evenodd"/><path d="M170.52 170.42c0-1.54 2.08-3.1 3.64-3.62 1.04-0.52 1.560.52 2.6-0.520.52-0.52 1.04-2.08 1.56-2.60.52-1.04 2.08-2.6 3.64-3.62 2.08-1.56 2.60.52 4.68-0.520.52 0 0.52-1.56 1.04-2.08 1.56-0.52 1.56 0 2.6 0 0.52-0.52 2.08-1.04 2.6-1.04s1.56 1.04 2.080.52c3.14 0 3.14-1.56 4.7-3.12 1.04-1.56 3.12-2.08 4.68-2.58 1.04-0.52 2.08-1.56 3.64-1.56 2.08-0.52 4.160.52 5.2-1.560.52-0.52 0-2.08 0-2.6 0-1.040.52-1.04 1.04-2.080.52-1.56 1.56-3.62 3.64-2.580.52-0.520.52-1.56 1.04-2.08 1.04-1.04 1.56-0.52 2.08-2.080.52-0.52 0-1.560.52-2.60.52-1.04 1.56-1.04 2.08-2.06 1.56-1.56 0-3.120.52-5.20.52-0.52 1.56-1.04 1.56-1.560.52-1.04-0.52-1.56-0.52-2.58 0-2.08 2.08-3.64 2.08-6.24 0-2.080.52-4.140.52-6.220.52-1.56 1.56-4.16 1.04-6.22 0-2.08-1.04-3.12-1.04-5.72 0-0.52 1.04-0.52 1.04-1.04 0-0.52-0.52-0.52-0.52-1.04 0-1.04-0.52-1.54-1.04-3.1 0-0.52 1.04-2.080.52-2.6-0.52-1.04-1.56-0.52-2.08-2.08 0-0.52 1.04-1.560.52-2.6 0-1.02-1.04-1.54-1.56-2.06-1.04-2.08-0.52-3.64-1.56-6.24-0.52-3.62-2.6-6.74-3.64-10.37-0.52-0.52-0.52-2.06-1.04-2.58-0.52-1.56-1.56-1.04-2.6-1.56-1.04-1.04 0-1.56-1.04-2.6-0.52-0.52-2.08-0.52-3.12-1.04-1.04-0.52-2.08-1.56-2.6-2.08 1.04 2.6 4.16 4.16 5.72 6.76 1.56 3.1 1.56 6.22 2.08 9.33 1.56 8.81 4.16 17.63 4.68 26.440.52 5.18-0.52 10.89-1.04 16.07-0.52 5.2-2.08 9.86-5.72 13.49-3.64 4.66-9.35 8.29-14.03 12.43-4.7 4.16-8.85 6.76-14.57 9.35-5.72 3.1-10.91 7.26-16.11 11.91-2.08 2.08-6.24 4.68-7.82 7.26z" fill="#b0756d" fill-rule="evenodd"/><path d="M168.54 169.46c-1.56 1.56-1.56 2.6-2.08 4.16 0 1.560.52 2.08-1.56 2.60.520.50.52 1.02 1.04 1.54-1.56-0.52-2.08 1.04-1.56 2.08-0.52 0-1.040.52-1.560.520.52 1.040.52 1.560.52 2.08-0.52 1.56-1.56 2.6-2.6 4.16-1.56 2.08-1.56 2.08-0.52 4.68 0 0.52 1.04 1.040.52 2.08 0 1.02-1.560.52-2.08 1.54-1.04 1.56 1.56 2.6-1.56 3.64 2.6 1.560.52 2.080.52 4.16 0 0.520.52 1.560.52 2.08 0 1.04-1.04 2.08-1.04 2.6 0 1.56 1.04 3.64 1.04 5.18-0.520.52-1.04 1.04-1.04 2.080.52 1.04 1.04 1.56 1.04 2.6 0 2.08-0.52 3.12 0 5.2 1.04 2.60.52 2.08-0.52 4.68-0.52 3.1 1.04 2.08 1.04 4.14 0 1.56-2.6 3.64 0 4.16-2.08 3.12 1.04 6.240.52 9.87 0 2.6-1.04 3.62 1.56 4.660.52 0 1.56-1.56 2.08-0.520.52 1.04-1.56 2.6-2.08 3.12 1.040.52 1.56 1.04 2.6 1.04-1.04 1.56 0 2.6 1.56 2.08 0 1.040.52 1.56 1.56 1.560.52 1.56 2.08 2.08 3.64 2.60.52 0 0.52 1.04 1.04 1.04 1.040.52 2.08-0.52 3.120.52 1.040.52 1.04 3.12 0 4.16-2.08 1.02-7.28-2.08-8.83-3.12-12.47-9.35-15.07-26.48-17.67-41.02-3.64-22.33 3.64-44.65 17.15-62.3zm8.84 98.58s2.6-1.04 3.64-1.04c2.580.52 1.54 1.04 2.58 3.120.52 0 1.54 0 2.58-0.52 0 2.6 0 3.64 1.56 5.2 1.020.52 2.060.52 2.58 1.040.52 1.040.52 2.6 1.04 3.12 0 0.52 1.02 2.08 1.54 2.080.520.52 2.08 0 2.60.52 1.54 1.56 0 3.12 1.54 4.68 1.04 1.04 2.08 1.04 2.6 1.56 1.02 1.040.5 1.56 1.02 2.60.52 1.04 1.56 1.04 2.08 2.080.520.52 0 1.560.52 2.08 1.54 2.08 2.58 2.08 2.58 4.160.52 2.6-1.04 3.64 1.04 5.72 1.02 1.04 1.540.52 2.06 1.560.52 1.04-0.52 2.06-0.52 3.1 0 1.56 0 0.52 1.56 2.080.52 1.040.52 2.08 1.04 3.12 1.02 1.56 1.540.52 1.54 2.08 0 1.56-1.54 1.56-0.52 3.640.52 1.04 2.080.52 3.1 2.08 0 1.04 0 2.6-0.5 3.64-0.52-0.52-1.04-0.52-1.56-0.52-0.52 1.04 0 1.560.52 2.08-1.040.52-0.52 1.04-1.04 1.560.52 0 0.52 1.04 1.04 1.04-1.04 1.04-1.04 1.56-1.04 2.6 0 1.040.52 2.08 0 3.12 0 0.52-0.52 1.04-0.52 1.04 0 1.040.52 1.040.52 1.560.52 2.08 1.04 1.04-0.52 3.12-0.520.52-1.020.52-1.54 2.08-0.52 1.040.52 2.08 0 3.12-1.04 1.56-4.66 2.6-6.22 4.14 2.08-3.1 2.08-7.78 2.6-11.930.52-7.8 1.02-16.11-1.56-23.91-1.56-6.76-5.68-9.85-7.75-16.09-1.54-5.72-2.58-15.59-6.72-19.75z" fill="#b0756d" fill-rule="evenodd"/><path d="M119.25 381.23c1.56 2.6 6.24 1.56 8.31 2.6 1.540.52 2.06 1.04 3.1 2.08 2.08 1.56 1.04 0 3.12-0.52 2.6 0 1.04 1.04 2.6 2.08 1.020.5 2.58 0 3.62 0 2.08-0.52 2.080.5 3.64-1.04 1.04-0.52 1.56-2.08 3.1-2.6 0 0.520.52 1.040.52 1.56h2.08c1.04-2.08 2.6-1.04 3.120.52 1.04 0 2.6 1.04 3.620.52-0.52-2.08 2.08-3.12 1.56-0.52 2.6-0.52 5.2 1.56 4.16-2.6h3.1c-0.52 2.08 1.56 1.56 2.6 1.04 1.56-1.04 1.04-2.08 2.08-3.12 1.04-1.04 2.6-1.56 3.64-1.56 1.54-0.52 2.580.52 3.62 0 1.04 0 1.04-1.04 1.56-1.560.52-0.52 1.56-1.04 2.08-1.56 2.06-1.020.52-1.54 3.1-1.02 3.640.52 5.2 1.54 4.68-2.6 2.08-0.52 5.7-3.64 7.26-5.2 1.04-0.52 3.12-1.56 3.64-2.58 1.04-1.04 1.04-3.12 2.06-4.16 1.04-1.56 2.08-2.08 3.12-3.12 2.08-1.56 1.56-2.08 2.08-4.14 1.04-3.12 3.62-6.76 3.12-10.39-2.60.52-6.76 4.68-8.84 6.24-4.66 4.16-9.31 8.81-14.51 12.97-11.41 8.29-24.37 9.85-38.38 12.45zm38.32-156.21c0 3.64-1.56 10.87 1.56 14.51 2.6 2.58 3.120.5 4.16 3.62 1.02 1.54-2.08 5.18 3.1 4.66-1.04 1.56-0.52 2.58-1.04 4.14 1.04-0.52 2.6 0 3.64-0.52 0 1.560.52 4.14 1.56 5.18 1.54 2.08 3.1 1.04 4.66 2.08 3.64 2.58 3.64 5.68 5.7 9.83-4.66 5.68-11.91-3.12-15.03-6.22-8.81-8.79-19.19-19.67-14.51-33.64zm-0.58-19.67c1.06-5.7 2.62-19.19 9.89-21.27 3.64 4.14 4.68-6.24 6.24-9.350.52 1.04 1.56 1.04 2.08 2.6 4.16-1.04 1.04-6.24 4.68-6.24v1.56c1.56-1.04 2.6-2.6 4.16-3.620.52 1.02 1.04 1.02 1.56 2.06 3.14-1.56 2.1-4.66-0.52-5.7 2.1-4.16 6.78-1.04 8.34-5.2 5.72 2.08 7.79-5.72 12.47-7.28 3.12-1.54 5.720.52 7.8-3.1 1.04-2.08 0-6.240.52-8.31-9.36-6.76-24.95 6.24-32.24 10.37-6.24 3.64-12.99 7.28-18.71 11.43-4.16 3.12-4.16 5.72-5.74 10.89z" fill="#b0756d" fill-rule="evenodd"/><path d="M139.42 176.25c-3.14-3.12 3.12-9.35 6.24-10.91 3.12-1.56 3.12 0 5.72-2.6 1.56-2.08 1.04-4.16 4.68-4.68l1.04 1.04c0.52-1.56 1.56-2.6 1.56-4.16 3.12-0.52 3.12 3.12 4.68 3.12 2.62-0.52 2.62-3.12 1.06-4.68 2.08-1.58 4.16-3.14 6.24-4.7 2.08-1.04 5.2-2.08 6.76-3.12 3.12-2.6 2.08-4.16 5.72-5.72 3.12-1.04 6.24 1.04 6.24-3.640.52-10.41-24.43-2.6-28.08-1.04-11.43 4.68-17.67 15.07-24.96 23.41z" fill="#b37a73" fill-rule="evenodd"/><path d="M69.88 235.82c-1.08 2.08-0.54 5.2-1.08 7.79 1.080.52 2.14 4.68 2.68 5.720.52 3.12-0.54 4.16 2.12 6.24 0-2.6-2.12-3.64-2.12-6.24-0.54-2.08 0-4.68 0-7.28 0-2.080.52-4.68 0-6.76 0-1.04-1.6-2.08-1.6-3.12s0.52-3.12 1.06-3.64c-1.06 1.04-0.54 3.12-0.54 5.2zm4.12 24.95c0.52 1.06 0 2.1 0 3.160.52 1.04 1.56 1.56 2.08 2.6zm84.67-169.58c1.52-1.06 3.04-3.76 4.56-2.14z" fill="#fff" fill-rule="evenodd"/><path d="M86.47 100.94c0.52-1.540.52-3.1 1.56-4.66 0-0.52 1.56-0.52 2.08-1.560.52-0.5-0.52-2.06 0-2.58 2.08-2.6 5.72-2.6 7.26-6.22 1.04-2.080.52-2.08 2.08-3.64 2.08-2.06 2.08-2.06 3.12-4.660.52-3.1-0.52-1.54 2.08-3.1 2.08-1.04 3.62-0.52 3.1-3.64 2.08 0 3.64-1.54 4.68-2.58 1.56-1.04 3.12-2.08 4.68-3.64 2.58-2.06 3.62-7.75 7.26-7.75 1.04-2.08 1.56-5.2 3.12-6.74 2.58-2.6 4.140.52 7.25-0.52 2.6-0.52 3.12-2.6 6.22-2.6 2.08-0.52 5.720.52 7.28-2.06 2.06 1.54 6.22-2.08 8.81-3.12 3.12-0.52 5.7-1.04 8.81-1.04 1.56-0.52 3.12 0 5.2 0 1.54 0 3.1-1.04 4.66-1.56 2.08 0 7.780.52 9.85 1.040.52 3.64 5.72 2.6 8.29 2.60.52 2.08 3.64 3.62 4.68 4.66 2.08 1.56 3.64 2.6 5.7 3.64 4.16 1.54 9.85 6.22 9.36 11.39-3.12 1.04-4.68-4.16-6.76-6.22-2.6-2.08-5.18-3.12-7.78-4.68-5.72-3.1-11.93-6.22-18.67-6.22-6.24 0-13.49 0-19.73 1.56-7.26 1.04-14.51 5.7-20.75 9.85-3.62 2.06-6.74 4.66-10.37 6.74-3.62 2.06-7.25 3.62-10.37 6.22-9.34 7.24-13.47 19.67-24.36 25.36zm-4.64 4.8c-2.08 1.04-4.68 2.08-6.75 3.64-2.08 1.56-2.08 3.64-3.12 6.22-2.08 3.64-4.16 7.78-7.82 11.41-1.56 2.58-2.6 3.1-3.64 5.7-0.52 1.56-0.52 2.08-1.56 3.12-1.04 1.54-2.08 2.06-2.6 3.62-1.04 2.08-1.04 4.16-2.6 6.22-0.52 1.04-2.08 1.56-2.6 2.6-0.52 1.040.52 2.6 0 3.64-0.52 1.54-2.08 2.06-3.64 3.1-0.520.52-1.580.52-2.1 1.56 0 0.52 1.06 1.56 1.06 2.6-1.58 3.1-5.22 1.54-4.7 6.74-1.560.52-2.08 4.14-3.12 5.7-1.04 1.56-2.6 3.12-4.68 4.66-2.08 2.08-3.64 4.16-5.2 5.72-2.1 2.58-4.7 1.54-4.18 4.660.52 1.56 2.08 1.04 2.08 2.6 0 1.56-1.56 1.56-2.08 2.58-1.56 2.08-3.64 3.12-4.68 5.72-1.04 2.06-1.04 4.14-2.6 6.74-1.56 2.06-3.64 4.14-3.64 6.74 0 1.04 1.04 2.080.52 3.1 0 1.56-1.04 3.12-1.04 4.16-0.52 1.04 0 2.6 0 3.62-0.52 1.04-2.08 1.04-2.6 2.6-0.52 1.04 1.04 2.08 1.04 3.64 0 1.04-2.08 2.58-2.6 3.62-1.06 3.120.52 4.16 1.04 7.25 0 2.6-1.04 5.72 0 8.29 1.04 1.56 2.6 2.08 3.12 3.12 0 1.56-2.08 3.1-2.08 4.14-1.04 3.12 1.04 5.72 2.08 8.81 1.04 3.64 1.56 7.78 3.12 11.41 0 0.52 0 1.040.52 1.540.52-5.7-2.08-11.91-3.12-17.61-2.08-8.81 0-16.59 1.56-25.4 1.56-9.34 3.64-19.69 7.79-28.5 6.26-13.99 16.13-25.92 24.46-39.4 2.6-4.16 5.72-8.29 8.31-12.97 2.6-4.14 4.16-8.28 7.28-12.43 3.66-4.66 7.29-8.81 10.41-13.99 2.6-5.18 4.68-12.45 9.36-16.07zm-49.97 197.56c-0.52 0-0.52 0-1.040.52 3.64 4.68 3.12 11.43 4.68 17.150.52 2.08 2.08 5.2 3.12 7.79 1.56 2.6 3.64 3.64 4.68 6.76 0 1.56-0.52 2.08 1.04 3.64 0 0 1.56 0 1.560.52l1.56 1.04v1.54c1.040.52 1.560.52 2.080.520.520.52 1.56 1.56 2.6 2.08 2.6 1.04 3.12 2.6 5.2 4.68 2.08 1.56 4.68 1.04 6.76 2.6 1.04 1.04 1.04 3.12 2.6 4.16 1.560.52 4.16 0 5.72 1.56 1.54 1.56 1.54 3.12 3.62 4.16 1.560.52 3.64 1.04 5.2 2.08 3.12 1.56 5.2 3.64 7.79 5.72 3.64 3.12 4.68 4.16 9.35 2.6 2.08 2.080.52 2.6 3.64 3.64 1.040.52 2.60.52 3.64 1.040.520.520.52 2.08 1.56 2.6 1.56 1.04 2.080.52 3.120.52 1.040.52 2.08 1.54 2.6 2.06 2.080.52 5.2 0 6.74-2.06-7.25-2.08-15.05-7.8-20.25-12.47-7.28-6.24-14.03-12.47-21.83-17.67-8.29-5.72-16.61-11.93-24.93-18.17-3.64-3.12-7.28-5.72-10.39-9.87-3.12-4.16-1.56-13.51-4.16-18.19-1.56-2.6-7.280.52-8.31-2.08z" fill="#b0756d" fill-rule="evenodd"/><path d="M229.26 62.08c2.6 2.08 3.12 1.04 4.66 4.680.52 1.56 1.04 2.6 1.56 4.16 0 1.02 0 2.060.52 3.1 1.54 5.2 5.68 8.81 6.72 14.010.52 1.56-0.52 2.58 0 3.62 0 2.080.52 2.08 1.02 4.16 1.04 2.6 1.04 5.18 1.56 8.29 1.04 4.16 5.16 8.29 3.62 12.97-1.04 2.06-1.56 2.06-1.56 4.66 0 2.08-1.02 3.64-1.54 5.72 0 2.06 1.02 3.62 1.02 5.7 0 1.04-1.02 3.64-1.54 5.18-1.04 3.64-4.66 5.2-5.68 8.84-1.04 3.62-0.52 7.78-5.18 9.83 1.04-2.58 2.06-5.18 3.1-7.78 3.1-6.22 3.62-12.95 4.14-19.19 1.56-13.99-2.06-27.48-3.1-40.95zM74.64 89.51c1.56-0.5 2.6-3.1 3.12-5.18 4.68-1.04 5.72-8.84 9.33-11.43 0 0 2.6-1.02 2.6-1.54 1.56-2.08 0-1.56 0-3.120.52-1.56 0-1.04 1.56-2.6 0-0.52 2.6 1.56 1.56-1.56 3.12-1.04 5.2-4.68 6.24-7.28 2.06-3.1 6.74-5.7 6.74-8.810.52-2.08-1.56-3.64 0-5.20.52-0.52 2.6 0 3.12-0.52s1.04-1.56 1.56-2.08c2.08-1.54 2.08-1.02 3.62-3.620.52-1.560.52-3.12 3.12-2.6 1.04 1.56 3.12 0 4.16-1.04 1.56 1.04 4.14 0 5.7-1.04 2.080.52 4.16-0.52 5.72-1.56 1.04 0 1.56-1.04 2.6-1.04 1.04-0.52 2.08-0.52 3.1-1.04 1.56 1.04 2.6 0 4.16 0 1.04 0 2.6 1.04 4.160.52 2.6-0.52 2.6-4.68 5.7-4.16 0 2.6 3.64 4.68 5.2 2.08 2.6 2.08 6.74-1.04 9.85-1.04 2.6 0 3.64 1.04 5.72 1.56 1.56 0 3.12-1.56 4.66-2.08 1.56 1.04 4.16 2.08 6.24 2.6 2.60.52 4.68 1.04 6.74 1.56 4.680.52 9.87 1.56 14.01 4.16 2.08 1.56 3.12 2.6 5.2 4.68 1.56 2.06 4.16 2.06 5.7 3.62 1.04 1.040.52 2.6 1.04 3.12 1.04 1.04 3.12 1.04 4.16 2.08 1.04 1.040.52 1.56 1.04 3.12 1.04 1.04 2.08 1.56 3.12 2.08 3.1 3.12 2.08 7.26 2.08 11.41-2.6-2.6-4.16-6.24-6.76-8.29-4.16-4.16-9.85-7.8-14.53-10.91-5.7-4.16-12.97-9.85-19.71-11.41-6.76-1.56-15.05-1.56-21.81-1.04-6.74 0-15.550.52-21.27 5.72zm-2.08 5.2c-3.12 1.56-10.93 4.68-13.03 7.79-0.52 1.04-0.52 2.08-1.04 3.12-0.52 1.04-2.08 1.56-2.6 2.6-0.54 0 0 1.04-0.54 1.56 0 0.52-1.040.52-1.56 1.04-0.52 1.04-1.04 2.6-1.56 3.64-1.56 2.08-4.18 2.08-5.22 5.2-1.04 2.6-0.52 5.2-1.56 8.31-0.52 2.58-2.1 3.62-3.66 6.22-0.52 1.04-0.52 2.08-1.04 3.64 0 0.520.52 1.560.52 2.08-0.520.52-1.560.52-2.08 1.56-1.06 2.08-0.52 2.6-2.1 4.68-1.04 1.56-2.08 3.64-3.64 4.68-2.1 2.08-3.66 2.6-5.22 5.2-1.04 2.6-1.58 5.2-1.58 7.78 3.14-6.74 9.91-8.81 15.13-13.49 3.66-3.12 4.7-7.28 6.26-11.95 2.1-6.24 5.22-11.41 9.39-16.09zm38.38 291.66c1.560.5 5.2 3.62 7.28 5.16 2.58 2.58 2.06 1.56 5.18 1.56 2.6 0 5.180.52 7.26 1.02 2.08 0 2.08-0.5 3.64 0 1.56 1.04 2.06 2.08 3.1 2.6 2.08 1.02 4.16 1.02 6.76 1.02 3.1 0 3.62-0.5 6.22-1.54 2.08-1.04 4.66-0.52 7.25-1.56 2.6-0.52 5.18-2.58 7.26-2.58 1.56 0 2.60.52 4.160.520.52 0 2.58-0.52 3.62-1.04 3.12-0.52 5.72-1.04 8.81-2.06 7.26-2.6 11.41-8.28 15.03-13.97-4.66 1.56-8.29 5.7-12.95 7.76-3.12 1.56-7.26 2.6-10.37 3.62-8.81 2.08-17.11 3.62-25.92 2.6z" fill="#aa6863" fill-rule="evenodd"/><path d="M189.84 189.13c-4.70.52-7.32 6.78-9.93 9.89-1.06 2.6-1.06 4.68-2.1 7.8-1.58 3.12-1.04 4.16-1.58 7.28-0.52 3.14-2.62 4.18-2.08 7.30.52 1.04 1.56 2.08 1.56 3.120.52 1.04-0.52 3.12-0.52 4.160.52 1.56 1.58 1.56 2.1 2.6 1.04 1.56 1.04 2.6 1.04 4.680.52 1.56 2.62 5.72 5.76 4.68v0.52c-4.18-1.56-3.14-12.99-3.66-16.63-0.52-3.12-1.04-5.72-0.52-8.860.52-4.16 1.56-10.39 3.14-14.55z" fill="#a45d5a" fill-rule="evenodd"/><path d="M197.12 186.65c-2.08 1.56-4.18 2.08-6.28 4.16-1.56 2.08-3.14 4.68-4.72 6.76-1.56 1.56-1.56 1.56-1.56 3.12 0 1.54 0 2.06-0.52 3.1-1.06 1.56-1.06 2.08-1.06 3.12-0.52 1.560.52 2.6-1.56 3.12 0 1.040.52 1.560.52 2.6 0 1.04-1.06 1.56-1.06 2.08 0 1.56 1.06 3.10.54 5.18-0.54 2.6-0.54 2.60.52 5.20.52 2.08 1.56 4.16 2.1 6.240.52 2.06 1.04 4.14 2.08 5.7 1.06 1.04 2.1 2.08 2.62 3.12 1.06 1.04 1.06 2.08 1.58 3.64 2.1 3.10.52-4.16 0-5.2-2.62-10.37-7.86-21.29-2.1-31.14z" fill="#995854" fill-rule="evenodd"/><path d="M235.9 250.37c-3.12 4.16-6.24 10.37-5.72 15.57 0 4.66 5.2 9.34 7.79 13.49 3.12 4.66 4.68 9.85 7.28 13.99 3.12 4.16 4.68 3.64 7.8 7.79 6.24 8.81 5.2 22.31 5.72 33.720.52 5.18 0 10.37-1.04 15.55-1.04 5.2-4.16 25.95-4.16 31.64 2.08-7.78 5.72-30.08 6.76-36.820.52-6.760.52-12.970.52-19.73 0-11.91-1.56-21.27-4.16-32.68-1.04-3.62-2.6-7.26-3.64-11.41-1.56-4.14-2.08-8.81-3.12-13.47-1.56-4.16-3.64-8.31-5.2-12.45-0.52-2.08-1.04-3.64-2.6-5.72-1.04-1.04-4.16-2.6-4.68-0.52z" fill="#e7b68a" fill-rule="evenodd"/><path d="M238.62 258.28c-7.28 7.8 5.72 14.01 7.28 21.790.52 4.160.52 7.28 3.12 10.89 2.08 3.64 4.16 6.24 6.24 9.85-5.2-6.74-4.16-16.07-7.28-22.81-1.56-3.12-4.16-5.72-5.72-8.31-1.04-2.06-0.52-3.62-0.52-5.7-0.52-2.08-1.56-3.12-2.08-4.68z" fill="#ecc5a1" fill-rule="evenodd"/><path d="M231.34 191.82c1.56-2.08 2.6-4.66 3.12-6.740.52-0.52 1.04-0.52 1.04-0.52 2.08 2.08 4.68 6.74 5.2 9.83 1.04 3.12 1.04 15.53 3.12 18.63-1.56-8.28-4.16-20.69-10.39-22.77z" fill="#b17f4d" fill-rule="evenodd"/><path d="M231.82 258.8c-4.12 3.62-4.64 8.76-2.58 13.39 1.56 2.58 3.1 2.58 5.16 4.14 1.54 1.54 2.58 4.12 4.62 5.14-0.5-4.12-3.6-8.23-4.62-12.35-1.54-4.64-0.52-6.2 1.02-10.83z" fill="#e7b68a" fill-rule="evenodd"/><path d="M250.57 293.5c2.08 1.04 4.68 6.74 5.2 9.33 1.56 3.1 2.6 8.28 2.08 11.89 2.6-5.18 0-12.93-2.08-18.11-1.04-2.6-2.6-4.66-4.16-7.25-1.56-2.06-2.08-4.66-3.64-7.26z" fill="#ecc5a1" fill-rule="evenodd"/><path d="M238.1 262.34c-0.52 4.16 2.6 8.31 5.2 10.93 2.6 3.64 4.16 7.28 4.16 10.910.52-2.080.52-5.2-0.52-7.28-0.52-1.56-3.12-2.6-4.16-4.7-0.52-2.08-1.56-4.16-2.08-6.24-0.52-1.56 0-5.22-2.6-4.16zm16.51 36.4c2.08 3.64 2.6 7.78 3.12 11.390.52 2.60.52 4.160.52 6.22 0 2.08 1.04 3.64 1.04 5.180.52-3.62-0.52-7.24-1.04-11.39 0-3.1-0.52-6.72-3.12-9.83zm-2.6 91.2c-2.6 7.82-0.52 23.96 2.6 31.26 3.12 8.34 4.16 17.71 5.2 26.57 0-5.72-0.52-11.97-1.04-17.19-1.04-5.2-3.12-9.37-4.16-14.05-1.56-9.39-3.64-19.29-2.08-29.180.52-1.040.52-2.08 1.04-3.14z" fill="#f6e5d4" fill-rule="evenodd"/><path d="M254.61 481.35v1.04c3.12 0 0.52-4.16 0-1.04zm2.08 2.08c-0.52 0-1.04 1.12-0.52 1.68 1.04 0 1.56-1.680.52-1.12zm0.6-3.12c-1 0.52-1 2.080.5 2.080.98 0 0.98-1.56 0-2.08l-0.50.52z" fill="#e2a86f" fill-rule="evenodd"/><path d="M259.86 480.95c-2.540.96 2.02 1.44-0.5 0v0.48z" fill="#e2a86f" fill-rule="evenodd"/><path d="M261.88 480.43c-1.04 0-2.08 1.56-0.52 2.08 1.040.52 1.56-2.6 0-1.56zm-3.12 2.6c0 1.04 1.04 1.04 1.04 0h-1.04z" fill="#e2a86f" fill-rule="evenodd"/><path d="M262.48 480.31c-10.56-1 2.720.5 2.720.98-0.540.5-2.16 0-2.72zm0 3.72c-0.50.5-1 1.48 0 1.48 1-0.48 1-2.48 0-1.48zm-3.62-2.68c-2.58 2.72 3.58 0 0.5 0zm-0.1 3.76c-1.040.52-0.52 2.080.52 1.040.52-1.04 0-2.08-1.04-1.56z" fill="#e2a86f" fill-rule="evenodd"/><path d="M261.44 482.39c-1.020.54-2.04 2.7-0.52 3.24 1.520.52 1.52-2.70.52-2.7zm-4.7-0.4c-1 0-1.50.96-0.5 1.44 1 0 1.48-0.960.5-1.44zm-2.14 0c-2.08 3.12 2.08 2.60.520.52zm1.16 3.52c0 0.64-0.520.64 0 0.64s0.52-0.640.52-0.64zm7.71-2.08h0.48c0-0.4-0.48-0.4-0.48-0.4v0.4z" fill="#e2a86f" fill-rule="evenodd"/><path d="M259.8 482.51c-0.52-0.52-1.04 1.04 0 1.04 1.040.52 1.04-1.040.52-1.56zm-1.480.44c-1.08 0-1.64 1.62-0.54 1.62 1.620.54 1.08-1.62 1.08-2.18zm-1.64 3.72v0.52c0-0.52 1.04-1.04 0-1.04z" fill="#e2a86f" fill-rule="evenodd"/><path d="M230.3 163.26c-4.18-2.06-8.85 2.06-9.89 6.18-4.68-0.5-9.35 2.58-10.41 7.22 14.05-2.58 28.1-13.39 34.86-25.27z" fill="#964f61" fill-rule="evenodd"/><path d="M186.19 219.85c-0.520.52-2.06 2.06-2.58 3.1-1.04 2.60.52 2.080.52 3.64v4.14c0 1.04 1.54 2.06 1.54 3.62 1.02 4.660.52 5.7 3.08 9.83 2.06 3.12 3.62 6.74 5.66 10.35-0.5-10.35-7.71-20.71-7.2-31.58 0-4.66 0-6.74-0.52-11.39-1.02-4.66 3.1-8.79 2.06-12.43zm28.48 66.4c8.29 12.45 13.99 22.33 13.99 38.4 6.2-4.14 2.58-9.850.52-15.55-2.08-5.72-2.08-11.95-5.18-16.61-1.56-2.6-3.12-4.68-4.16-7.28-2.06-3.64-2.06-2.08-5.18-4.66-2.58-2.6-2.58-5.72-4.66-8.31-1.56-2.08-4.66-3.12-6.74-4.68 5.18 4.16 8.81 13.51 12.43 19.21z" fill="#995862" fill-rule="evenodd"/><path d="M57.37 95.78c2.6-3.1 4.68-8.29 8.84-10.37 2.6-2.06 4.16-1.02 5.72-4.14 1.04-2.080.52-3.64 2.6-5.7 4.16-5.72 7.79-15.57 15.07-18.69-2.6 1.56-5.72 1.04-7.79 2.6-2.08 2.08-2.6 5.2-4.16 7.78-2.08 2.08-5.2 3.64-7.28 5.72-2.08 2.6-3.64 5.18-5.72 7.78-8.31 7.78-19.75 21.79-20.79 33.7z" fill="#98445a" fill-rule="evenodd"/><path d="M96.38 54.25c2.6-6.72 3.64-13.45 9.87-17.07 5.72-3.62 10.91-5.7 17.15-8.79-6.24-1.56-15.07 2.6-18.19 7.75z" fill="#995862" fill-rule="evenodd"/><path d="M64.24 99.9c3.62-2.06 12.41-7.24 14.49-10.85 1.02-1.54-0.52-3.1 0-4.140.5-1.54 2.06-1.54 2.58-2.58 2.06-2.6 4.66-3.62 5.16-6.74-4.12 1.56-6.72 6.22-9.29 9.31-2.06 2.6-6.2 4.66-7.75 7.75zm117.75 93.38c-3.14 3.62-7.32 6.22-8.88 11.41-1.56 4.14 1.04 6.74 1.04 10.89 0 3.64-3.66 6.74-3.12 10.370.52 2.6 3.64 5.72 5.74 7.78-2.62-5.18-3.14-11.41-1.58-16.59 1.06-4.68 1.58-10.37 3.66-14.53 1.06-2.6 3.14-5.2 4.7-7.8 1.06-2.06 1.58-5.18 2.62-6.74 3.14-3.64 10.43-3.12 11.99-7.28-4.160.52-9.91 3.12-11.99 6.24zm55.01-45.57c-2.580.52-7.74 9.34-10.85 11.91 6.22-3.62 11.37-5.18 10.85-13.45 5.18-1.04 9.29-5.18 8.79-10.37zm-18.77 148.95c0 2.6 2.12 4.68 2.64 7.280.54 3.1 1.58 5.18 2.64 8.29 1.58 6.22 1.58 17.63-1.06 23.84 4.22-6.74 4.74-10.35 3.16-18.15-1.04-4.66 1.06-18.15-5.26-19.19zM48.13 339.59c-0.52 3.66 2.6 3.66 4.68 5.74 2.6 2.6 3.64 5.2 6.24 7.82 3.64 3.12 4.16 1.04 7.79 2.08 3.12 1.04 4.16 4.16 6.76 6.76-2.6-2.08-4.16-5.2-6.76-7.28-2.6-1.56-5.2-1.56-7.28-3.66-2.6-2.08-2.08-4.68-3.64-6.76-2.08-3.12-5.2-3.64-8.31-4.7zm48.25 37.34c3.120.54 7.25 4.2 9.85 6.3 4.14 3.66 4.66 4.18 9.33 4.72 5.70.52 15.53 5.22 21.75 3.14-6.74 0-11.91-5.76-19.17-5.24-4.140.52-4.14 1.04-7.78-0.52-2.06-1.58-3.62-4.2-6.22-5.24zM148.75 23.71c1.06-1.04 6.26-4.16 8.85-4.16 3.66 0 5.22 3.64 9.38 3.12-2.080.52-3.64 1.56-5.72 2.08-0.52-3.12-2.6-6.24-6.26-4.16z" fill="#b15d63" fill-rule="evenodd"/><path d="M185.17 205.75c-2.6 4.14-4.68 10.87-3.12 15.51h2.08c0-4.64-0.52-9.29 1.56-13.43zm36.3 134.88c-2.08 4.16-3.12 8.83-5.2 12.99-2.62 5.72-7.82 10.91-9.39 17.15 7.82-2.08 11.99-20.79 16.15-26.5zm-20.29 39.02c-4.64 2.6-10.83 7.79-13.41 12.47 4.66-0.52 11.87-7.28 14.95-10.91zM78.67 365.1c2.6 1.56 6.24 5.18 8.84 5.68-2.6-3.6-7.79-4.12-9.35-6.72z" fill="#a55b7a" fill-rule="evenodd"/><path d="M201.18 338.12c-1.54 11.41-10.85 22.85-20.69 29.06 9.83-3.62 17.59-12.45 21.21-21.81 1.56-4.16 3.1-10.37 3.1-14.53 0-5.2-3.62-10.91-4.64-16.11 0 4.16 1.54 8.84 2.58 12.99z" fill="#cb8290" fill-rule="evenodd"/><path d="M204.84 343.75c-1.04 3.7-3.14 6.32-5.24 9.99 4.72-1.56 7.83-5.26 6.8-9.46zm17.55-236.58c-1.54 2.62-1.02 7.82-2.06 11.45-1.04 3.64-2.58 6.78-3.62 9.89-2.08 5.2-4.66 10.39-10.87 12.47 1.56-3.12 5.7-3.12 7.78-5.72 2.06-2.60.5-5.2 1.02-7.79 1.04-3.14 3.62-5.22 4.66-7.82 1.04-3.12 1.04-6.24 2.08-9.35zm0.62 11.35c-1.06 3.68-2.12 7.89-4.78 11.03 6.88-2.1 3.18-5.78 4.78-9.97z" fill="#b87e95" fill-rule="evenodd"/><path d="M93.26 96.82c-3.62 3.12-12.91 9.36-13.43 14.03 4.14-1.04 7.24-6.76 9.31-9.87 2.58-4.16 5.68-7.28 9.29-10.93 2.58-3.12 10.33-14.03 13.93-14.55-3.1-3.66-8.26 3.64-9.81 6.24-1.02 1.56-0.5 2.6-1.54 4.16-1.56 1.56-3.62 1.56-4.66 3.64z" fill="#cb8ba4" fill-rule="evenodd"/><path d="M108.23 83.91c2.08-2.58 2.6-6.74 5.22-9.31 3.12-3.12 8.88-3.64 11.47-7.26-5.22-1.04-7.82 2.58-10.43 6.22-2.62 3.1-4.18 4.66-7.32 7.26 6.28-5.18 9.39-14.51 16.19-19.69 2.6-2.6 8.88-5.72 12.51-6.24-1.56 4.16-6.78 5.2-8.86 8.81z" fill="#b8728f" fill-rule="evenodd"/><path d="M16.27 223.38c-2.08 5.18-1.56 13.49-1.56 19.19 0 4.66 1.04 9.85 2.6 14.51 1.56 4.16 3.64 6.76 4.16 11.410.52 4.16 0 5.72 4.16 7.78-4.68-14.51-13.51-36.3-5.72-50.81-6.24-6.760.52-20.23 4.68-26.98-6.24 3.64-8.84 11.93-8.31 18.69z" fill="#b87e95" fill-rule="evenodd"/><path d="M19.95 229.18c3.68 1.56 1.58 3.120.54 6.74-1.58 4.68 0 5.7 1.04 9.330.54 3.10.54 6.22 1.06 9.310.52 4.16 3.16 8.29 4.72 12.43-6.3-7.75-11.03-23.82-7.88-33.66z" fill="#cb8ba4" fill-rule="evenodd"/><path d="M24.61 278.35c-2.1 3.66 1.56 15.13 2.6 19.31 1.04 4.18 8.33 8.36 7.29 11.99-4.160.52-6.26-9.89-6.78-13.03-0.52-2.620.52-5.74 0-7.83-0.52-2.08-2.6-3.12-3.12-5.22z" fill="#b87e95" fill-rule="evenodd"/><path d="M14.21 209.91c0-5.2 2.1-11.43 4.72-16.11 2.1-3.64 8.37-8.84 7.86-12.99-4.18 1.56-5.76 6.24-7.86 9.87-3.14 5.72-6.82 9.87-6.28 17.15z" fill="#b65e83" fill-rule="evenodd"/><path d="M35.58 206.9c-3.1 3.1-11.39 20.23-4.14 22.29 0-3.62-1.04-7.26-0.52-10.890.52-4.66 3.64-7.26 5.7-10.87 2.08-3.64 2.6-7.28 3.64-10.89 1.54-3.64 5.7-6.76 6.72-9.87-4.66 1.04-10.35 11.41-11.39 16.09z" fill="#cb8ba4" fill-rule="evenodd"/><path d="M29.8 233.24c-1.04 3.66-2.6 15.690.52 18.81 4.18-5.22-3.66-13.59 0-20.39zm2.58 25.44c-1.56 5.74 3.64 13.55 3.64 18.23zM134.84 69.76c5.16-3.6 12.35-9.28 19.03-8.76-5.14 3.62-12.33 4.64-17.47 8.26z" fill="#b97f97" fill-rule="evenodd"/><path d="M134.72 182.45c-6.24 6.24-9.87 17.63-6.76 26.42 1.04-7.75 2.08-16.05 5.2-23.3-3.12-4.66 1.56-12.95 4.16-16.59-1.56 2.08-3.12 4.16-4.16 6.74z" fill="#cb8ba4" fill-rule="evenodd"/><path d="M127.56 184.97c-4.22 2.1-6.88 9.43-4.22 13.63h1.06c0-0.54 0-0.54 0 0-0.540.52-1.06 1.56-1.6 2.60.54-1.040.54-1.56 1.06-2.08zm-2.08 31.18c1.04 3.140.52 10.95 4.16 11.99-0.52-1.56-0.52-3.12-1.04-4.16z" fill="#b97f97" fill-rule="evenodd"/><path d="M145.15 183.43c-3.14 4.68-3.14 10.91-3.66 16.13-0.52 5.72-2.1 14.03 1.04 19.230.52-7.79-2.08-14.55 0-22.37 1.04-5.2 6.26-10.39 6.78-15.07-0.52 0-1.040.52-1.560.52 0-2.08 1.04-3.64 2.6-5.22zm11.95-5.18c-3.12 1.58-5.2 5.78-5.72 9.43 2.08-2.08 2.6-5.24 4.68-7.86 2.08-2.62 4.68-4.2 6.76-6.3zm-8.36-2.64c2.6-1.54 5.2-4.64 8.29-6.2 6.22-4.14 11.91-5.68 18.65-8.28z" fill="#a16e84" fill-rule="evenodd"/><path d="M154.99 193.36c-3.62 5.68-7.75 24.3-3.1 29.98 3.1-2.06 1.54-9.81 1.54-12.91 0-4.660.52-7.78 1.56-12.41 2.06-7.78 4.14-11.39 10.31-16.57-4.12 1.56-8.78 3.64-11.35 7.26zM165.3 180.41c2.12-2.08 5.28-3.64 7.92-5.2-2.64 0-7.38 1.56-7.38 3.64z" fill="#ad6764" fill-rule="evenodd"/><path d="M155.03 211.97c0 4.16-1.56 8.29-1.56 12.97 0 3.62 1.56 5.18 3.12 8.79-1.04-3.1-1.56-7.250.52-9.31-3.64-5.72-1.04-16.590.52-21.79zm-95.98-69.94c3.64-8.36 10.91-15.67 14.55-23.51-3.12 0-7.79 4.2-7.79 7.83zM34.5 176.65c2.64-2.58 9.99-6.7 8.43-10.83-1.06-0.52-0.540.52-1.060.52zM174.77 380.07c4.68-3.1 15.07-8.78 17.15-13.93-4.68 0-8.84 7.74-12.47 9.81-3.64 2.06-9.35 3.6-13.51 5.14z" fill="#ad6764" fill-rule="evenodd"/><path d="M197.54 364.58c-0.50.52-1.020.52-1.52 1.04 0-2.08 1.02-3.66 2.54-4.7 0-0.54 0-0.54 0 0-2.54 1.04-4.58 3.14-6.64 5.22zm11.41-47.21c-0.52 8.28 2.08 16.05-3.12 24.3 2.6-4.64 0-10.33 2.6-14.47z" fill="#ad6764" fill-rule="evenodd"/><path d="M230.24 210.01c-0.52 2.060.54 4.14-0.52 6.72-0.52 2.06-2.1 3.1-2.64 5.16-1.58 4.66 1.58 11.37 2.12 16.010.52-3.10.52-7.220.52-10.31-0.52-1.56-0.52-2.6 0-4.14 0-1.04 1.06-2.08 1.06-3.10.52-2.08-1.06-3.62 0-5.7 1.04-2.06 3.68-2.58 4.72-4.12-3.68-1.04-2.62-4.14-2.1-6.22z" fill="#d1764b" fill-rule="evenodd"/><path d="M230.82 258.66c-2.08 2.08-3.64 5.7-3.64 8.810.52 4.66 7.28 6.22 7.8 9.83-4.16-0.5-5.72-11.39-4.68-15.010.52-2.6 2.6-8.81 5.2-9.85-0.52-0.52 0-0.52-0.52-1.04-1.04 2.6-2.6 6.24-4.68 7.78z" fill="#f7af50" fill-rule="evenodd"/><path d="M203.22 192.76c-3.64 3.12-7.26 7.79-8.81 11.93-2.6 5.2-3.12 10.91-2.6 16.61 0 4.68 1.04 8.84 2.6 12.97 1.56 4.16 4.66 7.79 7.26 11.93-1.56-1.02-2.6-5.7-3.12-7.26-1.54-3.64-3.1-6.76-3.62-10.89-1.56-7.79-0.52-16.61 3.1-23.89 1.56-4.14 3.64-7.25 6.74-10.37 2.08-1.56 4.16-2.6 6.22-3.64 1.56-0.52 4.68-1.04 5.18-2.08-2.06 0-5.18 1.56-7.24 2.08-2.08 1.04-5.2 2.08-6.74 3.64z" fill="#aa6863" fill-rule="evenodd"/><path d="M72.44 217.17c-2.6 4.14-1.04 8.28-0.52 12.41 1.04-6.2 0-11.89 3.12-17.59z" fill="#bfd8e4" fill-rule="evenodd"/><path d="M75.03 258.28c-1.48 3.1-2.48 6.68-1.48 9.76z" fill="#fff" fill-rule="evenodd"/><path d="M117.59 119.69c-3.12 4.16-8.29 7.28-11.91 11.41-4.14 4.68-6.22 8.83-8.81 14.01-4.66 8.31-9.31 17.13-11.91 25.94 5.2-6.22 4.16-16.07 9.85-22.31 3.1-3.64 5.7-4.16 6.74-9.33h1.54c0-7.28 3.12-4.68 7.25-7.8 3.12-2.06 2.08-5.7 7.26-7.25-0.52-2.080.52-4.16 2.06-6.24z" fill="#c8a099" fill-rule="evenodd"/><path clip-path="url(#k1-a)" d="M265.1 481.39c2.6-11.93 0-33.2-4.16-59.66-4.14-26.980.52-34.76 5.72-64.86 5.18-30.08 3.12-53.430.52-70.04-7.28-42.55-11.93-40.99-16.61-61.22-4.68-20.77-5.72-40.99-15.57-47.23-3.64 4.68-4.66 7.79-6.74 17.65-3.12 15.05-6.24 19.21-5.72 28.540.52 9.33 4.68 20.75 0 33.2-4.68 11.930.52 12.97 5.72 23.35 3.62 6.76 7.78 15.05 10.37 23.34 9.85 10.39 11.93 32.18 11.41 42.03-0.52 9.85-1.56 28.02-2.6 51.89-1.04 23.86 7.28 30.1 8.31 46.17 1.04 16.090.52 22.33-2.08 36.84" fill="none" stroke="#8f5e5a" stroke-width="1.359" stroke-linecap="round" stroke-linejoin="round"/><path clip-path="url(#k1-a)" d="M203.84 15.37c28.54 14.53 63.84 49.83 63.84 84.61 0 39.44-10.37 56.05-23.35 69.02-12.47 12.45-12.99 11.93-16.09 26.98-3.12 15.05-6.24 19.19-5.72 28.540.52 9.33 4.68 20.75 0 33.2-4.68 11.950.52 12.97 5.72 23.37 10.37 18.67 20.23 44.11 8.81 64.34-11.41 20.77-17.13 39.44-49.83 60.2-32.72 20.75-71.14 6.22-89.31-7.28-18.69-14.01-33.74-19.19-52.95-42.03-18.69-22.31-17.13-26.46-24.41-55.01-7.78-29.06-16.09-29.06-17.65-60.18-1.56-31.660.52-37.38 4.68-56.57 4.16-19.73 8.31-34.26 12.97-51.91 4.16-17.65 21.81-38.92 31.68-51.37 9.85-12.97 10.37-21.29 39.46-46.19 29.06-24.91 64.36-33.74 100.7-24.91 3.64 1.56 7.79 3.12 11.43 5.18" fill="none" stroke="#602228" stroke-width="1.359" stroke-linecap="round" stroke-linejoin="round"/><path d="M218.91 187.73c11.43-4.16 12.47-6.76 19.75-13.51m-26.54 83.07c3.1 6.18 7.22 9.27 9.28 11.83" fill="none" stroke="#602228" stroke-width="1.359" stroke-linecap="round" stroke-linejoin="round"/><path d="M203.86 15.43C232.4 29.96 267.68 65.24 267.68 100c0 39.42-10.37 56.01-23.35 68.98-12.45 12.45-12.97 11.93-16.09 26.98-3.1 15.03-6.22 19.19-5.7 28.520.52 9.33 4.66 20.75 0 33.2-4.68 11.930.52 12.97 5.7 23.35 10.39 18.67 20.25 44.09 8.83 64.32-11.41 20.75-17.13 39.42-49.83 60.16-30.08 19.19-64.86 8.29-84.59-4.14" fill="none" stroke="#370b12" stroke-width="1.359" stroke-linecap="round" stroke-linejoin="round"/></svg><text class="t-pie" x="156.5" y="376" text-anchor="middle">Riñón en corte</text><svg x="277" y="108" width="193" height="250" viewBox="0 0 297.92 457.97" preserveAspectRatio="xMidYMid meet"><defs><style>
 .k2cls-1 {
 fill: #231f20;
 }
 </style></defs><g><path class="k2cls-1" d="m295.19,47.41c0.04,4.930.08,9.860.12,14.790.1,11.940.19,23.880.29,35.810.12,14.660.23,29.320.34,43.980.1,13.070.2,26.130.28,39.20.05,7.410.11,14.820.11,22.23,0,3.250.05,6.490.62,9.70.110.63,1.070.360.96-0.27-0.89-5.06-0.57-10.33-0.59-15.46-0.02-4.24-0.04-8.49-0.07-12.73-0.08-12.59-0.17-25.19-0.27-37.78-0.11-14.66-0.22-29.31-0.34-43.97-0.1-12.44-0.2-24.88-0.3-37.32-0.03-4.05-0.07-8.11-0.1-12.16-0.02-1.910.09-3.86-0.05-5.77,0-0.08,0-0.17,0-0.26,0-0.64-1.01-0.64-1,0h0Z"/><path class="k2cls-1" d="m129.73,53.89c6.41-3.03,11.31,4.7,11.59,10.260.39,7.42-3.72,15.09-7.15,21.43-5.09,9.42-14.25,15.81-24.35,18.92s-21.85,3.2-32.30.17c-6.16-1.79-11.34-7.14-14.82-12.31-2.81-4.17-4.03-9.57-8.11-12.76-6.85-5.36-16.83-2.49-23.62,1.46-3.88,2.26-8.05,5.35-9.77,9.64s-0.63,10.11,3.14,12.92c2.3,1.72,6,2.5,8.71,3.21,3.270.85,6.6,1.42,9.92,2.02s6.89,1.28,10.25,2.25c2.830.81,5.44,1.72,7.53,3.87,1.74,1.79,3.02,4.24,2.79,6.8-0.32,3.49-3.16,5.54-5.78,7.43-4.39,3.18-8.82,6.39-12.65,10.24-3.26,3.27-6.29,7.21-7.17,11.85s0.79,9.71,3.76,13.48c3.21,4.09,8.45,6.63,13.67,6.35s8.09-4.34,10.71-8.56c3.14-5.05,3.03-11.09,4.48-16.68s4.39-10.75,8.94-14.09c2.05-1.51,4.34-2.67,6.66-3.69,2.74-1.21,5.56-1.58,8.55-1.53,4.710.08,9.26,1.49,13.17,4.11,7.7,5.15,12.26,14.04,14.65,22.76,3.2,11.66,1.89,23.93,1.69,35.87-0.51,31.01-0.8,62.02-0.87,93.03-0.07,31.010.09,62.020.46,93.030.19,15.430.43,30.870.72,46.30.14,7.12,1.19,13.59,3.88,20.240.92,2.28,1.84,5.78,3.85,7.3,1.57,1.19,3.58,1.89,5.56,1.94,1.390.04,3.12-0.23,4-1.440.56-0.760.59-1.790.78-2.680.42-1.950.86-3.9,1.24-5.86,1.39-7.1,2.38-14.27,2.95-21.48,1.16-14.850.48-29.81-1.96-44.5-1.09-6.55-2.1-13.5-4.71-19.64-2.4-5.63-5.95-10.87-7.32-16.9-0.76-3.35-0.51-6.85-0.51-10.26v-34.34c0-30.58,0-61.15,0-91.73v-68.86c0-7.36-0.26-14.22,5.05-19.99,11.66-12.68,33.62-25.89,24.82-46.09-2.23-5.11-6.27-9.08-10.01-13.1-4.12-4.43-8.59-9.2-8.45-15.630.11-5.35,2.57-11.02,6.46-14.71,2.18-2.06,4.99-3,7.71-4.13s5.67-2.3,8.57-3.27c4.36-1.47,8.88-2.58,13.51-2.48,4.330.1,9.70.72,12.37,4.55s2.76,9.07,2.76,13.56c0,3.75-0.88,8.160.2,11.82,2.96,10.05,16.91,1.75,22.74-0.19,5.24-1.74,11.39-2.96,16.260.42,3.48,2.42,4.72,6.94,4.98,11.010.22,3.46-0.4,8.85-2.96,11.45-3.02,3.06-7.32,4.63-10.45,7.6-2.96,2.82-3.58,5.93-2.21,9.73,2.8,7.8,10.46,10.41,18.09,11.1,8.930.8,17.98-0.12,26.930.24,1.760.07,3.11-1.14,4.15-2.47,1.74-2.23,1.81-4.42,1.81-7.14,0-4.580.05-9.15-0.04-13.73-0.15-7.57-1.03-15.13-1.61-22.67-0.05-0.64-1.05-0.64-1,0,0.59,7.71,1.49,15.43,1.61,23.160.08,4.810.03,9.630.03,14.44,0,2.82-1.46,7.38-4.96,7.41-2.010.01-4.04-0.25-6.06-0.25-9.06,0-18.7,1.4-27.54-1.17-3.99-1.16-7.6-3.41-9.58-7.16-1.06-2.01-2.1-4.64-1.48-6.93s2.4-3.85,4.14-5.19c1.84-1.42,3.84-2.61,5.76-3.91,1.52-1.03,3.4-2.12,4.19-3.82,2.74-5.83,2.87-12.350.34-18.28-1.9-4.44-6.92-6.59-11.53-6.58-5.30.01-10.41,2.14-15.25,4.07-4.16,1.66-11.42,5.24-14.680.19-0.92-1.42-1.05-3.09-1.04-4.740.02-2.360.12-4.710.15-7.070.1-7.79-0.47-17.59-9.61-19.63s-17.640.48-26.11,3.84c-4.74,1.88-9.48,3.4-12.72,7.53-2.94,3.76-4.83,8.61-4.93,13.4-0.24,11.5,12.46,18.02,17.55,27.12,2.61,4.67,3.77,10.24,2.54,15.5-1.12,4.78-3.94,8.96-7.11,12.63s-7.04,7.19-10.73,10.61c-3.48,3.22-7.32,6.5-10.1,10.36-3.9,5.41-3.56,11.84-3.56,18.17v22.45c0,30.42,0,60.83,0,91.25v79.97c0,3.38-0.27,6.90.19,10.250.76,5.55,3.65,10.5,6.09,15.44,3.09,6.28,4.46,12.86,5.72,19.71,2.76,14.98,3.68,30.29,2.67,45.49-0.52,7.82-1.56,15.61-3.06,23.31-0.36,1.82-0.74,3.63-1.15,5.44-0.35,1.53-0.34,3.03-2.03,3.6-2.530.86-6.44-0.39-7.8-2.68-1.8-3.02-3.04-6.64-4.12-9.97-1.15-3.57-1.98-7.27-2.16-11.02-0.36-7.57-0.3-15.19-0.42-22.77-0.51-31.01-0.79-62.02-0.86-93.03s0.09-61.730.46-92.6c0.19-15.430.43-30.870.72-46.30.18-9.2-1.18-18.25-5.04-26.68-3.48-7.58-9.11-14.57-17.07-17.65-4.1-1.59-8.56-1.98-12.91-1.42-4.570.58-9.36,3.21-12.86,6.17-3.67,3.11-6.11,7.54-7.61,12.06-1.97,5.93-1.44,12.56-4.83,18.02-1.57,2.53-2.9,5-5.47,6.67-2.91,1.89-6.67,1.7-9.870.63-6.08-2.04-10.8-8.11-11.17-14.55-0.63-11.22,11.94-19.21,19.82-24.91,3.57-2.58,6.94-5.78,5.81-10.61-0.87-3.73-4.04-6.73-7.53-8.08-6.45-2.49-13.5-3.14-20.22-4.57-3.46-0.73-7.1-1.59-10.28-3.17s-5.02-5.39-4.92-8.91c0.17-5.83,5.47-9.94,10.1-12.62,4.13-2.4,8.89-4.16,13.71-4.23s9.3,1.94,11.84,6.15c1.52,2.52,2.48,5.34,4.06,7.85s3.37,4.82,5.44,6.91c3.93,3.98,8.44,6.6,13.88,7.84,5.05,1.15,10.26,1.62,15.44,1.42,9.95-0.4,20.01-3.3,28.1-9.22,3.86-2.82,7.22-6.3,9.79-10.33,3.42-5.37,6.49-11.84,7.93-18.05,1.16-5,0.85-10.18-2.42-14.35-2.51-3.19-6.21-4.68-10.01-2.88-0.580.27-0.07,1.140.50.86h0Z"/><path class="k2cls-1" d="m275.18,213.83c-2.04-29.16-1.81-58.37-1.72-87.59,0-1.72,0-3.440.01-5.17,0-1.590.36-3.66-0.05-5.2s-2.09-2.58-3.43-3.22c-2.26-1.08-4.54-0.85-7-0.77-3.520.12-7.020.38-10.530.64-6.880.51-13.8,1.08-20.70.61s-13.8-2.36-20.16-5.6c-5.17-2.63-9.59-6.56-12.69-11.47-1.5-2.38-2.69-4.95-3.56-7.63-0.68-2.08-1.91-5.24-1.27-7.40.88-3,4.69-4.85,7.17-6.31,2.71-1.6,5.82-3.1,7.9-5.53,1.68-1.95,1.97-4.270.67-6.52-1.89-3.25-6.05-3.64-9.45-3.84-2.39-0.14-4.79-0.09-7.19-0.22-2.96-0.16-5.05-1.28-7.06-3.5-3.18-3.51-3.45-8.49-4.87-12.8-0.6-1.84-1.15-3.21-2.83-4.27-1.57-0.99-3.45-1.49-5.28-1.66-3.75-0.34-7.79,1.16-8.79,5.16-0.57,2.280.44,4.16,1.91,5.84,2.24,2.55,4.15,5.39,5.68,8.42,2.8,5.56,4.16,11.73,4.42,17.930.25,5.88-0.02,12.65-1.9,18.26-0.95,2.83-2.3,5.62-3.45,8.38-1.42,3.43-3.38,6.04-6.07,8.61-2.54,2.43-5.26,4.65-7.79,7.09-1.11,1.07-1.08,1.07-1.12,2.61-0.04,1.93-0.07,3.85-0.1,5.78-0.12,7.7-0.16,15.4-0.14,23.10.07,30.67,1.05,61.32,1.67,91.970.62,30.650.88,61.34-0.47,91.97-0.16,3.7-0.35,7.41-0.57,11.11-0.11,1.990.05,4.33-0.63,6.23-0.5,1.38-1.23,2.71-1.76,4.08-2.41,6.26-3.69,12.91-4.27,19.58-0.28,3.23-0.66,6.69-0.31,9.910.41,3.820.92,7.6,1.13,11.440.39,7.160.23,14.35-0.16,21.5-0.41,7.32-1.08,14.62-1.73,21.92-0.32,3.58-0.66,7.16-0.92,10.75-0.23,3.05-1.41,6.3-4.17,7.99-2.02,1.24-5.210.87-7.470.5-2.11-0.35-4.16-1.06-6.02-2.12-3.66-2.09-6.4-5.4-8.37-9.08-4.1-7.66-5.34-16.84-5.13-25.430.33-13.6,1-27.2,1.21-40.820.44-29.890.07-59.81-1.57-89.67-0.38-6.95-0.18-14.31-2.19-21.02-1.82-6.09-4.53-11.81-5.73-18.09-2.75-14.45-1.57-29.16-0.5-43.710.54-7.23,1.02-14.480.95-21.73-0.06-6.16-0.1-12.27-2.98-17.86-2.13-4.13-5.6-9.36-10.04-11.17-2.89-1.18-5.95-1.03-8.470.91-5.53,4.27-7.05,12.7-9.22,18.93-0.77,2.2-2.4,3.92-3.52,5.96-0.86,1.56-1.51,3.38-2.78,4.64-1.11,1.11-2.62,2-3.97,2.8-4.59,2.71-9.87,4.14-15.2,4.19-10.280.11-20.55-4.81-25.92-13.74-7.36-12.23-11.42-26.12-6.62-40.120.95-2.76,1.89-5.75,4.77-6.97,1.93-0.82,4.1-0.85,6.17-0.95,2.98-0.15,6.64-0.25,8.41-3.080.99-1.59,1.77-3.990.79-5.75s-3.4-3.12-5.36-3.67c-5.1-1.43-10.470.61-15.640.47-10.64-0.29-17.52-11.65-18.13-21.27-0.31-4.880.71-9.84,3.13-14.1s6.47-7.67,10.7-10.36c7.9-5.03,17.3-8.15,24-14.91,1.53-1.54,2.87-3.27,3.94-5.16,1.21-2.15,1.89-4.51,3.01-6.7,1.32-2.59,2.61-5.2,3.51-7.97s1.2-5.61,2.13-8.31c3.67-10.59,14.9-20.1,26.45-19.96,10.430.12,21.37,1.25,30.85,5.92,4.33,2.13,8.26,5.04,11.33,8.79,1.62,1.98,3.38,4.41,4.16,6.870.73,2.29,2.3,5.30.12,7.22-0.480.430.23,1.130.710.71,1.52-1.34,1.69-3.02,1.18-4.91-0.54-2.02-1.21-3.99-2.22-5.82-2.34-4.25-5.67-7.88-9.62-10.68-8.18-5.79-18.42-7.93-28.24-8.73-5.18-0.42-10.26-0.78-15.280.81s-9.47,4.32-13.12,8-6.49,8.16-7.75,13.06c-0.77,2.99-1.29,6-2.44,8.89s-2.72,5.27-3.8,8.01c-1.92,4.9-4.56,8.76-8.77,12-3.93,3.02-8.4,5.25-12.76,7.55-8.18,4.3-16.79,9.18-20.4,18.19-3.26,8.13-2.24,17.92,2.81,25.12,2.42,3.45,5.98,6.64,10.03,8.01,5.17,1.76,10.61-0.12,15.87-0.2,1.43-0.02,2.880.09,4.260.52,1.460.46,3.86,1.61,4.49,3.12,1.23,2.98-1.2,6.09-3.94,6.83-3.660.99-7.67,0-11.21,1.63-1.650.76-2.79,2.02-3.56,3.64-1.4,2.94-2.37,6.13-2.99,9.31-1.22,6.29-0.87,12.790.77,18.97,2.71,10.16,8.28,21.1,17.7,26.47,8.34,4.76,18.8,5.57,27.74,2.07,2.31-0.9,4.5-2.08,6.53-3.510.9-0.63,2.13-1.38,2.83-2.24,1.02-1.26,1.6-3.15,2.4-4.57,1.12-1.99,2.61-3.52,3.37-5.670.6-1.7,1.13-3.42,1.7-5.13,2.1-6.34,5.9-17.83,14.77-14.2,2.89,1.18,4.91,3.87,6.73,6.31,1.92,2.58,3.52,5.44,4.45,8.53,1.03,3.44,1.02,7.13,1.12,10.69s0.05,7.31-0.09,10.96c-0.57,14.54-2.61,29.05-1.88,43.630.36,7,1.23,14.11,3.45,20.79s4.8,12.35,5.26,19.23c1.02,15.14,1.69,30.31,2.08,45.480.78,30.270.45,60.56-0.6,90.82-0.31,8.86-0.54,17.38,2.16,25.97,2.29,7.27,6.64,14.46,14.07,17.3,3.22,1.23,8.51,2.35,11.680.53,4.8-2.75,4.82-8.28,5.23-13.09,1.24-14.56,2.89-29.14,2.69-43.78-0.05-3.63-0.21-7.25-0.53-10.86s-0.95-7.34-0.83-11.08c0.23-7.19,1.15-14.4,3.28-21.290.5-1.63,1.07-3.24,1.72-4.820.56-1.37,1.41-2.69,1.67-4.150.65-3.710.47-7.790.66-11.550.39-7.850.68-15.70.87-23.550.76-30.950.13-61.92-0.6-92.86s-1.54-62.2-1.13-93.31c0.02-1.780.05-3.550.08-5.330.02-0.95-0.15-2.170.06-3.110.26-1.16,1.24-1.87,2.06-2.63,2.53-2.34,5.21-4.52,7.62-6.97,2.07-2.11,3.64-4.22,4.8-6.92,1.29-3.02,2.81-6.12,3.88-9.220.81-2.35,1.05-5.11,1.38-7.570.39-2.920.61-5.860.61-8.81,0-5.72-0.85-11.48-2.87-16.85-1.06-2.81-2.42-5.5-4.08-8.01s-5.61-5.67-5.21-8.97c0.73-6.01,9.42-6.02,13.16-3.04,1.93,1.54,2.38,4.85,2.96,7.160.49,1.990.92,4.01,1.76,5.9,1.58,3.55,4.9,6.85,8.85,7.22,4.610.44,9.76-0.44,14.15,1.3,3.99,1.58,4.46,5.75,1.52,8.49-2.55,2.38-5.88,3.86-8.82,5.71-2.2,1.38-4.91,3.12-5.71,5.75-0.56,1.860.19,4.050.66,5.850.63,2.42,1.51,4.79,2.63,7.03,2.24,4.49,5.49,8.44,9.48,11.48,10.45,7.96,23.81,9.62,36.55,9.05,7-0.31,13.97-1.09,20.97-1.31,2.93-0.09,6.51-0.25,8.56,2.37,1.01,1.290.52,3.830.52,5.39,0,2.01,0,4.02-0.02,6.03-0.05,14.52-0.16,29.040.02,43.56s0.69,29.09,1.7,43.6c0.040.64,1.050.64,1,0h0Z"/></g><g><path class="k2cls-1" d="m132.570.3c0.97,2.6,2.31,5.05,3.28,7.65,1.13,3.03,1.71,6.34,1.95,9.560.25,3.39-0.16,6.72-0.63,10.07-0.41,2.95-0.78,5.92-1.9,8.7s-2.42,4.88-4.76,6.6c-1.89,1.39-4.11,2.63-6.43,3.09-2.670.53-5.490.05-8.02,1.24-0.830.39-1.60.95-2.14,1.7-0.72,1.01-0.76,2.34-1.48,3.34-1.5,2.1-4.79,2.17-6.860.98-1.78-1.02-3.22-2.75-4.48-4.33-1.05-1.32-1.97-2.72-2.99-4.06-1.52-2-3.29-4.39-5.65-5.43-1.78-0.78-3.87-0.65-5.77-0.46-2.270.23-4.47,1.05-6.35,2.35-3.95,2.73-6.14,7.53-5.67,12.310.19,1.920.85,3.98,2.41,5.23s3.480.93,4.84-0.42c1.93-1.9,2.22-5.03,4.77-6.37,2.34-1.23,6.64-1.94,8.370.6,1.58,2.310.61,5.67-0.71,7.86-1.39,2.3-3.58,4.04-6.14,4.84-2.140.66-4.550.78-6.43,2.11-1.66,1.17-2.31,3.08-2.27,5.050.05,2.280.73,4.76,1.74,6.8s2.75,3.34,4.9,4.03,4.710.97,7.02,1c1.970.03,4.17-0.31,5.5-1.91,1.51-1.81,1.37-4.48,1.41-6.690.06-3.150.01-6.42,1.13-9.410.93-2.5,2.76-4.91,5.36-5.8,2.74-0.93,5.670.3,8.42-0.53,2.53-0.77,4.45-3.02,6.13-4.94s3.32-3.8,5.14-5.56c1.63-1.58,3.62-3.59,5.92-4.08,2.88-0.62,5.41,1.69,7.4,3.43,9.13,7.98,14.24,19.09,14.12,31.26-0.03,3.18-0.39,6.34-0.99,9.47-0.060.310.420.450.480.13,2.24-11.620.65-23.53-6.14-33.4-1.5-2.18-3.21-4.23-5.13-6.05-1.7-1.61-3.55-3.37-5.61-4.51-1.7-0.93-3.59-1.23-5.38-0.41-2.010.91-3.71,2.53-5.27,4.06-1.83,1.8-3.49,3.73-5.18,5.65-2.25,2.55-4.57,4.81-8.18,4.76-2.57-0.04-5.02-0.46-7.340.94-1.89,1.14-3.24,3.05-4.07,5.06-1.04,2.54-1.21,5.34-1.27,8.05s0.51,6.73-1.77,8.72c-1.99,1.74-5.14,1.33-7.56,1.06-2.68-0.3-5.7-0.8-7.57-2.95-1.75-2.02-2.65-5.51-2.7-8.15-0.03-1.440.29-2.87,1.28-3.96s2.42-1.57,3.81-1.92c2.3-0.58,4.52-0.98,6.49-2.39,1.77-1.27,3.18-3.04,4-5.060.76-1.88,1.15-4.20.28-6.11s-2.68-2.59-4.6-2.59c-2.07,0-4.60.58-6.11,2.07-1.89,1.85-2.22,5.46-4.96,6.43-3.32,1.18-4.89-3.32-5.06-5.77-0.2-2.860.58-5.77,2.17-8.15s4.07-4.19,6.83-5.07c2.05-0.65,4.91-0.98,7.05-0.49,2.990.7,5.19,3.78,6.9,6.120.87,1.19,1.68,2.39,2.6,3.54,2.26,2.85,5.15,6.02,9.16,5.2,1.89-0.38,3.12-1.57,3.72-3.370.5-1.5,1.15-2.56,2.6-3.29s3.13-0.86,4.75-0.94c2.48-0.13,4.66-0.5,6.89-1.63,2-1.01,4-2.34,5.45-4.07s2.39-4.08,3.06-6.2c0.88-2.78,1.17-5.77,1.54-8.660.8-6.170.68-12.49-1.52-18.39-0.97-2.6-2.31-5.04-3.28-7.65-0.11-0.3-0.59-0.17-0.480.13h0Z"/><path class="k2cls-1" d="m99.16,74.9c-0.71-0.79-1.08-1.55-1.47-2.51-0.29-0.72-0.81-1.31-1.33-1.88-1.4-1.52-3.12-2.41-5.22-2.09-0.910.14-1.80.47-2.54,1.01-0.80.57-1.14,1.27-1.62,2.09-1.16,1.97-3.92,2.59-6.03,2.66-0.320.01-0.320.51,0,0.5,1.82-0.06,3.74-0.48,5.23-1.590.63-0.47,1.08-1.02,1.43-1.720.53-1.04,1.37-1.76,2.47-2.17,2.4-0.89,4.490.02,6.12,1.870.610.690.94,1.3,1.26,2.140.310.780.79,1.42,1.34,2.030.220.240.57-0.110.35-0.35h0Z"/><path class="k2cls-1" d="m72.46,44.54c-1.57-0.64-1.97-2.76-1.95-4.260.03-1.99,1.27-3.39,2.9-4.420.79-0.5,1.66-0.84,2.42-1.380.86-0.6,1.63-1.32,2.51-1.89,1.38-0.9,3.15-1.29,4.71-1.770.97-0.3,1.95-0.56,2.92-0.88,2.17-0.72,4.4-0.56,6.66-0.37,2.410.2,4.790.71,6.91,1.9,1.99,1.11,3.68,2.66,5.31,4.23,1.78,1.72,3.31,3.41,4.54,5.57,1.06,1.86,2.44,3.32,4.38,4.27l-0.05-0.39c-2.74,2.16-6.43,4.87-10.09,3.17-2.98-1.38-3.6-5.64-5.49-8.07-1.64-2.1-3.97-3.29-6.59-3.59-2.42-0.28-5-0.31-7.40.16-5.030.99-9.72,4.17-11.52,9.12-1.75,4.82-0.58,10.63,2.94,14.37,1.46,1.55,4.08,3.55,6.28,2.3,1.18-0.67,1.83-2.2,2.51-3.310.88-1.43,1.81-3.25,3.42-4,2.2-1.03,3.69,1.34,3.05,3.28-0.59,1.76-2.53,2.65-4.16,3.15-2.820.87-5.5,1.32-7.36,3.84-3.81,5.19-1.25,11.95,1.74,16.85,1.56,2.55,3.6,4.67,6.44,5.75,2.68,1.02,5.7,1.04,8.36-0.05s5.05-3.32,6.24-6.04c1.51-3.42,1.16-7.28,1.99-10.870.46-2.02,1.29-4,2.8-5.46,1.65-1.6,3.59-1.91,5.81-1.97,3.49-0.1,6.58-1.08,9.07-3.65l-0.42-0.24c-0.64,3.22-2.72,5.58-5.64,6.96-2.31,1.09-3.85,2.34-4.08,5.03s0.82,5.67-0.55,8.22c-1.87,3.5-5.470.51-7.28-1.39-0.22-0.23-0.580.12-0.350.35,1.44,1.52,3.98,3.99,6.29,3s2.68-4.22,2.52-6.46c-0.12-1.71-0.41-3.570.18-5.230.69-1.97,2.52-2.55,4.2-3.41,2.72-1.39,4.61-3.95,5.2-6.940.05-0.23-0.23-0.43-0.42-0.24-1.18,1.23-2.59,2.19-4.19,2.79-1.790.67-3.580.64-5.460.74-2.710.14-4.9,1.27-6.43,3.55-3.66,5.44-1.01,12.91-5.59,17.95s-12.53,4.67-16.79-0.55c-3.95-4.84-7.58-13.49-2.78-18.93,2.23-2.53,5.59-2.38,8.42-3.79,1.85-0.92,3.37-2.7,2.79-4.88-0.5-1.92-2.47-2.6-4.13-1.61-0.990.59-1.74,1.56-2.37,2.51-0.95,1.43-1.97,4.28-3.71,4.83-2.960.92-5.99-2.93-7.17-5.14-1.33-2.49-1.88-5.41-1.56-8.210.69-5.98,5.5-10.22,11.17-11.56,2.75-0.65,6-0.7,8.78-0.17,3.790.71,5.79,3.52,7.37,6.79,1.27,2.63,2.62,5,5.82,5.23s6.06-1.87,8.51-3.8c0.12-0.10.08-0.33-0.05-0.39-1.15-0.56-2.18-1.32-3.01-2.3s-1.39-2.27-2.13-3.39c-1.26-1.93-3.06-3.52-4.75-5.08s-3.52-3.02-5.65-3.95-4.45-1.26-6.74-1.38c-2.12-0.12-4.03-0.19-6.050.49-1.480.5-3,0.89-4.49,1.38-1.830.59-3.23,1.31-4.75,2.5-1.73,1.36-3.91,2.06-5.34,3.79-1.72,2.08-1.64,6.71,1.2,7.860.30.120.43-0.360.13-0.48h0Z"/><path class="k2cls-1" d="m77.11,46.66c1.250.19,2.410.74,3.33,1.6s1.98,2.32,1.68,3.62c-0.27,1.17-1.26,2.18-2.14,2.92s-1.99,1.47-3.18,1.7c-0.320.06-0.180.540.130.48,1.32-0.25,2.52-1.06,3.51-1.93s2.04-2.02,2.2-3.32-0.83-2.82-1.75-3.72c-1-0.97-2.28-1.62-3.66-1.83-0.31-0.05-0.450.43-0.130.48h0Z"/><path class="k2cls-1" d="m72.85,57.56c-1.480.82-2.19,2.46-2.67,4-0.53,1.71-1.16,3.71-0.92,5.50.26,1.95,1.27,4.14,2.6,5.58s3.1,2.24,5.02,2.39c0.320.020.32-0.48,0-0.5-1.84-0.14-3.52-0.95-4.75-2.33s-2.25-3.58-2.41-5.47c-0.13-1.540.41-3.240.85-4.71s1.08-3.21,2.54-4.02c0.28-0.160.03-0.59-0.25-0.43h0Z"/><path class="k2cls-1" d="m128.63,6.79c3.21,7.67,3.53,16.69,2.03,24.8-0.6,3.22-1.27,7.16-3.97,9.31-4.29,3.42-9.59,1.91-13.36-1.44-3.25-2.89-5.57-6.73-9.13-9.3s-8.44-3.91-12.86-3.98c-2.97-0.04-6.030.78-8.9,1.48-3.30.81-6.49,2.03-9.53,3.55-2.14,1.08-4.23,2.26-5.58,4.32-1.13,1.73-1.64,3.84-1.33,5.90.24,1.60.82,3.18,2.24,4,1,0.58,2.26,1.46,3.44,1.60.320.040.32-0.46,0-0.5-1.13-0.13-2.5-1.11-3.45-1.69-1.72-1.05-2.01-4.01-1.73-5.820.83-5.3,6.51-7.57,10.95-9.27,6.01-2.31,12.82-3.88,19.18-2.35,2.330.56,4.64,1.44,6.65,2.74s3.61,3.04,5.16,4.81c2.66,3.04,5.35,6.43,9.27,7.86,3.54,1.29,7.740.39,10.3-2.43,1.89-2.07,2.49-5.35,3.02-8,1.67-8.38,1.42-17.76-1.9-25.71-0.12-0.29-0.61-0.16-0.480.13h0Z"/><path class="k2cls-1" d="m76.25,48.95c0.840.44,1.690.9,2.41,1.520.290.250.480.470.460.87-0.010.36-0.160.72-0.32,1.04-0.140.26-0.30.55-0.530.74-0.210.18-0.470.31-0.720.43-0.510.26-1.050.5-1.60.67-0.310.09-0.180.580.130.480.48-0.150.95-0.35,1.4-0.570.43-0.20.94-0.42,1.26-0.780.43-0.470.76-1.140.86-1.770.04-0.290.04-0.59-0.08-0.86-0.12-0.3-0.37-0.5-0.61-0.7-0.73-0.61-1.57-1.08-2.41-1.51-0.29-0.15-0.540.28-0.250.43h0Z"/><path class="k2cls-1" d="m71.78,55.36c-2.160.73-3.58,3.04-4.56,4.96-1.25,2.45-1.92,5.01-1.26,7.75,1.27,5.29,5.82,9.51,11.35,9.630.32,0,0.32-0.49,0-0.5-5.2-0.11-9.42-4-10.77-8.91-0.72-2.61-0.18-5.070.98-7.450.92-1.88,2.29-4.29,4.39-5.010.3-0.10.17-0.59-0.13-0.48h0Z"/><path class="k2cls-1" d="m81.54,77.55c1.660.14,3.60.39,5.14-0.40.73-0.38,1.44-1.01,2.03-1.570.72-0.69,1.26-1.62,2.09-2.19,1.67-1.13,3.420.77,4.15,2.190.84,1.63,1.87,2.81,3.6,3.540.30.120.43-0.360.13-0.48-1.09-0.46-2.03-1.19-2.69-2.18-0.43-0.64-0.69-1.36-1.16-1.98-0.76-0.98-2-2.27-3.38-1.93-0.820.2-1.430.8-1.96,1.41-0.660.76-1.3,1.46-2.09,2.09-1.73,1.38-3.75,1.19-5.84,1.01-0.32-0.03-0.320.47,0,0.5h0Z"/><path class="k2cls-1" d="m102.56,82.07c1.56,2.18,4.55,2.7,7.06,2.7,2.95,0,5.24-1.33,5.89-4.320.68-3.14-0.58-6.450.41-9.530.62-1.91,2.09-2.79,3.75-3.72,1.16-0.65,2.26-1.39,2.81-2.64s0.61-2.81,1.02-4.18c0.43-1.47,1.05-2.88,1.78-4.22,1.44-2.61,3.56-5.46,6.51-6.44,3.26-1.08,6.07,1.36,8,3.72,2.21,2.71,4.08,5.86,5,9.25,1.18,4.32,1.3,8.94,1.36,13.390.07,4.9-0.19,9.79-0.74,14.66-0.040.320.460.320.5,0,0.93-8.14,1.29-16.690.06-24.82-0.53-3.54-1.69-6.69-3.6-9.7-1.52-2.4-3.33-4.96-5.85-6.39-5.15-2.93-9.73,2.37-11.91,6.55-0.65,1.24-1.19,2.54-1.59,3.88-0.47,1.58-0.42,3.49-1.42,4.84s-2.78,1.86-4.11,2.83c-1.040.76-1.75,1.8-2.1,3.04-1,3.550.95,7.69-0.96,11.03-1.21,2.13-3.58,2.36-5.8,2.25-2.01-0.1-4.4-0.7-5.63-2.42-0.19-0.26-0.62-0.01-0.430.25h0Z"/></g></svg><text class="t-pie" x="373.5" y="376" text-anchor="middle">Nefrona</text><rect class="caja" x="510" y="108" width="390" height="88" rx="10"/><rect class="tono-alerta" x="510" y="108" width="4" height="88" rx="2"/><text class="t-caja-tit tono-alerta" x="526" y="132">1 · Glomérulo</text><text class="t-caja" x="526" y="152">Filtra el plasma por presión.</text><text class="t-caja" x="526" y="169">Sin presión de perfusión no hay filtrado.</text><rect class="caja" x="510" y="208" width="390" height="88" rx="10"/><rect class="tono-acento" x="510" y="208" width="4" height="88" rx="2"/><text class="t-caja-tit tono-acento" x="526" y="232">2 · Túbulo contorneado proximal</text><text class="t-caja" x="526" y="252">Reabsorbe la mayor parte del agua, del</text><text class="t-caja" x="526" y="269">sodio, de la glucosa y del bicarbonato.</text><rect class="caja" x="510" y="308" width="390" height="88" rx="10"/><rect class="tono-violeta" x="510" y="308" width="4" height="88" rx="2"/><text class="t-caja-tit tono-violeta" x="526" y="332">3 · Asa de Henle</text><text class="t-caja" x="526" y="352">Crea el gradiente que permite</text><text class="t-caja" x="526" y="369">concentrar la orina.</text><rect class="caja" x="510" y="408" width="390" height="88" rx="10"/><rect class="tono-ok" x="510" y="408" width="4" height="88" rx="2"/><text class="t-caja-tit tono-ok" x="526" y="432">4 · Túbulo distal y colector</text><text class="t-caja" x="526" y="452">Ajuste final de sodio, potasio y ácido,</text><text class="t-caja" x="526" y="469">bajo control hormonal.</text><line class="regla" x1="60" y1="524" x2="900" y2="524"/><text class="t-nota" x="60" y="546">El riñón filtra por presión: si la perfusión cae, el filtrado cae con ella. Por eso la oliguria es un signo precoz de hipoperfusión</text><text class="t-nota" x="60" y="562">y no un problema urinario, y por eso el riñón paga pronto el shock.</text></svg>
