<?xml version="1.0" encoding="UTF-8"?>
<svg xmlns="http://www.w3.org/2000/svg" version="1.1" xmlns:xlink="http://www.w3.org/1999/xlink" viewBox="0 0 716.8 779.4">
  <!-- Generator: Adobe Illustrator 30.5.1, SVG Export Plug-In . SVG Version: 2.1.4 Build 3)  -->
  <defs>
    <style>
      .st0 {
        fill: #3b4350;
      }

      .st1 {
        fill: #364dad;
        mix-blend-mode: multiply;
      }

      .st2 {
        isolation: isolate;
      }

      .st3 {
        fill: url(#Degradado_sin_nombre_17);
      }

      .st4 {
        fill: #367cc1;
      }
    </style>
    <linearGradient id="Degradado_sin_nombre_17" data-name="Degradado sin nombre 17" x1="300.9" y1="166.6" x2="300.9" y2="779.4" gradientUnits="userSpaceOnUse">
      <stop offset="0" stop-color="#367cc1"/>
      <stop offset="1" stop-color="#364dad"/>
    </linearGradient>
  </defs>
  <g class="st2">
    <g id="Capa_2">
      <g id="Capa_1-2">
        <g>
          <g>
            <path class="st3" d="M601.8,221.6v517.8c0,22.1-17.9,40-40,40h-85.9c-64.2,0-126.5-12.6-185.2-37.4-56.7-24-107.6-58.3-151.3-102-43.7-43.6-78-94.5-102-151.2C12.6,430.1,0,367.8,0,303.6v-77.7c0-20.3,2.7-40.1,7.9-59.3,7.7,2.1,15.5,4.3,23.2,6.4,5.1,1.4,10.2,2.7,15.4,4-4.2,15.6-6.5,31.9-6.5,48.9v77.7c0,240.7,195.2,435.9,435.9,435.9h85.9V225.9c0-2.1,0-4.2-.1-6.3,1,0,2,0,3,0,11.4-.2,22.7-3,33.7-5.7,1-.2,2-.5,3-.8.2,2.8.3,5.7.3,8.5h0Z"/>
            <path class="st1" d="M601.8,703.2v17.4c-18.6,10.6-37.8,6.9-49.3,34.8l-2.3,5.5c-1.2,2.8-5.3,2.1-5.5-.9-.1-1.9.2-3.8.6-5.8,1.1-5.3,3.1-10.3,5.9-14.7h10.6v-12.2c4.8-4,10.3-7.2,16.3-9.6,8-3.1,15.7-6.4,21.6-12.2.8-.8,1.4-1.5,2.1-2.4Z"/>
            <path class="st1" d="M601.8,505.9v27.1c-10.2,2-27.2,3-40,11.7v-29.4c11.9-8.1,28.7-13.2,40-9.5Z"/>
            <path class="st1" d="M624.4,280.2c-7.9.7-15.8.4-22.6-.8v15.7c-8.9-2.1-16.6-9.3-25.6-8.8-5.6.4-10.7,3-14.4,5.3v-12.2c-3.4,1.7-6.7,3.9-9.8,6.4l-12.1-26,21.9.8,40,1.5,8.6.3,14,17.6Z"/>
          </g>
          <g>
            <path class="st0" d="M716.8,286.3c.2.9-6,3.5-12.9,3.3-2.8,0-8.5-.2-13-4.1-4.2-3.6-3.3-7-7.1-10.5-3.7-3.4-8.7-4-12.2-4,1.1-.8,2.8-2.3,4.2-4.7,1.2-2,1.7-3.8,1.9-5,2.6,0,6.5.4,9.8,2.8,7.3,5.4,3.9,15.1,10.4,20.2,7,5.6,18.6.7,18.8,1.9h0Z"/>
            <path class="st4" d="M598.3,213.9c-11,2.7-22.3,5.5-33.7,5.7-.2,0-.4,0-.6,0l.2,8.3,35.6-13.6v-.8c-.5.1-1,.3-1.6.4Z"/>
            <path class="st0" d="M601.8,221.7h0c-1.5.2-3,.5-4.4.9-6.2,1.7-12.1,4-18,6.4-5.8,2.4-11.6,5-17.5,7.4-1.7.7-3.4,1.4-5.2,2-23.6,8.5-42.4,24.9-53.7,47-27.1,53.5,4,108.9,58.9,132v-39.9c-14.2-10.2-27.3-24.6-30.1-43.3-3-18.8,6.4-37,20.3-48.3,3.1-2.5,6.4-4.6,9.8-6.4,6-3.1,12.5-4.9,18.9-4.9s13.7,3.4,20.7,4.8h.4c6.8,1.2,14.7,1.4,22.6.8,21.8-1.8,43.9-10.2,45.5-22.6,2.3-18.9-36.3-41.8-68.1-35.9ZM627.3,246.5c-3.9,0-7.1-3-7.1-7.1s3.2-7.1,7.1-7.1,7.3,3.2,7.3,7.1-3.2,7.1-7.3,7.1Z"/>
            <path class="st0" d="M648.5,485.7c-7.5,12.4-18.5,22.4-32.2,26.9l-30.2,10c-12,4.1-24.1,8.6-33.4,17-9.7,8.6-11.4,21.5-5.1,32.7,4.6,8.1,6.4,11.8,14.2,18.1v28c-24.9-15.1-45.8-32.9-44.8-62.9,1.2-28.8,25.8-49,51.5-58.1l25.8-9.1c8-2.7,15.6-6.3,21.7-11.9,8.6-8,11.7-20.5,5.1-30.5-4.8-7-11.2-10.7-19.3-14.1v-36.3c11.9,4.6,23.3,9.4,33,17,23,17.6,29,48.5,13.7,73.2h0Z"/>
            <path class="st0" d="M633.7,671.6c-1.7,12.2-9,23.9-20.2,31.4-24.4,16.1-50.3,9-65.4,45.8l-2.9,6.9c-1.5,3.4-6.6,2.6-6.8-1.1s.3-4.8.7-7.3c4.6-21.7,20.7-37.5,41-45.6,10-3.9,19.7-8,27.1-15.3,7-7,10.2-17.1,6.1-26.1-3.4-7.8-4-12.2-11.6-17v-25.9c22.2,13.4,35.2,30.5,32,54.2h0Z"/>
          </g>
        </g>
      </g>
    </g>
  </g>
</svg>