<?xml version="1.0" encoding="UTF-8"?>
<svg id="Capa_2" xmlns="http://www.w3.org/2000/svg" version="1.1" xmlns:xlink="http://www.w3.org/1999/xlink" viewBox="0 0 716.8 779.4">
  <!-- Generator: Adobe Illustrator 30.5.1, SVG Export Plug-In . SVG Version: 2.1.4 Build 3)  -->
  <defs>
    <style>
      .st0 {
        fill: #3b4350;
      }

      .st1 {
        fill: url(#Degradado_sin_nombre_101);
      }

      .st2 {
        fill: #367cc1;
      }
    </style>
    <radialGradient id="Degradado_sin_nombre_101" data-name="Degradado sin nombre 101" cx="581.6" cy="86.7" fx="599.2" fy="70.9" r="33.2" gradientUnits="userSpaceOnUse">
      <stop offset="0" stop-color="#6dabe7"/>
      <stop offset=".6" stop-color="#367cc1"/>
      <stop offset="1" stop-color="#367cc1"/>
    </radialGradient>
  </defs>
  <g id="Capa_1-2">
    <g>
      <path class="st2" d="M601.7,221.6c-.1-8.1-.8-16.1-1.7-24.1h0c0-.2,0-.4,0-.7-1-7.6-2.4-15.2-4.1-22.7-1.8-7.4-3.9-14.8-6.3-22,0,0,0,0,0-.1-.7-2.1-1.5-4.1-2.2-6.2-10.3,1-21.8-.9-31.6-6.9-6.1-3.7-9.2-10-6.4-16.8.8-2.4,3.9-3.7,6.6-3.2,7.1,4.8,15.1,7.4,23.2,7.8-.8-1.6-1.6-3.2-2.5-4.8-7.5-1.1-14.5-4.6-19.9-10-6.7-6.7-10.4-15.5-10.4-25l.5-9.9c-20.7-20.7-55.9-47.8-82.8-59.2C436,6,406.4,0,375.9,0h-150c-30.5,0-60.1,6-87.9,17.8-26.9,11.4-51.1,27.6-71.8,48.4s-37,44.9-48.4,71.8C6,165.8,0,195.4,0,225.9v77.7c0,64.2,12.6,126.5,37.4,185.2,24,56.7,58.3,107.6,102,151.2,43.7,43.7,94.6,78,151.3,102,58.7,24.8,121,37.4,185.2,37.4h85.9c22.1,0,40-17.9,40-40V221.6h0ZM40,303.6v-77.7c0-102.7,83.2-185.9,185.9-185.9h150c102.7,0,185.9,83.2,185.9,185.9v513.6h-85.9c-240.7,0-435.9-195.2-435.9-435.9Z"/>
      <g>
        <path class="st0" d="M716.8,286.3c.2.9-6,3.5-12.9,3.3-2.8,0-8.5-.2-13-4.1-4.2-3.6-3.3-7-7.1-10.5-3.7-3.4-8.7-4-12.2-4,1.1-.8,2.8-2.3,4.2-4.7,1.2-2,1.7-3.8,1.9-5,2.6,0,6.5.4,9.8,2.8,7.3,5.4,3.9,15.1,10.4,20.2,7,5.6,18.6.7,18.8,1.9h0Z"/>
        <path class="st1" d="M575.9,116.2c-13.8-2.7-24.3-14.8-24.3-29.4l.5-5.7c2.7-13.9,14.8-24.4,29.5-24.4s29.9,13.3,29.9,30.1-13.3,29.9-29.9,29.9l-5.8-.5Z"/>
        <path class="st2" d="M587.2,145.8s0,0,0,0c-1-2.6-2-5.2-3.1-7.8-1.6-3.8-3.3-7.6-5.1-11.2,0,0,0,0,0,0,9.3.5,18.7-1.9,27.1-7.1l4.6-.7c1.2-.2,3.2,2.5,3.7,4.2,3.8,11.5-9.9,21.1-27.2,22.7Z"/>
        <path class="st2" d="M600.2,149.7l-.3,64.6-35.6,13.6-.8-31-.3-46.9c12.2,3.2,24.4,3.7,37.1-.2h-.1Z"/>
        <path class="st0" d="M601.8,221.7h0c-1.5.2-3,.5-4.4.9-6.2,1.7-12.1,4-18,6.4-5.8,2.4-11.6,5-17.5,7.4-1.7.7-3.4,1.4-5.2,2-23.6,8.5-42.4,24.9-53.7,47-27.1,53.5,4,108.9,58.9,132v-39.9c-14.2-10.2-27.3-24.6-30.1-43.3-3-18.8,6.4-37,20.3-48.3,3.1-2.5,6.4-4.6,9.8-6.4,6-3.1,12.5-4.9,18.9-4.9s13.7,3.4,20.7,4.8h.4c6.8,1.2,14.7,1.4,22.6.8,21.8-1.8,43.9-10.2,45.5-22.6,2.3-18.9-36.3-41.8-68.1-35.9ZM627.3,246.5c-3.9,0-7.1-3-7.1-7.1s3.2-7.1,7.1-7.1,7.3,3.2,7.3,7.1-3.2,7.1-7.3,7.1Z"/>
        <path class="st0" d="M648.5,485.7c-7.5,12.4-18.5,22.4-32.2,26.9l-30.2,10c-12,4.1-24.1,8.6-33.4,17-9.7,8.6-11.4,21.5-5.1,32.7,4.6,8.1,6.4,11.8,14.2,18.1v28c-24.9-15.1-45.8-32.9-44.8-62.9,1.2-28.8,25.8-49,51.5-58.1l25.8-9.1c8-2.7,15.6-6.3,21.7-11.9,8.6-8,11.7-20.5,5.1-30.5-4.8-7-11.2-10.7-19.3-14.1v-36.3c11.9,4.6,23.3,9.4,33,17,23,17.6,29,48.5,13.7,73.2h0Z"/>
        <path class="st0" d="M633.7,671.6c-1.7,12.2-9,23.9-20.2,31.4-24.4,16.1-50.3,9-65.4,45.8l-2.9,6.9c-1.5,3.4-6.6,2.6-6.8-1.1s.3-4.8.7-7.3c4.6-21.7,20.7-37.5,41-45.6,10-3.9,19.7-8,27.1-15.3,7-7,10.2-17.1,6.1-26.1-3.4-7.8-4-12.2-11.6-17v-25.9c22.2,13.4,35.2,30.5,32,54.2h0Z"/>
      </g>
    </g>
  </g>
</svg>