<?xml version="1.0" encoding="UTF-8"?>
<svg id="Capa_1" xmlns="http://www.w3.org/2000/svg" version="1.1" xmlns:xlink="http://www.w3.org/1999/xlink" viewBox="0 0 716.8 779.4">
  <!-- Generator: Adobe Illustrator 30.5.1, SVG Export Plug-In . SVG Version: 2.1.4 Build 3)  -->
  <defs>
    <style>
      .st0 {
        fill: #3b4350;
      }

      .st1 {
        fill: none;
      }

      .st2, .st3 {
        isolation: isolate;
      }

      .st4, .st5 {
        fill: #002c88;
      }

      .st6 {
        fill: url(#Degradado_sin_nombre);
      }

      .st3 {
        fill: #364dad;
        mix-blend-mode: multiply;
      }

      .st7 {
        fill: #1d2633;
      }

      .st5 {
        stroke: #367cc1;
        stroke-miterlimit: 10;
      }
    </style>
    <linearGradient id="Degradado_sin_nombre" data-name="Degradado sin nombre" x1="300.9" y1="615.4" x2="300.9" y2="2.6" gradientTransform="translate(0 782) scale(1 -1)" gradientUnits="userSpaceOnUse">
      <stop offset="0" stop-color="#367cc1"/>
      <stop offset="1" stop-color="#364dad"/>
    </linearGradient>
  </defs>
  <g class="st2">
    <g id="Capa_2">
      <g id="Capa_1-2">
        <g>
          <g>
            <path class="st6" d="M601.8,221.6v517.8c0,22.1-17.9,40-40,40h-85.9c-64.2,0-126.5-12.6-185.2-37.4-56.7-24-107.6-58.3-151.3-102-43.7-43.6-78-94.5-102-151.2C12.6,430.1,0,367.8,0,303.6v-77.7c0-20.3,2.7-40.1,7.9-59.3,7.7,2.1,15.5,4.3,23.2,6.4,5.1,1.4,10.2,2.7,15.4,4-4.2,15.6-6.5,31.9-6.5,48.9v77.7c0,240.7,195.2,435.9,435.9,435.9h85.9V225.9c0-2.1,0-4.2,0-6.3h3c11.4-.2,22.7-3,33.7-5.7,1-.2,2-.5,3-.8.2,2.8.3,5.7.3,8.5h0Z"/>
            <path class="st1" d="M601.7,221.6c0-8.1-.8-16.1-1.7-24.1h0v-.7c-1-7.6-2.4-15.2-4.1-22.7-1.8-7.4-3.9-14.8-6.3-22h0c-.7-2.2-1.5-4.2-2.2-6.3-10.3,1-21.8-.9-31.6-6.9-6.1-3.7-9.2-10-6.4-16.8.8-2.4,3.9-3.7,6.6-3.2,7.1,4.8,15.1,7.4,23.2,7.8-.8-1.6-1.6-3.2-2.5-4.8-7.5-1.1-14.5-4.6-19.9-10-6.7-6.7-10.4-15.5-10.4-25l.5-9.9c-20.7-20.7-55.9-47.8-82.8-59.2C436,6,406.4,0,375.9,0h-150c-30.5,0-60.1,6-87.9,17.8-26.9,11.4-51.1,27.6-71.8,48.4s-37,44.9-48.4,71.8C6,165.8,0,195.4,0,225.9v77.7c0,64.2,12.6,126.5,37.4,185.2,24,56.7,58.3,107.6,102,151.2,43.7,43.7,94.6,78,151.3,102,58.7,24.8,121,37.4,185.2,37.4h85.9c22.1,0,40-17.9,40-40V221.6h-.1ZM40,303.6v-77.7c0-102.7,83.2-185.9,185.9-185.9h150c102.7,0,185.9,83.2,185.9,185.9v513.6h-85.9c-240.7,0-435.9-195.2-435.9-435.9Z"/>
            <g>
              <polygon class="st4" points="596.4 150.5 599.4 739.5 598.4 739.5 595.4 150.5 596.4 150.5"/>
              <path class="st5" d="M594,150.5"/>
              <path class="st5" d="M597,739.5"/>
              <polygon class="st4" points="592.5 150.5 595.5 739.5 594.5 739.5 591.5 150.5 592.5 150.5"/>
              <path class="st5" d="M590,150.5"/>
              <path class="st5" d="M593,739.5"/>
              <polygon class="st4" points="588.5 150.5 591.5 739.5 590.5 739.5 587.5 150.5 588.5 150.5"/>
              <path class="st5" d="M586.1,150.5"/>
              <path class="st5" d="M589.1,739.5"/>
              <polygon class="st4" points="584.6 150.5 587.6 739.5 586.6 739.5 583.6 150.5 584.6 150.5"/>
              <path class="st5" d="M582.1,150.5"/>
              <path class="st5" d="M585.1,739.5"/>
              <polygon class="st4" points="580.6 150.5 583.6 739.5 582.6 739.5 579.6 150.5 580.6 150.5"/>
              <path class="st5" d="M578.2,150.5"/>
              <path class="st5" d="M581.2,739.5"/>
              <polygon class="st4" points="576.7 150.5 579.7 739.5 578.7 739.5 575.7 150.5 576.7 150.5"/>
              <path class="st5" d="M574.2,150.5"/>
              <path class="st5" d="M577.2,739.5"/>
              <polygon class="st4" points="572.8 150.5 575.8 739.5 574.8 739.5 571.8 150.5 572.8 150.5"/>
              <path class="st5" d="M570.3,150.5"/>
              <path class="st5" d="M573.3,739.5"/>
              <polygon class="st4" points="568.8 150.5 571.8 739.5 570.8 739.5 567.8 150.5 568.8 150.5"/>
              <path class="st5" d="M566.3,150.5"/>
              <path class="st5" d="M569.3,739.5"/>
              <polygon class="st4" points="564.9 150.5 567.9 739.5 566.9 739.5 563.9 150.5 564.9 150.5"/>
              <path class="st5" d="M562.4,150.5"/>
              <path class="st5" d="M565.4,739.5"/>
            </g>
            <path class="st3" d="M601.8,703.2v17.4c-18.6,10.6-37.8,6.9-49.3,34.8l-2.3,5.5c-1.2,2.8-5.3,2.1-5.5-.9,0-1.9.2-3.8.6-5.8,1.1-5.3,3.1-10.3,5.9-14.7h10.6v-12.2c4.8-4,10.3-7.2,16.3-9.6,8-3.1,15.7-6.4,21.6-12.2.8-.8,1.4-1.5,2.1-2.4h0Z"/>
            <path class="st3" d="M601.8,505.9v27.1c-10.2,2-27.2,3-40,11.7v-29.4c11.9-8.1,28.7-13.2,40-9.5h0Z"/>
            <path class="st3" d="M624.4,280.2c-7.9.7-15.8.4-22.6-.8v15.7c-8.9-2.1-16.6-9.3-25.6-8.8-5.6.4-10.7,3-14.4,5.3v-12.2c-3.4,1.7-6.7,3.9-9.8,6.4l-12.1-26,21.9.8,40,1.5,8.6.3,14,17.6v.2Z"/>
          </g>
          <g>
            <path class="st0" d="M716.8,286.3c.2.9-6,3.5-12.9,3.3-2.8,0-8.5-.2-13-4.1-4.2-3.6-3.3-7-7.1-10.5-3.7-3.4-8.7-4-12.2-4,1.1-.8,2.8-2.3,4.2-4.7,1.2-2,1.7-3.8,1.9-5,2.6,0,6.5.4,9.8,2.8,7.3,5.4,3.9,15.1,10.4,20.2,7,5.6,18.6.7,18.8,1.9h0Z"/>
            <path class="st0" d="M601.9,221.7h-.1c-1.5.2-3,.5-4.4.9-6.2,1.7-12.1,4-18,6.4-5.8,2.4-11.6,5-17.5,7.4-1.7.7-3.4,1.4-5.2,2-23.6,8.5-42.4,24.9-53.7,47-25.9,51.2,1.5,104.2,52,128.9,2.2,1.1,4.6,2.1,6.9,3.1v-39.9c-2.3-1.7-4.7-3.5-6.9-5.4-11.3-9.7-20.9-22.3-23.2-37.9-3-18.8,6.4-37,20.3-48.3,3.1-2.5,6.4-4.6,9.8-6.4,6-3.1,12.5-4.9,18.9-4.9s13.7,3.4,20.7,4.8h.4c6.8,1.2,14.7,1.4,22.6.8,21.8-1.8,43.9-10.2,45.5-22.6,2.3-18.9-36.3-41.8-68.1-35.9ZM627.3,246.5c-3.9,0-7.1-3-7.1-7.1s3.2-7.1,7.1-7.1,7.3,3.2,7.3,7.1-3.2,7.1-7.3,7.1Z"/>
            <path class="st0" d="M648.5,485.7c-7.5,12.4-18.5,22.4-32.2,26.9l-7.4,2.4-22.8,7.6c-11,3.8-22.1,7.9-31.1,15.1-.8.6-1.5,1.3-2.3,1.9-9.7,8.6-11.4,21.5-5.1,32.7,2.8,5,4.6,8.3,7.4,11.6,1.7,2,3.8,4.1,6.8,6.5v28c-2.3-1.4-4.6-2.8-6.8-4.3-21.8-14.2-38.9-31.4-38-58.6,1-23.7,17.8-41.5,38-52.2,4.4-2.3,8.9-4.3,13.5-5.9l25.8-9.1c5.1-1.7,10.1-3.8,14.6-6.6,2.5-1.5,4.9-3.3,7.1-5.3,8.6-8,11.7-20.5,5.1-30.5-3.3-4.8-7.3-8.1-12.2-10.7-2.2-1.2-4.6-2.3-7.1-3.4v-36.3c2.4.9,4.8,1.9,7.1,2.8,9.3,3.8,18.1,8.1,25.9,14.2,23,17.6,29,48.5,13.7,73.2Z"/>
            <path class="st0" d="M633.7,671.6c-1.7,12.2-9,23.9-20.2,31.4-24.4,16.1-50.3,9-65.4,45.8l-2.9,6.9c-1.5,3.4-6.6,2.6-6.8-1.1-.2-3.7.3-4.8.7-7.3,4.6-21.7,20.7-37.5,41-45.6,10-3.9,19.7-8,27.1-15.3,7-7,10.2-17.1,6.1-26.1-1.8-4-2.8-7.1-4.4-9.9-1.5-2.6-3.5-4.8-7.2-7.1v-25.9c2.5,1.5,5,3.1,7.2,4.7,17.7,12.7,27.6,28.5,24.8,49.5Z"/>
            <path class="st7" d="M561.8,590.4v28c-2.3-1.4-4.6-2.8-6.8-4.3.7-.5,1.6-1.4,2.3-2.7,1.4-2.8.4-5.8-.3-7.9-1.4-4.2-2.9-3.8-4.4-8-.8-2.1-2.1-5.7-.5-8.7.8-1.5,2.1-2.4,2.9-2.9.9,1,1.8,2,6.8,6.5Z"/>
            <path class="st7" d="M561.9,417.4c-2.3-1-4.7-2-6.9-3.1,0-2-.4-5.1-1.4-8.6-2.1-7-4.6-7.4-6-12.8-1.6-6.3-.6-14.5,4.4-18.9,1.1-.9,2.2-1.5,3-1.9,1.1.9,2.2,1.9,3.4,2.8,1.2.9,2.3,1.8,3.5,2.6v39.9Z"/>
            <path class="st7" d="M607.5,397.7c-.2,6,.9,10.4,2.1,13.4,2.2,5.8,5.2,8.1,5.8,14.4.5,5.5-1.4,7.4-1.8,7.9-1.5,1.5-3.5,1.8-4.6,1.8-1.1-.6-2.2-1.2-3.4-1.8-1.2-.6-2.4-1.1-3.7-1.6v-36.3c1.2.5,2.4.9,3.6,1.4.7.3,1.4.6,2.1.8Z"/>
            <path class="st7" d="M601.7,617.4c1.2.7,2.5,1.5,3.7,2.3.6.4,1.2.8,1.8,1.2-1.2,6.6.4,10.6,1.4,12.6,1.1,2.1,2.7,4.1,2.7,4.1,2.7,3.4,4.6,4,5.4,6.8.2.6.6,2.2-.1,3.9-1.1,2.6-4.1,3.3-4.5,3.3-1.1.2-2,.1-2.5,0-.5-1-1.2-2.2-2.2-3.4-1.9-2.4-4.1-3.9-5.6-4.8v-25.9Z"/>
          </g>
        </g>
      </g>
    </g>
  </g>
</svg>